<?xml version="1.0" encoding="UTF-8" standalone="no"?>
<!DOCTYPE svg PUBLIC "-//W3C//DTD SVG 1.1//EN"
 "http://www.w3.org/Graphics/SVG/1.1/DTD/svg11.dtd">
<!-- Generated by graphviz version 2.40.1 (20161225.0304)
 -->
<!-- Title: dependencies Pages: 1 -->
<svg width="4234pt" height="211pt"
 viewBox="0.00 0.00 4234.00 211.00" xmlns="http://www.w3.org/2000/svg" xmlns:xlink="http://www.w3.org/1999/xlink">
<g id="graph0" class="graph" transform="scale(1 1) rotate(0) translate(4 207)">
<title>dependencies</title>
<polygon fill="#ffffff" stroke="transparent" points="-4,4 -4,-207 4230,-207 4230,4 -4,4"/>
<text text-anchor="start" x="2092.0091" y="-42.4" font-family="sans-serif" font-weight="bold" font-size="14.00" fill="#000000">Legend</text>
<polygon fill="#ffffb3" stroke="transparent" points="1879,-10 1879,-30 1899,-30 1899,-10 1879,-10"/>
<text text-anchor="start" x="1902.629" y="-15.4" font-family="sans-serif" font-size="14.00" fill="#000000"> &#160;Declarations</text>
<polygon fill="#8dd3c7" stroke="transparent" points="1992,-10 1992,-30 2012,-30 2012,-10 1992,-10"/>
<text text-anchor="start" x="2015.7251" y="-15.4" font-family="sans-serif" font-size="14.00" fill="#000000"> &#160;Module</text>
<polygon fill="#80b1d3" stroke="transparent" points="2078,-10 2078,-30 2098,-30 2098,-10 2078,-10"/>
<text text-anchor="start" x="2101.7812" y="-15.4" font-family="sans-serif" font-size="14.00" fill="#000000"> &#160;Bootstrap</text>
<polygon fill="#fdb462" stroke="transparent" points="2175,-10 2175,-30 2195,-30 2195,-10 2175,-10"/>
<text text-anchor="start" x="2198.6732" y="-15.4" font-family="sans-serif" font-size="14.00" fill="#000000"> &#160;Providers</text>
<polygon fill="#fb8072" stroke="transparent" points="2271,-10 2271,-30 2291,-30 2291,-10 2271,-10"/>
<text text-anchor="start" x="2294.7258" y="-15.4" font-family="sans-serif" font-size="14.00" fill="#000000"> &#160;Exports</text>
<g id="clust1" class="cluster">
<title>cluster_CoreModule</title>
<polygon fill="none" stroke="#000000" stroke-dasharray="1,5" points="8,-70 8,-195 4218,-195 4218,-70 8,-70"/>
</g>
<g id="clust2" class="cluster">
<title>cluster_CoreModule_declarations</title>
<polygon fill="none" stroke="#000000" points="524,-78 524,-130 4210,-130 4210,-78 524,-78"/>
</g>
<g id="clust24" class="cluster">
<title>cluster_CoreModule_imports</title>
<polygon fill="none" stroke="#000000" points="154,-78 154,-130 516,-130 516,-78 154,-78"/>
</g>
<g id="clust27" class="cluster">
<title>cluster_CoreModule_providers</title>
<polygon fill="none" stroke="#000000" points="16,-78 16,-130 146,-130 146,-78 16,-78"/>
</g>
<!-- BuildCodeBasedBotComponent -->
<g id="node1" class="node">
<title>BuildCodeBasedBotComponent</title>
<polygon fill="#ffffb3" stroke="#000000" points="4202.4395,-122 4005.5605,-122 4005.5605,-86 4202.4395,-86 4202.4395,-122"/>
<text text-anchor="middle" x="4104" y="-99.8" font-family="Times,serif" font-size="14.00" fill="#000000">BuildCodeBasedBotComponent</text>
</g>
<!-- CoreModule -->
<g id="node22" class="node">
<title>CoreModule</title>
<polygon fill="#8dd3c7" stroke="#000000" points="1959.2619,-187 1956.2619,-191 1935.2619,-191 1932.2619,-187 1872.7381,-187 1872.7381,-151 1959.2619,-151 1959.2619,-187"/>
<text text-anchor="middle" x="1916" y="-164.8" font-family="Times,serif" font-size="14.00" fill="#000000">CoreModule</text>
</g>
<!-- BuildCodeBasedBotComponent&#45;&gt;CoreModule -->
<g id="edge1" class="edge">
<title>BuildCodeBasedBotComponent&#45;&gt;CoreModule</title>
<path fill="none" stroke="#000000" d="M4104,-122.3802C4104,-146.2785 4104,-185 4104,-185 4104,-185 1969.7061,-185 1969.7061,-185"/>
<polygon fill="#000000" stroke="#000000" points="1969.7062,-181.5001 1959.7061,-185 1969.7061,-188.5001 1969.7062,-181.5001"/>
</g>
<!-- BuildPipelineBasedBotComponent -->
<g id="node2" class="node">
<title>BuildPipelineBasedBotComponent</title>
<polygon fill="#ffffb3" stroke="#000000" points="3987.2715,-122 3774.7285,-122 3774.7285,-86 3987.2715,-86 3987.2715,-122"/>
<text text-anchor="middle" x="3881" y="-99.8" font-family="Times,serif" font-size="14.00" fill="#000000">BuildPipelineBasedBotComponent</text>
</g>
<!-- BuildPipelineBasedBotComponent&#45;&gt;CoreModule -->
<g id="edge2" class="edge">
<title>BuildPipelineBasedBotComponent&#45;&gt;CoreModule</title>
<path fill="none" stroke="#000000" d="M3881,-122.0908C3881,-145.1328 3881,-182 3881,-182 3881,-182 1969.3319,-182 1969.3319,-182"/>
<polygon fill="#000000" stroke="#000000" points="1969.332,-178.5001 1959.3319,-182 1969.3319,-185.5001 1969.332,-178.5001"/>
</g>
<!-- BuildbotWrapperComponent -->
<g id="node3" class="node">
<title>BuildbotWrapperComponent</title>
<polygon fill="#ffffb3" stroke="#000000" points="3756.8061,-122 3577.1939,-122 3577.1939,-86 3756.8061,-86 3756.8061,-122"/>
<text text-anchor="middle" x="3667" y="-99.8" font-family="Times,serif" font-size="14.00" fill="#000000">BuildbotWrapperComponent</text>
</g>
<!-- BuildbotWrapperComponent&#45;&gt;CoreModule -->
<g id="edge3" class="edge">
<title>BuildbotWrapperComponent&#45;&gt;CoreModule</title>
<path fill="none" stroke="#000000" d="M3667,-122.1554C3667,-144.3519 3667,-179 3667,-179 3667,-179 1969.2834,-179 1969.2834,-179"/>
<polygon fill="#000000" stroke="#000000" points="1969.2834,-175.5001 1959.2834,-179 1969.2834,-182.5001 1969.2834,-175.5001"/>
</g>
<!-- ChatPreviewNewPageComponent -->
<g id="node4" class="node">
<title>ChatPreviewNewPageComponent</title>
<polygon fill="#ffffb3" stroke="#000000" points="3559.7836,-122 3352.2164,-122 3352.2164,-86 3559.7836,-86 3559.7836,-122"/>
<text text-anchor="middle" x="3456" y="-99.8" font-family="Times,serif" font-size="14.00" fill="#000000">ChatPreviewNewPageComponent</text>
</g>
<!-- ChatPreviewNewPageComponent&#45;&gt;CoreModule -->
<g id="edge4" class="edge">
<title>ChatPreviewNewPageComponent&#45;&gt;CoreModule</title>
<path fill="none" stroke="#000000" d="M3456,-122.1686C3456,-143.498 3456,-176 3456,-176 3456,-176 1969.6085,-176 1969.6085,-176"/>
<polygon fill="#000000" stroke="#000000" points="1969.6086,-172.5001 1959.6085,-176 1969.6085,-179.5001 1969.6086,-172.5001"/>
</g>
<!-- CoreWrapperComponent -->
<g id="node5" class="node">
<title>CoreWrapperComponent</title>
<polygon fill="#ffffb3" stroke="#000000" points="3334.51,-122 3177.49,-122 3177.49,-86 3334.51,-86 3334.51,-122"/>
<text text-anchor="middle" x="3256" y="-99.8" font-family="Times,serif" font-size="14.00" fill="#000000">CoreWrapperComponent</text>
</g>
<!-- CoreWrapperComponent&#45;&gt;CoreModule -->
<g id="edge5" class="edge">
<title>CoreWrapperComponent&#45;&gt;CoreModule</title>
<path fill="none" stroke="#000000" d="M3256,-122.0267C3256,-142.7672 3256,-174 3256,-174 3256,-174 1969.4437,-174 1969.4437,-174"/>
<polygon fill="#000000" stroke="#000000" points="1969.4437,-170.5001 1959.4437,-174 1969.4437,-177.5001 1969.4437,-170.5001"/>
</g>
<!-- CreateCustomnerComponent -->
<g id="node6" class="node">
<title>CreateCustomnerComponent</title>
<polygon fill="#ffffb3" stroke="#000000" points="3159.8019,-122 2980.1981,-122 2980.1981,-86 3159.8019,-86 3159.8019,-122"/>
<text text-anchor="middle" x="3070" y="-99.8" font-family="Times,serif" font-size="14.00" fill="#000000">CreateCustomnerComponent</text>
</g>
<!-- CreateCustomnerComponent&#45;&gt;CoreModule -->
<g id="edge6" class="edge">
<title>CreateCustomnerComponent&#45;&gt;CoreModule</title>
<path fill="none" stroke="#000000" d="M3070,-122.308C3070,-142.1455 3070,-171 3070,-171 3070,-171 1969.4799,-171 1969.4799,-171"/>
<polygon fill="#000000" stroke="#000000" points="1969.4799,-167.5001 1959.4799,-171 1969.4798,-174.5001 1969.4799,-167.5001"/>
</g>
<!-- DocumentationComponent -->
<g id="node7" class="node">
<title>DocumentationComponent</title>
<polygon fill="#ffffb3" stroke="#000000" points="2962.6456,-122 2795.3544,-122 2795.3544,-86 2962.6456,-86 2962.6456,-122"/>
<text text-anchor="middle" x="2879" y="-99.8" font-family="Times,serif" font-size="14.00" fill="#000000">DocumentationComponent</text>
</g>
<!-- DocumentationComponent&#45;&gt;CoreModule -->
<g id="edge7" class="edge">
<title>DocumentationComponent&#45;&gt;CoreModule</title>
<path fill="none" stroke="#000000" d="M2879,-122.1686C2879,-141.0898 2879,-168 2879,-168 2879,-168 1969.5642,-168 1969.5642,-168"/>
<polygon fill="#000000" stroke="#000000" points="1969.5642,-164.5001 1959.5642,-168 1969.5642,-171.5001 1969.5642,-164.5001"/>
</g>
<!-- EnterpriseprofileComponent -->
<g id="node8" class="node">
<title>EnterpriseprofileComponent</title>
<polygon fill="#ffffb3" stroke="#000000" points="2777.1783,-122 2600.8217,-122 2600.8217,-86 2777.1783,-86 2777.1783,-122"/>
<text text-anchor="middle" x="2689" y="-99.8" font-family="Times,serif" font-size="14.00" fill="#000000">EnterpriseprofileComponent</text>
</g>
<!-- EnterpriseprofileComponent&#45;&gt;CoreModule -->
<g id="edge8" class="edge">
<title>EnterpriseprofileComponent&#45;&gt;CoreModule</title>
<path fill="none" stroke="#000000" d="M2689,-122.302C2689,-140.2699 2689,-165 2689,-165 2689,-165 1969.495,-165 1969.495,-165"/>
<polygon fill="#000000" stroke="#000000" points="1969.4951,-161.5001 1959.495,-165 1969.495,-168.5001 1969.4951,-161.5001"/>
</g>
<!-- FooterComponent -->
<g id="node9" class="node">
<title>FooterComponent</title>
<polygon fill="#ffffb3" stroke="#000000" points="2582.8809,-122 2465.1191,-122 2465.1191,-86 2582.8809,-86 2582.8809,-122"/>
<text text-anchor="middle" x="2524" y="-99.8" font-family="Times,serif" font-size="14.00" fill="#000000">FooterComponent</text>
</g>
<!-- FooterComponent&#45;&gt;CoreModule -->
<g id="edge9" class="edge">
<title>FooterComponent&#45;&gt;CoreModule</title>
<path fill="none" stroke="#000000" d="M2524,-122.0225C2524,-139.3734 2524,-163 2524,-163 2524,-163 1969.7259,-163 1969.7259,-163"/>
<polygon fill="#000000" stroke="#000000" points="1969.7259,-159.5001 1959.7259,-163 1969.7258,-166.5001 1969.7259,-159.5001"/>
</g>
<!-- HeaderComponent -->
<g id="node10" class="node">
<title>HeaderComponent</title>
<polygon fill="#ffffb3" stroke="#000000" points="2446.7437,-122 2325.2563,-122 2325.2563,-86 2446.7437,-86 2446.7437,-122"/>
<text text-anchor="middle" x="2386" y="-99.8" font-family="Times,serif" font-size="14.00" fill="#000000">HeaderComponent</text>
</g>
<!-- HeaderComponent&#45;&gt;CoreModule -->
<g id="edge10" class="edge">
<title>HeaderComponent&#45;&gt;CoreModule</title>
<path fill="none" stroke="#000000" d="M2386,-122.027C2386,-138.3976 2386,-160 2386,-160 2386,-160 1969.374,-160 1969.374,-160"/>
<polygon fill="#000000" stroke="#000000" points="1969.3741,-156.5001 1959.374,-160 1969.374,-163.5001 1969.3741,-156.5001"/>
</g>
<!-- PipelineTestComponent -->
<g id="node11" class="node">
<title>PipelineTestComponent</title>
<polygon fill="#ffffb3" stroke="#000000" points="2306.8187,-122 2155.1813,-122 2155.1813,-86 2306.8187,-86 2306.8187,-122"/>
<text text-anchor="middle" x="2231" y="-99.8" font-family="Times,serif" font-size="14.00" fill="#000000">PipelineTestComponent</text>
</g>
<!-- PipelineTestComponent&#45;&gt;CoreModule -->
<g id="edge11" class="edge">
<title>PipelineTestComponent&#45;&gt;CoreModule</title>
<path fill="none" stroke="#000000" d="M2231,-122.2396C2231,-137.5706 2231,-157 2231,-157 2231,-157 1969.4687,-157 1969.4687,-157"/>
<polygon fill="#000000" stroke="#000000" points="1969.4687,-153.5001 1959.4687,-157 1969.4686,-160.5001 1969.4687,-153.5001"/>
</g>
<!-- ProfileComponent -->
<g id="node12" class="node">
<title>ProfileComponent</title>
<polygon fill="#ffffb3" stroke="#000000" points="2137.9328,-122 2018.0672,-122 2018.0672,-86 2137.9328,-86 2137.9328,-122"/>
<text text-anchor="middle" x="2078" y="-99.8" font-family="Times,serif" font-size="14.00" fill="#000000">ProfileComponent</text>
</g>
<!-- ProfileComponent&#45;&gt;CoreModule -->
<g id="edge12" class="edge">
<title>ProfileComponent&#45;&gt;CoreModule</title>
<path fill="none" stroke="#000000" d="M2078,-122.0511C2078,-136.373 2078,-154 2078,-154 2078,-154 1969.413,-154 1969.413,-154"/>
<polygon fill="#000000" stroke="#000000" points="1969.4131,-150.5001 1959.413,-154 1969.413,-157.5001 1969.4131,-150.5001"/>
</g>
<!-- ReportControlsComponent -->
<g id="node13" class="node">
<title>ReportControlsComponent</title>
<polygon fill="#ffffb3" stroke="#000000" points="1999.6581,-122 1832.3419,-122 1832.3419,-86 1999.6581,-86 1999.6581,-122"/>
<text text-anchor="middle" x="1916" y="-99.8" font-family="Times,serif" font-size="14.00" fill="#000000">ReportControlsComponent</text>
</g>
<!-- ReportControlsComponent&#45;&gt;CoreModule -->
<g id="edge13" class="edge">
<title>ReportControlsComponent&#45;&gt;CoreModule</title>
<path fill="none" stroke="#000000" d="M1916,-122.1061C1916,-122.1061 1916,-140.991 1916,-140.991"/>
<polygon fill="#000000" stroke="#000000" points="1912.5001,-140.9909 1916,-150.991 1919.5001,-140.991 1912.5001,-140.9909"/>
</g>
<!-- ReportDetailsComponent -->
<g id="node14" class="node">
<title>ReportDetailsComponent</title>
<polygon fill="#ffffb3" stroke="#000000" points="1814.587,-122 1655.413,-122 1655.413,-86 1814.587,-86 1814.587,-122"/>
<text text-anchor="middle" x="1735" y="-99.8" font-family="Times,serif" font-size="14.00" fill="#000000">ReportDetailsComponent</text>
</g>
<!-- ReportDetailsComponent&#45;&gt;CoreModule -->
<g id="edge14" class="edge">
<title>ReportDetailsComponent&#45;&gt;CoreModule</title>
<path fill="none" stroke="#000000" d="M1735,-122.0511C1735,-136.373 1735,-154 1735,-154 1735,-154 1862.646,-154 1862.646,-154"/>
<polygon fill="#000000" stroke="#000000" points="1862.646,-157.5001 1872.646,-154 1862.646,-150.5001 1862.646,-157.5001"/>
</g>
<!-- ReportDisplayComponent -->
<g id="node15" class="node">
<title>ReportDisplayComponent</title>
<polygon fill="#ffffb3" stroke="#000000" points="1637.4818,-122 1474.5182,-122 1474.5182,-86 1637.4818,-86 1637.4818,-122"/>
<text text-anchor="middle" x="1556" y="-99.8" font-family="Times,serif" font-size="14.00" fill="#000000">ReportDisplayComponent</text>
</g>
<!-- ReportDisplayComponent&#45;&gt;CoreModule -->
<g id="edge15" class="edge">
<title>ReportDisplayComponent&#45;&gt;CoreModule</title>
<path fill="none" stroke="#000000" d="M1556,-122.2396C1556,-137.5706 1556,-157 1556,-157 1556,-157 1862.5756,-157 1862.5756,-157"/>
<polygon fill="#000000" stroke="#000000" points="1862.5756,-160.5001 1872.5756,-157 1862.5756,-153.5001 1862.5756,-160.5001"/>
</g>
<!-- ReportsComponent -->
<g id="node16" class="node">
<title>ReportsComponent</title>
<polygon fill="#ffffb3" stroke="#000000" points="1456.3795,-122 1331.6205,-122 1331.6205,-86 1456.3795,-86 1456.3795,-122"/>
<text text-anchor="middle" x="1394" y="-99.8" font-family="Times,serif" font-size="14.00" fill="#000000">ReportsComponent</text>
</g>
<!-- ReportsComponent&#45;&gt;CoreModule -->
<g id="edge16" class="edge">
<title>ReportsComponent&#45;&gt;CoreModule</title>
<path fill="none" stroke="#000000" d="M1394,-122.027C1394,-138.3976 1394,-160 1394,-160 1394,-160 1862.3924,-160 1862.3924,-160"/>
<polygon fill="#000000" stroke="#000000" points="1862.3924,-163.5001 1872.3924,-160 1862.3924,-156.5001 1862.3924,-163.5001"/>
</g>
<!-- RouterFragmentActiveDirective -->
<g id="node17" class="node">
<title>RouterFragmentActiveDirective</title>
<polygon fill="#ffffb3" stroke="#000000" points="1313.6559,-122 1116.3441,-122 1116.3441,-86 1313.6559,-86 1313.6559,-122"/>
<text text-anchor="middle" x="1215" y="-99.8" font-family="Times,serif" font-size="14.00" fill="#000000">RouterFragmentActiveDirective</text>
</g>
<!-- RouterFragmentActiveDirective&#45;&gt;CoreModule -->
<g id="edge17" class="edge">
<title>RouterFragmentActiveDirective&#45;&gt;CoreModule</title>
<path fill="none" stroke="#000000" d="M1215,-122.0225C1215,-139.3734 1215,-163 1215,-163 1215,-163 1862.6783,-163 1862.6783,-163"/>
<polygon fill="#000000" stroke="#000000" points="1862.6784,-166.5001 1872.6783,-163 1862.6783,-159.5001 1862.6784,-166.5001"/>
</g>
<!-- ScrollerDirective -->
<g id="node18" class="node">
<title>ScrollerDirective</title>
<polygon fill="#ffffb3" stroke="#000000" points="1098.3977,-122 985.6023,-122 985.6023,-86 1098.3977,-86 1098.3977,-122"/>
<text text-anchor="middle" x="1042" y="-99.8" font-family="Times,serif" font-size="14.00" fill="#000000">ScrollerDirective</text>
</g>
<!-- ScrollerDirective&#45;&gt;CoreModule -->
<g id="edge18" class="edge">
<title>ScrollerDirective&#45;&gt;CoreModule</title>
<path fill="none" stroke="#000000" d="M1042,-122.302C1042,-140.2699 1042,-165 1042,-165 1042,-165 1862.6582,-165 1862.6582,-165"/>
<polygon fill="#000000" stroke="#000000" points="1862.6582,-168.5001 1872.6582,-165 1862.6582,-161.5001 1862.6582,-168.5001"/>
</g>
<!-- SignupComponent -->
<g id="node19" class="node">
<title>SignupComponent</title>
<polygon fill="#ffffb3" stroke="#000000" points="967.5056,-122 846.4944,-122 846.4944,-86 967.5056,-86 967.5056,-122"/>
<text text-anchor="middle" x="907" y="-99.8" font-family="Times,serif" font-size="14.00" fill="#000000">SignupComponent</text>
</g>
<!-- SignupComponent&#45;&gt;CoreModule -->
<g id="edge19" class="edge">
<title>SignupComponent&#45;&gt;CoreModule</title>
<path fill="none" stroke="#000000" d="M907,-122.1686C907,-141.0898 907,-168 907,-168 907,-168 1862.6445,-168 1862.6445,-168"/>
<polygon fill="#000000" stroke="#000000" points="1862.6446,-171.5001 1872.6445,-168 1862.6445,-164.5001 1862.6446,-171.5001"/>
</g>
<!-- TestComponent -->
<g id="node20" class="node">
<title>TestComponent</title>
<polygon fill="#ffffb3" stroke="#000000" points="828.9357,-122 723.0643,-122 723.0643,-86 828.9357,-86 828.9357,-122"/>
<text text-anchor="middle" x="776" y="-99.8" font-family="Times,serif" font-size="14.00" fill="#000000">TestComponent</text>
</g>
<!-- TestComponent&#45;&gt;CoreModule -->
<g id="edge20" class="edge">
<title>TestComponent&#45;&gt;CoreModule</title>
<path fill="none" stroke="#000000" d="M776,-122.308C776,-142.1455 776,-171 776,-171 776,-171 1862.7027,-171 1862.7027,-171"/>
<polygon fill="#000000" stroke="#000000" points="1862.7027,-174.5001 1872.7027,-171 1862.7027,-167.5001 1862.7027,-174.5001"/>
</g>
<!-- ViewCustomnerComponent -->
<g id="node21" class="node">
<title>ViewCustomnerComponent</title>
<polygon fill="#ffffb3" stroke="#000000" points="705.5884,-122 532.4116,-122 532.4116,-86 705.5884,-86 705.5884,-122"/>
<text text-anchor="middle" x="619" y="-99.8" font-family="Times,serif" font-size="14.00" fill="#000000">ViewCustomnerComponent</text>
</g>
<!-- ViewCustomnerComponent&#45;&gt;CoreModule -->
<g id="edge21" class="edge">
<title>ViewCustomnerComponent&#45;&gt;CoreModule</title>
<path fill="none" stroke="#000000" d="M619,-122.0267C619,-142.7672 619,-174 619,-174 619,-174 1862.4756,-174 1862.4756,-174"/>
<polygon fill="#000000" stroke="#000000" points="1862.4757,-177.5001 1872.4756,-174 1862.4756,-170.5001 1862.4757,-177.5001"/>
</g>
<!-- ChatModule -->
<g id="node23" class="node">
<title>ChatModule</title>
<polygon fill="#8dd3c7" stroke="#000000" points="507.9916,-122 504.9916,-126 483.9916,-126 480.9916,-122 422.0084,-122 422.0084,-86 507.9916,-86 507.9916,-122"/>
<text text-anchor="middle" x="465" y="-99.8" font-family="Times,serif" font-size="14.00" fill="#000000">ChatModule</text>
</g>
<!-- ChatModule&#45;&gt;CoreModule -->
<g id="edge22" class="edge">
<title>ChatModule&#45;&gt;CoreModule</title>
<path fill="none" stroke="#000000" d="M465,-122.1686C465,-143.498 465,-176 465,-176 465,-176 1862.5745,-176 1862.5745,-176"/>
<polygon fill="#000000" stroke="#000000" points="1862.5745,-179.5001 1872.5745,-176 1862.5744,-172.5001 1862.5745,-179.5001"/>
</g>
<!-- MyMaterialModule -->
<g id="node24" class="node">
<title>MyMaterialModule</title>
<polygon fill="#8dd3c7" stroke="#000000" points="404.4159,-122 401.4159,-126 380.4159,-126 377.4159,-122 277.5841,-122 277.5841,-86 404.4159,-86 404.4159,-122"/>
<text text-anchor="middle" x="341" y="-99.8" font-family="Times,serif" font-size="14.00" fill="#000000">MyMaterialModule</text>
</g>
<!-- MyMaterialModule&#45;&gt;CoreModule -->
<g id="edge23" class="edge">
<title>MyMaterialModule&#45;&gt;CoreModule</title>
<path fill="none" stroke="#000000" d="M341,-122.1554C341,-144.3519 341,-179 341,-179 341,-179 1862.6446,-179 1862.6446,-179"/>
<polygon fill="#000000" stroke="#000000" points="1862.6446,-182.5001 1872.6446,-179 1862.6446,-175.5001 1862.6446,-182.5001"/>
</g>
<!-- SharedModule -->
<g id="node25" class="node">
<title>SharedModule</title>
<polygon fill="#8dd3c7" stroke="#000000" points="260.4231,-122 257.4231,-126 236.4231,-126 233.4231,-122 161.5769,-122 161.5769,-86 260.4231,-86 260.4231,-122"/>
<text text-anchor="middle" x="211" y="-99.8" font-family="Times,serif" font-size="14.00" fill="#000000">SharedModule</text>
</g>
<!-- SharedModule&#45;&gt;CoreModule -->
<g id="edge24" class="edge">
<title>SharedModule&#45;&gt;CoreModule</title>
<path fill="none" stroke="#000000" d="M211,-122.0908C211,-145.1328 211,-182 211,-182 211,-182 1862.5716,-182 1862.5716,-182"/>
<polygon fill="#000000" stroke="#000000" points="1862.5717,-185.5001 1872.5716,-182 1862.5716,-178.5001 1862.5717,-185.5001"/>
</g>
<!-- AimService -->
<g id="node26" class="node">
<title>AimService</title>
<ellipse fill="#fdb462" stroke="#000000" cx="81" cy="-104" rx="57.3185" ry="18"/>
<text text-anchor="middle" x="81" y="-99.8" font-family="Times,serif" font-size="14.00" fill="#000000">AimService</text>
</g>
<!-- AimService&#45;&gt;CoreModule -->
<g id="edge25" class="edge">
<title>AimService&#45;&gt;CoreModule</title>
<path fill="none" stroke="#000000" d="M81,-122.3802C81,-146.2785 81,-185 81,-185 81,-185 1862.4501,-185 1862.4501,-185"/>
<polygon fill="#000000" stroke="#000000" points="1862.4501,-188.5001 1872.4501,-185 1862.4501,-181.5001 1862.4501,-188.5001"/>
</g>
</g>
</svg>
