<?xml version="1.0" encoding="UTF-8"?>
<svg width="18px" height="18px" viewBox="0 0 18 18" version="1.1" xmlns="http://www.w3.org/2000/svg" xmlns:xlink="http://www.w3.org/1999/xlink">
    <!-- Generator: sketchtool 52.5 (67469) - http://www.bohemiancoding.com/sketch -->
    <title>4A68C9BE-14CA-4CD9-993C-588882D85AA0</title>
    <desc>Created with sketchtool.</desc>
    <g id="Symbols" stroke="none" stroke-width="1" fill="none" fill-rule="evenodd">
        <g id="top-bar-2v" transform="translate(-347.000000, -20.000000)">
            <g id="top-bar">
                <g id="Group-4" transform="translate(60.000000, 0.000000)">
                    <g id="analysis" transform="translate(284.000000, 17.000000)">
                        <g id="anaytics">
                            <g id="baseline-poll-24px">
                                <path d="M19,3 L5,3 C3.9,3 3,3.9 3,5 L3,19 C3,20.1 3.9,21 5,21 L19,21 C20.1,21 21,20.1 21,19 L21,5 C21,3.9 20.1,3 19,3 Z M9,17 L7,17 L7,10 L9,10 L9,17 Z M13,17 L11,17 L11,7 L13,7 L13,17 Z M17,17 L15,17 L15,13 L17,13 L17,17 Z" id="Shape" fill="#00ABD3" fill-rule="nonzero"></path>
                                <polygon id="Shape" points="0 0 24 0 24 24 0 24"></polygon>
                            </g>
                        </g>
                    </g>
                </g>
            </g>
        </g>
    </g>
</svg>