<svg xmlns="http://www.w3.org/2000/svg" width="32" height="32" viewBox="0 0 32 32">
    <g fill="none" fill-rule="nonzero">
        <circle cx="16" cy="16" r="16" fill="#2B4F70"/>
        <g transform="translate(4.444 4.889)">
            <rect width="2.667" height="5.778" y="9.333" fill="#CBCBCB" rx="1.333"/>
            <rect width="2.667" height="5.778" x="20.444" y="9.333" fill="#CBCBCB" rx="1.333"/>
            <path fill="#FFF" d="M11.556 19.49c5.584 0 10.222-.067 10.222-5.712 0-5.646-4.577-10.222-10.222-10.222-5.646 0-10.223 4.576-10.223 10.222 0 5.645 4.638 5.713 10.223 5.713z"/>
            <path fill="#00ABD3" d="M6.222 8.444H16.89c.982 0 1.778.796 1.778 1.778v6.666c-.451-.004-.922-1.175-2.105-1.175H6.222a1.778 1.778 0 0 1-1.778-1.778v-3.713c0-.982.796-1.778 1.778-1.778z"/>
            <rect width="1.333" height="1.333" x="8.444" y="11.556" fill="#FFF" rx=".667"/>
            <rect width="1.333" height="1.333" x="13.333" y="11.556" fill="#FFF" rx=".667"/>
            <path fill="#FFF" d="M12 2.59v4.077h-.889V2.59a1.334 1.334 0 1 1 .889 0z"/>
        </g>
    </g>
</svg>
