<?xml version="1.0" encoding="UTF-8"?>
<svg width="23px" height="23px" viewBox="0 0 23 23" version="1.1" xmlns="http://www.w3.org/2000/svg" xmlns:xlink="http://www.w3.org/1999/xlink">
    <!-- Generator: sketchtool 52.5 (67469) - http://www.bohemiancoding.com/sketch -->
    <title>5AC06273-3568-41BA-AB5D-FEFBCCE582E2</title>
    <desc>Created with sketchtool.</desc>
    <g id="Symbols" stroke="none" stroke-width="1" fill="none" fill-rule="evenodd">
        <g id="top-bar-2v" transform="translate(-19.000000, -17.000000)">
            <g id="top-bar">
                <g id="connect-copy" transform="translate(19.000000, 17.000000)">
                    <g id="Group">
                        <g id="Vector" transform="translate(7.349423, 2.219000)" fill="#99D5EA">
                            <g id="path10_fill-link" transform="translate(0.054139, 0.019982)">
                                <polygon id="path10_fill" points="13.2370058 7.68996838 5.49133236 -8.735754e-07 3.52805135e-06 13.141813"></polygon>
                            </g>
                        </g>
                        <g id="Vector" transform="translate(4.345922, 9.882264)" fill="#16AFD3">
                            <g id="path11_fill-link" transform="translate(0.003139, 0.045962)">
                                <polygon id="path11_fill" points="16.3005862 0 3.06358042 5.45184463 -7.05608573e-06 12.7400916 7.97688226 12.7400916 18.5549103 2.23812374"></polygon>
                            </g>
                        </g>
                        <g id="Vector" fill="#16AFD3">
                            <g id="path12_fill-link" transform="translate(0.055789, 0.000000)">
                                <polygon id="path12_fill" points="10.578045 4.37834461e-07 -3.52805135e-06 10.5019678 -3.52805135e-06 18.3640232 7.34105378 15.3799368 12.8323861 2.23812374"></polygon>
                            </g>
                        </g>
                        <g id="Vector" transform="translate(0.000000, 15.373483)" fill="#0094CE">
                            <g id="path13_fill-link" transform="translate(0.055789, 0.006690)">
                                <polygon id="path13_fill" points="4.27745639 7.28824696 7.34105378 0 -3.52805135e-06 2.9841706 -3.52805135e-06 7.28824696"></polygon>
                            </g>
                        </g>
                    </g>
                </g>
            </g>
        </g>
    </g>
</svg>