<svg xmlns="http://www.w3.org/2000/svg" width="12" height="14" viewBox="0 0 12 14">
    <g fill="none" fill-rule="evenodd">
        <path d="M-2-1h16v16H-2z"/>
        <path fill="#34BC6E" fill-rule="nonzero" d="M7.333.333H2c-.733 0-1.327.6-1.327 1.334L.667 12.333c0 .734.593 1.334 1.326 1.334H10c.733 0 1.333-.6 1.333-1.334v-8l-4-4zM6.667 5V1.333L10.333 5H6.667z"/>
        <path fill="#FFF" fill-rule="nonzero" d="M7.883 7.117A2.663 2.663 0 0 0 3.336 9a2.663 2.663 0 0 0 5.24.667h-.693A1.997 1.997 0 0 1 6 11c-1.103 0-2-.897-2-2s.897-2 2-2c.553 0 1.047.23 1.407.593L6.333 8.667h2.334V6.333l-.784.784z"/>
    </g>
</svg>
