<svg xmlns="http://www.w3.org/2000/svg" width="32" height="32" viewBox="0 0 32 32">
    <g fill="#34BC6E" fill-rule="evenodd">
        <g>
            <circle cx="16" cy="16" r="16" fill-opacity=".1"/>
            <g fill-rule="nonzero">
                <path d="M13.214 25.143a.357.357 0 0 1-.252-.105l-1.467-1.467H9.357a2.503 2.503 0 0 1-2.5-2.5v-5.5c0-1.378 1.122-2.5 2.5-2.5h3.607a.357.357 0 0 1 0 .715H9.357c-.984 0-1.786.8-1.786 1.785v5.5c0 .985.802 1.786 1.786 1.786h2.32c.147 0 .273.088.328.215l.853.852v-.71c0-.197.16-.357.357-.357h3.856c.985 0 1.786-.8 1.786-1.786v-2.464a.357.357 0 0 1 .714 0v2.464c0 1.379-1.121 2.5-2.5 2.5h-3.499v1.215a.357.357 0 0 1-.358.357z"/>
                <path d="M22.857 18.51a.357.357 0 0 1-.252-.105l-1.336-1.335a5.2 5.2 0 0 1-1.317.169h-.904a5.197 5.197 0 0 1-5.19-5.19 5.197 5.197 0 0 1 5.19-5.192h.904a5.197 5.197 0 0 1 4.627 7.546 5.24 5.24 0 0 1-1.365 1.683v2.066a.357.357 0 0 1-.357.357zm-1.483-2.198c.093 0 .184.037.252.105l.874.873v-1.378c0-.113.053-.218.142-.286a4.444 4.444 0 0 0 1.787-3.578 4.482 4.482 0 0 0-4.477-4.477h-.904a4.482 4.482 0 0 0-4.477 4.477 4.482 4.482 0 0 0 4.477 4.477h.904c.449 0 .892-.066 1.317-.197a.357.357 0 0 1 .105-.016zM16.679 18.643H9.143a.357.357 0 0 1 0-.714h7.536a.357.357 0 0 1 0 .714zM16.679 20.643a.36.36 0 0 1-.358-.357.36.36 0 0 1 .358-.357.36.36 0 0 1 .357.357.36.36 0 0 1-.357.357zM15.274 20.643H9.143a.357.357 0 0 1 0-.714h6.13a.357.357 0 0 1 0 .714zM14.357 16.643H9.143a.357.357 0 0 1 0-.714h5.214a.357.357 0 0 1 0 .714z"/>
            </g>
        </g>
        <path fill-rule="nonzero" d="M22.748 10.36a.379.379 0 0 0-.526 0l-3.286 3.207-1.73-1.689a.379.379 0 0 0-.526 0 .357.357 0 0 0 0 .514l1.993 1.945a.376.376 0 0 0 .526 0l3.55-3.464a.357.357 0 0 0 0-.514z"/>
    </g>
</svg>
