<svg xmlns="http://www.w3.org/2000/svg" width="12" height="14" viewBox="0 0 12 14">
    <g fill="none" fill-rule="evenodd">
        <path d="M-2-1h16v16H-2z"/>
        <path fill="#34BC6E" fill-rule="nonzero" d="M7.333.333l4 4v8c0 .734-.6 1.334-1.333 1.334H1.993c-.733 0-1.326-.6-1.326-1.334L.673 1.667C.673.933 1.267.333 2 .333h5.333zM4.75 8.75v.5h2.5v-.5h-2.5zM6 6.5a2.5 2.5 0 0 0 0 5 2.5 2.5 0 0 0 0-5zM6 11c-1.103 0-2-.898-2-2 0-1.102.897-2 2-2 1.102 0 2 .898 2 2 0 1.102-.898 2-2 2zm.667-6h3.666L6.667 1.333V5z"/>
    </g>
</svg>
