<?xml version="1.0" encoding="UTF-8"?>
<svg width="62px" height="66px" viewBox="0 0 62 66" version="1.1" xmlns="http://www.w3.org/2000/svg" xmlns:xlink="http://www.w3.org/1999/xlink">
    <!-- Generator: Sketch 55.2 (78181) - https://sketchapp.com -->
    <title>facilitate</title>
    <desc>Created with Sketch.</desc>
    <g id="Mockup" stroke="none" stroke-width="1" fill="none" fill-rule="evenodd">
        <g id="Landing-page" transform="translate(-124.000000, -556.000000)">
            <g id="facilitate" transform="translate(124.000000, 556.000000)">
                <circle id="Oval-Copy-3" fill-opacity="0.853861" fill="#CCDADD" cx="31" cy="31" r="31"></circle>
                <g id="headset" transform="translate(31.000000, 30.000000) scale(-1, 1) translate(-31.000000, -30.000000) translate(7.000000, 6.000000)">
                    <path d="M8.53125,18.375 C8.53125,9.85303125 15.4780312,2.8125 24,2.8125 C32.5219687,2.8125 39.46875,9.85303125 39.46875,18.375 L39.46875,21.1875 C39.46875,21.404625 39.5240625,21.6034688 39.608625,21.7855312 L42.28125,21.1875 L42.28125,18.375 C42.28125,8.30615625 34.0688437,0 24,0 C13.9311562,0 5.71875,8.30615625 5.71875,18.375 L5.71875,21.1875 L8.53125,20.3385 L8.53125,18.375 Z" id="Path" fill="#FFFFFF"></path>
                    <path d="M35.25,45.1875 L26.8125,45.1875 C26.0352187,45.1875 25.40625,44.5585313 25.40625,43.78125 C25.40625,43.0039687 26.0352187,42.375 26.8125,42.375 L35.25,42.375 C36.025875,42.375 36.65625,41.744625 36.65625,40.96875 L36.65625,38.15625 C36.65625,37.3789687 37.2852187,36.75 38.0625,36.75 C38.8397813,36.75 39.46875,37.3789687 39.46875,38.15625 L39.46875,40.96875 C39.46875,43.2950625 37.5763125,45.1875 35.25,45.1875 Z" id="Path" fill="#FFFFFF"></path>
                    <path d="M24,39.5625 C21.6655313,39.5625 19.78125,41.4467813 19.78125,43.78125 C19.78125,46.1155313 21.6655313,48 24,48 C26.3344687,48 28.21875,46.1155313 28.21875,43.78125 C28.21875,41.4467813 26.3344687,39.5625 24,39.5625 Z" id="Path" fill="#2C3370"></path>
                    <path d="M43.78125,19.78125 L40.875,19.78125 C40.0977187,19.78125 39.46875,20.4102187 39.46875,21.1875 L39.46875,35.34375 C39.46875,36.1210313 40.0977187,36.75 40.875,36.75 L43.78125,36.75 C46.1075625,36.75 48,34.8575625 48,32.53125 L48,24 C48,21.6736875 46.1075625,19.78125 43.78125,19.78125 Z" id="Path" fill="#2B4F70"></path>
                    <path d="M7.125,19.78125 L4.21875,19.78125 C1.8924375,19.78125 0,21.6736875 0,24 L0,32.53125 C0,34.8575625 1.8924375,36.75 4.21875,36.75 L7.125,36.75 C7.90228125,36.75 8.53125,36.1210313 8.53125,35.34375 L8.53125,21.1875 C8.53125,20.4102187 7.90228125,19.78125 7.125,19.78125 Z" id="Path" fill="#2B4F70"></path>
                    <path d="M9.9375,39.5625 C7.6111875,39.5625 5.71875,37.6700625 5.71875,35.34375 L5.71875,21.1875 C5.71875,18.8611875 7.6111875,16.96875 9.9375,16.96875 C12.2638125,16.96875 14.15625,18.8611875 14.15625,21.1875 L14.15625,35.34375 C14.15625,37.6700625 12.2638125,39.5625 9.9375,39.5625 Z" id="Path" fill="#125C9F"></path>
                    <path d="M38.0625,39.5625 C35.7361875,39.5625 33.84375,37.6700625 33.84375,35.34375 L33.84375,21.1875 C33.84375,18.8611875 35.7361875,16.96875 38.0625,16.96875 C40.3888125,16.96875 42.28125,18.8611875 42.28125,21.1875 L42.28125,35.34375 C42.28125,37.6700625 40.3888125,39.5625 38.0625,39.5625 Z" id="Path" fill="#125C9F"></path>
                </g>
                <circle id="Oval" fill="#125C9F" cx="46" cy="57" r="9"></circle>
                <g id="settings-(2)" transform="translate(40.000000, 51.000000)" fill="#FFFFFF" fill-rule="nonzero">
                    <path d="M11.589,4.84615385 L10.4233846,4.84615385 C9.819,4.84615385 9.51646154,4.11530769 9.94361538,3.68815385 L10.7679231,2.86384615 C10.9283077,2.70346154 10.9283077,2.44315385 10.7679231,2.28276923 L9.71723077,1.23207692 C9.55684615,1.07169231 9.29653846,1.07169231 9.13615385,1.23207692 L8.31184615,2.05638462 C7.88446154,2.48353846 7.15384615,2.181 7.15384615,1.57661538 L7.15384615,0.411 C7.15384615,0.183923077 6.96992308,0 6.74284615,0 L5.25692308,0 C5.03007692,0 4.84615385,0.183923077 4.84615385,0.411 L4.84615385,1.57684615 C4.84615385,2.18123077 4.11553846,2.48376923 3.68815385,2.05661538 L2.86384615,1.23207692 C2.70346154,1.07169231 2.44315385,1.07169231 2.28276923,1.23207692 L1.23207692,2.28276923 C1.07169231,2.44315385 1.07169231,2.70346154 1.23207692,2.86384615 L2.05638462,3.68815385 C2.48376923,4.11530769 2.181,4.84615385 1.57661538,4.84615385 L0.411,4.84615385 C0.183923077,4.84615385 0,5.03007692 0,5.25715385 L0,6.74307692 C0,6.96992308 0.183923077,7.15384615 0.411,7.15384615 L1.57661538,7.15384615 C2.181,7.15384615 2.48353846,7.88469231 2.05638462,8.31184615 L1.23207692,9.13615385 C1.07169231,9.29676923 1.07169231,9.55684615 1.23207692,9.71723077 L2.28276923,10.7679231 C2.44315385,10.9283077 2.70346154,10.9283077 2.86384615,10.7679231 L3.68815385,9.94361538 C4.11553846,9.51623077 4.84615385,9.819 4.84615385,10.4233846 L4.84615385,11.589 C4.84615385,11.8160769 5.03007692,12 5.25715385,12 L6.74307692,12 C6.96992308,12 7.15384615,11.8160769 7.15384615,11.589 L7.15384615,10.4233846 C7.15384615,9.819 7.88446154,9.51623077 8.31184615,9.94361538 L9.13615385,10.7679231 C9.29653846,10.9283077 9.55684615,10.9283077 9.71723077,10.7679231 L10.7679231,9.71723077 C10.9283077,9.55684615 10.9283077,9.29653846 10.7679231,9.13615385 L9.94361538,8.31184615 C9.51623077,7.88469231 9.819,7.15384615 10.4233846,7.15384615 L11.589,7.15384615 C11.8160769,7.15384615 12,6.96992308 12,6.74284615 L12,5.25692308 C12,5.03007692 11.8160769,4.84615385 11.589,4.84615385 Z M6,7.84615385 C4.98046154,7.84615385 4.15384615,7.01953846 4.15384615,6 C4.15384615,4.98046154 4.98046154,4.15384615 6,4.15384615 C7.01953846,4.15384615 7.84615385,4.98046154 7.84615385,6 C7.84615385,7.01953846 7.01953846,7.84615385 6,7.84615385 Z" id="Shape"></path>
                </g>
            </g>
        </g>
    </g>
</svg>