<svg xmlns="http://www.w3.org/2000/svg" width="62" height="66" viewBox="0 0 62 66">
    <g fill="none" fill-rule="evenodd">
        <circle cx="31" cy="31" r="31" fill="#CCDADD" fill-opacity=".854"/>
        <path fill="#FFF" d="M46.469 24.375c0-8.522-6.947-15.563-15.469-15.563-8.522 0-15.469 7.041-15.469 15.563v2.813c0 .217-.055.415-.14.598l-2.672-.599v-2.812C12.719 14.306 20.93 6 31 6c10.069 0 18.281 8.306 18.281 18.375v2.813l-2.812-.85v-1.963zM19.75 51.188h8.438a1.405 1.405 0 1 0 0-2.813H19.75c-.776 0-1.406-.63-1.406-1.406v-2.813a1.405 1.405 0 1 0-2.813 0v2.813a4.223 4.223 0 0 0 4.219 4.218z"/>
        <path fill="#2C3370" d="M31 45.563a4.213 4.213 0 0 1 4.219 4.218A4.213 4.213 0 0 1 31 54a4.213 4.213 0 0 1-4.219-4.219A4.213 4.213 0 0 1 31 45.563zM11.219 25.781h2.906c.777 0 1.406.63 1.406 1.407v14.156c0 .777-.629 1.406-1.406 1.406h-2.906A4.223 4.223 0 0 1 7 38.531V30a4.223 4.223 0 0 1 4.219-4.219zM47.875 25.781h2.906A4.223 4.223 0 0 1 55 30v8.531a4.223 4.223 0 0 1-4.219 4.219h-2.906a1.405 1.405 0 0 1-1.406-1.406V27.187c0-.777.629-1.406 1.406-1.406z"/>
        <path fill="#39449A" d="M45.063 45.563a4.223 4.223 0 0 0 4.218-4.22V27.188a4.223 4.223 0 0 0-4.218-4.218 4.223 4.223 0 0 0-4.22 4.218v14.157a4.223 4.223 0 0 0 4.22 4.218zM16.938 45.563a4.223 4.223 0 0 0 4.218-4.22V27.188a4.223 4.223 0 0 0-4.218-4.218 4.223 4.223 0 0 0-4.22 4.218v14.157a4.223 4.223 0 0 0 4.22 4.218z"/>
        <circle cx="46" cy="57" r="9" fill="#39449A"/>
        <g fill="#FFF" fill-rule="nonzero">
            <path d="M51.589 55.846h-1.166a.678.678 0 0 1-.48-1.158l.825-.824c.16-.16.16-.42 0-.581l-1.05-1.05a.411.411 0 0 0-.582 0l-.824.823a.678.678 0 0 1-1.158-.48v-1.165a.41.41 0 0 0-.411-.411h-1.486a.41.41 0 0 0-.41.411v1.166c0 .604-.731.907-1.159.48l-.824-.825a.411.411 0 0 0-.581 0l-1.05 1.05c-.161.161-.161.421 0 .582l.823.824a.678.678 0 0 1-.48 1.158h-1.165a.41.41 0 0 0-.411.411v1.486c0 .227.184.41.411.41h1.166c.604 0 .907.732.48 1.159l-.825.824c-.16.16-.16.42 0 .581l1.05 1.05c.161.161.421.161.582 0l.824-.823a.678.678 0 0 1 1.158.48v1.165a.41.41 0 0 0 .411.411h1.486a.41.41 0 0 0 .41-.411v-1.166c0-.604.731-.907 1.159-.48l.824.825c.16.16.42.16.581 0l1.05-1.05c.161-.161.161-.421 0-.582l-.823-.824a.678.678 0 0 1 .48-1.158h1.165a.41.41 0 0 0 .411-.411v-1.486a.41.41 0 0 0-.411-.41zm-5.589 3a1.846 1.846 0 1 1 0-3.692 1.846 1.846 0 0 1 0 3.692z"/>
        </g>
    </g>
</svg>
