<?xml version="1.0" encoding="UTF-8"?>
<svg width="24px" height="24px" viewBox="0 0 24 24" version="1.1" xmlns="http://www.w3.org/2000/svg" xmlns:xlink="http://www.w3.org/1999/xlink">
    <!-- Generator: sketchtool 53.2 (72643) - https://sketchapp.com -->
    <title>33B13EAC-F587-4372-9AFF-38C71AB351AE</title>
    <desc>Created with sketchtool.</desc>
    <g id="Bot-creation" stroke="none" stroke-width="1" fill="none" fill-rule="evenodd">
        <g id="Create-page-1" transform="translate(-132.000000, -388.000000)" fill="#FFFFFF" fill-rule="nonzero">
            <g id="gear-(1)" transform="translate(144.000000, 400.000000) scale(1, -1) translate(-144.000000, -400.000000) translate(132.000000, 388.000000)">
                <path d="M17.8107778,15.6166667 L16.8914444,14.3905 C16.9894261,14.188589 17.0747574,13.9807806 17.1469444,13.7682778 L18.6663333,13.5512778 C18.8576909,13.5238269 18.9998325,13.359983 19,13.1666667 L19,10.8333333 C19.0000258,10.6398693 18.857837,10.4758052 18.6663333,10.4483333 L17.1469444,10.2313333 C17.0747725,10.0188248 16.9894408,9.8110155 16.8914444,9.60911111 L17.8107778,8.38333333 C17.9267359,8.22867363 17.9114951,8.0123203 17.775,7.87544444 L16.1245556,6.225 C15.9876797,6.08850489 15.7713264,6.07326407 15.6166667,6.18922222 L14.3901111,7.10855556 C14.1882067,7.01055924 13.9803974,6.92522753 13.7678889,6.85305556 L13.5508889,5.33366667 C13.5234592,5.14245507 13.3598353,5.00036063 13.1666667,5 L10.8333333,5 C10.6398693,4.9999742 10.4758052,5.14216303 10.4483333,5.33366667 L10.2313333,6.85305556 C10.0188248,6.92522753 9.8110155,7.01055924 9.60911111,7.10855556 L8.38333333,6.18922222 C8.22867363,6.07326407 8.0123203,6.08850489 7.87544444,6.225 L6.225,7.87544444 C6.08850489,8.0123203 6.07326407,8.22867363 6.18922222,8.38333333 L7.10855556,9.60988889 C7.01055924,9.81179327 6.92522753,10.0196026 6.85305556,10.2321111 L5.33366667,10.4491111 C5.14245507,10.4765408 5.00036063,10.6401647 5,10.8333333 L5,13.1666667 C4.9999742,13.3601307 5.14216303,13.5241948 5.33366667,13.5516667 L6.85305556,13.7686667 C6.92524259,13.9811695 7.01057392,14.1889779 7.10855556,14.3908889 L6.18922222,15.6166667 C6.07326407,15.7713264 6.08850489,15.9876797 6.225,16.1245556 L7.87544444,17.775 C8.0123203,17.9114951 8.22867363,17.9267359 8.38333333,17.8107778 L9.6095,16.8914444 C9.81141095,16.9894261 10.0192194,17.0747574 10.2317222,17.1469444 L10.4487222,18.6663333 C10.4761731,18.8576909 10.640017,18.9998325 10.8333333,19 L13.1666667,19 C13.3601307,19.0000258 13.5241948,18.857837 13.5516667,18.6663333 L13.7686667,17.1469444 C13.9811695,17.0747574 14.1889779,16.9894261 14.3908889,16.8914444 L15.6166667,17.8107778 C15.7713264,17.9267359 15.9876797,17.9114951 16.1245556,17.775 L17.775,16.1245556 C17.9114951,15.9876797 17.9267359,15.7713264 17.8107778,15.6166667 Z M15.8134444,16.9863333 L14.6619444,16.1222222 C14.5398392,16.030592 14.3754158,16.01888 14.2415556,16.0922778 C13.9453668,16.253863 13.6323952,16.3825726 13.3082222,16.4761111 C13.1617542,16.5188079 13.0537815,16.6432047 13.0321111,16.7942222 L12.8295,18.2222222 L11.1705,18.2222222 L10.9671111,16.795 C10.9454408,16.6439824 10.837468,16.5195857 10.691,16.4768889 C10.366827,16.3833503 10.0538555,16.2546408 9.75766667,16.0930556 C9.62380643,16.0196578 9.45938301,16.0313697 9.33727778,16.123 L8.18577778,16.9863333 L7.01288889,15.8134444 L7.87622222,14.6619444 C7.96785247,14.5398392 7.97956441,14.3754158 7.90616667,14.2415556 C7.74458141,13.9453668 7.61587187,13.6323952 7.52233333,13.3082222 C7.47963652,13.1617542 7.35523978,13.0537815 7.20422222,13.0321111 L5.77777778,12.8295 L5.77777778,11.1705 L7.205,10.9671111 C7.35601756,10.9454408 7.4804143,10.837468 7.52311111,10.691 C7.61655173,10.3667335 7.7454017,10.0537377 7.90733333,9.75766667 C7.9806193,9.62373154 7.96875498,9.45930431 7.877,9.33727778 L7.01366667,8.18577778 L8.18655556,7.01288889 L9.33805556,7.87622222 C9.46008208,7.96797721 9.62450932,7.97984152 9.75844444,7.90655556 C10.0545154,7.74462393 10.3675113,7.61577395 10.6917778,7.52233333 C10.8382458,7.47963652 10.9462185,7.35523978 10.9678889,7.20422222 L11.1705,5.77777778 L12.8295,5.77777778 L13.0328889,7.205 C13.0545592,7.35601756 13.162532,7.4804143 13.309,7.52311111 C13.6332665,7.61655173 13.9462623,7.7454017 14.2423333,7.90733333 C14.3762685,7.9806193 14.5406957,7.96875498 14.6627222,7.877 L15.8142222,7.01366667 L16.9871111,8.18655556 L16.1222222,9.33805556 C16.0304672,9.46008208 16.0186029,9.62450932 16.0918889,9.75844444 C16.2538205,10.0545154 16.3826705,10.3675113 16.4761111,10.6917778 C16.5188079,10.8382458 16.6432047,10.9462185 16.7942222,10.9678889 L18.2214444,11.1712778 L18.2214444,12.8302778 L16.7942222,13.0336667 C16.6432047,13.055337 16.5188079,13.1633097 16.4761111,13.3097778 C16.3825726,13.6339508 16.253863,13.9469223 16.0922778,14.2431111 C16.01888,14.3769713 16.030592,14.5413948 16.1222222,14.6635 L16.9855556,15.815 L15.8134444,16.9863333 Z" id="Shape"></path>
                <path d="M12,9 C10.3431458,9 9,10.3431458 9,12 C9,13.6568542 10.3431458,15 12,15 C13.6568542,15 15,13.6568542 15,12 C14.99814,10.3439168 13.6560832,9.00185996 12,9 Z M12,14.25 C10.7573593,14.25 9.75,13.2426407 9.75,12 C9.75,10.7573593 10.7573593,9.75 12,9.75 C13.2426407,9.75 14.25,10.7573593 14.25,12 C14.2487597,13.2421266 13.2421266,14.2487597 12,14.25 L12,14.25 Z" id="Shape"></path>
                <path d="M21.9898835,19.9917469 C21.5983606,19.991825 21.2155977,20.107641 20.8897095,20.3246365 L19.6188946,19.053422 C23.3121058,15.0763104 23.3121058,8.92368958 19.6188946,4.946578 L20.8897095,3.67536353 C21.7478603,4.24335643 22.8967307,4.06908995 23.5478438,3.27216428 C24.1989568,2.47523861 24.1406725,1.31468913 23.4129917,0.587008328 C22.6853109,-0.140672478 21.5247614,-0.198956817 20.7278357,0.452156223 C19.9309101,1.10326926 19.7566436,2.25213973 20.3246365,3.11029052 L19.053422,4.38110536 C15.0763104,0.687894175 8.92368958,0.687894175 4.946578,4.38110536 L3.67536353,3.11029052 C4.24335643,2.25213973 4.06908995,1.10326926 3.27216428,0.452156223 C2.47523861,-0.198956817 1.31468913,-0.140672478 0.587008328,0.587008328 C-0.140672478,1.31468913 -0.198956817,2.47523861 0.452156223,3.27216428 C1.10326926,4.06908995 2.25213973,4.24335643 3.11029052,3.67536353 L4.38110536,4.946578 C0.687894175,8.92368958 0.687894175,15.0763104 4.38110536,19.053422 L3.11029052,20.3246365 C2.25213973,19.7566436 1.10326926,19.9309101 0.452156223,20.7278357 C-0.198956817,21.5247614 -0.140672478,22.6853109 0.587008328,23.4129917 C1.31468913,24.1406725 2.47523861,24.1989568 3.27216428,23.5478438 C4.06908995,22.8967307 4.24335643,21.7478603 3.67536353,20.8897095 L4.946578,19.6188946 C8.92368958,23.3121058 15.0763104,23.3121058 19.053422,19.6188946 L20.3246365,20.8897095 C19.8204623,21.6540939 19.9003843,22.6633593 20.5185808,23.3388651 C21.1367774,24.014371 22.1350224,24.183223 22.9409937,23.7486135 C23.746965,23.3140041 24.1543759,22.3871706 23.9296463,21.4994929 C23.7049166,20.6118152 22.9055655,19.9904926 21.9898835,19.9917469 Z M21.9898835,0.809636104 C22.6520077,0.809636104 23.1887654,1.34639382 23.1887654,2.00851803 C23.1887654,2.67064223 22.6520077,3.20739996 21.9898835,3.20739996 C21.3277593,3.20739996 20.7910015,2.67064223 20.7910015,2.00851803 C20.7910015,1.34639382 21.3277593,0.809636104 21.9898835,0.809636104 Z M2.00851803,3.20739996 C1.34639382,3.20739996 0.809636104,2.67064223 0.809636104,2.00851803 C0.809636104,1.34639382 1.34639382,0.809636104 2.00851803,0.809636104 C2.67064223,0.809636104 3.20739996,1.34639382 3.20739996,2.00851803 C3.20739996,2.32648129 3.08108954,2.63142159 2.85625557,2.85625557 C2.63142159,3.08108954 2.32648129,3.20739996 2.00851803,3.20739996 Z M2.00851803,23.1887654 C1.34639382,23.1887654 0.809636104,22.6520077 0.809636104,21.9898835 C0.809636104,21.3277593 1.34639382,20.7910015 2.00851803,20.7910015 C2.67064223,20.7910015 3.20739996,21.3277593 3.20739996,21.9898835 C3.20739996,22.6520077 2.67064223,23.1887654 2.00851803,23.1887654 Z M11.9992007,21.5902562 C9.5938588,21.5918095 7.27643415,20.6860459 5.50965288,19.0538216 L6.28732762,18.2761469 L5.72225461,17.7110739 L4.94457987,18.4887486 C1.56257161,14.8233296 1.56257161,9.17507186 4.94457987,5.50965288 L5.72225461,6.28732762 L6.28732762,5.72225461 L5.50965288,4.94457987 C9.17507186,1.56257161 14.8233296,1.56257161 18.4887486,4.94457987 L17.7110739,5.72225461 L18.2761469,6.28732762 L19.0538216,5.50965288 C22.4358299,9.17507186 22.4358299,14.8233296 19.0538216,18.4887486 L18.2761469,17.7110739 L17.7110739,18.2761469 L18.4887486,19.0538216 C16.7219673,20.6860459 14.4045427,21.5918095 11.9992007,21.5902562 L11.9992007,21.5902562 Z M21.9898835,23.1887654 C21.3277593,23.1887654 20.7910015,22.6520077 20.7910015,21.9898835 C20.7910015,21.3277593 21.3277593,20.7910015 21.9898835,20.7910015 C22.6520077,20.7910015 23.1887654,21.3277593 23.1887654,21.9898835 C23.1887654,22.6520077 22.6520077,23.1887654 21.9898835,23.1887654 Z" id="Shape"></path>
            </g>
        </g>
    </g>
</svg>