<?xml version="1.0" encoding="UTF-8"?>
<svg width="24px" height="36px" viewBox="0 0 24 36" version="1.1" xmlns="http://www.w3.org/2000/svg" xmlns:xlink="http://www.w3.org/1999/xlink">
    <!-- Generator: sketchtool 53.2 (72643) - https://sketchapp.com -->
    <title>4387E7A0-55BB-4E6F-A96C-B13DAD9AA936</title>
    <desc>Created with sketchtool.</desc>
    <g id="Bot-creation" stroke="none" stroke-width="1" fill="none" fill-rule="evenodd">
        <g id="Create-page-1" transform="translate(-133.000000, -219.000000)" fill="#FFFFFF" fill-rule="nonzero">
            <g id="id-card-(1)" transform="translate(133.000000, 219.000000)">
                <path d="M22.2,2.3994213 L15,2.3994213 L16.08,0.959396494 C16.2792,0.694791937 16.2252,0.318585458 15.96,0.119982037 C15.6954,-0.0786213835 15.3192,-0.0252204637 15.1206,0.239984104 L13.5,2.3994213 L10.5708,2.3994213 L9.5364,0.331185675 C9.3882,0.0347805697 9.0276,-0.0840214765 8.7312,0.0629810554 C8.4348,0.211183608 8.3148,0.571789819 8.463,0.868194924 L9.2292,2.3994213 L1.8,2.3994213 C0.8076,2.3994213 0,3.20703521 0,4.1994523 L0,34.199969 C0,35.1923861 0.8076,36 1.8,36 L22.2,36 C23.1924,36 24,35.1923861 24,34.199969 L24,4.1994523 C24,3.20703521 23.1924,2.3994213 22.2,2.3994213 Z M1.8,3.59944196 L9.8292,3.59944196 L10.4292,4.79946263 C9.9252,5.23987022 9.6,5.87888122 9.6,6.59949363 C9.6,7.92311643 10.6764,8.99953497 12,8.99953497 C13.3236,8.99953497 14.4,7.92311643 14.4,6.59949363 C14.4,5.27587084 13.3236,4.1994523 12,4.1994523 C11.8278,4.1994523 11.6604,4.21925264 11.4984,4.25405324 L11.1708,3.59944196 L22.2,3.59944196 C22.5312,3.59944196 22.8,3.86824659 22.8,4.1994523 L22.8,23.9997933 L17.9112,23.9997933 C17.7282,23.2899811 17.2542,22.6833706 16.5852,22.3485649 L14.4,21.2325457 L14.4,21.0003417 C15.3768,20.4669325 16.0638,19.5885173 16.4472,18.3818966 C17.0286,18.0734913 17.4,17.4728809 17.4,16.7996693 L17.4,16.199659 C17.4,15.6440494 17.1414,15.1286405 16.7094,14.7902347 C16.335,12.5221956 14.7522,11.3725758 12,11.3725758 C11.8698,11.3725758 11.7426,11.3773759 11.6184,11.3869761 C11.1006,11.4271768 10.341,11.3851761 9.684,10.9429684 C9.4386,10.7773656 9.2532,10.6165628 9.135,10.4671602 C8.9334,10.2091558 8.595,10.1191543 8.2938,10.2433564 C7.9926,10.3669585 7.8156,10.6681637 7.8534,10.9915693 C7.8786,11.2159731 7.9164,11.4769776 7.9734,11.7631826 C8.0892,12.3481926 8.0892,12.3481926 7.9266,12.6979987 C7.8654,12.830601 7.7898,12.9920037 7.701,13.2098075 C7.5024,13.6964159 7.3614,14.229225 7.2804,14.7980348 C6.8544,15.1364407 6.6,15.6494495 6.6,16.199659 L6.6,16.7996693 C6.6,17.4728809 6.9714,18.0734913 7.5528,18.3818966 C7.9362,19.5891174 8.6232,20.4675325 9.6,21.0003417 L9.6,21.2259455 L7.3386,22.3407647 C6.6924,22.6929708 6.2418,23.2995813 6.0744,23.9997933 L1.2,23.9997933 L1.2,4.1994523 C1.2,3.86824659 1.4688,3.59944196 1.8,3.59944196 Z M10.9992,5.94008228 L11.463,6.86769825 C11.5686,7.07830188 11.7804,7.19950397 12.0006,7.19950397 C12.0906,7.19950397 12.1824,7.17910362 12.2682,7.13650288 C12.5646,6.98830033 12.6846,6.62769412 12.5364,6.33128901 L12.0744,5.4072731 C12.7008,5.44627377 13.2,5.96348268 13.2,6.59949363 C13.2,7.26130503 12.6618,7.7995143 12,7.7995143 C11.3382,7.7995143 10.8,7.26130503 10.8,6.59949363 C10.8,6.35588944 10.8738,6.12968554 10.9992,5.94008228 Z M10.206,22.2651634 C10.5672,22.0887604 10.8,21.714954 10.8,21.312347 L10.8,20.2305284 L10.4376,20.0745257 C9.5274,19.682119 8.9358,18.9339061 8.6286,17.7860863 L8.5428,17.4662808 L8.2272,17.3678791 C7.9758,17.2898778 7.8,17.0564737 7.8,16.7996693 L7.8,16.199659 C7.8,15.9824552 7.9242,15.7808518 8.1246,15.6740499 L8.406,15.5240473 L8.439,15.2066419 C8.4984,14.6438322 8.6238,14.1248232 8.8122,13.6646153 C8.892,13.469612 8.9598,13.3238094 9.015,13.2044074 C9.2184,12.7675999 9.2922,12.541996 9.2412,12.079388 C9.9468,12.482595 10.7946,12.6529979 11.7144,12.5839967 C11.8074,12.5761966 11.9028,12.5725965 12.0006,12.5725965 C14.247,12.5725965 15.3438,13.3862105 15.558,15.211442 L15.5952,15.5246474 L15.8742,15.6722499 C16.0746,15.7790517 16.2,15.9812552 16.2,16.199659 L16.2,16.7996693 C16.2,17.0564737 16.0242,17.2898778 15.7728,17.3678791 L15.4572,17.4662808 L15.3714,17.7860863 C15.0642,18.9339061 14.4726,19.682119 13.5624,20.0745257 L13.2,20.2311284 L13.2,21.3177471 C13.2,21.719154 13.422,22.0809603 13.7784,22.2627634 L16.0434,23.4201833 C16.302,23.5497856 16.5066,23.7543891 16.6374,24.0003933 L7.335,24.0003933 C7.4544,23.748989 7.6482,23.5383854 7.8912,23.4069831 L10.206,22.2651634 Z M22.2,34.7999793 L1.8,34.7999793 C1.4688,34.7999793 1.2,34.5311747 1.2,34.199969 L1.2,25.199814 L6,25.199814 L18.0108,25.199814 L22.8,25.199814 L22.8,34.199969 C22.8,34.5311747 22.5312,34.7999793 22.2,34.7999793 Z" id="Shape"></path>
                <path d="M17.4,29.1428571 L6.6,29.1428571 C6.2682,29.1428571 6,29.3344286 6,29.5714286 C6,29.8084286 6.2682,30 6.6,30 L17.4,30 C17.7318,30 18,29.8084286 18,29.5714286 C18,29.3344286 17.7318,29.1428571 17.4,29.1428571 Z" id="Path"></path>
                <path d="M9.14285714,28.2857143 L14.8571429,28.2857143 C15.1731429,28.2857143 15.4285714,28.0941429 15.4285714,27.8571429 C15.4285714,27.6201429 15.1731429,27.4285714 14.8571429,27.4285714 L9.14285714,27.4285714 C8.82685714,27.4285714 8.57142857,27.6201429 8.57142857,27.8571429 C8.57142857,28.0941429 8.82685714,28.2857143 9.14285714,28.2857143 Z" id="Path"></path>
                <path d="M7.14285714,31.7142857 L6.57142857,31.7142857 C6.25542857,31.7142857 6,31.9058571 6,32.1428571 C6,32.3798571 6.25542857,32.5714286 6.57142857,32.5714286 L7.14285714,32.5714286 C7.45885714,32.5714286 7.71428571,32.3798571 7.71428571,32.1428571 C7.71428571,31.9058571 7.45885714,31.7142857 7.14285714,31.7142857 Z" id="Path"></path>
                <path d="M10.5,31.7142857 L9.21428571,31.7142857 C8.85878571,31.7142857 8.57142857,31.9058571 8.57142857,32.1428571 C8.57142857,32.3798571 8.85878571,32.5714286 9.21428571,32.5714286 L10.5,32.5714286 C10.8555,32.5714286 11.1428571,32.3798571 11.1428571,32.1428571 C11.1428571,31.9058571 10.8555,31.7142857 10.5,31.7142857 Z" id="Path"></path>
                <path d="M14,31.7142857 L13.4285714,31.7142857 C13.1125714,31.7142857 12.8571429,31.9058571 12.8571429,32.1428571 C12.8571429,32.3798571 13.1125714,32.5714286 13.4285714,32.5714286 L14,32.5714286 C14.316,32.5714286 14.5714286,32.3798571 14.5714286,32.1428571 C14.5714286,31.9058571 14.316,31.7142857 14,31.7142857 Z" id="Path"></path>
                <path d="M17.3571429,31.7142857 L16.0714286,31.7142857 C15.7159286,31.7142857 15.4285714,31.9058571 15.4285714,32.1428571 C15.4285714,32.3798571 15.7159286,32.5714286 16.0714286,32.5714286 L17.3571429,32.5714286 C17.7126429,32.5714286 18,32.3798571 18,32.1428571 C18,31.9058571 17.7126429,31.7142857 17.3571429,31.7142857 Z" id="Path"></path>
            </g>
        </g>
    </g>
</svg>