<?xml version="1.0" encoding="UTF-8"?>
<svg width="71px" height="62px" viewBox="0 0 71 62" version="1.1" xmlns="http://www.w3.org/2000/svg" xmlns:xlink="http://www.w3.org/1999/xlink">
    <!-- Generator: Sketch 55.2 (78181) - https://sketchapp.com -->
    <title>integrate</title>
    <desc>Created with Sketch.</desc>
    <g id="Mockup" stroke="none" stroke-width="1" fill="none" fill-rule="evenodd">
        <g id="Landing-page" transform="translate(-119.000000, -437.000000)">
            <g id="integrate" transform="translate(119.000000, 437.000000)">
                <circle id="Oval-Copy" fill-opacity="0.853861" fill="#CCDADD" cx="36" cy="31" r="31"></circle>
                <g id="channel" transform="translate(0.000000, 2.000000)">
                    <g id="Group-11" transform="translate(32.000000, 15.000000)">
                        <path d="M1.59663888,33.540761 L9.52873563,29.5747126 L25.1609195,29.5747126 C32.0679328,29.5747126 37.6666667,23.9759788 37.6666667,17.0689655 L37.6666667,15.5057471 C37.6666667,8.59873389 32.0679328,3 25.1609195,3 L12.6551724,3 C5.74815917,3 0.149425287,8.59873389 0.149425287,15.5057471 L0.149425287,32.6463338 C0.149425287,33.1986186 0.597140538,33.6463338 1.14942529,33.6463338 C1.30467038,33.6463338 1.45778345,33.6101887 1.59663888,33.540761 Z" id="Path" fill="#2B4F70"></path>
                        <path d="M2.59663888,30.540761 L10.5287356,26.5747126 L26.1609195,26.5747126 C33.0679328,26.5747126 38.6666667,20.9759788 38.6666667,14.0689655 L38.6666667,12.5057471 C38.6666667,5.59873389 33.0679328,0 26.1609195,0 L13.6551724,0 C6.74815917,0 1.14942529,5.59873389 1.14942529,12.5057471 L1.14942529,29.6463338 C1.14942529,30.1986186 1.59714054,30.6463338 2.14942529,30.6463338 C2.30467038,30.6463338 2.45778345,30.6101887 2.59663888,30.540761 Z" id="Path-Copy-2" fill="#125C9F"></path>
                        <g id="sound-waves" transform="translate(7.000000, 4.000000)" fill="#FFFFFF">
                            <path d="M0.525240385,7.91496392 C0.234976,7.91496392 0,8.14993992 0,8.43990385 L0,11.0655048 C0,11.3557692 0.234976,11.5907452 0.525240385,11.5907452 C0.815204308,11.5907452 1.05018031,11.3557692 1.05018031,11.0655048 L1.05018031,8.43990385 C1.05018031,8.14993992 0.815204308,7.91496392 0.525240385,7.91496392 Z" id="Path"></path>
                            <path d="M3.15264423,5.76472354 C2.86268031,5.76472354 2.62740385,6 2.62740385,6.28996392 L2.62740385,13.5603966 C2.62740385,13.8506611 2.86268031,14.085637 3.15264423,14.085637 C3.44260815,14.085637 3.67788462,13.8506611 3.67788462,13.5603966 L3.67788462,6.28996392 C3.67788462,6 3.44260815,5.76472354 3.15264423,5.76472354 Z" id="Path"></path>
                            <path d="M5.77644231,2.13852162 C5.48647838,2.13852162 5.25120192,2.37349762 5.25120192,2.66346154 L5.25120192,17.3671875 C5.25120192,17.6571515 5.48647838,17.8924278 5.77644231,17.8924278 C6.06640623,17.8924278 6.30168269,17.6571515 6.30168269,17.3671875 L6.30168269,2.66346154 C6.30168269,2.37349762 6.06640623,2.13852162 5.77644231,2.13852162 Z" id="Path"></path>
                            <path d="M8.40204323,4.76412262 C8.11207931,4.76412262 7.87680292,4.99909854 7.87680292,5.289363 L7.87680292,14.2163462 C7.87680292,14.5063101 8.11207931,14.7415865 8.40204323,14.7415865 C8.69200723,14.7415865 8.92728369,14.5063101 8.92728369,14.2163462 L8.92728369,5.289363 C8.92728369,4.99909854 8.69200723,4.76412262 8.40204323,4.76412262 Z" id="Path"></path>
                            <path d="M16.3302284,3.49278846 C16.0402645,3.49278846 15.8052885,3.72776446 15.8052885,4.01802885 L15.8052885,15.8326322 C15.8052885,16.1225962 16.0402645,16.3575722 16.3302284,16.3575722 C16.6201923,16.3575722 16.8554688,16.1225962 16.8554688,15.8326322 L16.8554688,4.01802885 C16.8554688,3.72776446 16.6201923,3.49278846 16.3302284,3.49278846 Z" id="Path"></path>
                            <path d="M21.5303485,4.23888223 C21.2403846,4.23888223 21.0051082,4.47415862 21.0051082,4.76412262 L21.0051082,15.2665265 C21.0051082,15.5567908 21.2403846,15.7917668 21.5303485,15.7917668 C21.8203125,15.7917668 22.0552885,15.5567908 22.0552885,15.2665265 L22.0552885,4.76412262 C22.0552885,4.47415862 21.8203125,4.23888223 21.5303485,4.23888223 Z" id="Path"></path>
                            <path d="M18.9047476,0.0378606154 C18.6144832,0.0378606154 18.3795072,0.273137 18.3795072,0.563100923 L18.3795072,19.4675481 C18.3795072,19.7578125 18.6144832,19.9927885 18.9047476,19.9927885 C19.1947115,19.9927885 19.4296875,19.7578125 19.4296875,19.4675481 L19.4296875,0.563100923 C19.4296875,0.273137 19.1947115,0.0378606154 18.9047476,0.0378606154 Z" id="Path"></path>
                            <path d="M11.0276442,8.43990385 C10.7376803,8.43990385 10.5027043,8.67518031 10.5027043,8.96514423 L10.5027043,11.0655048 C10.5027043,11.3557692 10.7376803,11.5907452 11.0276442,11.5907452 C11.3176082,11.5907452 11.5528846,11.3557692 11.5528846,11.0655048 L11.5528846,8.96514423 C11.5528846,8.67518031 11.3176082,8.43990385 11.0276442,8.43990385 Z" id="Path"></path>
                            <path d="M13.6039663,7.26292069 C13.3137019,7.26292069 13.078726,7.49789662 13.078726,7.78786062 L13.078726,12.0625 C13.078726,12.3524639 13.3137019,12.5877404 13.6039663,12.5877404 C13.8939303,12.5877404 14.1289062,12.3524639 14.1289062,12.0625 L14.1289062,7.78786062 C14.1289062,7.49789662 13.8939303,7.26292069 13.6039663,7.26292069 Z" id="Path"></path>
                        </g>
                    </g>
                    <g id="Group-12">
                        <path d="M26.6907174,24.7246691 L21.1034483,21.9310345 L9.37931034,21.9310345 C4.19905041,21.9310345 -4.38760139e-13,17.7319841 -4.38760139e-13,12.5517241 L-4.38760139e-13,11.3793103 C-4.38760139e-13,6.19905041 4.19905041,2 9.37931034,2 L18.7586207,2 C23.9388806,2 28.137931,6.19905041 28.137931,11.3793103 L28.137931,23.8302419 C28.137931,24.3825266 27.6902158,24.8302419 27.137931,24.8302419 C26.9826859,24.8302419 26.8295729,24.7940968 26.6907174,24.7246691 Z" id="Path-Copy" fill="#2B4F70"></path>
                        <path d="M26.6907174,22.7246691 L21.1034483,19.9310345 L9.37931034,19.9310345 C4.19905041,19.9310345 -4.38760139e-13,15.7319841 -4.38760139e-13,10.5517241 L-4.38760139e-13,9.37931034 C-4.38760139e-13,4.19905041 4.19905041,4.97379915e-14 9.37931034,4.97379915e-14 L18.7586207,4.97379915e-14 C23.9388806,4.97379915e-14 28.137931,4.19905041 28.137931,9.37931034 L28.137931,21.8302419 C28.137931,22.3825266 27.6902158,22.8302419 27.137931,22.8302419 C26.9826859,22.8302419 26.8295729,22.7940968 26.6907174,22.7246691 Z" id="Path-Copy-3" fill="#125C9F"></path>
                        <rect id="Rectangle" fill="#FFFFFF" x="6" y="10" width="14" height="1" rx="0.5"></rect>
                        <rect id="Rectangle-Copy-2" fill="#FFFFFF" x="6" y="7" width="17" height="1" rx="0.5"></rect>
                        <rect id="Rectangle-Copy" fill="#FFFFFF" x="6" y="13" width="12" height="1" rx="0.5"></rect>
                    </g>
                </g>
            </g>
        </g>
    </g>
</svg>