<svg xmlns="http://www.w3.org/2000/svg" width="71" height="62" viewBox="0 0 71 62">
    <g fill="none" fill-rule="evenodd">
        <circle cx="36" cy="31" r="31" fill="#CCDADD" fill-opacity=".854"/>
        <path fill="#2C3370" d="M33.597 50.54l7.932-3.965H57.16c6.907 0 12.506-5.599 12.506-12.506v-1.563c0-6.907-5.6-12.506-12.506-12.506H44.655c-6.907 0-12.506 5.599-12.506 12.506v17.14a1 1 0 0 0 1.448.895z"/>
        <path fill="#39449A" d="M34.597 47.54l7.932-3.965H58.16c6.907 0 12.506-5.599 12.506-12.506v-1.563c0-6.907-5.6-12.506-12.506-12.506H45.655c-6.907 0-12.506 5.599-12.506 12.506v17.14a1 1 0 0 0 1.448.895z"/>
        <g fill="#FFF">
            <path d="M39.525 28.915a.525.525 0 0 0-.525.525v2.626a.525.525 0 1 0 1.05 0V29.44a.525.525 0 0 0-.525-.525zM42.153 26.765a.525.525 0 0 0-.526.525v7.27a.525.525 0 1 0 1.05 0v-7.27a.525.525 0 0 0-.524-.525zM44.776 23.139a.525.525 0 0 0-.525.524v14.704a.525.525 0 0 0 1.05 0V23.663a.525.525 0 0 0-.525-.524zM47.402 25.764a.525.525 0 0 0-.525.525v8.927a.525.525 0 0 0 1.05 0V26.29a.525.525 0 0 0-.525-.525zM55.33 24.493a.525.525 0 0 0-.525.525v11.815a.525.525 0 1 0 1.05 0V25.018a.525.525 0 0 0-.525-.525zM60.53 25.239a.525.525 0 0 0-.525.525v10.503a.525.525 0 1 0 1.05 0V25.764a.525.525 0 0 0-.525-.525zM57.905 21.038a.525.525 0 0 0-.525.525v18.905a.525.525 0 1 0 1.05 0V21.563a.525.525 0 0 0-.525-.525zM50.028 29.44a.525.525 0 0 0-.525.525v2.1a.525.525 0 1 0 1.05 0v-2.1a.525.525 0 0 0-.525-.525zM52.604 28.263a.525.525 0 0 0-.525.525v4.275a.525.525 0 1 0 1.05 0v-4.275a.525.525 0 0 0-.525-.525z"/>
        </g>
        <g transform="translate(0 2)">
            <path fill="#2C3370" d="M26.69 24.725l-5.587-2.794H9.38C4.2 21.931 0 17.732 0 12.551V11.38C0 6.2 4.2 2 9.38 2h9.379c5.18 0 9.379 4.2 9.379 9.38v12.45a1 1 0 0 1-1.447.895z"/>
            <path fill="#39449A" d="M26.69 22.725l-5.587-2.794H9.38C4.2 19.931 0 15.732 0 10.551V9.38C0 4.2 4.2 0 9.38 0h9.379c5.18 0 9.379 4.2 9.379 9.38v12.45a1 1 0 0 1-1.447.895z"/>
            <rect width="14" height="1" x="6" y="10" fill="#FFF" rx=".5"/>
            <rect width="17" height="1" x="6" y="7" fill="#FFF" rx=".5"/>
            <rect width="12" height="1" x="6" y="13" fill="#FFF" rx=".5"/>
        </g>
    </g>
</svg>
