<?xml version="1.0" encoding="UTF-8"?>
<svg width="23px" height="18px" viewBox="0 0 23 18" version="1.1" xmlns="http://www.w3.org/2000/svg" xmlns:xlink="http://www.w3.org/1999/xlink">
    <!-- Generator: sketchtool 52.5 (67469) - http://www.bohemiancoding.com/sketch -->
    <title>13E734B0-55EA-4E3B-BD1C-E7D91081BFEA</title>
    <desc>Created with sketchtool.</desc>
    <g id="Symbols" stroke="none" stroke-width="1" fill="none" fill-rule="evenodd" fill-opacity="0.889237998">
        <g id="top-bar-2v" transform="translate(-213.000000, -21.000000)" fill="#02BDE8">
            <g id="top-bar">
                <g id="Group-4" transform="translate(60.000000, 0.000000)">
                    <g id="knowledge-Base" transform="translate(153.000000, 21.000000)">
                        <g id="knowledge-icon">
                            <path d="M3.29017921,0 C3.28955583,0 3.28885454,0 3.28823116,0 C3.06934874,0 2.86347926,0.0833786892 2.7080252,0.234907083 C2.55085687,0.388110666 2.46428571,0.592102911 2.46428571,0.809268227 L2.46428571,12.9441037 C2.46428571,13.3890946 2.83620662,13.7520013 3.29345192,13.7531435 C5.22108219,13.757636 8.45063042,14.1502392 10.6785714,16.4285714 L10.6785714,3.72912139 C10.6785714,3.5782783 10.639143,3.4365726 10.5647276,3.31930943 C8.73613601,0.441640546 5.2221731,0.00441640546 3.29017921,0 Z" id="Path"></path>
                            <path d="M19.7142857,12.9441798 L19.7142857,0.809268227 C19.7142857,0.592102911 19.6277137,0.388110666 19.4705439,0.234907083 C19.3150884,0.0833786892 19.1090611,0 18.8904104,0 C18.8897091,0 18.8890078,0 18.8883844,0 C16.9564501,0.00449255038 13.4424538,0.441716691 11.613767,3.31938557 C11.5393509,3.43664875 11.5,3.57835445 11.5,3.72919754 L11.5,16.4285714 C13.7279621,14.1502392 16.957541,13.757636 18.8851896,13.7531435 C19.3423613,13.7520013 19.7142857,13.3890946 19.7142857,12.9441798 Z" id="Path"></path>
                            <path d="M21.4136272,2.46428571 L20.8588879,2.46428571 L20.8588879,12.824808 C20.8588879,13.9850316 19.9837301,14.9311104 18.9079419,14.9339874 C17.3974183,14.9378753 14.9067784,15.2569154 13.1428571,17.0601957 C16.1935634,16.2533812 19.4095541,16.7778573 21.2423678,17.2290078 C21.4712176,17.2853045 21.7076981,17.2271416 21.8910515,17.0692934 C22.0737569,16.9118339 22.1785714,16.6764612 22.1785714,16.4238262 L22.1785714,3.29053972 C22.1786434,2.83495698 21.8354048,2.46428571 21.4136272,2.46428571 Z" id="Path"></path>
                            <path d="M1.31969402,12.8249332 L1.31969402,2.46428571 L0.764950285,2.46428571 C0.343241385,2.46428571 0,2.83496146 0,3.2905497 L0,16.4237615 C0,16.6764773 0.104815322,16.9117752 0.287522251,17.0692365 C0.470733099,17.2270089 0.706999506,17.2854057 0.936211035,17.2289529 C2.76903941,16.7777191 5.98512768,16.2533144 9.03571429,17.0601388 C7.27185094,15.2569144 4.78119124,14.9379482 3.27065559,14.9340603 C2.19493075,14.931261 1.31969402,13.9851708 1.31969402,12.8249332 Z" id="Path"></path>
                        </g>
                    </g>
                </g>
            </g>
        </g>
    </g>
</svg>