<?xml version="1.0" encoding="UTF-8"?>
<svg width="17px" height="24px" viewBox="0 0 17 24" version="1.1" xmlns="http://www.w3.org/2000/svg" xmlns:xlink="http://www.w3.org/1999/xlink">
    <!-- Generator: sketchtool 53.2 (72643) - https://sketchapp.com -->
    <title>62318A0C-6610-40C0-B714-45A66CF8C406</title>
    <desc>Created with sketchtool.</desc>
    <g id="Bot-creation" stroke="none" stroke-width="1" fill="none" fill-rule="evenodd">
        <g id="Create-page-1" transform="translate(-136.000000, -546.000000)" fill="#FFFFFF" fill-rule="nonzero">
            <g id="locked" transform="translate(136.000000, 546.000000)">
                <path d="M13.2271552,8.81958621 L13.2271552,4.22896552 C13.2271552,1.89724138 11.1914677,0 8.68965517,0 C6.18784267,0 4.15215517,1.89724138 4.15215517,4.22896552 L4.15215517,8.81958621 C1.91805517,10.3017931 0.439655172,12.8416552 0.439655172,15.7241379 C0.439655172,20.2874483 4.14060517,24 8.68965517,24 C13.2387052,24 16.9396552,20.2874483 16.9396552,15.7241379 C16.9396552,12.8416552 15.4612552,10.3017931 13.2271552,8.81958621 Z M4.97715517,8.34082759 L4.97715517,4.22896552 C4.97715517,2.35365517 6.64241767,0.827586207 8.68965517,0.827586207 C10.7368927,0.827586207 12.4021552,2.35365517 12.4021552,4.22896552 L12.4021552,8.34124138 C12.3246052,8.30193103 12.2454052,8.26717241 12.1670302,8.23034483 C12.0049177,8.1542069 11.8403302,8.08303448 11.6728552,8.01724138 C11.5651927,7.97503448 11.4571177,7.93531034 11.3482177,7.89765517 C11.2409677,7.86082759 11.1345427,7.824 11.0256427,7.79172414 C10.8453802,7.73793103 10.6630552,7.692 10.4794927,7.65062069 C10.3998802,7.63282759 10.3198552,7.61586207 10.2394177,7.60013793 C10.0236802,7.55834483 9.80670517,7.52441379 9.58808017,7.5 C9.53858017,7.49462069 9.48908017,7.49131034 9.43958017,7.48675862 C9.19001767,7.46317241 8.94045517,7.44827586 8.68965517,7.44827586 C8.43885517,7.44827586 8.18929267,7.46317241 7.94055517,7.48634483 C7.89105517,7.49089655 7.84114267,7.4942069 7.79205517,7.49958621 C7.57343017,7.524 7.35645517,7.55793103 7.14071767,7.59972414 C7.06028017,7.61503448 6.98025517,7.63241379 6.90064267,7.6502069 C6.71708017,7.69158621 6.53475517,7.73751724 6.35449267,7.79131034 C6.24559267,7.82358621 6.13875517,7.86082759 6.03191767,7.89724138 C5.92301767,7.93489655 5.81453017,7.97462069 5.70728017,8.01682759 C5.53939267,8.0822069 5.37521767,8.1537931 5.21310517,8.22993103 C5.13390517,8.26675862 5.05470517,8.30151724 4.97715517,8.34082759 Z M8.68965517,23.1724138 C4.59559267,23.1724138 1.26465517,19.8310345 1.26465517,15.7241379 C1.26465517,13.0191724 2.71459267,10.6531034 4.87114267,9.34841379 C5.25064267,9.11917241 5.64746767,8.92593103 6.05625517,8.76868966 C6.12885517,8.74096552 6.20186767,8.71365517 6.27529267,8.688 C6.38790517,8.64868966 6.50093017,8.61103448 6.61519267,8.57710345 C6.75544267,8.53613793 6.89775517,8.49972414 7.04130517,8.46703448 C7.14608017,8.44303448 7.25126767,8.42193103 7.35686767,8.40248276 C7.50908017,8.37475862 7.66253017,8.34993103 7.81804267,8.33172414 C7.88816767,8.32303448 7.95870517,8.31558621 8.02924267,8.30937931 C8.24745517,8.28993103 8.46690517,8.27586207 8.68965517,8.27586207 C8.91240517,8.27586207 9.13185517,8.28993103 9.35006767,8.30937931 C9.42060517,8.316 9.49073017,8.32344828 9.56126767,8.33172414 C9.71678017,8.34993103 9.87023017,8.37475862 10.0224427,8.40248276 C10.1280427,8.42193103 10.2332302,8.44303448 10.3380052,8.46703448 C10.4815552,8.49972414 10.6238677,8.53613793 10.7641177,8.57710345 C10.8783802,8.61062069 10.9914052,8.64868966 11.1040177,8.688 C11.1778552,8.71365517 11.2504552,8.74096552 11.3230552,8.76868966 C11.7318427,8.92593103 12.1286677,9.11917241 12.5081677,9.34841379 C14.6647177,10.6531034 16.1146552,13.0191724 16.1146552,15.7241379 C16.1146552,19.8310345 12.7837177,23.1724138 8.68965517,23.1724138 Z" id="Shape"></path>
                <path d="M13.535809,15.3461538 L12.3004436,15.3461538 C12.2225013,14.6462885 11.945059,14.007 11.5266744,13.4840192 L12.401809,12.6088846 C12.5597129,12.4509808 12.5597129,12.19575 12.401809,12.0378462 C12.2439052,11.8799423 11.9886744,11.8799423 11.8307706,12.0378462 L10.9556359,12.9129808 C10.4326552,12.4945962 9.79336671,12.2171538 9.09350133,12.1392115 L9.09350133,10.9038462 C9.09350133,10.6805192 8.9129821,10.5 8.68965517,10.5 C8.46632825,10.5 8.28580902,10.6805192 8.28580902,10.9038462 L8.28580902,12.1392115 C7.58594363,12.2171538 6.94665517,12.4945962 6.4236744,12.9129808 L5.54853979,12.0378462 C5.39063594,11.8799423 5.13540517,11.8799423 4.97750133,12.0378462 C4.81959748,12.19575 4.81959748,12.4509808 4.97750133,12.6088846 L5.85263594,13.4840192 C5.43425133,14.007 5.15680902,14.6462885 5.07886671,15.3461538 L3.84350133,15.3461538 C3.6201744,15.3461538 3.43965517,15.5266731 3.43965517,15.75 C3.43965517,15.9733269 3.6201744,16.1538462 3.84350133,16.1538462 L5.07886671,16.1538462 C5.15680902,16.8537115 5.43425133,17.493 5.85263594,18.0159808 L4.97750133,18.8911154 C4.81959748,19.0490192 4.81959748,19.30425 4.97750133,19.4621538 C5.05625133,19.5409038 5.15963594,19.5804808 5.26302056,19.5804808 C5.36640517,19.5804808 5.46978979,19.5409038 5.54853979,19.4621538 L6.4236744,18.5870192 C6.94665517,19.0054038 7.58594363,19.2828462 8.28580902,19.3607885 L8.28580902,20.5961538 C8.28580902,20.8194808 8.46632825,21 8.68965517,21 C8.9129821,21 9.09350133,20.8194808 9.09350133,20.5961538 L9.09350133,19.3607885 C9.79336671,19.2828462 10.4326552,19.0054038 10.9556359,18.5870192 L11.8307706,19.4621538 C11.9095206,19.5409038 12.0129052,19.5804808 12.1162898,19.5804808 C12.2196744,19.5804808 12.323059,19.5409038 12.401809,19.4621538 C12.5597129,19.30425 12.5597129,19.0490192 12.401809,18.8911154 L11.5266744,18.0159808 C11.945059,17.493 12.2225013,16.8537115 12.3004436,16.1538462 L13.535809,16.1538462 C13.7591359,16.1538462 13.9396552,15.9733269 13.9396552,15.75 C13.9396552,15.5266731 13.7591359,15.3461538 13.535809,15.3461538 Z M8.68965517,18.5769231 C7.13121286,18.5769231 5.8627321,17.3084423 5.8627321,15.75 C5.8627321,14.1915577 7.13121286,12.9230769 8.68965517,12.9230769 C10.2480975,12.9230769 11.5165782,14.1915577 11.5165782,15.75 C11.5165782,17.3084423 10.2480975,18.5769231 8.68965517,18.5769231 Z" id="Shape"></path>
            </g>
        </g>
    </g>
</svg>