<svg xmlns="http://www.w3.org/2000/svg" width="34" height="34" viewBox="0 0 34 34">
    <g fill="none" fill-rule="evenodd">
        <circle cx="17" cy="17" r="17" fill="#2B4F70" fill-rule="nonzero"/>
        <g fill-rule="nonzero">
            <path fill="#00ABD3" d="M18.5 20.777v-.368c.015-.961.785-1.642 1.463-2.238a8.827 8.827 0 0 0 1.996-2.203 5.443 5.443 0 0 0 .708-2.65c0-3.182-2.643-5.762-5.903-5.762s-5.903 2.58-5.903 5.763c.005.927.248 1.838.707 2.65a8.827 8.827 0 0 0 1.997 2.203c.677.595 1.447 1.275 1.462 2.238v.368l3.473-.001z"/>
            <path fill="#FFF" d="M13.57 11.333a.358.358 0 0 1-.297-.152.289.289 0 0 1-.011-.308c.843-1.457 2.513-2.371 4.334-2.373.192 0 .348.141.348.315 0 .174-.156.315-.348.315-1.11-.003-2.176.395-2.96 1.106a3.846 3.846 0 0 0-.756.928.355.355 0 0 1-.31.17zM12.716 13.694c-.242 0-.438-.104-.438-.233 0-.169.024-.337.071-.504.019-.085.122-.158.271-.19a.76.76 0 0 1 .442.036c.124.054.182.14.153.224-.041.144-.062.289-.062.434 0 .062-.046.121-.128.165a.675.675 0 0 1-.31.068z"/>
            <path fill="#157288" d="M17.614 20.778h-1.417a.349.349 0 0 1-.354-.344v-5.151h-.708c-.587 0-1.063-.461-1.063-1.03 0-.57.476-1.03 1.063-1.03h.354c.587 0 1.062.46 1.062 1.03v.343h.709v-.343c0-.57.475-1.03 1.062-1.03h.354c.587 0 1.063.46 1.063 1.03 0 .569-.476 1.03-1.063 1.03h-.708v5.151c0 .19-.158.344-.354.344zm-1.063-.687h.709v-4.808h-.709v4.808zm1.417-5.495h.708a.349.349 0 0 0 .355-.343.349.349 0 0 0-.355-.344h-.354a.349.349 0 0 0-.354.344v.343zm-2.833-.687a.349.349 0 0 0-.354.344c0 .19.158.343.354.343h.708v-.343a.349.349 0 0 0-.354-.344h-.354z"/>
            <path fill="#00ABD3" d="M15.111 21.722h3.306v2.834H15.11z"/>
            <path fill="#FDD7AD" d="M17.229 27.547l1.188-2.774a.765.765 0 0 0-.827-.686.765.765 0 0 0-.826.686.765.765 0 0 0-.827-.686.765.765 0 0 0-.826.686l1.188 2.774c.082.191.264.314.465.314a.508.508 0 0 0 .465-.314z"/>
            <path fill="#00ABD3" d="M10.524 9.444a.352.352 0 0 1-.211-.069L8.627 8.116a.305.305 0 0 1-.123-.293.32.32 0 0 1 .21-.246.357.357 0 0 1 .334.048l1.686 1.259a.302.302 0 0 1 .108.35.337.337 0 0 1-.318.21zM8.837 18.889a.337.337 0 0 1-.318-.21.302.302 0 0 1 .108-.35l1.686-1.26a.354.354 0 0 1 .474.05.301.301 0 0 1-.052.442L9.048 18.82a.353.353 0 0 1-.21.069zM9.09 14.167H6.965c-.195 0-.354-.212-.354-.473 0-.26.159-.472.354-.472H9.09c.196 0 .354.212.354.472 0 .261-.158.473-.354.473zM23.004 9.444a.337.337 0 0 1-.318-.21.302.302 0 0 1 .107-.35l1.687-1.26a.357.357 0 0 1 .333-.047.32.32 0 0 1 .21.246.305.305 0 0 1-.122.293l-1.686 1.26a.353.353 0 0 1-.21.068zM24.69 18.889a.353.353 0 0 1-.21-.07l-1.687-1.258a.301.301 0 0 1-.052-.443.354.354 0 0 1 .474-.049l1.686 1.26a.302.302 0 0 1 .108.35.337.337 0 0 1-.319.21zM26.562 14.167h-2.124c-.196 0-.355-.212-.355-.473 0-.26.159-.472.355-.472h2.124c.196 0 .355.212.355.472 0 .261-.159.473-.355.473z"/>
            <path fill="#BDC3C7" d="M14.976 20.778h4.048c.186 0 .337.169.337.378v1.133c0 .209-.15.378-.337.378h-4.048c-.186 0-.337-.17-.337-.378v-1.133c0-.21.15-.378.337-.378z"/>
            <path fill="#00ABD3" d="M17.708 26.524l-.428.993a.565.565 0 0 1-.516.344.565.565 0 0 1-.516-.344l-.429-.993c.2-.342.558-.552.945-.552.387 0 .745.21.944.552z"/>
        </g>
    </g>
</svg>
