<?xml version="1.0" encoding="UTF-8"?>
<svg width="32px" height="32px" viewBox="0 0 32 32" version="1.1" xmlns="http://www.w3.org/2000/svg" xmlns:xlink="http://www.w3.org/1999/xlink">
    <!-- Generator: Sketch 54.1 (76490) - https://sketchapp.com -->
    <title>Group</title>
    <desc>Created with Sketch.</desc>
    <g id="Bot-configuration" stroke="none" stroke-width="1" fill="none" fill-rule="evenodd">
        <g id="bot-configuration-management" transform="translate(-88.000000, -14.000000)">
            <g id="Group" transform="translate(88.000000, 14.000000)">
                <circle id="Oval" fill="#D8D8D8" cx="16" cy="16" r="16"></circle>
                <circle id="Oval" fill="#E0E0E0" fill-rule="nonzero" cx="16" cy="16" r="16"></circle>
                <g id="picture" transform="translate(6.000000, 8.000000)" fill="#474747" fill-rule="nonzero">
                    <path d="M19,0 L0.333333333,0 C0.149333333,0 0,0.149 0,0.333333333 L0,15 C0,15.1843333 0.149333333,15.3333333 0.333333333,15.3333333 L19,15.3333333 C19.184,15.3333333 19.3333333,15.1843333 19.3333333,15 L19.3333333,0.333333333 C19.3333333,0.149 19.184,0 19,0 Z M18.6666667,14.6666667 L0.666666667,14.6666667 L0.666666667,0.666666667 L18.6666667,0.666666667 L18.6666667,14.6666667 Z" id="Shape"></path>
                    <path d="M5.33333333,7.33333333 C6.43622434,7.33333333 7.33333333,6.43622434 7.33333333,5.33369246 C7.33333333,4.23044233 6.43622434,3.33333333 5.33333333,3.33333333 C4.23044233,3.33333333 3.33333333,4.23044233 3.33333333,5.33333333 C3.33333333,6.43622434 4.23044233,7.33333333 5.33333333,7.33333333 Z M5.33333333,4.05159514 C6.04010295,4.05159514 6.61507153,4.62692285 6.61507153,5.33333333 C6.61507153,6.03974382 6.04010295,6.61507153 5.33333333,6.61507153 C4.62656372,6.61507153 4.05159514,6.04010295 4.05159514,5.33369246 C4.05159514,4.62728198 4.62656372,4.05159514 5.33333333,4.05159514 Z" id="Shape"></path>
                    <path d="M2.34060308,13.3333333 C2.42026205,13.3333333 2.50060187,13.3071876 2.56528223,13.2539396 L8.11860205,8.67460867 L11.6256394,11.9590877 C11.7587448,12.0837582 11.9738921,12.0837582 12.1069975,11.9590877 C12.2401029,11.8344171 12.2401029,11.6329036 12.1069975,11.5082331 L10.4705843,9.97551871 L13.5960076,6.76979578 L17.4295106,10.0612895 C17.5680627,10.1802207 17.7835504,10.1712929 17.9105282,10.0415208 C18.037506,9.91174861 18.0283145,9.70991624 17.889422,9.59098501 L13.8043464,6.0836295 C13.7376235,6.02655526 13.6487731,5.99817757 13.5592419,6.00009067 C13.4690298,6.00391688 13.383924,6.04122239 13.3229883,6.10371708 L9.98888582,9.5240264 L8.3742597,8.01171848 C8.24694151,7.89278724 8.04336858,7.88672908 7.90856108,7.99768906 L2.1155835,12.7750261 C1.97430797,12.8914065 1.96069105,13.0929201 2.08494543,13.225243 C2.15234918,13.2969844 2.24630592,13.3333333 2.34060308,13.3333333 Z" id="Path"></path>
                </g>
                <circle id="Oval" stroke="#E0E0E0" fill="#474747" cx="25.3333333" cy="22" r="3.33333333"></circle>
                <g id="baseline-close-24px-(13)" transform="translate(23.666667, 20.333333)" fill="#E0E0E0" fill-rule="nonzero">
                    <polygon id="Path" points="3.22222222 0.424444444 2.90888889 0.111111111 1.66666667 1.35333333 0.424444444 0.111111111 0.111111111 0.424444444 1.35333333 1.66666667 0.111111111 2.90888889 0.424444444 3.22222222 1.66666667 1.98 2.90888889 3.22222222 3.22222222 2.90888889 1.98 1.66666667"></polygon>
                </g>
            </g>
        </g>
    </g>
</svg>