<?xml version="1.0" encoding="UTF-8"?>
<svg width="79px" height="63px" viewBox="0 0 79 63" version="1.1" xmlns="http://www.w3.org/2000/svg" xmlns:xlink="http://www.w3.org/1999/xlink">
    <!-- Generator: Sketch 55.2 (78181) - https://sketchapp.com -->
    <title>orchestrate</title>
    <desc>Created with Sketch.</desc>
    <g id="Mockup" stroke="none" stroke-width="1" fill="none" fill-rule="evenodd">
        <g id="Landing-page" transform="translate(-115.000000, -318.000000)">
            <g id="orchestrate" transform="translate(115.000000, 318.000000)">
                <circle id="Oval" fill-opacity="0.853861" fill="#CCDADD" cx="40" cy="31" r="31"></circle>
                <rect id="Rectangle" fill="#FFFFFF" x="38" y="11" width="4" height="52"></rect>
                <g id="Group-10" transform="translate(28.000000, 9.000000)">
                    <path d="M1.41346428,11.9513046 C0.81402144,11.9513046 0.328857008,11.5257889 0.328857008,11.0010619 L0.328857008,0.964805825 C0.328857008,0.440078913 0.814540854,0.0145631068 1.41346428,0.0145631068 L42.6658229,0.0145631068 C43.3031855,0.0145631068 43.9036673,0.276699029 44.2880588,0.722239107 L47.8997802,4.90867713 C48.4477978,5.54444784 48.4477978,6.42141996 47.8997802,7.05719056 L44.2880588,11.2436286 C43.9036673,11.6896238 43.3031855,11.9513046 42.6658229,11.9513046 L1.41346428,11.9513046 Z" id="Path" fill="#125C9F"></path>
                    <path d="M46.0089897,2.71692955 C45.9835368,3.05506672 45.8484803,3.38774272 45.6033009,3.67217837 L41.9920989,7.8586165 C41.6077075,8.30415658 41.0072257,8.5662925 40.3693436,8.5662925 L0.200074439,8.5662925 L0.200074439,11.0010619 C0.200074439,11.5257889 0.685758285,11.9513046 1.28468171,11.9513046 L42.6658229,11.9513046 C43.3031855,11.9513046 43.9036673,11.6896238 44.2880588,11.2436286 L47.8997802,7.05719056 C48.4477978,6.42141996 48.4477978,5.54444784 47.8997802,4.90867713 L46.0089897,2.71692955 Z" id="Path" fill="#2B4F70"></path>
                    <path d="M33.0958738,6.09283981 L24.7807949,6.09283981 C24.288835,6.09283981 23.8901699,5.69417476 23.8901699,5.20221483 C23.8901699,4.71025491 24.288835,4.31113468 24.7807949,4.31113468 L33.0958738,4.31113468 C33.5878337,4.31113468 33.9869539,4.71025491 33.9869539,5.20221483 C33.9869539,5.69417476 33.5878337,6.09283981 33.0958738,6.09283981 Z" id="Path" fill-opacity="0.762907609" fill="#FFFFFF"></path>
                    <path d="M39.6615595,6.09283981 L36.1554915,6.09283981 C35.6635315,6.09283981 35.2648666,5.69417476 35.2648666,5.20221483 C35.2648666,4.71025491 35.6635315,4.31113468 36.1554915,4.31113468 L39.6615595,4.31113468 C40.1535194,4.31113468 40.5521845,4.71025491 40.5521845,5.20221483 C40.5521845,5.69417476 40.1535194,6.09283981 39.6615595,6.09283981 Z" id="Path" fill-opacity="0.762907609" fill="#FFFFFF"></path>
                </g>
                <g id="Group-10-Copy-2" transform="translate(30.000000, 41.000000)">
                    <path d="M1.41346428,11.9513046 C0.81402144,11.9513046 0.328857008,11.5257889 0.328857008,11.0010619 L0.328857008,0.964805825 C0.328857008,0.440078913 0.814540854,0.0145631068 1.41346428,0.0145631068 L42.6658229,0.0145631068 C43.3031855,0.0145631068 43.9036673,0.276699029 44.2880588,0.722239107 L47.8997802,4.90867713 C48.4477978,5.54444784 48.4477978,6.42141996 47.8997802,7.05719056 L44.2880588,11.2436286 C43.9036673,11.6896238 43.3031855,11.9513046 42.6658229,11.9513046 L1.41346428,11.9513046 Z" id="Path" fill="#125C9F"></path>
                    <path d="M46.0089897,2.71692955 C45.9835368,3.05506672 45.8484803,3.38774272 45.6033009,3.67217837 L41.9920989,7.8586165 C41.6077075,8.30415658 41.0072257,8.5662925 40.3693436,8.5662925 L0.200074439,8.5662925 L0.200074439,11.0010619 C0.200074439,11.5257889 0.685758285,11.9513046 1.28468171,11.9513046 L42.6658229,11.9513046 C43.3031855,11.9513046 43.9036673,11.6896238 44.2880588,11.2436286 L47.8997802,7.05719056 C48.4477978,6.42141996 48.4477978,5.54444784 47.8997802,4.90867713 L46.0089897,2.71692955 Z" id="Path" fill="#2B4F70"></path>
                    <path d="M33.0958738,6.09283981 L24.7807949,6.09283981 C24.288835,6.09283981 23.8901699,5.69417476 23.8901699,5.20221483 C23.8901699,4.71025491 24.288835,4.31113468 24.7807949,4.31113468 L33.0958738,4.31113468 C33.5878337,4.31113468 33.9869539,4.71025491 33.9869539,5.20221483 C33.9869539,5.69417476 33.5878337,6.09283981 33.0958738,6.09283981 Z" id="Path" fill-opacity="0.76" fill="#FFFFFF"></path>
                    <path d="M39.6615595,6.09283981 L36.1554915,6.09283981 C35.6635315,6.09283981 35.2648666,5.69417476 35.2648666,5.20221483 C35.2648666,4.71025491 35.6635315,4.31113468 36.1554915,4.31113468 L39.6615595,4.31113468 C40.1535194,4.31113468 40.5521845,4.71025491 40.5521845,5.20221483 C40.5521845,5.69417476 40.1535194,6.09283981 39.6615595,6.09283981 Z" id="Path" fill-opacity="0.76" fill="#FFFFFF"></path>
                </g>
                <g id="Group-10-Copy" transform="translate(24.500000, 31.000000) scale(-1, 1) translate(-24.500000, -31.000000) translate(0.000000, 25.000000)">
                    <path d="M1.41346428,11.9513046 C0.81402144,11.9513046 0.328857008,11.5257889 0.328857008,11.0010619 L0.328857008,0.964805825 C0.328857008,0.440078913 0.814540854,0.0145631068 1.41346428,0.0145631068 L42.6658229,0.0145631068 C43.3031855,0.0145631068 43.9036673,0.276699029 44.2880588,0.722239107 L47.8997802,4.90867713 C48.4477978,5.54444784 48.4477978,6.42141996 47.8997802,7.05719056 L44.2880588,11.2436286 C43.9036673,11.6896238 43.3031855,11.9513046 42.6658229,11.9513046 L1.41346428,11.9513046 Z" id="Path" fill="#125C9F"></path>
                    <path d="M46.0089897,2.71692955 C45.9835368,3.05506672 45.8484803,3.38774272 45.6033009,3.67217837 L41.9920989,7.8586165 C41.6077075,8.30415658 41.0072257,8.5662925 40.3693436,8.5662925 L0.200074439,8.5662925 L0.200074439,11.0010619 C0.200074439,11.5257889 0.685758285,11.9513046 1.28468171,11.9513046 L42.6658229,11.9513046 C43.3031855,11.9513046 43.9036673,11.6896238 44.2880588,11.2436286 L47.8997802,7.05719056 C48.4477978,6.42141996 48.4477978,5.54444784 47.8997802,4.90867713 L46.0089897,2.71692955 Z" id="Path" fill="#2B4F70"></path>
                    <path d="M33.0958738,6.09283981 L24.7807949,6.09283981 C24.288835,6.09283981 23.8901699,5.69417476 23.8901699,5.20221483 C23.8901699,4.71025491 24.288835,4.31113468 24.7807949,4.31113468 L33.0958738,4.31113468 C33.5878337,4.31113468 33.9869539,4.71025491 33.9869539,5.20221483 C33.9869539,5.69417476 33.5878337,6.09283981 33.0958738,6.09283981 Z" id="Path" fill-opacity="0.76" fill="#FFFFFF"></path>
                    <path d="M39.6615595,6.09283981 L36.1554915,6.09283981 C35.6635315,6.09283981 35.2648666,5.69417476 35.2648666,5.20221483 C35.2648666,4.71025491 35.6635315,4.31113468 36.1554915,4.31113468 L39.6615595,4.31113468 C40.1535194,4.31113468 40.5521845,4.71025491 40.5521845,5.20221483 C40.5521845,5.69417476 40.1535194,6.09283981 39.6615595,6.09283981 Z" id="Path" fill-opacity="0.76" fill="#FFFFFF"></path>
                </g>
            </g>
        </g>
    </g>
</svg>