<svg xmlns="http://www.w3.org/2000/svg" width="79" height="63" viewBox="0 0 79 63">
    <g fill="none" fill-rule="evenodd">
        <circle cx="40" cy="31" r="31" fill="#CCDADD" fill-opacity=".854"/>
        <path fill="#FFF" d="M38 11h4v52h-4z"/>
        <path fill="#39449A" d="M29.413 20.951c-.599 0-1.084-.425-1.084-.95V9.965c0-.525.486-.95 1.084-.95h41.253c.637 0 1.238.262 1.622.707L75.9 13.91a1.61 1.61 0 0 1 0 2.148l-3.612 4.187c-.384.446-.985.707-1.622.707H29.413z"/>
        <path fill="#2C3370" d="M74.009 11.717a1.65 1.65 0 0 1-.406.955l-3.61 4.187c-.385.445-.986.707-1.624.707H28.2v2.435c0 .525.486.95 1.085.95h41.38c.638 0 1.239-.261 1.623-.707l3.612-4.187a1.61 1.61 0 0 0 0-2.148l-1.891-2.192z"/>
        <path fill="#FFF" fill-opacity=".763" d="M61.096 15.093H52.78a.89.89 0 1 1 0-1.782h8.315a.891.891 0 0 1 0 1.782zM67.662 15.093h-3.507a.89.89 0 1 1 0-1.782h3.507a.89.89 0 0 1 0 1.782z"/>
        <g>
            <path fill="#39449A" d="M31.413 52.951c-.599 0-1.084-.425-1.084-.95V41.965c0-.525.486-.95 1.084-.95h41.253c.637 0 1.238.262 1.622.707L77.9 45.91a1.61 1.61 0 0 1 0 2.148l-3.612 4.187c-.384.446-.985.707-1.622.707H31.413z"/>
            <path fill="#2C3370" d="M76.009 43.717a1.65 1.65 0 0 1-.406.955l-3.61 4.187c-.385.445-.986.707-1.624.707H30.2v2.435c0 .525.486.95 1.085.95h41.38c.638 0 1.239-.261 1.623-.707l3.612-4.187a1.61 1.61 0 0 0 0-2.148l-1.891-2.192z"/>
            <path fill="#FFF" fill-opacity=".76" d="M63.096 47.093H54.78a.89.89 0 1 1 0-1.782h8.315a.891.891 0 0 1 0 1.782zM69.662 47.093h-3.507a.89.89 0 1 1 0-1.782h3.507a.89.89 0 0 1 0 1.782z"/>
        </g>
        <g>
            <path fill="#4A55A5" d="M47.587 36.951c.599 0 1.084-.425 1.084-.95V25.965c0-.525-.486-.95-1.084-.95H6.334c-.637 0-1.238.262-1.622.707L1.1 29.91a1.61 1.61 0 0 0 0 2.148l3.612 4.187c.384.446.985.707 1.622.707h41.253z"/>
            <path fill="#2C3370" d="M2.991 27.717c.025.338.16.67.406.955l3.61 4.187c.385.445.986.707 1.624.707H48.8v2.435c0 .525-.486.95-1.085.95H6.335c-.638 0-1.239-.261-1.623-.707L1.1 32.057a1.61 1.61 0 0 1 0-2.148l1.891-2.192z"/>
            <path fill="#FFF" fill-opacity=".76" d="M15.904 31.093h8.315a.89.89 0 1 0 0-1.782h-8.315a.891.891 0 0 0 0 1.782zM9.338 31.093h3.507a.89.89 0 1 0 0-1.782H9.338a.89.89 0 0 0 0 1.782z"/>
        </g>
    </g>
</svg>
