<?xml version="1.0" encoding="UTF-8"?>
<svg width="211px" height="323px" viewBox="0 0 211 323" version="1.1" xmlns="http://www.w3.org/2000/svg" xmlns:xlink="http://www.w3.org/1999/xlink">
    <!-- Generator: sketchtool 53.2 (72643) - https://sketchapp.com -->
    <title>C1A02413-8AA5-45E8-820C-CE7C772D82CF</title>
    <desc>Created with sketchtool.</desc>
    <g id="Bot-creation" stroke="none" stroke-width="1" fill="none" fill-rule="evenodd">
        <g id="Pipeline-bot-creation-page" transform="translate(-141.000000, -221.000000)" fill-rule="nonzero">
            <g id="planning-(1)" transform="translate(141.000000, 221.000000)">
                <g id="Group-3" transform="translate(68.000000, 0.000000)">
                    <rect id="Rectangle" fill="#30839C" x="2.52" y="3.3442623" width="78.12" height="44.3114754"></rect>
                    <path d="M80.8888596,51 L3.11114037,51 C1.24453514,51 0,49.740647 0,47.8518173 L0,3.14818269 C0,1.25935301 1.24453514,0 3.11114037,0 L80.8888596,0 C82.7554649,0 84,1.25935301 84,3.14818269 L84,47.8518173 C84,49.740647 82.4446273,51 80.8888596,51 Z M6.22228074,44.7036346 L77.7777193,44.7036346 L77.7777193,6.29636537 L6.22228074,6.29636537 L6.22228074,44.7036346 Z" id="Shape" fill="#5BA4BA"></path>
                    <rect id="Rectangle" fill="#FFFFFF" x="15.96" y="15.8852459" width="52.92" height="20.0655738"></rect>
                    <rect id="Rectangle" fill="#183651" x="24.0832574" y="22.0546416" width="6.26291691" height="6.28903589"></rect>
                    <rect id="Rectangle" fill="#183651" x="39.114417" y="22.0546416" width="6.26291691" height="6.28903589"></rect>
                    <rect id="Rectangle" fill="#183651" x="54.1451791" y="22.0546416" width="6.26291691" height="6.28903589"></rect>
                </g>
                <rect id="Rectangle" fill="#1A96B3" x="71" y="142" width="78" height="44"></rect>
                <path d="M148.88886,189 L71.1111404,189 C69.2445351,189 68,187.748376 68,185.871139 L68,141.128861 C68,139.251624 69.2445351,138 71.1111404,138 L148.88886,138 C150.755465,138 152,139.251624 152,141.128861 L152,185.558134 C152,187.435371 150.444627,189 148.88886,189 Z M74.2222807,182.742278 L145.777719,182.742278 L145.777719,144.257722 L74.2222807,144.257722 L74.2222807,182.742278 Z" id="Shape" fill="#02BDE8"></path>
                <rect id="Rectangle" fill="#FFFFFF" x="84" y="153" width="53" height="20"></rect>
                <g id="Group-2" transform="translate(68.000000, 272.000000)">
                    <rect id="Rectangle" fill="#407AB1" x="2.52" y="3.3442623" width="78.12" height="44.3114754"></rect>
                    <path d="M80.8888596,51 L3.11114037,51 C1.24453514,51 0,49.740647 0,47.8518173 L0,3.14818269 C0,1.25935301 1.24453514,0 3.11114037,0 L80.8888596,0 C82.7554649,0 84,1.25935301 84,3.14818269 L84,47.8518173 C84,49.740647 82.4446273,51 80.8888596,51 Z M6.22228074,44.7036346 L77.7777193,44.7036346 L77.7777193,6.29636537 L6.22228074,6.29636537 L6.22228074,44.7036346 Z" id="Shape" fill="#5DA3E2"></path>
                    <rect id="Rectangle" fill="#FFFFFF" x="15.96" y="15.0491803" width="52.92" height="20.0655738"></rect>
                    <rect id="Rectangle" fill="#183651" x="24.0832574" y="21.8693589" width="6.26291691" height="6.28903589"></rect>
                    <rect id="Rectangle" fill="#183651" x="39.114417" y="21.8693589" width="6.26291691" height="6.28903589"></rect>
                    <rect id="Rectangle" fill="#183651" x="54.1451791" y="21.8693589" width="6.26291691" height="6.28903589"></rect>
                </g>
                <g id="Group" transform="translate(0.000000, 11.000000)">
                    <path d="M40.2022067,26.1943144 C39.2613888,24.9329811 39.2613888,22.7257479 40.8292859,21.779848 L50.8653402,13.8972155 L40.829684,6.01418273 C39.5751275,5.06828284 39.261787,2.86104967 40.2026048,1.59971638 C41.1434227,0.3383831 43.3387972,0.0233500011 44.5933537,0.96924989 L57.7652023,11.374549 C58.7060201,11.6899824 59.0197588,12.6358822 59.0197588,13.5817821 C59.0197588,14.527682 58.7060201,15.4735819 58.0789409,16.1044487 L44.9066943,26.5093475 C43.338399,27.7706808 41.4567633,27.4556477 40.2022067,26.1943144 Z" id="Path" fill="#6E8EA9"></path>
                    <path d="M55.8831683,16.7349152 L13.2314304,16.7349152 C11.3497947,16.7349152 10.0952381,15.4735819 10.0952381,13.5817821 C10.0952381,11.6899824 11.3497947,10.4286491 13.2314304,10.4286491 L55.8831683,10.4286491 C57.7648041,10.4286491 59.0193607,11.6899824 59.0193607,13.5817821 C59.0193607,15.4735819 57.7648041,16.7349152 55.8831683,16.7349152 Z" id="Path" fill="#6E8EA9"></path>
                    <g id="Group-4" transform="translate(161.885434, 10.428649)" fill="#6E8EA9">
                        <path d="M14.4264051,155.104557 L1.25455656,144.699257 C0.627477353,144.068791 -9.9475983e-14,143.122891 -9.9475983e-14,142.176591 C-9.9475983e-14,141.230291 0.313738677,140.284791 1.25455656,139.653924 L14.4264051,129.248625 C15.6809617,128.302725 17.8763361,128.302725 18.817154,129.879092 C19.7579719,131.140425 19.7579719,133.347658 18.1900748,134.293558 L8.15441858,142.176191 L18.1900748,150.058823 C19.4446313,151.004723 19.7579719,153.211956 18.817154,154.473289 C17.5625974,155.735023 15.6809617,156.050456 14.4264051,155.104557 Z" id="Path"></path>
                        <path d="M45.7879303,145.329724 L3.13619233,145.329724 C1.25455656,145.329724 1.56319402e-13,144.068391 1.56319402e-13,142.176591 C1.56319402e-13,140.284791 1.25455656,139.023458 3.13619233,139.023458 L42.6517379,139.023458 L42.6517379,6.30626612 L7.52654308,6.30626612 C5.64490731,6.30626612 4.39035075,5.04493284 4.39035075,3.15313306 C4.39035075,1.26133328 5.64490731,-5.68434189e-14 7.52654308,-5.68434189e-14 L45.7875321,-5.68434189e-14 C47.6691679,-5.68434189e-14 48.9237244,1.26133328 48.9237244,3.15313306 L48.9237244,141.861558 C48.9241226,143.753358 47.3562255,145.329724 45.7879303,145.329724 Z" id="Path"></path>
                    </g>
                    <g id="Group-4-Copy" transform="translate(25.134921, 227.646575) scale(-1, 1) translate(-25.134921, -227.646575) translate(0.634921, 149.646575)" fill="#6E8EA9">
                        <path d="M14.4264051,155.104557 L1.25455656,144.699257 C0.627477353,144.068791 -9.9475983e-14,143.122891 -9.9475983e-14,142.176591 C-9.9475983e-14,141.230291 0.313738677,140.284791 1.25455656,139.653924 L14.4264051,129.248625 C15.6809617,128.302725 17.8763361,128.302725 18.817154,129.879092 C19.7579719,131.140425 19.7579719,133.347658 18.1900748,134.293558 L8.15441858,142.176191 L18.1900748,150.058823 C19.4446313,151.004723 19.7579719,153.211956 18.817154,154.473289 C17.5625974,155.735023 15.6809617,156.050456 14.4264051,155.104557 Z" id="Path"></path>
                        <path d="M45.7879303,145.329724 L3.13619233,145.329724 C1.25455656,145.329724 1.56319402e-13,144.068391 1.56319402e-13,142.176591 C1.56319402e-13,140.284791 1.25455656,139.023458 3.13619233,139.023458 L42.6517379,139.023458 L42.6517379,6.30626612 L7.52654308,6.30626612 C5.64490731,6.30626612 4.39035075,5.04493284 4.39035075,3.15313306 C4.39035075,1.26133328 5.64490731,-5.68434189e-14 7.52654308,-5.68434189e-14 L45.7875321,-5.68434189e-14 C47.6691679,-5.68434189e-14 48.9237244,1.26133328 48.9237244,3.15313306 L48.9237244,141.861558 C48.9241226,143.753358 47.3562255,145.329724 45.7879303,145.329724 Z" id="Path"></path>
                    </g>
                    <rect id="Rectangle" fill="#183651" x="92.2625216" y="149.452507" width="6.27238466" height="6.30626612"></rect>
                    <rect id="Rectangle" fill="#183651" x="107.316404" y="149.452507" width="6.27238466" height="6.30626612"></rect>
                    <rect id="Rectangle" fill="#183651" x="122.369888" y="149.452507" width="6.27238466" height="6.30626612"></rect>
                </g>
            </g>
        </g>
    </g>
</svg>