<?xml version="1.0" encoding="UTF-8"?>
<svg width="16px" height="20px" viewBox="0 0 16 20" version="1.1" xmlns="http://www.w3.org/2000/svg" xmlns:xlink="http://www.w3.org/1999/xlink">
    <!-- Generator: sketchtool 52.5 (67469) - http://www.bohemiancoding.com/sketch -->
    <title>245C654D-B654-4F44-A10B-C4B2964C3658</title>
    <desc>Created with sketchtool.</desc>
    <g id="Symbols" stroke="none" stroke-width="1" fill="none" fill-rule="evenodd">
        <g id="top-bar-2v" transform="translate(-468.000000, -19.000000)">
            <g id="top-bar">
                <g id="Group-4" transform="translate(60.000000, 0.000000)">
                    <g id="Report" transform="translate(404.000000, 17.000000)">
                        <g id="reports">
                            <g id="baseline-description-24px">
                                <polygon id="Shape" points="0 0 24 0 24 24 0 24"></polygon>
                                <path d="M14,2 L6,2 C4.9,2 4.01,2.9 4.01,4 L4,20 C4,21.1 4.89,22 5.99,22 L18,22 C19.1,22 20,21.1 20,20 L20,8 L14,2 Z M16,18 L8,18 L8,16 L16,16 L16,18 Z M16,14 L8,14 L8,12 L16,12 L16,14 Z M13,9 L13,3.5 L18.5,9 L13,9 Z" id="Shape" fill="#00ABD3" fill-rule="nonzero"></path>
                            </g>
                        </g>
                    </g>
                </g>
            </g>
        </g>
    </g>
</svg>