<svg xmlns="http://www.w3.org/2000/svg" width="64" height="64" viewBox="0 0 64 64">
    <g fill="#C8C8C8" fill-rule="nonzero" opacity=".848">
        <path d="M32 18.133a6.4 6.4 0 1 0 6.4 6.4 6.406 6.406 0 0 0-6.4-6.4zM32 28.8a4.267 4.267 0 1 1 0-8.533 4.267 4.267 0 0 1 0 8.533z"/>
        <path d="M64 40.533V38.4a8.543 8.543 0 0 0-8.533 8.533 8.4 8.4 0 0 0 .203 1.836 6.39 6.39 0 0 0-3.029 3.51 6.273 6.273 0 0 0-3.764.98 7.456 7.456 0 0 0-10.477.186v-7.578h1.067c.589 0 1.066-.478 1.066-1.067v-3.2H41.6a1.067 1.067 0 0 0 1.067-.99l.231-3.277H51.2a1.067 1.067 0 0 0 .754-1.82l-8.33-8.331.298-4.192a24.763 24.763 0 0 0-3.64-14.763c0-.006 0-.013-.008-.019-.016-.027-.035-.05-.051-.076a24.733 24.733 0 0 0-2.328-3.155c-.066-.077-.136-.15-.203-.226-.344-.386-.7-.762-1.067-1.126-.107-.107-.22-.221-.335-.33a23.61 23.61 0 0 0-1.38-1.229L32.676.241a1.067 1.067 0 0 0-1.35 0l-2.232 1.825a24.84 24.84 0 0 0-1.379 1.229c-.114.107-.224.22-.335.33-.37.364-.725.74-1.066 1.126-.068.076-.138.15-.204.226a24.733 24.733 0 0 0-2.328 3.155c-.016.026-.035.05-.05.076 0 .006 0 .013-.008.02a24.763 24.763 0 0 0-3.64 14.762l.298 4.192-8.33 8.33a1.067 1.067 0 0 0 .749 1.821h8.302l.231 3.276c.04.56.506.992 1.067.991h1.067v3.2c0 .59.477 1.067 1.066 1.067H25.6v7.573a7.456 7.456 0 0 0-10.477-.187 6.276 6.276 0 0 0-3.764-.98 6.387 6.387 0 0 0-3.03-3.508 8.429 8.429 0 0 0 .204-1.832A8.543 8.543 0 0 0 0 38.4v2.133a6.406 6.406 0 0 1 6.4 6.4 6.27 6.27 0 0 1-.115 1.152A5.807 5.807 0 0 0 5.333 48a6.354 6.354 0 0 0-5.12 2.56l1.707 1.28a4.16 4.16 0 0 1 4.784-1.458 4.246 4.246 0 0 1 2.818 3.271 1.067 1.067 0 0 0 1.28.854 4.246 4.246 0 0 1 3.745 7.334l1.416 1.6a6.31 6.31 0 0 0 .755-8.74 5.32 5.32 0 0 1 8.882 3.966 1.067 1.067 0 0 0 2.133 0v-12.8h2.134v3.2H32v-3.2h4.267v12.8a1.067 1.067 0 0 0 2.133 0 5.333 5.333 0 0 1 9.508-3.307 5.316 5.316 0 0 1 .854 5.088l2.01.715a7.406 7.406 0 0 0-.57-6.196 4.18 4.18 0 0 1 2.065-.567c.312.001.624.037.929.107a1.067 1.067 0 0 0 1.28-.854 4.257 4.257 0 0 1 6.75-2.666l1.28-1.707a6.105 6.105 0 0 0-4.79-1.188 6.257 6.257 0 0 1-.116-1.159 6.406 6.406 0 0 1 6.4-6.4zM43.422 29.997l5.203 5.203h-5.574l.37-5.203zM15.375 35.2l5.203-5.203.371 5.203h-5.574zM26.946 7.307l.146-.184c.267-.336.545-.663.83-.983.085-.095.17-.19.257-.284.268-.29.545-.57.827-.846.095-.092.185-.185.281-.276.374-.351.757-.692 1.154-1.017L32 2.445l1.555 1.272c.397.32.78.666 1.153 1.017.096.09.187.184.282.276.281.275.559.556.827.846.087.094.171.189.257.284.284.32.563.647.83.983l.146.184c.32.41.629.832.921 1.267a9.565 9.565 0 0 1-11.946 0c.292-.435.601-.853.921-1.267zm-3.553 32.16l-.152-2.134h10.892V35.2H23.09l-.883-12.363a22.629 22.629 0 0 1 2.713-12.434 11.657 11.657 0 0 0 14.162 0 22.629 22.629 0 0 1 2.713 12.434l-1.187 16.63H23.393zm2.207 4.266V41.6h12.8v2.133H25.6z"/>
        <path d="M30.933 23.467h2.133V25.6h-2.133zM36.267 35.2H38.4v2.133h-2.133zM56.533 24.533h2.133v2.133h-2.133zM42.667 0H44.8v2.133h-2.133zM18.133 4.267h2.133V6.4h-2.133zM2.133 4.267h2.133V6.4H2.133zM4.267 28.8H6.4v2.133H4.267zM60.8 1.067h2.133V3.2H60.8zM29.867 51.2H32v2.133h-2.133zM32 55.467h2.133v4.267H32zM29.867 61.867H32V64h-2.133zM11.733 16v-2.133H9.6V16H7.467v2.133H9.6v2.134h2.133v-2.134h2.134V16zM54.4 12.8v-2.133h-2.133V12.8h-2.134v2.133h2.134v2.134H54.4v-2.134h2.133V12.8z"/>
    </g>
</svg>
