<svg xmlns="http://www.w3.org/2000/svg" width="32" height="32" viewBox="0 0 32 32">
    <g fill="none" fill-rule="evenodd">
        <circle cx="16" cy="16" r="16" fill="#2B4F70"/>
        <path fill="#02BDE8" d="M3 14h4v4H3z"/>
        <rect width="4" height="4" x="24" y="9" fill="#1EBDC2" rx="1"/>
        <rect width="4" height="4" x="24" y="19" fill="#709FEB" rx="1"/>
        <path fill="#FFF" fill-rule="nonzero" d="M20.055 23.978L23 21.033l-2.945-2.945-.883.884 1.437 1.436h-2.52a3.138 3.138 0 0 1-2.373-1.083l-2.121-2.447a4.473 4.473 0 0 0-1.06-.894c.394-.233.751-.528 1.055-.879l2.126-2.452a3.138 3.138 0 0 1 2.373-1.084h2.52l-1.437 1.437.883.884L23 10.945 20.055 8l-.883.883 1.437 1.437h-2.52a4.387 4.387 0 0 0-3.317 1.514l-2.126 2.453a3.128 3.128 0 0 1-2.36 1.062H7v1.249h3.279c.902 0 1.767.4 2.372 1.099l2.121 2.446a4.387 4.387 0 0 0 3.317 1.514h2.52l-1.437 1.437.883.884z"/>
    </g>
</svg>
