<svg xmlns="http://www.w3.org/2000/svg" width="32" height="32" viewBox="0 0 32 32">
    <g fill="none" fill-rule="nonzero">
        <circle cx="16" cy="16" r="16" fill="#2B4F70"/>
        <path fill="#FFF" d="M15.556 8h8.888c.491 0 .89.398.89.889V16c0 .49-.399.889-.89.889H16l-1.333 1.413V8.89c0-.491.398-.889.889-.889z"/>
        <path fill="#00ABD3" d="M21.289 11.642c0 .576-.422.927-.73 1.184-.116.098-.333.276-.333.342a.465.465 0 0 1-.47.468h-.004a.467.467 0 0 1-.473-.46c-.005-.512.37-.817.67-1.069.237-.197.392-.336.392-.463a.468.468 0 0 0-.938 0 .473.473 0 0 1-.947 0c0-.778.635-1.41 1.416-1.41a1.413 1.413 0 0 1 1.416 1.408zm-1.524 2.43a.464.464 0 0 0-.463.472v.004a.462.462 0 0 0 .463.47.473.473 0 0 0 0-.946zm-9.55 3.286a.473.473 0 0 0 0 .944h.04a.473.473 0 1 0 0-.944h-.04zm1.646 0a.473.473 0 0 0 0 .944h.04a.473.473 0 1 0 0-.944h-.04zm13.917-7.535v5.31a2.273 2.273 0 0 1-2.276 2.278h-6.144c-.12 0-.219 0-.302-.003a2.526 2.526 0 0 0-.222.002 3.04 3.04 0 0 0-.23.201l-.125.113L14.74 19.3a.484.484 0 0 1-.515.083.48.48 0 0 1-.293-.43V13.95H8.97c-.74 0-1.354.604-1.354 1.341v5.31c0 .738.613 1.317 1.354 1.317h6.864c.118 0 .228.054.315.133l1.417 1.3v-4.484c0-.26.212-.471.474-.471s.474.211.474.472v5.553a.465.465 0 0 1-.787.338l-2.077-1.897h-6.68c-1.263 0-2.302-1.003-2.302-2.26v-5.311c0-1.257 1.04-2.284 2.302-2.284h4.963V9.822c0-1.257 1.048-2.267 2.31-2.267h7.26a2.264 2.264 0 0 1 2.276 2.268zm-.948 0a1.317 1.317 0 0 0-1.327-1.324h-7.261c-.74 0-1.362.587-1.362 1.324v8.06l.952-.857c.045-.04.094-.077.13-.11.435-.399.546-.463 1.114-.451.077.002.17.002.282.002h6.144a1.326 1.326 0 0 0 1.328-1.334v-5.31z"/>
    </g>
</svg>
