<svg xmlns="http://www.w3.org/2000/svg" xmlns:xlink="http://www.w3.org/1999/xlink" width="375" height="601" viewBox="0 0 375 601">
    <defs>
        <path id="a" d="M.059.457h375v614h-375z"/>
    </defs>
    <g fill="none" fill-rule="evenodd" transform="translate(-.06 -13.457)">
        <mask id="b" fill="#fff">
            <use xlink:href="#a"/>
        </mask>
        <path fill="#EFF7FF" fill-opacity=".67" d="M161.183 88.659l355.293 503.075c23.895 33.834 15.838 80.633-17.997 104.528A75 75 0 0 1 455.213 710h-751.426c-41.422 0-75-33.579-75-75a75 75 0 0 1 13.737-43.266L-2.183 88.66c31.86-45.113 94.259-55.856 139.37-23.995a100 100 0 0 1 23.996 23.995z" mask="url(#b)" transform="scale(1 -1) rotate(88 433.134 0)"/>
    </g>
</svg>
