<?xml version="1.0" encoding="UTF-8" standalone="no"?>
<!DOCTYPE svg PUBLIC "-//W3C//DTD SVG 1.1//EN"
 "http://www.w3.org/Graphics/SVG/1.1/DTD/svg11.dtd">
<!-- Generated by graphviz Versions 2.40.1 (20161225.0304)
 -->
<!-- Title: dependencies Pages: 1 -->
<svg width="667pt" height="211pt"
 viewBox="0.00 0.00 667.00 211.00" xmlns="http://www.w3.org/2000/svg" xmlns:xlink="http://www.w3.org/1999/xlink">
<g id="graph0" class="graph" transform="scale(1 1) rotate(0) translate(4 207)">
<title>dependencies</title>
<polygon fill="#ffffff" stroke="transparent" points="-4,4 -4,-207 663,-207 663,4 -4,4"/>
<text text-anchor="start" x="308.5091" y="-42.4" font-family="sans-serif" font-weight="bold" font-size="14.00" fill="#000000">Legend</text>
<polygon fill="#ffffb3" stroke="transparent" points="95.5,-10 95.5,-30 115.5,-30 115.5,-10 95.5,-10"/>
<text text-anchor="start" x="119.129" y="-15.4" font-family="sans-serif" font-size="14.00" fill="#000000"> &#160;Declarations</text>
<polygon fill="#8dd3c7" stroke="transparent" points="208.5,-10 208.5,-30 228.5,-30 228.5,-10 208.5,-10"/>
<text text-anchor="start" x="232.2251" y="-15.4" font-family="sans-serif" font-size="14.00" fill="#000000"> &#160;Module</text>
<polygon fill="#80b1d3" stroke="transparent" points="294.5,-10 294.5,-30 314.5,-30 314.5,-10 294.5,-10"/>
<text text-anchor="start" x="318.2812" y="-15.4" font-family="sans-serif" font-size="14.00" fill="#000000"> &#160;Bootstrap</text>
<polygon fill="#fdb462" stroke="transparent" points="391.5,-10 391.5,-30 411.5,-30 411.5,-10 391.5,-10"/>
<text text-anchor="start" x="415.1732" y="-15.4" font-family="sans-serif" font-size="14.00" fill="#000000"> &#160;Providers</text>
<polygon fill="#fb8072" stroke="transparent" points="487.5,-10 487.5,-30 507.5,-30 507.5,-10 487.5,-10"/>
<text text-anchor="start" x="511.2258" y="-15.4" font-family="sans-serif" font-size="14.00" fill="#000000"> &#160;Exports</text>
<g id="clust1" class="cluster">
<title>cluster_AuthModule</title>
<polygon fill="none" stroke="#000000" stroke-dasharray="1,5" points="8,-70 8,-195 651,-195 651,-70 8,-70"/>
</g>
<g id="clust2" class="cluster">
<title>cluster_AuthModule_declarations</title>
<polygon fill="none" stroke="#000000" points="336,-78 336,-130 643,-130 643,-78 336,-78"/>
</g>
<g id="clust5" class="cluster">
<title>cluster_AuthModule_imports</title>
<polygon fill="none" stroke="#000000" points="214,-78 214,-130 328,-130 328,-78 214,-78"/>
</g>
<g id="clust8" class="cluster">
<title>cluster_AuthModule_providers</title>
<polygon fill="none" stroke="#000000" points="16,-78 16,-130 206,-130 206,-78 16,-78"/>
</g>
<!-- AuthWrapperComponent -->
<g id="node1" class="node">
<title>AuthWrapperComponent</title>
<polygon fill="#ffffb3" stroke="#000000" points="635.2949,-122 476.7051,-122 476.7051,-86 635.2949,-86 635.2949,-122"/>
<text text-anchor="middle" x="556" y="-99.8" font-family="Times,serif" font-size="14.00" fill="#000000">AuthWrapperComponent</text>
</g>
<!-- AuthModule -->
<g id="node3" class="node">
<title>AuthModule</title>
<polygon fill="#8dd3c7" stroke="#000000" points="379.5482,-187 376.5482,-191 355.5482,-191 352.5482,-187 292.4518,-187 292.4518,-151 379.5482,-151 379.5482,-187"/>
<text text-anchor="middle" x="336" y="-164.8" font-family="Times,serif" font-size="14.00" fill="#000000">AuthModule</text>
</g>
<!-- AuthWrapperComponent&#45;&gt;AuthModule -->
<g id="edge1" class="edge">
<title>AuthWrapperComponent&#45;&gt;AuthModule</title>
<path fill="none" stroke="#000000" d="M556,-122.1061C556,-141.3391 556,-169 556,-169 556,-169 389.728,-169 389.728,-169"/>
<polygon fill="#000000" stroke="#000000" points="389.728,-165.5001 379.728,-169 389.7279,-172.5001 389.728,-165.5001"/>
</g>
<!-- LoginComponent -->
<g id="node2" class="node">
<title>LoginComponent</title>
<polygon fill="#ffffb3" stroke="#000000" points="458.2758,-122 343.7242,-122 343.7242,-86 458.2758,-86 458.2758,-122"/>
<text text-anchor="middle" x="401" y="-99.8" font-family="Times,serif" font-size="14.00" fill="#000000">LoginComponent</text>
</g>
<!-- LoginComponent&#45;&gt;AuthModule -->
<g id="edge2" class="edge">
<title>LoginComponent&#45;&gt;AuthModule</title>
<path fill="none" stroke="#000000" d="M361.6929,-122.1061C361.6929,-122.1061 361.6929,-140.991 361.6929,-140.991"/>
<polygon fill="#000000" stroke="#000000" points="358.1929,-140.9909 361.6929,-150.991 365.1929,-140.991 358.1929,-140.9909"/>
</g>
<!-- SharedModule -->
<g id="node4" class="node">
<title>SharedModule</title>
<polygon fill="#8dd3c7" stroke="#000000" points="320.4231,-122 317.4231,-126 296.4231,-126 293.4231,-122 221.5769,-122 221.5769,-86 320.4231,-86 320.4231,-122"/>
<text text-anchor="middle" x="271" y="-99.8" font-family="Times,serif" font-size="14.00" fill="#000000">SharedModule</text>
</g>
<!-- SharedModule&#45;&gt;AuthModule -->
<g id="edge3" class="edge">
<title>SharedModule&#45;&gt;AuthModule</title>
<path fill="none" stroke="#000000" d="M306.2188,-122.1061C306.2188,-122.1061 306.2188,-140.991 306.2188,-140.991"/>
<polygon fill="#000000" stroke="#000000" points="302.7189,-140.9909 306.2188,-150.991 309.7189,-140.991 302.7189,-140.9909"/>
</g>
<!-- LoginGaurdService -->
<g id="node5" class="node">
<title>LoginGaurdService</title>
<ellipse fill="#fdb462" stroke="#000000" cx="111" cy="-104" rx="87.3808" ry="18"/>
<text text-anchor="middle" x="111" y="-99.8" font-family="Times,serif" font-size="14.00" fill="#000000">LoginGaurdService</text>
</g>
<!-- LoginGaurdService&#45;&gt;AuthModule -->
<g id="edge4" class="edge">
<title>LoginGaurdService&#45;&gt;AuthModule</title>
<path fill="none" stroke="#000000" d="M111,-122.1061C111,-141.3391 111,-169 111,-169 111,-169 282.351,-169 282.351,-169"/>
<polygon fill="#000000" stroke="#000000" points="282.351,-172.5001 292.351,-169 282.3509,-165.5001 282.351,-172.5001"/>
</g>
</g>
</svg>
