<?xml version="1.0" encoding="UTF-8" standalone="no"?>
<!DOCTYPE svg PUBLIC "-//W3C//DTD SVG 1.1//EN"
 "http://www.w3.org/Graphics/SVG/1.1/DTD/svg11.dtd">
<!-- Generated by graphviz version 2.40.1 (20161225.0304)
 -->
<!-- Title: dependencies Pages: 1 -->
<svg width="1242pt" height="284pt"
 viewBox="0.00 0.00 1242.00 284.00" xmlns="http://www.w3.org/2000/svg" xmlns:xlink="http://www.w3.org/1999/xlink">
<g id="graph0" class="graph" transform="scale(1 1) rotate(0) translate(4 280)">
<title>dependencies</title>
<polygon fill="#ffffff" stroke="transparent" points="-4,4 -4,-280 1238,-280 1238,4 -4,4"/>
<text text-anchor="start" x="596.0091" y="-42.4" font-family="sans-serif" font-weight="bold" font-size="14.00" fill="#000000">Legend</text>
<polygon fill="#ffffb3" stroke="transparent" points="383,-10 383,-30 403,-30 403,-10 383,-10"/>
<text text-anchor="start" x="406.629" y="-15.4" font-family="sans-serif" font-size="14.00" fill="#000000"> &#160;Declarations</text>
<polygon fill="#8dd3c7" stroke="transparent" points="496,-10 496,-30 516,-30 516,-10 496,-10"/>
<text text-anchor="start" x="519.7251" y="-15.4" font-family="sans-serif" font-size="14.00" fill="#000000"> &#160;Module</text>
<polygon fill="#80b1d3" stroke="transparent" points="582,-10 582,-30 602,-30 602,-10 582,-10"/>
<text text-anchor="start" x="605.7812" y="-15.4" font-family="sans-serif" font-size="14.00" fill="#000000"> &#160;Bootstrap</text>
<polygon fill="#fdb462" stroke="transparent" points="679,-10 679,-30 699,-30 699,-10 679,-10"/>
<text text-anchor="start" x="702.6732" y="-15.4" font-family="sans-serif" font-size="14.00" fill="#000000"> &#160;Providers</text>
<polygon fill="#fb8072" stroke="transparent" points="775,-10 775,-30 795,-30 795,-10 775,-10"/>
<text text-anchor="start" x="798.7258" y="-15.4" font-family="sans-serif" font-size="14.00" fill="#000000"> &#160;Exports</text>
<g id="clust1" class="cluster">
<title>cluster_MyMaterialModule</title>
<polygon fill="none" stroke="#000000" stroke-dasharray="1,5" points="8,-70 8,-268 1226,-268 1226,-70 8,-70"/>
</g>
<g id="clust2" class="cluster">
<title>cluster_MyMaterialModule_declarations</title>
<polygon fill="none" stroke="#000000" points="28,-78 28,-130 1210,-130 1210,-78 28,-78"/>
</g>
<g id="clust10" class="cluster">
<title>cluster_MyMaterialModule_exports</title>
<polygon fill="none" stroke="#000000" points="16,-208 16,-260 1218,-260 1218,-208 16,-208"/>
</g>
<!-- BotSessionModalWrapperComponent -->
<g id="node1" class="node">
<title>BotSessionModalWrapperComponent</title>
<polygon fill="#ffffb3" stroke="#000000" points="1201.8514,-122 972.1486,-122 972.1486,-86 1201.8514,-86 1201.8514,-122"/>
<text text-anchor="middle" x="1087" y="-99.8" font-family="Times,serif" font-size="14.00" fill="#000000">BotSessionModalWrapperComponent</text>
</g>
<!-- MyMaterialModule -->
<g id="node7" class="node">
<title>MyMaterialModule</title>
<polygon fill="#8dd3c7" stroke="#000000" points="536.4159,-187 533.4159,-191 512.4159,-191 509.4159,-187 409.5841,-187 409.5841,-151 536.4159,-151 536.4159,-187"/>
<text text-anchor="middle" x="473" y="-164.8" font-family="Times,serif" font-size="14.00" fill="#000000">MyMaterialModule</text>
</g>
<!-- BotSessionModalWrapperComponent&#45;&gt;MyMaterialModule -->
<g id="edge1" class="edge">
<title>BotSessionModalWrapperComponent&#45;&gt;MyMaterialModule</title>
<path fill="none" stroke="#000000" d="M1126.7252,-122.2222C1126.7252,-140.8285 1126.7252,-167 1126.7252,-167 1126.7252,-167 546.2759,-167 546.2759,-167"/>
<polygon fill="#000000" stroke="#000000" points="546.2759,-163.5001 536.2759,-167 546.2759,-170.5001 546.2759,-163.5001"/>
</g>
<!-- GentemplateEditKeyComponent -->
<g id="node2" class="node">
<title>GentemplateEditKeyComponent</title>
<polygon fill="#ffffb3" stroke="#000000" points="953.5154,-122 754.4846,-122 754.4846,-86 953.5154,-86 953.5154,-122"/>
<text text-anchor="middle" x="854" y="-99.8" font-family="Times,serif" font-size="14.00" fill="#000000">GentemplateEditKeyComponent</text>
</g>
<!-- GentemplateEditKeyComponent&#45;&gt;MyMaterialModule -->
<g id="edge2" class="edge">
<title>GentemplateEditKeyComponent&#45;&gt;MyMaterialModule</title>
<path fill="none" stroke="#000000" d="M887.6691,-122.0336C887.6691,-139.0597 887.6691,-162 887.6691,-162 887.6691,-162 546.4307,-162 546.4307,-162"/>
<polygon fill="#000000" stroke="#000000" points="546.4307,-158.5001 536.4307,-162 546.4307,-165.5001 546.4307,-158.5001"/>
</g>
<!-- ModalConfirmComponent -->
<g id="node3" class="node">
<title>ModalConfirmComponent</title>
<polygon fill="#ffffb3" stroke="#000000" points="736.8215,-122 571.1785,-122 571.1785,-86 736.8215,-86 736.8215,-122"/>
<text text-anchor="middle" x="654" y="-99.8" font-family="Times,serif" font-size="14.00" fill="#000000">ModalConfirmComponent</text>
</g>
<!-- ModalConfirmComponent&#45;&gt;MyMaterialModule -->
<g id="edge3" class="edge">
<title>ModalConfirmComponent&#45;&gt;MyMaterialModule</title>
<path fill="none" stroke="#000000" d="M626.4465,-122.2396C626.4465,-137.5706 626.4465,-157 626.4465,-157 626.4465,-157 546.2985,-157 546.2985,-157"/>
<polygon fill="#000000" stroke="#000000" points="546.2985,-153.5001 536.2985,-157 546.2984,-160.5001 546.2985,-153.5001"/>
</g>
<!-- ModalWrapperComponent -->
<g id="node4" class="node">
<title>ModalWrapperComponent</title>
<polygon fill="#ffffb3" stroke="#000000" points="553.3473,-122 386.6527,-122 386.6527,-86 553.3473,-86 553.3473,-122"/>
<text text-anchor="middle" x="470" y="-99.8" font-family="Times,serif" font-size="14.00" fill="#000000">ModalWrapperComponent</text>
</g>
<!-- ModalWrapperComponent&#45;&gt;MyMaterialModule -->
<g id="edge4" class="edge">
<title>ModalWrapperComponent&#45;&gt;MyMaterialModule</title>
<path fill="none" stroke="#000000" d="M473,-122.1061C473,-122.1061 473,-140.991 473,-140.991"/>
<polygon fill="#000000" stroke="#000000" points="469.5001,-140.9909 473,-150.991 476.5001,-140.991 469.5001,-140.9909"/>
</g>
<!-- OverlayComponent -->
<g id="node5" class="node">
<title>OverlayComponent</title>
<polygon fill="#ffffb3" stroke="#000000" points="368.4201,-122 241.5799,-122 241.5799,-86 368.4201,-86 368.4201,-122"/>
<text text-anchor="middle" x="305" y="-99.8" font-family="Times,serif" font-size="14.00" fill="#000000">OverlayComponent</text>
</g>
<!-- OverlayComponent&#45;&gt;MyMaterialModule -->
<g id="edge5" class="edge">
<title>OverlayComponent&#45;&gt;MyMaterialModule</title>
<path fill="none" stroke="#000000" d="M321.9032,-122.0091C321.9032,-138.0494 321.9032,-159 321.9032,-159 321.9032,-159 399.3593,-159 399.3593,-159"/>
<polygon fill="#000000" stroke="#000000" points="399.3593,-162.5001 409.3593,-159 399.3593,-155.5001 399.3593,-162.5001"/>
</g>
<!-- OverlayWithMenuComponent -->
<g id="node6" class="node">
<title>OverlayWithMenuComponent</title>
<polygon fill="#ffffb3" stroke="#000000" points="223.5744,-122 36.4256,-122 36.4256,-86 223.5744,-86 223.5744,-122"/>
<text text-anchor="middle" x="130" y="-99.8" font-family="Times,serif" font-size="14.00" fill="#000000">OverlayWithMenuComponent</text>
</g>
<!-- OverlayWithMenuComponent&#45;&gt;MyMaterialModule -->
<g id="edge6" class="edge">
<title>OverlayWithMenuComponent&#45;&gt;MyMaterialModule</title>
<path fill="none" stroke="#000000" d="M218.9122,-122.2667C218.9122,-140.5552 218.9122,-166 218.9122,-166 218.9122,-166 399.5384,-166 399.5384,-166"/>
<polygon fill="#000000" stroke="#000000" points="399.5384,-169.5001 409.5384,-166 399.5383,-162.5001 399.5384,-169.5001"/>
</g>
<!-- BotSessionModalWrapperComponent  -->
<g id="node8" class="node">
<title>BotSessionModalWrapperComponent </title>
<polygon fill="#fb8072" stroke="#000000" points="1209.8517,-252 976.1483,-252 976.1483,-216 1209.8517,-216 1209.8517,-252"/>
<text text-anchor="middle" x="1093" y="-229.8" font-family="Times,serif" font-size="14.00" fill="#000000">BotSessionModalWrapperComponent </text>
</g>
<!-- MyMaterialModule&#45;&gt;BotSessionModalWrapperComponent  -->
<g id="edge7" class="edge">
<title>MyMaterialModule&#45;&gt;BotSessionModalWrapperComponent </title>
<path fill="none" stroke="#000000" stroke-dasharray="5,2" d="M536.2901,-172C686.4035,-172 1051.5248,-172 1051.5248,-172 1051.5248,-172 1051.5248,-205.7333 1051.5248,-205.7333"/>
<polygon fill="#000000" stroke="#000000" points="1048.0249,-205.7333 1051.5248,-215.7333 1055.0249,-205.7333 1048.0249,-205.7333"/>
</g>
<!-- GentemplateEditKeyComponent  -->
<g id="node9" class="node">
<title>GentemplateEditKeyComponent </title>
<polygon fill="#fb8072" stroke="#000000" points="958.5148,-252 755.4852,-252 755.4852,-216 958.5148,-216 958.5148,-252"/>
<text text-anchor="middle" x="857" y="-229.8" font-family="Times,serif" font-size="14.00" fill="#000000">GentemplateEditKeyComponent </text>
</g>
<!-- MyMaterialModule&#45;&gt;GentemplateEditKeyComponent  -->
<g id="edge8" class="edge">
<title>MyMaterialModule&#45;&gt;GentemplateEditKeyComponent </title>
<path fill="none" stroke="#000000" stroke-dasharray="5,2" d="M536.5298,-177C637.0725,-177 821.5809,-177 821.5809,-177 821.5809,-177 821.5809,-205.9648 821.5809,-205.9648"/>
<polygon fill="#000000" stroke="#000000" points="818.081,-205.9648 821.5809,-215.9648 825.081,-205.9649 818.081,-205.9648"/>
</g>
<!-- ModalConfirmComponent  -->
<g id="node10" class="node">
<title>ModalConfirmComponent </title>
<polygon fill="#fb8072" stroke="#000000" points="737.3213,-252 568.6787,-252 568.6787,-216 737.3213,-216 737.3213,-252"/>
<text text-anchor="middle" x="653" y="-229.8" font-family="Times,serif" font-size="14.00" fill="#000000">ModalConfirmComponent </text>
</g>
<!-- MyMaterialModule&#45;&gt;ModalConfirmComponent  -->
<g id="edge9" class="edge">
<title>MyMaterialModule&#45;&gt;ModalConfirmComponent </title>
<path fill="none" stroke="#000000" stroke-dasharray="5,2" d="M536.4224,-182C597.78,-182 681.5535,-182 681.5535,-182 681.5535,-182 681.5535,-205.8129 681.5535,-205.8129"/>
<polygon fill="#000000" stroke="#000000" points="678.0536,-205.8129 681.5535,-215.8129 685.0536,-205.813 678.0536,-205.8129"/>
</g>
<!-- ModalWrapperComponent  -->
<g id="node11" class="node">
<title>ModalWrapperComponent </title>
<polygon fill="#fb8072" stroke="#000000" points="550.3476,-252 379.6524,-252 379.6524,-216 550.3476,-216 550.3476,-252"/>
<text text-anchor="middle" x="465" y="-229.8" font-family="Times,serif" font-size="14.00" fill="#000000">ModalWrapperComponent </text>
</g>
<!-- MyMaterialModule&#45;&gt;ModalWrapperComponent  -->
<g id="edge10" class="edge">
<title>MyMaterialModule&#45;&gt;ModalWrapperComponent </title>
<path fill="none" stroke="#000000" stroke-dasharray="5,2" d="M473,-187.1061C473,-187.1061 473,-205.991 473,-205.991"/>
<polygon fill="#000000" stroke="#000000" points="469.5001,-205.9909 473,-215.991 476.5001,-205.991 469.5001,-205.9909"/>
</g>
<!-- OverlayComponent  -->
<g id="node12" class="node">
<title>OverlayComponent </title>
<polygon fill="#fb8072" stroke="#000000" points="361.9194,-252 232.0806,-252 232.0806,-216 361.9194,-216 361.9194,-252"/>
<text text-anchor="middle" x="297" y="-229.8" font-family="Times,serif" font-size="14.00" fill="#000000">OverlayComponent </text>
</g>
<!-- MyMaterialModule&#45;&gt;OverlayComponent  -->
<g id="edge11" class="edge">
<title>MyMaterialModule&#45;&gt;OverlayComponent </title>
<path fill="none" stroke="#000000" stroke-dasharray="5,2" d="M409.6143,-180C353.9713,-180 281.8468,-180 281.8468,-180 281.8468,-180 281.8468,-205.7181 281.8468,-205.7181"/>
<polygon fill="#000000" stroke="#000000" points="278.3469,-205.718 281.8468,-215.7181 285.3469,-205.7181 278.3469,-205.718"/>
</g>
<!-- OverlayWithMenuComponent  -->
<g id="node13" class="node">
<title>OverlayWithMenuComponent </title>
<polygon fill="#fb8072" stroke="#000000" points="214.0749,-252 23.9251,-252 23.9251,-216 214.0749,-216 214.0749,-252"/>
<text text-anchor="middle" x="119" y="-229.8" font-family="Times,serif" font-size="14.00" fill="#000000">OverlayWithMenuComponent </text>
</g>
<!-- MyMaterialModule&#45;&gt;OverlayWithMenuComponent  -->
<g id="edge12" class="edge">
<title>MyMaterialModule&#45;&gt;OverlayWithMenuComponent </title>
<path fill="none" stroke="#000000" stroke-dasharray="5,2" d="M409.6444,-173C309.3775,-173 125.375,-173 125.375,-173 125.375,-173 125.375,-205.698 125.375,-205.698"/>
<polygon fill="#000000" stroke="#000000" points="121.8751,-205.698 125.375,-215.698 128.8751,-205.698 121.8751,-205.698"/>
</g>
</g>
</svg>
