<?xml version="1.0" encoding="UTF-8" standalone="no"?>
<!DOCTYPE svg PUBLIC "-//W3C//DTD SVG 1.1//EN"
 "http://www.w3.org/Graphics/SVG/1.1/DTD/svg11.dtd">
<!-- Generated by graphviz version 2.40.1 (20161225.0304)
 -->
<!-- Title: dependencies Pages: 1 -->
<svg width="504pt" height="284pt"
 viewBox="0.00 0.00 504.00 284.00" xmlns="http://www.w3.org/2000/svg" xmlns:xlink="http://www.w3.org/1999/xlink">
<g id="graph0" class="graph" transform="scale(1 1) rotate(0) translate(4 280)">
<title>dependencies</title>
<polygon fill="#ffffff" stroke="transparent" points="-4,4 -4,-280 500,-280 500,4 -4,4"/>
<text text-anchor="start" x="227.0091" y="-42.4" font-family="sans-serif" font-weight="bold" font-size="14.00" fill="#000000">Legend</text>
<polygon fill="#ffffb3" stroke="transparent" points="14,-10 14,-30 34,-30 34,-10 14,-10"/>
<text text-anchor="start" x="37.629" y="-15.4" font-family="sans-serif" font-size="14.00" fill="#000000"> &#160;Declarations</text>
<polygon fill="#8dd3c7" stroke="transparent" points="127,-10 127,-30 147,-30 147,-10 127,-10"/>
<text text-anchor="start" x="150.7251" y="-15.4" font-family="sans-serif" font-size="14.00" fill="#000000"> &#160;Module</text>
<polygon fill="#80b1d3" stroke="transparent" points="213,-10 213,-30 233,-30 233,-10 213,-10"/>
<text text-anchor="start" x="236.7812" y="-15.4" font-family="sans-serif" font-size="14.00" fill="#000000"> &#160;Bootstrap</text>
<polygon fill="#fdb462" stroke="transparent" points="310,-10 310,-30 330,-30 330,-10 310,-10"/>
<text text-anchor="start" x="333.6732" y="-15.4" font-family="sans-serif" font-size="14.00" fill="#000000"> &#160;Providers</text>
<polygon fill="#fb8072" stroke="transparent" points="406,-10 406,-30 426,-30 426,-10 406,-10"/>
<text text-anchor="start" x="429.7258" y="-15.4" font-family="sans-serif" font-size="14.00" fill="#000000"> &#160;Exports</text>
<g id="clust1" class="cluster">
<title>cluster_RichMediaModule</title>
<polygon fill="none" stroke="#000000" stroke-dasharray="1,5" points="66,-70 66,-268 430,-268 430,-70 66,-70"/>
</g>
<g id="clust2" class="cluster">
<title>cluster_RichMediaModule_declarations</title>
<polygon fill="none" stroke="#000000" points="78,-78 78,-130 419,-130 419,-78 78,-78"/>
</g>
<g id="clust6" class="cluster">
<title>cluster_RichMediaModule_exports</title>
<polygon fill="none" stroke="#000000" points="74,-208 74,-260 422,-260 422,-208 74,-208"/>
</g>
<!-- CardCarouselComponent -->
<g id="node1" class="node">
<title>CardCarouselComponent</title>
<polygon fill="#ffffb3" stroke="#000000" points="411.3061,-122 252.6939,-122 252.6939,-86 411.3061,-86 411.3061,-122"/>
<text text-anchor="middle" x="332" y="-99.8" font-family="Times,serif" font-size="14.00" fill="#000000">CardCarouselComponent</text>
</g>
<!-- RichMediaModule -->
<g id="node3" class="node">
<title>RichMediaModule</title>
<polygon fill="#8dd3c7" stroke="#000000" points="221.7562,-187 218.7562,-191 197.7562,-191 194.7562,-187 100.2438,-187 100.2438,-151 221.7562,-151 221.7562,-187"/>
<text text-anchor="middle" x="161" y="-164.8" font-family="Times,serif" font-size="14.00" fill="#000000">RichMediaModule</text>
</g>
<!-- CardCarouselComponent&#45;&gt;RichMediaModule -->
<g id="edge1" class="edge">
<title>CardCarouselComponent&#45;&gt;RichMediaModule</title>
<path fill="none" stroke="#000000" d="M358.3843,-122.0225C358.3843,-139.3734 358.3843,-163 358.3843,-163 358.3843,-163 231.8324,-163 231.8324,-163"/>
<polygon fill="#000000" stroke="#000000" points="231.8324,-159.5001 221.8324,-163 231.8324,-166.5001 231.8324,-159.5001"/>
</g>
<!-- QuickReplyComponent -->
<g id="node2" class="node">
<title>QuickReplyComponent</title>
<polygon fill="#ffffb3" stroke="#000000" points="234.486,-122 85.514,-122 85.514,-86 234.486,-86 234.486,-122"/>
<text text-anchor="middle" x="160" y="-99.8" font-family="Times,serif" font-size="14.00" fill="#000000">QuickReplyComponent</text>
</g>
<!-- QuickReplyComponent&#45;&gt;RichMediaModule -->
<g id="edge2" class="edge">
<title>QuickReplyComponent&#45;&gt;RichMediaModule</title>
<path fill="none" stroke="#000000" d="M161,-122.1061C161,-122.1061 161,-140.991 161,-140.991"/>
<polygon fill="#000000" stroke="#000000" points="157.5001,-140.9909 161,-150.991 164.5001,-140.991 157.5001,-140.9909"/>
</g>
<!-- CardCarouselComponent  -->
<g id="node4" class="node">
<title>CardCarouselComponent </title>
<polygon fill="#fb8072" stroke="#000000" points="413.8059,-252 252.1941,-252 252.1941,-216 413.8059,-216 413.8059,-252"/>
<text text-anchor="middle" x="333" y="-229.8" font-family="Times,serif" font-size="14.00" fill="#000000">CardCarouselComponent </text>
</g>
<!-- RichMediaModule&#45;&gt;CardCarouselComponent  -->
<g id="edge3" class="edge">
<title>RichMediaModule&#45;&gt;CardCarouselComponent </title>
<path fill="none" stroke="#000000" stroke-dasharray="5,2" d="M221.9109,-175C261.4334,-175 305.6157,-175 305.6157,-175 305.6157,-175 305.6157,-205.9775 305.6157,-205.9775"/>
<polygon fill="#000000" stroke="#000000" points="302.1158,-205.9774 305.6157,-215.9775 309.1158,-205.9775 302.1158,-205.9774"/>
</g>
<!-- QuickReplyComponent  -->
<g id="node5" class="node">
<title>QuickReplyComponent </title>
<polygon fill="#fb8072" stroke="#000000" points="234.4868,-252 81.5132,-252 81.5132,-216 234.4868,-216 234.4868,-252"/>
<text text-anchor="middle" x="158" y="-229.8" font-family="Times,serif" font-size="14.00" fill="#000000">QuickReplyComponent </text>
</g>
<!-- RichMediaModule&#45;&gt;QuickReplyComponent  -->
<g id="edge4" class="edge">
<title>RichMediaModule&#45;&gt;QuickReplyComponent </title>
<path fill="none" stroke="#000000" stroke-dasharray="5,2" d="M161,-187.1061C161,-187.1061 161,-205.991 161,-205.991"/>
<polygon fill="#000000" stroke="#000000" points="157.5001,-205.9909 161,-215.991 164.5001,-205.991 157.5001,-205.9909"/>
</g>
</g>
</svg>
