<?xml version="1.0" encoding="UTF-8" standalone="no"?>
<!DOCTYPE svg PUBLIC "-//W3C//DTD SVG 1.1//EN"
 "http://www.w3.org/Graphics/SVG/1.1/DTD/svg11.dtd">
<!-- Generated by graphviz Versions 2.40.1 (20161225.0304)
 -->
<!-- Title: dependencies Pages: 1 -->
<svg width="1583pt" height="211pt"
 viewBox="0.00 0.00 1583.00 211.00" xmlns="http://www.w3.org/2000/svg" xmlns:xlink="http://www.w3.org/1999/xlink">
<g id="graph0" class="graph" transform="scale(1 1) rotate(0) translate(4 207)">
<title>dependencies</title>
<polygon fill="#ffffff" stroke="transparent" points="-4,4 -4,-207 1579,-207 1579,4 -4,4"/>
<text text-anchor="start" x="766.5091" y="-42.4" font-family="sans-serif" font-weight="bold" font-size="14.00" fill="#000000">Legend</text>
<polygon fill="#ffffb3" stroke="transparent" points="553.5,-10 553.5,-30 573.5,-30 573.5,-10 553.5,-10"/>
<text text-anchor="start" x="577.129" y="-15.4" font-family="sans-serif" font-size="14.00" fill="#000000"> &#160;Declarations</text>
<polygon fill="#8dd3c7" stroke="transparent" points="666.5,-10 666.5,-30 686.5,-30 686.5,-10 666.5,-10"/>
<text text-anchor="start" x="690.2251" y="-15.4" font-family="sans-serif" font-size="14.00" fill="#000000"> &#160;Module</text>
<polygon fill="#80b1d3" stroke="transparent" points="752.5,-10 752.5,-30 772.5,-30 772.5,-10 752.5,-10"/>
<text text-anchor="start" x="776.2812" y="-15.4" font-family="sans-serif" font-size="14.00" fill="#000000"> &#160;Bootstrap</text>
<polygon fill="#fdb462" stroke="transparent" points="849.5,-10 849.5,-30 869.5,-30 869.5,-10 849.5,-10"/>
<text text-anchor="start" x="873.1732" y="-15.4" font-family="sans-serif" font-size="14.00" fill="#000000"> &#160;Providers</text>
<polygon fill="#fb8072" stroke="transparent" points="945.5,-10 945.5,-30 965.5,-30 965.5,-10 945.5,-10"/>
<text text-anchor="start" x="969.2258" y="-15.4" font-family="sans-serif" font-size="14.00" fill="#000000"> &#160;Exports</text>
<g id="clust1" class="cluster">
<title>cluster_ViewBotsModule</title>
<polygon fill="none" stroke="#000000" stroke-dasharray="1,5" points="8,-70 8,-195 1567,-195 1567,-70 8,-70"/>
</g>
<g id="clust2" class="cluster">
<title>cluster_ViewBotsModule_declarations</title>
<polygon fill="none" stroke="#000000" points="696,-78 696,-130 1559,-130 1559,-78 696,-78"/>
</g>
<g id="clust8" class="cluster">
<title>cluster_ViewBotsModule_imports</title>
<polygon fill="none" stroke="#000000" points="290,-78 290,-130 688,-130 688,-78 290,-78"/>
</g>
<g id="clust11" class="cluster">
<title>cluster_ViewBotsModule_providers</title>
<polygon fill="none" stroke="#000000" points="16,-78 16,-130 282,-130 282,-78 16,-78"/>
</g>
<!-- BotPreviewCardComponent -->
<g id="node1" class="node">
<title>BotPreviewCardComponent</title>
<polygon fill="#ffffb3" stroke="#000000" points="1551.1414,-122 1376.8586,-122 1376.8586,-86 1551.1414,-86 1551.1414,-122"/>
<text text-anchor="middle" x="1464" y="-99.8" font-family="Times,serif" font-size="14.00" fill="#000000">BotPreviewCardComponent</text>
</g>
<!-- ViewBotsModule -->
<g id="node6" class="node">
<title>ViewBotsModule</title>
<polygon fill="#8dd3c7" stroke="#000000" points="752.5409,-187 749.5409,-191 728.5409,-191 725.5409,-187 637.4591,-187 637.4591,-151 752.5409,-151 752.5409,-187"/>
<text text-anchor="middle" x="695" y="-164.8" font-family="Times,serif" font-size="14.00" fill="#000000">ViewBotsModule</text>
</g>
<!-- BotPreviewCardComponent&#45;&gt;ViewBotsModule -->
<g id="edge1" class="edge">
<title>BotPreviewCardComponent&#45;&gt;ViewBotsModule</title>
<path fill="none" stroke="#000000" d="M1464,-122.0109C1464,-144.4852 1464,-180 1464,-180 1464,-180 762.8,-180 762.8,-180"/>
<polygon fill="#000000" stroke="#000000" points="762.8,-176.5001 752.8,-180 762.8,-183.5001 762.8,-176.5001"/>
</g>
<!-- BotPreviewCardListComponent -->
<g id="node2" class="node">
<title>BotPreviewCardListComponent</title>
<polygon fill="#ffffb3" stroke="#000000" points="1358.4198,-122 1161.5802,-122 1161.5802,-86 1358.4198,-86 1358.4198,-122"/>
<text text-anchor="middle" x="1260" y="-99.8" font-family="Times,serif" font-size="14.00" fill="#000000">BotPreviewCardListComponent</text>
</g>
<!-- BotPreviewCardListComponent&#45;&gt;ViewBotsModule -->
<g id="edge2" class="edge">
<title>BotPreviewCardListComponent&#45;&gt;ViewBotsModule</title>
<path fill="none" stroke="#000000" d="M1260,-122.1289C1260,-142.5724 1260,-173 1260,-173 1260,-173 762.5469,-173 762.5469,-173"/>
<polygon fill="#000000" stroke="#000000" points="762.5469,-169.5001 752.5469,-173 762.5468,-176.5001 762.5469,-169.5001"/>
</g>
<!-- CreateBotDialogComponent -->
<g id="node3" class="node">
<title>CreateBotDialogComponent</title>
<polygon fill="#ffffb3" stroke="#000000" points="1144.1937,-122 967.8063,-122 967.8063,-86 1144.1937,-86 1144.1937,-122"/>
<text text-anchor="middle" x="1056" y="-99.8" font-family="Times,serif" font-size="14.00" fill="#000000">CreateBotDialogComponent</text>
</g>
<!-- CreateBotDialogComponent&#45;&gt;ViewBotsModule -->
<g id="edge3" class="edge">
<title>CreateBotDialogComponent&#45;&gt;ViewBotsModule</title>
<path fill="none" stroke="#000000" d="M1056,-122.2667C1056,-140.5552 1056,-166 1056,-166 1056,-166 762.6007,-166 762.6007,-166"/>
<polygon fill="#000000" stroke="#000000" points="762.6007,-162.5001 752.6007,-166 762.6007,-169.5001 762.6007,-162.5001"/>
</g>
<!-- SortBotsPipe -->
<g id="node4" class="node">
<title>SortBotsPipe</title>
<polygon fill="#ffffb3" stroke="#000000" points="949.8935,-122 860.1065,-122 860.1065,-86 949.8935,-86 949.8935,-122"/>
<text text-anchor="middle" x="905" y="-99.8" font-family="Times,serif" font-size="14.00" fill="#000000">SortBotsPipe</text>
</g>
<!-- SortBotsPipe&#45;&gt;ViewBotsModule -->
<g id="edge4" class="edge">
<title>SortBotsPipe&#45;&gt;ViewBotsModule</title>
<path fill="none" stroke="#000000" d="M905,-122.0091C905,-138.0494 905,-159 905,-159 905,-159 762.6612,-159 762.6612,-159"/>
<polygon fill="#000000" stroke="#000000" points="762.6612,-155.5001 752.6612,-159 762.6612,-162.5001 762.6612,-155.5001"/>
</g>
<!-- ViewBotsComponent -->
<g id="node5" class="node">
<title>ViewBotsComponent</title>
<polygon fill="#ffffb3" stroke="#000000" points="841.823,-122 704.177,-122 704.177,-86 841.823,-86 841.823,-122"/>
<text text-anchor="middle" x="773" y="-99.8" font-family="Times,serif" font-size="14.00" fill="#000000">ViewBotsComponent</text>
</g>
<!-- ViewBotsComponent&#45;&gt;ViewBotsModule -->
<g id="edge5" class="edge">
<title>ViewBotsComponent&#45;&gt;ViewBotsModule</title>
<path fill="none" stroke="#000000" d="M728.5544,-122.1061C728.5544,-122.1061 728.5544,-140.991 728.5544,-140.991"/>
<polygon fill="#000000" stroke="#000000" points="725.0544,-140.9909 728.5544,-150.991 732.0544,-140.991 725.0544,-140.9909"/>
</g>
<!-- MyMaterialModule -->
<g id="node7" class="node">
<title>MyMaterialModule</title>
<polygon fill="#8dd3c7" stroke="#000000" points="680.4159,-122 677.4159,-126 656.4159,-126 653.4159,-122 553.5841,-122 553.5841,-86 680.4159,-86 680.4159,-122"/>
<text text-anchor="middle" x="617" y="-99.8" font-family="Times,serif" font-size="14.00" fill="#000000">MyMaterialModule</text>
</g>
<!-- MyMaterialModule&#45;&gt;ViewBotsModule -->
<g id="edge6" class="edge">
<title>MyMaterialModule&#45;&gt;ViewBotsModule</title>
<path fill="none" stroke="#000000" d="M658.7188,-122.1061C658.7188,-122.1061 658.7188,-140.991 658.7188,-140.991"/>
<polygon fill="#000000" stroke="#000000" points="655.2189,-140.9909 658.7188,-150.991 662.2189,-140.991 655.2189,-140.9909"/>
</g>
<!-- RichMediaModule -->
<g id="node8" class="node">
<title>RichMediaModule</title>
<polygon fill="#8dd3c7" stroke="#000000" points="535.7562,-122 532.7562,-126 511.7562,-126 508.7562,-122 414.2438,-122 414.2438,-86 535.7562,-86 535.7562,-122"/>
<text text-anchor="middle" x="475" y="-99.8" font-family="Times,serif" font-size="14.00" fill="#000000">RichMediaModule</text>
</g>
<!-- RichMediaModule&#45;&gt;ViewBotsModule -->
<g id="edge7" class="edge">
<title>RichMediaModule&#45;&gt;ViewBotsModule</title>
<path fill="none" stroke="#000000" d="M475,-122.0091C475,-138.0494 475,-159 475,-159 475,-159 627.1976,-159 627.1976,-159"/>
<polygon fill="#000000" stroke="#000000" points="627.1976,-162.5001 637.1976,-159 627.1976,-155.5001 627.1976,-162.5001"/>
</g>
<!-- SharedModule -->
<g id="node9" class="node">
<title>SharedModule</title>
<polygon fill="#8dd3c7" stroke="#000000" points="396.4231,-122 393.4231,-126 372.4231,-126 369.4231,-122 297.5769,-122 297.5769,-86 396.4231,-86 396.4231,-122"/>
<text text-anchor="middle" x="347" y="-99.8" font-family="Times,serif" font-size="14.00" fill="#000000">SharedModule</text>
</g>
<!-- SharedModule&#45;&gt;ViewBotsModule -->
<g id="edge8" class="edge">
<title>SharedModule&#45;&gt;ViewBotsModule</title>
<path fill="none" stroke="#000000" d="M347,-122.2667C347,-140.5552 347,-166 347,-166 347,-166 627.1442,-166 627.1442,-166"/>
<polygon fill="#000000" stroke="#000000" points="627.1443,-169.5001 637.1442,-166 627.1442,-162.5001 627.1443,-169.5001"/>
</g>
<!-- AimService -->
<g id="node10" class="node">
<title>AimService</title>
<ellipse fill="#fdb462" stroke="#000000" cx="217" cy="-104" rx="57.3185" ry="18"/>
<text text-anchor="middle" x="217" y="-99.8" font-family="Times,serif" font-size="14.00" fill="#000000">AimService</text>
</g>
<!-- AimService&#45;&gt;ViewBotsModule -->
<g id="edge9" class="edge">
<title>AimService&#45;&gt;ViewBotsModule</title>
<path fill="none" stroke="#000000" d="M217,-122.1289C217,-142.5724 217,-173 217,-173 217,-173 627.342,-173 627.342,-173"/>
<polygon fill="#000000" stroke="#000000" points="627.3421,-176.5001 637.342,-173 627.342,-169.5001 627.3421,-176.5001"/>
</g>
<!-- DragService -->
<g id="node11" class="node">
<title>DragService</title>
<ellipse fill="#fdb462" stroke="#000000" cx="83" cy="-104" rx="59.0872" ry="18"/>
<text text-anchor="middle" x="83" y="-99.8" font-family="Times,serif" font-size="14.00" fill="#000000">DragService</text>
</g>
<!-- DragService&#45;&gt;ViewBotsModule -->
<g id="edge10" class="edge">
<title>DragService&#45;&gt;ViewBotsModule</title>
<path fill="none" stroke="#000000" d="M83,-122.0109C83,-144.4852 83,-180 83,-180 83,-180 627.4245,-180 627.4245,-180"/>
<polygon fill="#000000" stroke="#000000" points="627.4246,-183.5001 637.4245,-180 627.4245,-176.5001 627.4246,-183.5001"/>
</g>
</g>
</svg>
