<?xml version="1.0" encoding="UTF-8" standalone="no"?>
<!DOCTYPE svg PUBLIC "-//W3C//DTD SVG 1.1//EN"
 "http://www.w3.org/Graphics/SVG/1.1/DTD/svg11.dtd">
<!-- Generated by graphviz version 2.40.1 (20161225.0304)
 -->
<!-- Title: dependencies Pages: 1 -->
<svg width="504pt" height="211pt"
 viewBox="0.00 0.00 504.00 211.00" xmlns="http://www.w3.org/2000/svg" xmlns:xlink="http://www.w3.org/1999/xlink">
<g id="graph0" class="graph" transform="scale(1 1) rotate(0) translate(4 207)">
<title>dependencies</title>
<polygon fill="#ffffff" stroke="transparent" points="-4,4 -4,-207 500,-207 500,4 -4,4"/>
<text text-anchor="start" x="227.0091" y="-42.4" font-family="sans-serif" font-weight="bold" font-size="14.00" fill="#000000">Legend</text>
<polygon fill="#ffffb3" stroke="transparent" points="14,-10 14,-30 34,-30 34,-10 14,-10"/>
<text text-anchor="start" x="37.629" y="-15.4" font-family="sans-serif" font-size="14.00" fill="#000000"> &#160;Declarations</text>
<polygon fill="#8dd3c7" stroke="transparent" points="127,-10 127,-30 147,-30 147,-10 127,-10"/>
<text text-anchor="start" x="150.7251" y="-15.4" font-family="sans-serif" font-size="14.00" fill="#000000"> &#160;Module</text>
<polygon fill="#80b1d3" stroke="transparent" points="213,-10 213,-30 233,-30 233,-10 213,-10"/>
<text text-anchor="start" x="236.7812" y="-15.4" font-family="sans-serif" font-size="14.00" fill="#000000"> &#160;Bootstrap</text>
<polygon fill="#fdb462" stroke="transparent" points="310,-10 310,-30 330,-30 330,-10 310,-10"/>
<text text-anchor="start" x="333.6732" y="-15.4" font-family="sans-serif" font-size="14.00" fill="#000000"> &#160;Providers</text>
<polygon fill="#fb8072" stroke="transparent" points="406,-10 406,-30 426,-30 426,-10 406,-10"/>
<text text-anchor="start" x="429.7258" y="-15.4" font-family="sans-serif" font-size="14.00" fill="#000000"> &#160;Exports</text>
<g id="clust1" class="cluster">
<title>cluster_DevModule</title>
<polygon fill="none" stroke="#000000" stroke-dasharray="1,5" points="97,-70 97,-195 399,-195 399,-70 97,-70"/>
</g>
<g id="clust2" class="cluster">
<title>cluster_DevModule_declarations</title>
<polygon fill="none" stroke="#000000" points="255,-78 255,-130 391,-130 391,-78 255,-78"/>
</g>
<g id="clust4" class="cluster">
<title>cluster_DevModule_imports</title>
<polygon fill="none" stroke="#000000" points="105,-78 105,-130 247,-130 247,-78 105,-78"/>
</g>
<!-- ThemeComponent -->
<g id="node1" class="node">
<title>ThemeComponent</title>
<polygon fill="#ffffb3" stroke="#000000" points="383.205,-122 262.795,-122 262.795,-86 383.205,-86 383.205,-122"/>
<text text-anchor="middle" x="323" y="-99.8" font-family="Times,serif" font-size="14.00" fill="#000000">ThemeComponent</text>
</g>
<!-- DevModule -->
<g id="node2" class="node">
<title>DevModule</title>
<polygon fill="#8dd3c7" stroke="#000000" points="290.3711,-187 287.3711,-191 266.3711,-191 263.3711,-187 207.6289,-187 207.6289,-151 290.3711,-151 290.3711,-187"/>
<text text-anchor="middle" x="249" y="-164.8" font-family="Times,serif" font-size="14.00" fill="#000000">DevModule</text>
</g>
<!-- ThemeComponent&#45;&gt;DevModule -->
<g id="edge1" class="edge">
<title>ThemeComponent&#45;&gt;DevModule</title>
<path fill="none" stroke="#000000" d="M276.6666,-122.1061C276.6666,-122.1061 276.6666,-140.991 276.6666,-140.991"/>
<polygon fill="#000000" stroke="#000000" points="273.1666,-140.9909 276.6666,-150.991 280.1666,-140.991 273.1666,-140.9909"/>
</g>
<!-- MyMaterialModule -->
<g id="node3" class="node">
<title>MyMaterialModule</title>
<polygon fill="#8dd3c7" stroke="#000000" points="239.4159,-122 236.4159,-126 215.4159,-126 212.4159,-122 112.5841,-122 112.5841,-86 239.4159,-86 239.4159,-122"/>
<text text-anchor="middle" x="176" y="-99.8" font-family="Times,serif" font-size="14.00" fill="#000000">MyMaterialModule</text>
</g>
<!-- MyMaterialModule&#45;&gt;DevModule -->
<g id="edge2" class="edge">
<title>MyMaterialModule&#45;&gt;DevModule</title>
<path fill="none" stroke="#000000" d="M223.3861,-122.1061C223.3861,-122.1061 223.3861,-140.991 223.3861,-140.991"/>
<polygon fill="#000000" stroke="#000000" points="219.8861,-140.9909 223.3861,-150.991 226.8861,-140.991 219.8861,-140.9909"/>
</g>
</g>
</svg>
