<svg xmlns="http://www.w3.org/2000/svg" width="34" height="22" viewBox="0 0 34 22">
    <g fill="none" fill-rule="evenodd" opacity=".745">
        <path d="M-1-7h36v36H-1z"/>
        <path fill="#527697" fill-rule="nonzero" d="M23 9.5c2.49 0 4.485-2.01 4.485-4.5S25.49.5 23 .5 18.5 2.51 18.5 5s2.01 4.5 4.5 4.5zm-12 0c2.49 0 4.485-2.01 4.485-4.5S13.49.5 11 .5 6.5 2.51 6.5 5 8.51 9.5 11 9.5zm0 3C7.505 12.5.5 14.255.5 17.75v3.75h21v-3.75c0-3.495-7.005-5.25-10.5-5.25zm12 0c-.435 0-.93.03-1.455.075 1.74 1.26 2.955 2.955 2.955 5.175v3.75h9v-3.75c0-3.495-7.005-5.25-10.5-5.25z"/>
    </g>
</svg>
