<svg xmlns="http://www.w3.org/2000/svg" width="28" height="32" viewBox="0 0 28 32">
    <g fill="none" fill-rule="evenodd" opacity=".75">
        <path d="M-4-1h36v36H-4z"/>
        <path fill="#527697" fill-rule="nonzero" d="M18.5.5h-9v3h9v-3zm-6 19.5h3v-9h-3v9zm12.045-9.915l2.13-2.13A16.573 16.573 0 0 0 24.56 5.84l-2.13 2.13A13.442 13.442 0 0 0 14 5C6.545 5 .5 11.045.5 18.5S6.53 32 14 32s13.5-6.045 13.5-13.5c0-3.18-1.11-6.105-2.955-8.415zM14 29C8.195 29 3.5 24.305 3.5 18.5S8.195 8 14 8s10.5 4.695 10.5 10.5S19.805 29 14 29z"/>
    </g>
</svg>
