<svg xmlns="http://www.w3.org/2000/svg" width="32" height="27" viewBox="0 0 32 27">
    <g fill="none" fill-rule="nonzero" transform="translate(.593 .296)">
        <rect width="3.556" height="7.704" y="12.444" fill="#41679D" rx="1.778"/>
        <rect width="3.556" height="7.704" x="27.259" y="12.444" fill="#41679D" rx="1.778"/>
        <path fill="#4A80CD" d="M15.407 25.987c7.447 0 13.63-.09 13.63-7.617S22.935 4.74 15.407 4.74c-7.527 0-13.63 6.103-13.63 13.63 0 7.528 6.184 7.617 13.63 7.617z"/>
        <path fill="#FFF" d="M10.74 11.26h9.334a4 4 0 0 1 4 4v7.257c-.55-.005-1.123-1.567-2.565-1.567H10.74a4 4 0 0 1-4-4v-1.69a4 4 0 0 1 4-4z"/>
        <rect width="1.778" height="1.778" x="11.259" y="15.407" fill="#4A80CD" rx=".889"/>
        <rect width="1.778" height="1.778" x="17.778" y="15.407" fill="#4A80CD" rx=".889"/>
        <path fill="#41679D" d="M16 3.454V8.89h-1.185V3.454a1.779 1.779 0 1 1 1.185 0z"/>
    </g>
</svg>
