<svg xmlns="http://www.w3.org/2000/svg" width="24" height="25" viewBox="0 0 24 25">
    <path fill="#00ABD3" fill-rule="nonzero" d="M22.96 0H1.063C.677 0 .323.215.146.559-.033.907 0 1.326.227 1.644l8.022 11.3.009.012c.291.394.449.87.45 1.36v9.214a1.024 1.024 0 0 0 1.428.95l4.508-1.72c.404-.123.672-.504.672-.963v-7.48c0-.49.158-.967.45-1.36.002-.005.005-.008.008-.012l8.022-11.301c.228-.318.26-.737.08-1.085A1.029 1.029 0 0 0 22.96 0zm-8.2 12.218a3.549 3.549 0 0 0-.691 2.098v7.33l-4.115 1.568v-8.898a3.548 3.548 0 0 0-.692-2.098L1.474 1.247H22.55l-7.789 10.97z"/>
</svg>
