<svg xmlns="http://www.w3.org/2000/svg" width="25" height="24" viewBox="0 0 25 24">
    <path fill="#00ABD3" fill-rule="nonzero" d="M10.369 1.136C9.459 1.801 9 2.94 9 4.51v3.725H3.838A3.343 3.343 0 0 0 .5 11.572v.103c0 .03.005.063.01.093l1.373 8.627c.254 2.072 1.701 3.265 3.964 3.265h10.226a3.343 3.343 0 0 0 3.339-3.338v-9.586c0-.288.234-.523.523-.523h2.8c.289 0 .523.235.523.523v10.162a.524.524 0 0 1-.523.523h-1.617a.6.6 0 1 0 0 1.203h1.617c.949 0 1.721-.772 1.721-1.72V10.735c0-.948-.772-1.72-1.72-1.72h-2.801a1.73 1.73 0 0 0-1.545.958.533.533 0 0 0-.132-.054c-.161-.044-3.979-1.163-3.979-4.458V1.278a.598.598 0 0 0-.42-.572c-.078-.024-2.053-.625-3.49.43zm7.571 9.933a.58.58 0 0 0 .274.01v9.243c0 1.178-.958 2.14-2.14 2.14H5.846c-1.661 0-2.595-.742-2.78-2.233l-1.37-8.603v-.054c0-1.178.959-2.14 2.141-2.14h5.763a.6.6 0 0 0 .602-.602V4.509c0-1.168.293-1.975.875-2.405.63-.47 1.5-.425 2.009-.342v3.695c0 4.204 4.653 5.558 4.853 5.612z"/>
</svg>
