<svg xmlns="http://www.w3.org/2000/svg" width="72" height="67" viewBox="0 0 72 67">
    <g fill="none" fill-rule="nonzero">
        <path fill="#FFF" d="M67.02 2.25H4.23A2.736 2.736 0 0 0 1.5 4.978V47.25h68.25V4.978a2.737 2.737 0 0 0-2.73-2.728z"/>
        <path fill="#D7E9FF" d="M19.5 9v8.236c-1.56 0-2.813 1.234-2.813 2.746 0 .768.31 1.455.816 1.949l-5.962 5.819c-2.025-1.99-3.291-4.735-3.291-7.768C8.25 13.913 13.284 9 19.5 9z"/>
        <path fill="#94C1FF" d="M19.019 9C25.072 9 30 13.865 30 19.875c0 6.008-4.928 10.875-10.981 10.875a11.05 11.05 0 0 1-7.769-3.182l5.82-5.763c.494.488 1.18.789 1.949.789 1.51 0 2.745-1.211 2.745-2.719 0-1.497-1.235-2.719-2.745-2.719V9zM51 65.25H21V64c0-1.388 1.214-2.5 2.729-2.5H48.27C49.784 61.5 51 62.612 51 64v1.25z"/>
        <path fill="#5C9EFF" d="M43.78 52.5l2.72 8.25H24.75l2.72-8.25z"/>
        <path fill="#94C1FF" d="M1.568 47.25H69.75v2.625c0 1.444-1.229 2.625-2.73 2.625H4.23c-1.501 0-2.73-1.181-2.73-2.625V47.25h.068z"/>
        <g fill="#116FFF">
            <path d="M35.704 51.676a1.38 1.38 0 0 1-1.379-1.38c0-.763.607-1.38 1.364-1.38h.015c.757 0 1.371.617 1.371 1.38 0 .763-.614 1.38-1.371 1.38zM69.94 48.916H1.45a1.374 1.374 0 0 1-1.372-1.38c0-.763.613-1.38 1.372-1.38h68.49c.759 0 1.372.617 1.372 1.38 0 .763-.613 1.38-1.372 1.38z"/>
            <path d="M67.197 54.436H4.128c-2.268 0-4.114-1.857-4.114-4.14V4.77c0-2.283 1.846-4.14 4.114-4.14h63.07c2.268 0 4.114 1.857 4.114 4.14v45.527c0 2.284-1.846 4.14-4.115 4.14zM4.128 3.39c-.757 0-1.371.618-1.371 1.38v45.527c0 .762.614 1.38 1.371 1.38h63.07c.756 0 1.37-.618 1.37-1.38V4.77c0-.762-.614-1.38-1.37-1.38H4.127z"/>
            <path d="M24.694 62.713a1.381 1.381 0 0 1-1.3-1.817l2.743-8.277a1.364 1.364 0 0 1 1.735-.872 1.381 1.381 0 0 1 .866 1.745l-2.743 8.278c-.193.58-.726.943-1.301.943zM46.634 62.713a1.37 1.37 0 0 1-1.3-.943l-2.743-8.278a1.38 1.38 0 0 1 .867-1.745 1.362 1.362 0 0 1 1.735.872l2.743 8.277a1.38 1.38 0 0 1-1.302 1.817z"/>
            <path d="M20.58 65.473a1.374 1.374 0 0 1-1.372-1.38c0-2.282 1.846-4.14 4.115-4.14.758 0 1.37.617 1.37 1.38 0 .764-.612 1.38-1.37 1.38-.758 0-1.372.619-1.372 1.38 0 .764-.613 1.38-1.371 1.38zM50.746 65.473a1.374 1.374 0 0 1-1.372-1.38c0-.761-.614-1.38-1.371-1.38a1.374 1.374 0 0 1-1.372-1.38c0-.763.613-1.38 1.372-1.38 2.268 0 4.114 1.858 4.114 4.14 0 .764-.613 1.38-1.371 1.38z"/>
            <path d="M48.003 62.713h-24.68a1.374 1.374 0 0 1-1.372-1.38c0-.763.613-1.38 1.372-1.38h24.68c.758 0 1.371.617 1.371 1.38 0 .764-.613 1.38-1.371 1.38zM20.58 66.853a1.374 1.374 0 0 1-1.372-1.38v-1.38c0-.763.613-1.38 1.372-1.38.758 0 1.371.617 1.371 1.38v1.38c0 .764-.613 1.38-1.371 1.38z"/>
            <path d="M50.746 66.853H20.58a1.374 1.374 0 0 1-1.372-1.38c0-.763.613-1.38 1.372-1.38h30.166c.758 0 1.371.617 1.371 1.38 0 .764-.613 1.38-1.371 1.38z"/>
            <path d="M50.746 66.853a1.374 1.374 0 0 1-1.372-1.38v-1.38c0-.763.613-1.38 1.372-1.38.758 0 1.371.617 1.371 1.38v1.38c0 .764-.613 1.38-1.371 1.38zM63.091 32.36H41.154a1.374 1.374 0 0 1-1.372-1.38c0-.763.613-1.38 1.372-1.38H63.09c.759 0 1.372.617 1.372 1.38 0 .763-.613 1.38-1.372 1.38z"/>
            <path d="M41.154 32.36a1.374 1.374 0 0 1-1.372-1.38V8.906c0-.763.613-1.38 1.372-1.38.758 0 1.371.617 1.371 1.38V30.98c0 .763-.613 1.38-1.371 1.38zM46.634 32.36a1.374 1.374 0 0 1-1.371-1.38v-9.66c0-.763.613-1.38 1.371-1.38s1.371.617 1.371 1.38v9.66c0 .763-.613 1.38-1.37 1.38zM52.125 32.36a1.374 1.374 0 0 1-1.371-1.38V13.04c0-.763.613-1.38 1.371-1.38.759 0 1.372.617 1.372 1.38v17.94c0 .763-.613 1.38-1.372 1.38zM57.605 32.36a1.374 1.374 0 0 1-1.37-1.38v-6.9c0-.763.612-1.38 1.37-1.38.759 0 1.372.617 1.372 1.38v6.9c0 .763-.613 1.38-1.372 1.38zM19.208 32.363c-6.806 0-12.343-5.571-12.343-12.42s5.537-12.42 12.343-12.42c6.807 0 12.343 5.571 12.343 12.42s-5.536 12.42-12.343 12.42zm0-22.08c-5.292 0-9.6 4.335-9.6 9.66 0 5.326 4.308 9.66 9.6 9.66 5.293 0 9.6-4.334 9.6-9.66 0-5.325-4.307-9.66-9.6-9.66z"/>
            <path d="M19.208 24.083c-2.268 0-4.114-1.857-4.114-4.14 0-2.282 1.846-4.14 4.114-4.14 2.269 0 4.115 1.858 4.115 4.14 0 2.283-1.846 4.14-4.115 4.14zm0-5.52c-.757 0-1.371.618-1.371 1.38 0 .762.614 1.38 1.371 1.38s1.372-.618 1.372-1.38c0-.762-.615-1.38-1.372-1.38z"/>
            <path d="M19.208 18.563a1.374 1.374 0 0 1-1.371-1.38V8.906c0-.763.613-1.38 1.371-1.38.759 0 1.372.617 1.372 1.38v8.277c0 .763-.613 1.38-1.372 1.38zM11.451 29.128c-.35 0-.702-.135-.97-.404a1.385 1.385 0 0 1 0-1.951l5.818-5.854a1.364 1.364 0 0 1 1.94 0c.536.54.536 1.412 0 1.951l-5.818 5.854c-.269.27-.62.404-.97.404zM63.086 37.88H41.154a1.374 1.374 0 0 1-1.372-1.38c0-.763.613-1.38 1.372-1.38h21.932c.758 0 1.371.617 1.371 1.38 0 .763-.613 1.38-1.371 1.38zM54.857 42.02h-5.48a1.374 1.374 0 0 1-1.372-1.38c0-.763.614-1.38 1.372-1.38h5.48c.759 0 1.372.617 1.372 1.38 0 .763-.613 1.38-1.372 1.38zM30.174 37.88H9.614a1.374 1.374 0 0 1-1.372-1.38c0-.763.613-1.38 1.372-1.38h20.56c.759 0 1.372.617 1.372 1.38 0 .763-.613 1.38-1.372 1.38zM23.317 42.02h-5.48a1.374 1.374 0 0 1-1.372-1.38c0-.763.613-1.38 1.372-1.38h5.48c.758 0 1.371.617 1.371 1.38 0 .763-.613 1.38-1.371 1.38z"/>
        </g>
    </g>
</svg>
