<svg xmlns="http://www.w3.org/2000/svg" width="24" height="24" viewBox="0 0 24 24">
    <g fill="#00ABD3" fill-rule="nonzero">
        <path d="M13.993 10.567h9.365c.333 0 .603-.269.603-.602 0-5.496-4.467-9.963-9.963-9.963a.601.601 0 0 0-.602.598v9.365c0 .338.264.602.597.602zm.603-9.34c4.354.294 7.846 3.786 8.14 8.14h-8.14v-8.14z"/>
        <path d="M10.893 23.958c6.005 0 10.888-4.883 10.888-10.888a.602.602 0 0 0-.602-.602H11.49V2.784a.602.602 0 0 0-.603-.602C4.883 2.182 0 7.065 0 13.07s4.888 10.888 10.893 10.888zm-.602-20.556v9.668c0 .333.269.603.602.603h9.669c-.314 5.064-4.531 9.085-9.669 9.085-5.344 0-9.688-4.344-9.688-9.688 0-5.138 4.021-9.36 9.086-9.668z"/>
    </g>
</svg>
