<svg xmlns="http://www.w3.org/2000/svg" width="24" height="24" viewBox="0 0 24 24">
    <g fill="#00ABD3" fill-rule="nonzero">
        <path d="M24 12c0-6.617-5.383-12-12-12S0 5.383 0 12c0 3.394 1.419 6.461 3.692 8.646l-.013.01.356.317a12 12 0 0 0 2.753 1.835c.04.02.083.038.125.057.124.059.249.116.375.17.078.033.157.064.236.096.092.037.183.075.276.109.094.036.19.068.286.102l.237.08c.103.033.207.064.312.095.074.021.149.043.224.063a11.217 11.217 0 0 0 .872.202c.08.016.161.03.243.044.103.017.207.035.311.05.092.013.184.024.276.035.095.011.19.023.286.033.114.01.228.018.342.026.076.005.152.012.23.015a11.721 11.721 0 0 0 1.162 0c.077-.003.154-.01.231-.016.113-.007.226-.015.337-.025.098-.01.195-.022.292-.034a11.91 11.91 0 0 0 .588-.086c.077-.012.153-.026.23-.04a11.677 11.677 0 0 0 1.42-.364c.067-.021.133-.044.2-.067.108-.037.216-.074.323-.114l.225-.089c.096-.038.192-.075.287-.116.106-.045.21-.094.316-.143.06-.028.123-.055.184-.084.98-.473 1.898-1.08 2.727-1.813l.357-.315-.012-.01A11.967 11.967 0 0 0 24 12zM.8 12C.8 5.824 5.824.8 12 .8 18.176.8 23.2 5.824 23.2 12c0 3.223-1.37 6.13-3.556 8.175a12.619 12.619 0 0 0-7.668-2.575c-2.789 0-5.42.888-7.642 2.554A11.169 11.169 0 0 1 .8 12zm18.114 8.802c-.183.143-.368.281-.558.412l-.151.104c-.213.142-.431.276-.652.402-.049.028-.097.057-.146.084-.239.132-.483.255-.73.368l-.129.059c-.26.116-.524.223-.792.319l-.06.02c-.564.197-1.143.349-1.734.454l-.104.019c-.28.047-.563.083-.848.109l-.135.01c-.29.023-.582.038-.875.038-.294 0-.587-.015-.878-.038l-.137-.01a11.058 11.058 0 0 1-.847-.11l-.114-.02a11.098 11.098 0 0 1-.87-.19c-.29-.075-.575-.165-.857-.264-.023-.008-.047-.015-.07-.024a11.172 11.172 0 0 1-.927-.381c-.242-.112-.48-.233-.715-.363-.056-.03-.111-.064-.167-.096a11.23 11.23 0 0 1-.66-.409c-.052-.035-.102-.072-.154-.108a11.017 11.017 0 0 1-.544-.405l-.118-.093a11.83 11.83 0 0 1 7.034-2.289c2.57 0 5 .796 7.058 2.307l-.12.095z"/>
        <path d="M12 3.2a.4.4 0 0 0 .4-.4V2a.4.4 0 1 0-.8 0v.8a.4.4 0 0 0 .4.4zM21 12a.4.4 0 0 0 .4.4h.8a.4.4 0 1 0 0-.8h-.8a.4.4 0 0 0-.4.4zM3 12a.4.4 0 0 0-.4-.4h-.8a.4.4 0 1 0 0 .8h.8A.4.4 0 0 0 3 12zM16.5 4.406a.4.4 0 0 0 .546-.146l.4-.693a.4.4 0 0 0-.692-.4l-.4.693a.4.4 0 0 0 .146.546zM21.034 16.954l-.693-.4a.4.4 0 1 0-.4.692l.693.4a.4.4 0 0 0 .4-.693zM2.966 7.446l.693.4a.4.4 0 0 0 .4-.693l-.693-.4a.4.4 0 0 0-.4.693zM6.952 4.246a.4.4 0 0 0 .692-.4l-.4-.693a.4.4 0 1 0-.692.4l.4.693zM20.04 7.713a.397.397 0 0 0 .2-.053l.692-.4a.4.4 0 1 0-.4-.693l-.693.4a.4.4 0 0 0 .2.746zM4.104 16.513a.4.4 0 0 0-.546-.146l-.693.4a.4.4 0 1 0 .4.693l.693-.4a.4.4 0 0 0 .146-.547zM12 13.152c.427 0 .83-.167 1.131-.47a1.582 1.582 0 0 0 .287-1.858l3.39-3.39a.4.4 0 1 0-.565-.565l-3.355 3.355c-.615-.399-1.49-.334-2.019.196-.303.302-.469.704-.469 1.132 0 .427.166.828.469 1.13.302.303.704.47 1.131.47zm-.566-2.166a.795.795 0 0 1 .566-.234c.214 0 .414.083.566.234a.795.795 0 0 1 .234.566.795.795 0 0 1-.234.565.819.819 0 0 1-1.132 0 .795.795 0 0 1-.234-.565c0-.214.083-.415.234-.566z"/>
    </g>
</svg>
