<?xml version="1.0" encoding="UTF-8"?>
<svg width="70px" height="70px" viewBox="0 0 70 70" version="1.1" xmlns="http://www.w3.org/2000/svg" xmlns:xlink="http://www.w3.org/1999/xlink">
    <!-- Generator: sketchtool 53.2 (72643) - https://sketchapp.com -->
    <title>E4670677-5C6F-4669-803B-73C6389B0A33</title>
    <desc>Created with sketchtool.</desc>
    <g id="Sessions" stroke="none" stroke-width="1" fill="none" fill-rule="evenodd">
        <g id="sessions-empty-filter" transform="translate(-761.000000, -266.000000)">
            <g id="Group-30" transform="translate(712.000000, 254.000000)">
                <g id="baseline-search-24px-(6)" transform="translate(37.000000, 0.000000)">
                    <path d="M62.0285878,56.0251572 L58.866781,56.0251572 L57.7461407,54.9445397 C61.6683819,50.3819325 64.0297313,44.4585477 64.0297313,38.0148656 C64.0297313,23.6466552 52.383076,12 38.0148656,12 C23.6466552,12 12,23.6466552 12,38.0148656 C12,52.383076 23.6466552,64.0297313 38.0148656,64.0297313 C44.4585477,64.0297313 50.3819325,61.6683819 54.9445397,57.7461407 L56.0251572,58.866781 L56.0251572,62.0285878 L76.0365923,82 L82,76.0365923 L62.0285878,56.0251572 Z M38.0148656,56.0251572 C28.049171,56.0251572 20.004574,47.9805603 20.004574,38.0148656 C20.004574,28.049171 28.049171,20.004574 38.0148656,20.004574 C47.9805603,20.004574 56.0251572,28.049171 56.0251572,38.0148656 C56.0251572,47.9805603 47.9805603,56.0251572 38.0148656,56.0251572 Z" id="Shape" fill="#00ABD3" fill-rule="nonzero"></path>
                    <polygon id="Path" points="0 0 96 0 96 96 0 96"></polygon>
                </g>
            </g>
        </g>
    </g>
</svg>