<svg xmlns="http://www.w3.org/2000/svg" width="170" height="170" viewBox="0 0 170 170">
    <g fill="none" fill-rule="evenodd">
        <circle cx="85" cy="85" r="85" fill="#FFF"/>
        <g fill-rule="nonzero">
            <path fill="#F5A8A9" d="M135 130.15V33H78.9c-5.445 0-9.9 4.41-9.9 9.8v78.4c0 5.39 4.455 9.8 9.9 9.8h53.262l2.838-.85z"/>
            <path fill="#FD797B" d="M69 71.122v28.29l7.293 7.218L88.8 94.217v30.151c0 2.287.43 4.54 1.188 6.632h42.174l2.838-.85V33h-21.714l-12.045 4.77C93.684 40.774 88.8 47.927 88.8 55.963v20.352L76.293 63.903 69 71.123z"/>
            <g fill="#C1494B">
                <path d="M35.814 82.224h-6.613v6.563h6.613zM49.04 82.224h-6.614v6.563h6.613zM55.651 82.224h20.122l-4.275-4.243 4.675-4.64L88.43 85.506 76.173 97.67l-4.675-4.64 4.275-4.243H55.65zM95.326 56.07v68.713c0 2.396.628 4.694 1.818 6.663a13.495 13.495 0 0 0 3.505 3.872c2.347 1.705 5.058 2.591 7.868 2.591 1.29 0 2.579-.163 3.836-.558L135 130.592v-97.59h-3.968l-27.408 10.895c-5.025 2.002-8.298 6.793-8.298 12.174z"/>
            </g>
            <path fill="#FFF" d="M132 46h-7v7h7zM132 59h-7v7h7z"/>
        </g>
    </g>
</svg>
