<?xml version="1.0" encoding="UTF-8"?>
<svg width="180px" height="180px" viewBox="0 0 180 180" version="1.1" xmlns="http://www.w3.org/2000/svg" xmlns:xlink="http://www.w3.org/1999/xlink">
    <!-- Generator: Sketch 52.2 (67145) - http://www.bohemiancoding.com/sketch -->
    <title>consumers</title>
    <desc>Created with Sketch.</desc>
    <g id="Dashboard" stroke="none" stroke-width="1" fill="none" fill-rule="evenodd">
        <g id="consumers-splash-screen" transform="translate(-630.000000, -347.000000)">
            <g id="consumers" transform="translate(630.000000, 347.000000)">
                <circle id="Oval" fill="#EAEAEA" fill-rule="nonzero" cx="90" cy="90" r="90"></circle>
                <g id="team" transform="translate(31.267606, 47.746479)">
                    <g id="team-(2)">
                        <path d="M85.1619718,35.5146947 L85.1619718,36.8861041 C85.1619718,38.5665836 85.4266339,40.2359404 85.9455564,41.8300412 L88.9795775,51.1489993 L94.7059859,51.1489993 L94.7059859,29.6515938 L90.8883803,29.6515938 C87.7258421,29.6518304 85.1619718,32.2765591 85.1619718,35.5146947 Z" id="Path" fill="#014251"></path>
                        <path d="M111.007972,40.1728288 L107.798645,51.1489993 L92.6258802,38.176427 C90.5308835,38.176427 88.8327465,36.5168731 88.8327465,34.4699778 C88.8327465,31.3995226 91.3801817,28.9103039 94.5224471,28.9103039 L107.798415,28.9103039 C109.893412,28.9103039 111.591549,30.5698578 111.591549,32.6167532 L111.591549,36.1001332 C111.591779,37.4773722 111.395186,38.8481031 111.007972,40.1728288 Z" id="Path" fill="#015365"></path>
                        <rect id="Rectangle" fill="#FFFFFF" x="93.2376761" y="55.5967383" width="11.0123239" height="8.89547813"></rect>
                        <path d="M93.2376761,59.8858437 C94.9399322,60.4616171 96.7962116,60.7857672 98.743838,60.7857672 C100.691464,60.7857672 102.547744,60.4616171 104.25,59.8858437 L104.25,57.079318 L93.2376761,57.079318 L93.2376761,59.8858437 Z" id="Path" fill="#EBFBFF"></path>
                        <path d="M113.311353,64.0461847 L104.102556,61.5272784 L98.376645,65.1653297 L92.6502712,61.5270571 L83.4419367,64.0461847 C80.9834838,64.718734 79.2887324,66.8700508 79.2887324,69.3179178 L79.2887324,82.6794963 C79.2887324,83.6888735 80.1432736,84.5070423 81.1975237,84.5070423 L115.555997,84.5070423 C116.610248,84.5070423 117.464789,83.6888735 117.464789,82.6794963 L117.464789,69.3179178 C117.464789,66.8698295 115.769806,64.718734 113.311353,64.0461847 Z" id="Path" fill="#01748D"></path>
                        <polygon id="Path" fill="#02BDE8" points="100.579225 84.5070423 96.9084507 84.5070423 97.8261444 64.4922165 99.6615317 64.4922165"></polygon>
                        <path d="M98.7437232,58.5618977 C92.459026,58.5618977 87.3644366,53.4873358 87.3644366,47.2278556 L87.3644366,45.0147116 C87.3644366,44.0127921 87.7640483,43.0518187 88.4753111,42.3431551 L91.9144977,38.9176429 C92.6427555,38.1922807 93.6385694,37.7752717 94.6679139,37.8075253 C100.730528,37.998073 106.096807,39.2916471 109.030279,42.1452875 C109.748431,42.8438861 110.123239,43.8211007 110.123239,44.8207327 L110.123239,47.2278556 C110.123239,53.4875646 105.02842,58.5618977 98.7437232,58.5618977 Z" id="Path" fill="#FFFFFF"></path>
                        <path d="M99.6615317,68.1986657 L97.8261444,68.1986657 C97.3194014,68.1986657 96.9084507,67.7837211 96.9084507,67.2720534 L96.9084507,64.4922165 L100.579225,64.4922165 L100.579225,67.2720534 C100.579225,67.7837211 100.168497,68.1986657 99.6615317,68.1986657 Z" id="Path" fill="#0DD1FD"></path>
                        <g id="Group" transform="translate(90.301056, 59.303188)" fill="#014251">
                            <path d="M8.05674388,5.78428466 L4.78034874,8.42599456 C4.21598576,8.88114653 3.39998852,8.69878923 3.05893631,8.04101804 L0.119848132,2.37509266 L1.30288028,0.470224858 C1.56528215,0.0476896467 2.12449541,-0.0242154682 2.4753789,0.319248826 L8.05674388,5.78428466 Z" id="Path"></path>
                            <path d="M8.05674388,5.78428466 L11.333139,8.42624166 C11.897502,8.88139362 12.7134992,8.69903632 13.0545514,8.04126513 L15.9936396,2.37533976 L14.8106075,0.470471955 C14.5482056,0.0479367433 13.9889923,-0.0239683716 13.6381088,0.319495923 L8.05674388,5.78428466 Z" id="Path"></path>
                        </g>
                        <path d="M32.911493,57.0478003 C31.3181174,52.8517043 30.0543902,45.6383599 29.7814143,41.8827889 C29.2621053,34.7360956 23.8434542,28.9103039 16.5184875,28.9103039 C9.19352077,28.9103039 3.77486975,34.73632 3.25556072,41.8827889 C2.9825848,45.6381355 1.71885757,52.8517043 0.125482001,57.0478003 C-0.225616059,57.9728355 0.179670769,58.9927978 1.09613831,59.4057199 C2.80353608,60.1747872 6.44389236,61.6815039 10.8343115,62.2683469 L22.2024377,62.2683469 C26.5723103,61.6801574 30.2381805,60.1725431 31.9406109,59.4057199 C32.8573042,58.9927978 33.2625911,57.9728355 32.911493,57.0478003 Z" id="Path" fill="#014251"></path>
                        <path d="M31.9436054,59.4057199 C32.8576373,58.9927978 33.2621719,57.9728355 32.9116954,57.0478003 C31.3223881,52.8517043 30.0614836,45.6383599 29.7893913,41.8827889 C29.27156,34.7360956 23.8657529,28.9103039 16.5586784,28.9103039 C16.5402086,28.9103039 16.521964,28.9103039 16.5034941,28.9105283 C10.8965459,28.9331942 8.91509237,36.5518305 13.7418024,39.3944847 C14.0316888,39.5652639 14.2175134,39.6473995 14.2175134,39.6473995 L18.4450798,62.2683469 L22.2289196,62.2683469 C26.5882525,61.6797086 30.245281,60.1723187 31.9436054,59.4057199 Z" id="Path" fill="#015365"></path>
                        <path d="M31.9927476,66.7293715 L25.657259,63.730931 C24.330609,63.1030112 23.4925626,61.8193439 23.4927997,60.4153888 L23.4932738,54.8554485 L11.7463998,54.8554485 L11.7463998,60.4156132 C11.7463998,61.8195683 10.9085905,63.1027868 9.58194052,63.7307066 L3.24645192,66.7293715 C1.25671401,67.6710268 0,69.596079 0,71.7017872 L0,82.6538036 C0,83.6771468 0.87645193,84.5070423 1.95773331,84.5070423 L33.2817033,84.5070423 C34.3629847,84.5070423 35.2394366,83.6771468 35.2394366,82.6538036 L35.2394366,71.7020116 C35.2394366,69.596079 33.9824855,67.6710268 31.9927476,66.7293715 Z" id="Path" fill="#FFFFFF"></path>
                        <path d="M17.512976,62.2683469 C19.5460315,62.2683469 21.4933474,61.856993 23.2785585,61.1247247 C23.2316876,60.891108 23.1770429,60.6588377 23.1770429,60.4153467 L23.1775002,54.8554485 L11.8484517,54.8554485 L11.8484517,60.4155711 C11.8484517,60.6604086 11.7938071,60.8938009 11.7464789,61.1283153 C13.5328332,61.8567686 15.4792346,62.2683469 17.512976,62.2683469 Z" id="Path" fill="#EBFBFF"></path>
                        <path d="M31.9927476,66.6394734 L27.4793877,64.492442 C25.3865238,67.5671696 21.7567279,69.6063871 17.6198368,69.6063871 C13.4829458,69.6063871 9.85291281,67.5671696 7.76004897,64.4922165 L3.24668899,66.6394734 C1.25695108,67.5858905 0,69.5206773 0,71.6370336 L0,82.6444322 C0,83.6731758 0.87645193,84.5070423 1.95773331,84.5070423 L33.2817033,84.5070423 C34.3629847,84.5070423 35.2394366,83.6731758 35.2394366,82.6444322 L35.2394366,71.6372591 C35.2394366,69.5206773 33.9824855,67.5858905 31.9927476,66.6394734 Z" id="Path" fill="#01748D"></path>
                        <path d="M17.2284864,58.5618977 C11.4154503,58.5618977 6.61586516,54.2725506 5.89015866,48.7203557 C5.78493698,47.915875 6.17605702,47.1271371 6.90845526,46.7618581 C7.78576405,46.3242534 9.06065386,45.5863945 10.2813176,44.5094945 C11.6406616,43.3103026 12.4381312,42.0456297 12.8885538,41.1172598 C13.2764433,40.3177985 14.1680586,39.8655918 15.0370604,40.0848504 C21.7463267,41.776861 26.3140088,45.2281883 27.9712502,46.6372845 C28.4161348,47.0155684 28.6724973,47.5734117 28.6268089,48.1520173 C28.1650796,53.9768594 23.2383516,58.5618977 17.2284864,58.5618977 Z" id="Path" fill="#FFFFFF"></path>
                        <path d="M86.7661077,64.2004683 L70.8674623,58.5618977 L59.4665493,62.2685072 L48.0656363,58.5621221 L32.1669909,64.2006927 C29.163287,65.2659755 27.1637324,68.0500281 27.1637324,71.1671079 L27.1637324,82.6538497 C27.1637324,83.6771675 28.014406,84.5070423 29.0638846,84.5070423 L89.869214,84.5070423 C90.9186926,84.5070423 91.7693662,83.6771675 91.7693662,82.6538497 L91.7693662,71.1671079 C91.7693662,68.0498037 89.7700416,65.2657511 86.7661077,64.2004683 Z" id="Path" fill="#02BDE8"></path>
                        <polygon id="Path" fill="#014251" points="57.5438155 65.2335063 55.7957746 84.5070423 63.1373239 84.5070423 61.3892831 65.2335063"></polygon>
                        <path d="M61.0817358,68.9399555 L57.1174364,68.9399555 C56.3874475,68.9399555 55.7957746,68.320254 55.7957746,67.5556841 L55.7957746,62.2683469 L62.403169,62.2683469 L62.4031689,67.5556841 C62.4033976,68.3200146 61.8117247,68.9399555 61.0817358,68.9399555 Z" id="Path" fill="#01323D"></path>
                        <path d="M80.0228873,19.2313798 L80.0228873,3.70642117 C80.0228873,1.65931691 78.3195588,0 76.2186718,0 L53.3931486,0 C44.98914,0 38.1760563,6.63771648 38.1760563,14.8259091 L38.1760563,19.2313798 C38.1760563,21.2232782 38.505666,23.2021606 39.1522167,25.0917263 L39.7854081,26.9424683 C39.9793503,27.509338 40.0781641,28.1029129 40.0781641,28.7005274 L40.0781641,29.6515938 L78.1205492,29.6515938 L78.1205492,28.7005274 C78.1205492,28.1029129 78.219363,27.509338 78.4133052,26.9424683 L79.0464966,25.0917263 C79.6932777,23.2019362 80.0228873,21.2230538 80.0228873,19.2313798 Z" id="Path" fill="#014251"></path>
                        <path d="M46.9859155,7.52869693 C46.9859155,11.6866705 50.4420173,15.0573939 54.7053099,15.0573939 L55.7741243,15.0573939 L56.2900085,29.6515938 L77.3885667,29.6515938 L77.3885667,28.7005202 C77.3885667,28.1029012 77.4872796,27.5093218 77.6810238,26.9424478 L78.3135686,25.0916918 C78.9594593,23.2021118 79.2887324,21.2232144 79.2887324,19.2313009 L79.2887324,3.70644922 C79.2887324,1.65932947 77.587143,0 75.488401,0 L54.7053099,0 C50.4420173,-3.1891385e-15 46.9859155,3.37072338 46.9859155,7.52869693 Z" id="Path" fill="#015365"></path>
                        <rect id="Rectangle" fill="#FFFFFF" x="47.7200704" y="45.2186805" width="22.7588028" height="17.0496664"></rect>
                        <path d="M47.7203001,51.735927 C51.0706075,53.7083253 54.9493669,54.8554485 59.0995867,54.8554485 C63.2498064,54.8554485 67.1287955,53.7083253 70.4788732,51.735927 L70.4788732,45.2186805 L47.7200704,45.2186805 L47.7203001,51.735927 Z" id="Path" fill="#EBFBFF"></path>
                        <g id="Group" transform="translate(44.783451, 54.855448)" fill="#0291B2">
                            <path d="M15.0501761,6.82928095 L9.13388446,12.6865085 C8.33869605,13.4737583 7.02438889,13.3850259 6.34466004,12.4981468 L0.210253206,4.49577465 L1.81478168,1.14818384 C2.28830065,0.160340993 3.5233136,-0.201704967 4.46361266,0.372053373 L15.0501761,6.82928095 Z" id="Path"></path>
                            <path d="M15.0501761,6.82928095 L20.9664677,12.6865085 C21.7616561,13.4737583 23.0759632,13.3850259 23.7556921,12.4981468 L29.8900989,4.49577465 L28.2855704,1.14818384 C27.8120515,0.160340993 26.5770385,-0.201704967 25.6367394,0.372053373 L15.0501761,6.82928095 Z" id="Path"></path>
                        </g>
                        <path d="M58.7327411,51.1489993 C48.1905752,51.1489993 39.6443662,42.7167405 39.6443662,32.3151377 L39.6443662,30.1086059 C39.6443662,29.1096798 40.0465625,28.1515774 40.7624257,27.4450311 L42.3437043,25.8848363 C43.0595675,25.178518 43.4617638,24.2204156 43.4617638,23.2212615 L43.4617638,18.7064806 C43.4617638,17.8343588 44.0553501,17.0767259 44.9154491,16.8762565 C49.429987,15.8241912 63.4784262,13.3321215 73.0389096,20.2698683 C73.6597712,20.7202973 74.0030249,21.4603692 74.0030249,22.220739 L74.0030249,23.2212615 C74.0030249,24.2201876 74.4052212,25.1782899 75.1210844,25.8848363 L76.7023631,27.4450311 C77.4182262,28.1513493 77.8204225,29.1094517 77.8204225,30.1086059 L77.8204225,32.3151377 C77.821116,42.7167405 69.274907,51.1489993 58.7327411,51.1489993 Z" id="Path" fill="#FFFFFF"></path>
                    </g>
                </g>
            </g>
        </g>
    </g>
</svg>