<svg xmlns="http://www.w3.org/2000/svg" width="160" height="160" viewBox="0 0 160 160">
    <g fill="none" fill-rule="evenodd">
        <circle cx="80" cy="80" r="80" fill="#EFEFEF"/>
        <g fill-rule="nonzero">
            <path fill="#00ABD3" d="M88.202 113.996H71.717l2.81-5.994 2.435-5.62h5.995l2.435 5.62z"/>
            <path fill="#15D1FC" d="M98.693 113.996H61.226a3.758 3.758 0 0 0-3.746 3.747v12.177h44.772v-12.177c.188-2.06-1.498-3.747-3.56-3.747z"/>
            <path fill="#10A5C8" d="M85.392 108.002c-1.498.749-2.997 1.498-4.496 2.06l-.936.188-.937-.375c-1.499-.562-2.997-1.311-4.496-2.06l2.435-5.62h5.808l2.622 5.807z"/>
            <g fill="#00ABD3">
                <path d="M35 50.303v7.68c0 18.734 11.615 34.845 27.913 41.589 5.245 2.248 11.052 3.372 17.047 3.372 5.995 0 11.802-1.124 17.047-3.372 16.298-6.744 27.913-22.855 27.913-41.588v-7.68H35zm82.426 7.68c0 8.993-3.184 17.236-8.617 23.792-6.931 8.243-17.235 13.675-28.85 13.675-11.614 0-21.917-5.245-28.848-13.675-5.246-6.37-8.618-14.8-8.618-23.791v-.187h74.746v.187h.187zM109.184 40H50.736c-1.311 0-2.248 1.124-2.248 2.248 0 1.311.936 2.435 2.248 2.435h58.448c1.31 0 2.248-1.124 2.248-2.248 0-1.311-.937-2.435-2.248-2.435z"/>
            </g>
            <path fill="#56DFFF" d="M109.184 44.683v20.232c0 18.733-11.615 35.78-29.224 42.525-17.61-6.932-29.224-23.792-29.224-42.712V44.683h58.448z"/>
            <path fill="#FFF" d="M79.96 53.113l3.934 11.99h12.551L86.33 72.595l3.747 11.99-10.116-7.494-10.116 7.493 3.746-11.99-10.116-7.493h12.552z"/>
            <path fill="#15D1FC" d="M50.736 44.683h58.26v2.81h-58.26z"/>
        </g>
    </g>
</svg>
