<?xml version="1.0" encoding="UTF-8"?>
<svg width="180px" height="180px" viewBox="0 0 180 180" version="1.1" xmlns="http://www.w3.org/2000/svg" xmlns:xlink="http://www.w3.org/1999/xlink">
    <!-- Generator: sketchtool 52.6 (67491) - http://www.bohemiancoding.com/sketch -->
    <title>4F674856-093D-4A79-8A34-C698F9EF0EF5</title>
    <desc>Created with sketchtool.</desc>
    <g id="Dashboard" stroke="none" stroke-width="1" fill="none" fill-rule="evenodd">
        <g id="analytics-splash-screen" transform="translate(-622.000000, -322.000000)">
            <g id="Group-4" transform="translate(563.000000, 322.000000)">
                <g id="Group-2" transform="translate(59.000000, 0.000000)">
                    <circle id="Oval" fill="#FFFFFF" fill-rule="nonzero" cx="90" cy="90" r="90"></circle>
                    <g id="analysis-(1)" transform="translate(50.000000, 51.000000)">
                        <path d="M65.266568,57.0666667 L77.2345152,69.0345279 C78.3224388,70.1224437 78.9333328,71.5969886 78.9333328,73.1345279 C78.9347501,76.3365407 76.3393562,78.931916 73.1373205,78.9333333 C73.1359031,78.9333333 73.1359031,78.9333333 73.1346432,78.9333333 C71.5970928,78.9333333 70.1225374,78.3224437 69.0346138,77.2345279 L57.0666667,65.2666667 L65.266568,57.0666667 Z" id="Path" fill="#235087"></path>
                        <polygon id="Rectangle" fill="#EF2648" transform="translate(57.628949, 57.811373) rotate(135.000000) translate(-57.628949, -57.811373) " points="51.8753874 53.0193328 63.3936691 53.0059409 63.3825104 62.6034139 51.8642288 62.6168058"></polygon>
                        <path d="M63.1053499,59.9060941 C64.8322846,59.9088753 66.5563675,60.0296115 68.2666667,60.2666667 L65.1676902,57.0666667 L62.4,59.9245808 C62.6352751,59.9203272 62.8689658,59.9060941 63.1053499,59.9060941 Z" id="Path" fill="#163768"></path>
                        <path d="M65.0666667,57.3333333 L58.2787879,50.6666667 L50.1333333,58.6666667 L52.8484848,61.3333333 C55.9409667,60.5107168 59.1259039,60.066682 62.3297702,60.0133671 L65.0666667,57.3333333 Z" id="Path" fill="#B20D24"></path>
                        <circle id="Oval" fill="#B7E5FF" cx="32.5333333" cy="32.5333333" r="27.2"></circle>
                        <g id="Group" transform="translate(5.333333, 5.333333)" fill="#EF2648">
                            <polygon id="Rectangle" transform="translate(19.088843, 30.007721) rotate(135.000000) translate(-19.088843, -30.007721) " points="18.0041097 24.304909 20.4656908 24.2355798 20.1735772 35.7105332 17.7119961 35.7798624"></polygon>
                            <polygon id="Rectangle" transform="translate(34.000365, 28.645435) rotate(135.000000) translate(-34.000365, -28.645435) " points="26.3734056 27.6459145 41.6956685 27.2628407 41.6273235 29.6449562 26.3050605 30.02803"></polygon>
                            <rect id="Rectangle" x="65.1777517" y="0.00801428571" width="9.48891492" height="2.72737143"></rect>
                            <rect id="Rectangle" x="0.111218968" y="21.8268286" width="8.13335565" height="2.72737143"></rect>
                            <polygon id="Rectangle" transform="translate(55.687956, 6.828790) rotate(135.000000) translate(-55.687956, -6.828790) " points="51.908556 5.65562912 59.5376392 5.45768813 59.4673553 8.00195125 51.838272 8.19989224"></polygon>
                        </g>
                        <g id="Group" transform="translate(12.266667, 1.600000)" fill="#235087" fill-rule="nonzero">
                            <path d="M5.44386457,32.6505514 C2.44625201,32.6505514 0.0159497382,30.2142378 0.0159497382,27.2092108 C0.0159497382,24.2041838 2.44625201,21.7678703 5.44386457,21.7678703 C8.44147714,21.7678703 10.8717794,24.2041838 10.8717794,27.2092108 C10.8717794,30.2142378 8.44132077,32.6505514 5.44386457,32.6505514 Z M5.44386457,24.4885405 C3.94443281,24.4885405 2.72990716,25.7060703 2.72990716,27.2092108 C2.72990716,28.7123514 3.94443281,29.9298811 5.44386457,29.9298811 C6.94329634,29.9298811 8.15782199,28.7123514 8.15782199,27.2092108 C8.15766562,25.7060703 6.94329634,24.4885405 5.44386457,24.4885405 Z" id="Shape"></path>
                            <path d="M19.0134953,46.2539027 C16.0158827,46.2539027 13.5855805,43.8175892 13.5855805,40.8125622 C13.5855805,37.8075351 16.0158827,35.3712216 19.0134953,35.3712216 C22.0111079,35.3712216 24.4414101,37.8075351 24.4414101,40.8125622 C24.4414101,43.8175892 22.0111079,46.2539027 19.0134953,46.2539027 Z M19.0134953,38.0918919 C17.5140635,38.0918919 16.2995379,39.3094216 16.2995379,40.8125622 C16.2995379,42.3157027 17.5140635,43.5332324 19.0134953,43.5332324 C20.5129271,43.5332324 21.7274527,42.3157027 21.7274527,40.8125622 C21.7274527,39.3094216 20.5129271,38.0918919 19.0134953,38.0918919 Z" id="Shape"></path>
                            <path d="M54.2947853,10.8853459 C51.2971728,10.8853459 48.8668705,8.44903243 48.8668705,5.44400541 C48.8668705,2.43897838 51.2971728,0.00266486486 54.2947853,0.00266486486 C57.2923979,0.00266486486 59.7227002,2.43897838 59.7227002,5.44400541 C59.7227002,8.44903243 57.2923979,10.8853459 54.2947853,10.8853459 Z M54.2947853,2.72333514 C52.7953536,2.72333514 51.5808279,3.94086486 51.5808279,5.44400541 C51.5808279,6.94714595 52.7953536,8.16467568 54.2947853,8.16467568 C55.7942171,8.16467568 57.0087428,6.94714595 57.0087428,5.44400541 C57.0087428,3.94086486 55.7942171,2.72333514 54.2947853,2.72333514 Z" id="Shape"></path>
                        </g>
                        <path d="M43.0275145,7.46666667 C54.5974235,16.9806442 56.2865456,34.1011697 46.7997103,45.705899 C39.2269117,54.969863 26.4974676,58.1664981 15.4666667,53.5732627 C27.0365757,63.0872402 44.1043259,61.3930346 53.5911612,49.7897142 C63.0779965,38.1863939 61.3874697,21.0658683 49.8189654,11.5504819 C47.766796,9.86316452 45.4776937,8.48691598 43.0275145,7.46666667 Z" id="Path" fill="#99C8E0"></path>
                        <polygon id="Rectangle" fill="#EF2648" transform="translate(52.880300, 20.444977) rotate(135.000000) translate(-52.880300, -20.444977) " points="49.042216 19.0919389 56.7215397 19.0830104 56.718383 21.7980161 49.0390593 21.8069446"></polygon>
                        <path d="M54.4291887,16.5333333 L51.2,19.7752426 C51.5439054,20.8108593 51.8268243,21.864975 52.0490828,22.9333333 L56,18.9668525 C55.5173257,18.1286677 54.993722,17.3174946 54.4291887,16.5333333 Z" id="Path" fill="#B20D24"></path>
                        <g id="Group" fill="#235087" fill-rule="nonzero">
                            <path d="M32.4976013,0.0528959233 C14.5494996,0.0528959233 0,14.6023955 0,32.5504972 C0,50.4985989 14.5494996,65.0480985 32.4976013,65.0480985 C50.445703,65.0480985 64.9952026,50.4985989 64.9952026,32.5504972 C64.9952026,14.6023955 50.445859,0.0528959233 32.4976013,0.0528959233 Z M32.4976013,59.6318056 C17.5405378,59.6318056 5.41629289,47.5074046 5.41629289,32.5504972 C5.41629289,17.5935898 17.5405378,5.46918881 32.4976013,5.46918881 C47.4546647,5.46918881 59.5789097,17.5935898 59.5789097,32.5504972 C59.5789097,47.5074046 47.4546647,59.6318056 32.4976013,59.6318056 Z" id="Shape"></path>
                            <path d="M47.3924067,31.196424 C44.4012125,31.196424 41.9761138,28.7713253 41.9761138,25.7801311 C41.9761138,22.7889369 44.4012125,20.3638382 47.3924067,20.3638382 C50.383601,20.3638382 52.8086996,22.7889369 52.8086996,25.7801311 C52.8086996,28.7713253 50.3834449,31.196424 47.3924067,31.196424 Z M47.3924067,23.0719847 C45.8961855,23.0719847 44.6842603,24.2839098 44.6842603,25.7801311 C44.6842603,27.2763524 45.8961855,28.4882775 47.3924067,28.4882775 C48.888628,28.4882775 50.1005532,27.2763524 50.1005532,25.7801311 C50.1005532,24.2839098 48.888628,23.0719847 47.3924067,23.0719847 Z" id="Shape"></path>
                        </g>
                    </g>
                </g>
            </g>
        </g>
    </g>
</svg>