<?xml version="1.0" encoding="UTF-8"?>
<svg width="180px" height="180px" viewBox="0 0 180 180" version="1.1" xmlns="http://www.w3.org/2000/svg" xmlns:xlink="http://www.w3.org/1999/xlink">
    <!-- Generator: Sketch 52.2 (67145) - http://www.bohemiancoding.com/sketch -->
    <title>imageForCodeBots</title>
    <desc>Created with Sketch.</desc>
    <defs>
        <path d="M14.0881589,29.1148233 C6.3075473,29.1148233 0,22.5971342 0,14.5573221 C0,7.17563935 5.31732194,1.07815774 12.2098664,0.129039584 L12.2098664,3.0623867 C12.2098664,3.88956123 11.7049954,4.63281787 10.9461928,4.89597108 C6.96937451,6.27648402 4.1243849,10.2040961 4.22916698,14.802984 C4.35674003,20.4016301 8.77040326,24.8035899 14.1898834,24.7471519 C19.5895434,24.6907139 23.950035,20.1502124 23.950035,14.5573221 C23.950035,14.4298663 23.946999,14.3030153 23.9424452,14.1768585 C23.9413609,14.1485947 23.9404935,14.1200846 23.9394093,14.0917313 C23.9342049,13.9745105 23.9272657,13.8575361 23.9183748,13.7412784 C23.9157726,13.7042577 23.9120861,13.6673491 23.9088334,13.6304181 C23.9018942,13.5492325 23.8938707,13.4685844 23.8849799,13.3880932 C23.8750047,13.2966726 23.8635117,13.2057672 23.8511512,13.1153097 C23.8457299,13.0739442 23.8403087,13.0324668 23.8342369,12.9914373 C22.6268142,4.77306174 12.2678088,0.154060192 12.2109506,0.128777103 C12.8252659,0.0443546416 13.4517466,0 14.0881589,0 C21.8689223,0 28.1764479,6.51750997 28.1764479,14.5573221 C28.1764479,22.5971342 21.8689223,29.1148233 14.0881589,29.1148233" id="path-1"></path>
    </defs>
    <g id="Dashboard" stroke="none" stroke-width="1" fill="none" fill-rule="evenodd">
        <g id="splash-screen-code-base" transform="translate(-551.000000, -248.000000)">
            <g id="imageForCodeBots" transform="translate(551.000000, 248.000000)">
                <circle id="Oval" fill="#FFFFFF" fill-rule="nonzero" cx="90" cy="90" r="90"></circle>
                <g id="review" transform="translate(77.010309, 127.113402)">
                    <path d="M25.702268,28.2989691 L0.277113402,28.2989691 C0.124077526,28.2989691 0,28.199978 0,28.0778834 L0,0.221085696 C0,0.0989911203 0.124077526,0 0.277113402,0 L25.702268,0 C25.8553039,0 25.9793814,0.0989911203 25.9793814,0.221085696 C25.9793814,6.30812395 25.9793814,10.8734026 25.9793814,13.9169218 C25.9793814,17.0638021 25.9793814,21.7841227 25.9793814,28.0778834 C25.9793814,28.199978 25.8553039,28.2989691 25.702268,28.2989691 Z" id="Path" fill="#ACA8FB"></path>
                    <path d="M23.6176195,0 L23.6176195,28.2989691 L25.673721,28.2989691 C25.842522,28.2989691 25.9793814,28.199978 25.9793814,28.0778834 L25.9793814,0.221085696 C25.9793814,0.0989911203 25.842522,0 25.673721,0 L23.6176195,0 Z" id="Path" fill="#8882F6"></path>
                    <path d="M25.9793814,5.50257732 L0,5.50257732 L0,0.267070028 C0,0.119580605 0.124077526,0 0.277113402,0 L25.702268,0 C25.8553039,0 25.9793814,0.119580605 25.9793814,0.267070028 L25.9793814,5.50257732 Z" id="Path" fill="#50536E"></path>
                    <path d="M25.9793814,5.50257732 L23.6176195,5.50257732 L23.6176195,0 L25.673721,0 C25.842522,0 25.9793814,0.119580605 25.9793814,0.267070028 L25.9793814,5.50257732 Z" id="Path" fill="#484B63"></path>
                    <g id="Group" transform="translate(2.361762, 1.572165)">
                        <ellipse id="Oval" fill="#FF2C5C" cx="1.13024277" cy="1.15642558" rx="1.09881356" ry="1.13881242"></ellipse>
                        <ellipse id="Oval" fill="#FFD659" cx="5.52542589" cy="1.15642558" rx="1.09881356" ry="1.13881242"></ellipse>
                        <ellipse id="Oval" fill="#4FC6F5" cx="9.920609" cy="1.15642558" rx="1.09881356" ry="1.13881242"></ellipse>
                    </g>
                </g>
                <g id="Group-6" transform="translate(61.701031, 61.237113)">
                    <g id="baseline-message-24px-(2)">
                        <path d="M49.0979381,4.90979381 L9.81958763,4.90979381 C7.11920103,4.90979381 4.93434278,7.11920103 4.93434278,9.81958763 L4.90979381,54.007732 L14.7293814,44.1881443 L49.0979381,44.1881443 C51.7983247,44.1881443 54.007732,41.9787371 54.007732,39.2783505 L54.007732,9.81958763 C54.007732,7.11920103 51.7983247,4.90979381 49.0979381,4.90979381 Z" id="Shape" fill="#02A5CA" fill-rule="nonzero"></path>
                        <polygon id="Path" points="0 0 58.9175258 0 58.9175258 58.9175258 0 58.9175258"></polygon>
                    </g>
                    <rect id="Rectangle" fill="#FFFFFF" fill-rule="nonzero" x="19.9045695" y="21.4969351" width="5.57327947" height="5.57327947" rx="2"></rect>
                    <rect id="Rectangle-Copy" fill="#FFFFFF" fill-rule="nonzero" x="34.2358596" y="21.4969351" width="5.57327947" height="5.57327947" rx="2"></rect>
                </g>
                <g id="Amazon_Alexa_logo" transform="translate(127.577320, 97.886598)">
                    <g id="g10" transform="translate(14.149485, 14.613402) scale(-1, 1) rotate(-180.000000) translate(-14.149485, -14.613402) ">
                        <g id="g12">
                            <path d="M14.0881589,29.1148233 C6.3075473,29.1148233 0,22.5971342 0,14.5573221 C0,7.17563935 5.31732194,1.07815774 12.2098664,0.129039584 L12.2098664,3.0623867 C12.2098664,3.88956123 11.7049954,4.63281787 10.9461928,4.89597108 C6.96937451,6.27648402 4.1243849,10.2040961 4.22916698,14.802984 C4.35674003,20.4016301 8.77040326,24.8035899 14.1898834,24.7471519 C19.5895434,24.6907139 23.950035,20.1502124 23.950035,14.5573221 C23.950035,14.4298663 23.946999,14.3030153 23.9424452,14.1768585 C23.9413609,14.1485947 23.9404935,14.1200846 23.9394093,14.0917313 C23.9342049,13.9745105 23.9272657,13.8575361 23.9183748,13.7412784 C23.9157726,13.7042577 23.9120861,13.6673491 23.9088334,13.6304181 C23.9018942,13.5492325 23.8938707,13.4685844 23.8849799,13.3880932 C23.8750047,13.2966726 23.8635117,13.2057672 23.8511512,13.1153097 C23.8457299,13.0739442 23.8403087,13.0324668 23.8342369,12.9914373 C22.6268142,4.77306174 12.2678088,0.154060192 12.2109506,0.128777103 C12.8252659,0.0443546416 13.4517466,0 14.0881589,0 C21.8689223,0 28.1764479,6.51750997 28.1764479,14.5573221 C28.1764479,22.5971342 21.8689223,29.1148233 14.0881589,29.1148233" id="path98" fill="#5FCAF4"></path>
                            <g id="g100">
                                <g id="g102-Clipped">
                                    <mask id="mask-2" fill="white">
                                        <use xlink:href="#path-1"></use>
                                    </mask>
                                    <g id="path104"></g>
                                    <g id="g102" mask="url(#mask-2)" fill="#5FCAF4">
                                        <g transform="translate(-2.146818, -2.217206)" id="path108">
                                            <polyline points="0.00779360094 0.00804912884 32.4622779 0.00804912884 32.4622779 33.5411723 0.00779360094 33.5411723 0.00779360094 0.00804912884"></polyline>
                                        </g>
                                    </g>
                                </g>
                            </g>
                        </g>
                    </g>
                </g>
                <g id="line" transform="translate(26.443299, 48.711340)">
                    <rect id="Rectangle" fill="#00C200" x="0" y="0" width="28.2989691" height="28.2989691" rx="4"></rect>
                    <g id="Group" transform="translate(3.329290, 4.161613)">
                        <path d="M20.7004118,9.45718675 C20.7481333,9.20211674 20.7717448,8.98750393 20.782585,8.81916405 C20.8005272,8.54133687 20.780093,8.12886306 20.7728039,7.99971609 C20.5206152,3.54891829 15.9697542,0.0029078613 10.3926942,0.0029078613 C4.65377992,0.0029078613 0.00155748993,3.75765216 0.00155748993,8.38936951 C0.00155748993,12.6466049 3.93191448,16.1628413 9.02384747,16.7037035 C9.33515856,16.7367647 9.55962401,17.0219247 9.52511003,17.3375541 L9.30830743,19.3175548 C9.25909075,19.767009 9.71711739,20.094017 10.1185137,19.8974203 C14.4205501,17.790738 16.9930251,15.6234331 18.5292085,13.7457765 C18.8087468,13.4041028 19.7202522,12.1082713 19.9060919,11.7679251 C20.300573,11.0453847 20.5725107,10.2694915 20.7004118,9.45718675 Z" id="Path" fill="#FFFFFF"></path>
                        <path d="M4.67888666,10.0882559 L4.67888666,6.5557101 C4.67888666,6.25784396 4.44090219,6.01636504 4.14734649,6.01636504 C3.85379079,6.01636504 3.61580633,6.25784396 3.61580633,6.5557101 L3.61580633,10.6276009 C3.61580633,10.9254671 3.85379079,11.166946 4.14734649,11.166946 L6.27344485,11.166946 C6.56700055,11.166946 6.80498501,10.9254671 6.80498501,10.6276009 C6.80498501,10.3297348 6.56700055,10.0882559 6.27344485,10.0882559 L4.67888666,10.0882559 Z" id="Path" fill="#00C500"></path>
                        <path d="M7.95758986,11.166946 L7.72521236,11.166946 C7.49582525,11.166946 7.30986095,10.9782511 7.30986095,10.7454957 L7.30986095,6.43781529 C7.30986095,6.20505995 7.49582525,6.01636504 7.72521236,6.01636504 L7.95758986,6.01636504 C8.18697698,6.01636504 8.37294128,6.20505995 8.37294128,6.43781529 L8.37294128,10.7454957 C8.37294128,10.9782511 8.18697698,11.166946 7.95758986,11.166946 Z" id="Path" fill="#00C500"></path>
                        <path d="M12.2529602,6.5557101 L12.2529602,9.04325901 C12.2529602,9.04325901 10.130226,6.23382249 10.0978302,6.1969053 C9.99640648,6.08141263 9.84694975,6.01035967 9.68104592,6.01674433 C9.39191349,6.02787006 9.17018922,6.28426757 9.17018922,6.57783513 L9.17018922,10.6275377 C9.17018922,10.9254039 9.40817368,11.1668828 9.70172939,11.1668828 C9.99528509,11.1668828 10.2332696,10.9254039 10.2332696,10.6275377 L10.2332696,8.15509703 C10.2332696,8.15509703 12.3882749,10.9889975 12.4199231,11.0194668 C12.5139332,11.109737 12.6402145,11.1656185 12.7795787,11.1668828 C13.0747542,11.169601 13.3160405,10.9046695 13.3160405,10.6051598 L13.3160405,6.5557101 C13.3160405,6.25784396 13.0780561,6.01636504 12.7845004,6.01636504 C12.4909447,6.01642825 12.2529602,6.25784396 12.2529602,6.5557101 Z" id="Path" fill="#00C500"></path>
                        <path d="M17.3024049,6.5557101 C17.3024049,6.25784396 17.0644204,6.01636504 16.7708647,6.01636504 L14.6447663,6.01636504 C14.3512106,6.01636504 14.1132262,6.25784396 14.1132262,6.5557101 L14.1132262,10.6276009 C14.1132262,10.9254671 14.3512106,11.166946 14.6447663,11.166946 L16.7708647,11.166946 C17.0644204,11.166946 17.3024049,10.9254671 17.3024049,10.6276009 C17.3024049,10.3297348 17.0644204,10.0882559 16.7708647,10.0882559 L15.1763065,10.0882559 L15.1763065,9.13093735 L16.7708647,9.13093735 C17.0644204,9.13093735 17.3024049,8.88945844 17.3024049,8.5915923 C17.3024049,8.29372616 17.0644204,8.05224724 16.7708647,8.05224724 L15.1763065,8.05224724 L15.1763065,7.09492873 L16.7708647,7.09492873 C17.0644204,7.09505515 17.3024049,6.85357624 17.3024049,6.5557101 Z" id="Path" fill="#00C500"></path>
                    </g>
                </g>
                <g id="viber-(1)" transform="translate(122.938144, 48.711340)" fill="#7F40BD">
                    <path d="M23.8583556,12.0726033 C23.8933167,8.15055462 20.3982858,4.55509883 16.0673716,4.05790176 C15.9812479,4.04812191 15.8873929,4.03328912 15.7880807,4.01753269 C15.5736525,3.98357485 15.3519479,3.94869336 15.1282536,3.94869336 C14.2406394,3.94869336 14.0033586,4.54461265 13.9408834,4.90005612 C13.8801136,5.24561107 13.9380979,5.53580116 14.1127897,5.76296551 C14.4067473,6.14497759 14.9239443,6.2127846 15.3393846,6.26717148 C15.4611516,6.28325391 15.5760401,6.29819536 15.6722258,6.31884172 C19.563369,7.14985791 20.8735863,8.45633815 21.5139147,12.1437246 C21.5295477,12.2338079 21.5365968,12.3448637 21.5441006,12.4626023 C21.5720127,12.9034022 21.6302243,13.8204268 22.6617761,13.8204268 L22.6618898,13.8204268 C22.7477861,13.8204268 22.8400493,13.8133635 22.9361213,13.7993457 C23.8967275,13.6598198 23.8665985,12.8215774 23.8521592,12.4188102 C23.8480662,12.3053639 23.8442006,12.1980571 23.8542626,12.1267185 C23.8568776,12.1087344 23.8582419,12.0906417 23.8583556,12.0726033 Z" id="Path"></path>
                    <path d="M15.3006943,2.27803109 C15.4134551,2.28617369 15.5202636,2.29398166 15.6091594,2.30764561 C21.861906,3.27170685 24.7374463,6.24174719 25.5343377,12.5594548 C25.5478557,12.6668701 25.5499696,12.7978209 25.5521948,12.936524 C25.5601498,13.4300992 25.5765048,14.4569589 26.6764653,14.4782077 L26.7106218,14.4785423 C27.0555798,14.4785423 27.3299998,14.3742501 27.5262603,14.1683428 C27.8686594,13.8092877 27.8447944,13.2758918 27.825491,12.8471785 C27.8208181,12.741994 27.8163121,12.6429443 27.8174247,12.55622 C27.8969192,6.0948458 22.3181229,0.235689159 15.8789621,0.0178467891 C15.8522599,0.0169544497 15.8267817,0.0184045013 15.8010253,0.0220296303 C15.7883974,0.0238700805 15.7649218,0.0262124715 15.7247573,0.0262124715 C15.660561,0.0262124715 15.5815672,0.0206353499 15.4977893,0.0149466859 C15.3964881,0.0079752839 15.281669,0 15.1652923,0 C14.1398196,0 13.9448941,0.730714473 13.9199721,1.16628767 C13.8624513,2.17301389 14.8338522,2.24384334 15.3006943,2.27803109 Z" id="Path"></path>
                    <path d="M24.7671625,20.512348 C24.6361461,20.4111323 24.5006893,20.3063672 24.373894,20.2029885 C23.7011602,19.655259 22.9854488,19.1504006 22.2932544,18.662125 C22.1496297,18.5609093 22.0059502,18.4595827 21.8628189,18.3579787 C20.9761831,17.7278902 20.179066,17.4216919 19.4259682,17.4216919 C18.4116051,17.4216919 17.5272716,17.9887217 16.7973621,19.1068086 C16.4739872,19.6025159 16.0816506,19.8434925 15.5981507,19.8434925 C15.3122717,19.8434925 14.987362,19.760967 14.6326857,19.5980791 C11.7707717,18.2851034 9.72718954,16.2719924 8.5586217,13.6146504 C7.99371616,12.3302925 8.17686506,11.4907845 9.17105497,10.8075092 C9.7356316,10.4198392 10.7865039,9.69812964 10.7120603,8.31610549 C10.6277493,6.74667976 7.20498631,2.02437105 5.7628189,1.48806648 C5.15224947,1.26089962 4.51070754,1.25879212 3.85261039,1.48279772 C2.19467702,2.04666623 1.0049492,3.0369163 0.411702444,4.34628699 C-0.161590348,5.611511 -0.135715975,7.09708021 0.486584635,8.642436 C2.28551142,13.1104576 4.81467661,17.0060143 8.00413169,20.220625 C11.1260503,23.3674628 14.9631321,25.9451078 19.4087004,27.881794 C19.8094242,28.0562178 20.2297183,28.1513883 20.5365928,28.2207695 C20.6411867,28.2445622 20.7314729,28.2648608 20.79731,28.2831073 C20.8334903,28.2930902 20.8707669,28.2984699 20.908208,28.2988027 L20.9433467,28.2989691 C20.9434564,28.2989691 20.9433467,28.2989691 20.9435112,28.2989691 C23.0344018,28.2989691 25.5450383,26.3659433 26.3161165,24.1621585 C26.991646,22.2325158 25.7582278,21.2787034 24.7671625,20.512348 Z" id="Path"></path>
                    <path d="M16.1032359,7.24004516 C15.7263021,7.24923526 14.9417832,7.26800533 14.666558,8.03897098 C14.5377771,8.39922281 14.5531893,8.71202032 14.7124481,8.96867468 C14.9461125,9.3452459 15.393873,9.46065125 15.8011116,9.52397937 C17.2780227,9.75267356 18.0365082,10.5406827 18.1882053,12.0037462 C18.2586856,12.68593 18.7347883,13.1623112 19.3460791,13.1623112 L19.3461946,13.1623112 C19.3913343,13.1623112 19.437513,13.1597491 19.4835186,13.1543464 C20.2186839,13.0699646 20.5751259,12.5487469 20.5429163,11.6053973 C20.5546918,10.6208315 20.0206926,9.50309279 19.1124725,8.61276726 C18.2010199,7.71971256 17.1024858,7.21676358 16.1032359,7.24004516 Z" id="Path"></path>
                </g>
                <g id="messenger" transform="translate(75.618557, 19.948454)">
                    <path d="M14.1494845,0.00275161745 C6.50240667,-0.148014166 0.174602428,5.91555574 0,13.5613374 C0.0199529841,17.4533384 1.7434818,21.141463 4.71647642,23.6536365 L4.71647642,27.7094461 C4.71647642,28.0350184 4.98045274,28.2989691 5.3060567,28.2989691 C5.41654428,28.2989691 5.524821,28.2679096 5.61850606,28.2093828 L8.90472384,26.1567465 C10.5790058,26.7970589 12.3569217,27.1235707 14.1494845,27.1199784 C21.7965624,27.2707442 28.1243666,21.2071743 28.2989691,13.5613927 C28.1243666,5.91555574 21.7965624,-0.148014166 14.1494845,0.00275161745 Z" id="Path" fill="#2196F3"></path>
                    <path d="M23.0348161,9.67924102 C22.8593862,9.43497368 22.5377648,9.36187722 22.2802023,9.50772561 L16.1488346,12.980525 L12.3344234,9.58242984 C12.1005169,9.37410781 11.751647,9.38794618 11.5338243,9.61429829 L4.45914802,16.9641383 C4.22960794,17.2040417 4.23071335,17.5918606 4.46169048,17.8303284 C4.64635059,18.0210223 4.92950345,18.0632839 5.15838028,17.9343172 L11.289748,14.4615178 L15.1076965,17.8608188 C15.341603,18.0691408 15.690473,18.0553025 15.9082956,17.8289504 L22.9829719,10.4791103 C23.1891324,10.2629217 23.2112408,9.9222451 23.0348161,9.67924102 Z" id="Path" fill="#FAFAFA"></path>
                </g>
                <g id="skype" transform="translate(26.443299, 99.742268)" fill="#00AAF2" fill-rule="nonzero">
                    <path d="M27.1575969,14.9865268 C26.708619,14.3455729 26.5005406,13.5627517 26.5013876,12.7716198 C26.5014581,12.767027 26.5014581,12.7624341 26.5014581,12.7577684 C26.5014581,5.71186781 20.9712873,0 14.1495198,0 C12.6571854,0 11.2272463,0.274330039 9.90311092,0.775676752 C9.18676498,1.04687201 8.40202421,1.0989969 7.66760906,0.885321285 C7.01888155,0.696578136 6.32589856,0.616969206 5.6079998,0.668000571 C2.59234506,0.882332305 0.164575356,3.4349941 0.00830479762,6.55293761 C-0.0663013361,8.04115803 0.365807227,9.42170226 1.14137222,10.5289371 C1.5903501,11.169891 1.79842851,11.9527122 1.79751093,12.7438441 C1.79751093,12.748437 1.79751093,12.7530298 1.79751093,12.7576955 C1.79751093,19.8035961 7.32761119,25.5154639 14.1494492,25.5154639 C15.6418543,25.5154639 17.0717934,25.2411339 18.3958582,24.7397872 C19.1122041,24.4685919 19.8969449,24.416467 20.63136,24.6301426 C21.2800875,24.8188858 21.9729999,24.8984947 22.6909693,24.8474633 C25.706624,24.6331316 28.1343231,22.0805427 28.2906643,18.9626721 C28.3652704,17.4744517 27.9331618,16.0938346 27.1575969,14.9865268 Z M14.6016739,10.4705426 C17.0922624,11.0822629 20.8558842,12.0066596 20.8558842,16.2885557 C20.8558842,18.3979007 19.8501484,20.0069925 18.0238156,20.819339 C16.7205728,21.3990553 15.2456018,21.4772791 13.9746154,21.4772791 C10.0688396,21.4772791 7.60196695,18.340454 7.49884532,18.2068976 C6.85922301,17.378294 6.99086013,16.1708919 7.79317605,15.5102544 C8.59528022,14.8493254 9.76427434,14.985652 10.4040378,15.8140369 C10.409755,15.8211084 11.8850084,17.5710468 13.9746154,17.6395017 C16.4908961,17.7219538 17.0657938,16.9486828 17.1401176,16.2886286 C17.2309578,15.4824788 16.5366338,14.8906608 13.741833,14.204216 C11.3729294,13.6223126 7.79261139,12.7429693 7.79261139,8.79948411 C7.79261139,7.57145076 8.27617489,3.56461376 14.4989052,3.56461376 C18.4281145,3.56461376 20.7473983,6.75983335 20.8442381,6.89586839 C21.4519569,7.74976893 21.2745115,8.95090146 20.4477739,9.57851435 C19.624636,10.2034299 18.4690526,10.0246014 17.8590046,9.18105292 C17.8152432,9.12295007 16.4876492,7.59740385 14.4989052,7.40239114 C12.9940776,7.25476469 11.5083074,7.81523488 11.5083074,8.64318233 C11.5083074,9.5204115 11.9349811,9.8155186 14.6016739,10.4705426 Z" id="Shape"></path>
                </g>
            </g>
        </g>
    </g>
</svg>