<?xml version="1.0" encoding="UTF-8"?>
<svg width="180px" height="180px" viewBox="0 0 180 180" version="1.1" xmlns="http://www.w3.org/2000/svg" xmlns:xlink="http://www.w3.org/1999/xlink">
    <!-- Generator: Sketch 52.2 (67145) - http://www.bohemiancoding.com/sketch -->
    <title>knowledge base</title>
    <desc>Created with Sketch.</desc>
    <g id="Dashboard" stroke="none" stroke-width="1" fill="none" fill-rule="evenodd">
        <g id="knowledge-base-splash-screen" transform="translate(-707.000000, -379.000000)">
            <g id="knowledge-base" transform="translate(707.000000, 379.000000)">
                <circle id="Oval" fill="#EAEAEA" fill-rule="nonzero" cx="90" cy="90" r="90"></circle>
                <g id="bookshelf" transform="translate(27.887324, 39.718310)">
                    <path d="M33.941429,90 L15.0724206,90 C13.5220259,90 12.2535211,88.7003067 12.2535211,87.1117926 L12.2535211,5.42341869 C12.2535211,3.83490461 13.5220259,2.53521127 15.0724206,2.53521127 L33.9416639,2.53521127 C35.4920586,2.53521127 36.7605634,3.83490461 36.7605634,5.42341869 L36.7605634,87.1117926 C36.7603285,88.7003067 35.4918237,90 33.941429,90 Z" id="Path" fill="#01748D"></path>
                    <path d="M16.4260563,87.0244243 L16.4260563,5.51078696 C16.4260563,3.87413609 17.7807246,2.53521127 19.4366197,2.53521127 L14.4190141,2.53521127 C12.763119,2.53521127 11.4084507,3.87413609 11.4084507,5.51078696 L11.4084507,87.0244243 C11.4084507,88.6608345 12.763119,90 14.4190141,90 L19.4366197,90 C17.7807246,90 16.4260563,88.6610752 16.4260563,87.0244243 Z" id="Path" fill="#015365"></path>
                    <path d="M59.2937766,90 L40.4245333,90 C38.8741386,90 37.6056338,88.7003067 37.6056338,87.1117926 L37.6056338,5.42341869 C37.6056338,3.83490461 38.8741386,2.53521127 40.4245333,2.53521127 L59.2937766,2.53521127 C60.8441713,2.53521127 62.1126761,3.83490461 62.1126761,5.42341869 L62.1126761,87.1117926 C62.1126761,88.7003067 60.8441713,90 59.2937766,90 Z" id="Path" fill="#02BDE8"></path>
                    <path d="M42.6031997,87.0244243 L42.6031997,5.51078696 C42.6031997,3.87413609 43.9668853,2.53521127 45.6338028,2.53521127 L40.636237,2.53521127 C38.9693194,2.53521127 37.6056338,3.87413609 37.6056338,5.51078696 L37.6056338,87.0244243 C37.6056338,88.6608345 38.9693194,90 40.636237,90 L45.6338028,90 C43.9668853,90 42.6031997,88.6610752 42.6031997,87.0244243 Z" id="Path" fill="#02A5CA"></path>
                    <rect id="Rectangle" fill="#02A5CA" x="12.2535211" y="63.8028169" width="24.5070423" height="7.18309859"></rect>
                    <rect id="Rectangle" fill="#01748D" x="11.4084507" y="63.8028169" width="4.22535211" height="7.18309859"></rect>
                    <rect id="Rectangle" fill="#0295B6" x="12.2535211" y="21.971831" width="24.5070423" height="7.18309859"></rect>
                    <rect id="Rectangle" fill="#01748D" x="11.4084507" y="21.971831" width="4.22535211" height="7.18309859"></rect>
                    <g id="Group" transform="translate(20.281690, 8.028169)" fill="#015365">
                        <path d="M2.13380282,6.5453275 C1.07323944,6.5453275 0.213256007,5.70339943 0.213256007,4.664559 L0.213256007,1.88417612 C0.213256007,0.845579106 1.07299089,0.00340763025 2.13380282,0.00340763025 C3.19461475,0.00340763025 4.05434963,0.845335704 4.05434963,1.88417612 L4.05434963,4.66480241 C4.05434963,5.70339943 3.1943662,6.5453275 2.13380282,6.5453275 Z" id="Path"></path>
                        <path d="M2.13380282,75.170376 C1.07323944,75.170376 0.213256007,74.328448 0.213256007,73.2896075 L0.213256007,70.5092247 C0.213256007,69.4706276 1.07299089,68.6284562 2.13380282,68.6284562 C3.19461475,68.6284562 4.05434963,69.4703842 4.05434963,70.5092247 L4.05434963,73.2896075 C4.05434963,74.3282046 3.1943662,75.170376 2.13380282,75.170376 Z" id="Path"></path>
                    </g>
                    <rect id="Rectangle" fill="#5DE1FF" x="37.6056338" y="63.8028169" width="24.5070423" height="7.18309859"></rect>
                    <rect id="Rectangle" fill="#02BDE8" x="37.6056338" y="63.8028169" width="4.22535211" height="7.18309859"></rect>
                    <rect id="Rectangle" fill="#5DE1FF" x="37.6056338" y="21.971831" width="24.5070423" height="7.18309859"></rect>
                    <rect id="Rectangle" fill="#02BDE8" x="37.6056338" y="21.971831" width="4.22535211" height="7.18309859"></rect>
                    <g id="Group" transform="translate(46.478873, 8.028169)" fill="#02A5CA">
                        <path d="M1.66062432,6.52071259 C0.76492416,6.52071259 0.038624052,5.68195074 0.038624052,4.64701707 L0.038624052,1.87709033 C0.038624052,0.84239915 0.764714247,0.00339481523 1.66062432,0.00339481523 C2.5565344,0.00339481523 3.28262459,0.842156663 3.28262459,1.87709033 L3.28262459,4.64725956 C3.28241468,5.68195074 2.55632449,6.52071259 1.66062432,6.52071259 Z" id="Path"></path>
                        <path d="M1.66062432,74.887684 C0.76492416,74.887684 0.038624052,74.0489222 0.038624052,73.0139885 L0.038624052,70.2440618 C0.038624052,69.2093706 0.764714247,68.3703663 1.66062432,68.3703663 C2.5565344,68.3703663 3.28262459,69.2091281 3.28262459,70.2440618 L3.28262459,73.0139885 C3.28241468,74.0486797 2.55632449,74.887684 1.66062432,74.887684 Z" id="Path"></path>
                    </g>
                    <path d="M121.900494,90 L2.32485805,90 C1.04087258,90 0,91.0204671 0,92.279281 L0,98.2840993 C0,99.5429132 1.04087258,100.56338 2.32485805,100.56338 L121.900494,100.56338 C123.18448,100.56338 124.225352,99.5429132 124.225352,98.2840993 L124.225352,92.279281 C124.225352,91.0204671 123.18448,90 121.900494,90 Z" id="Path" fill="#016379"></path>
                    <path d="M111.774369,82.3688338 L93.7234408,88.9815682 C92.2402615,89.5248267 90.5851367,88.7480898 90.0451466,87.2552722 L62.2849181,10.4882931 C61.7451671,8.99547547 62.5168891,7.32959499 64.0000684,6.78609576 L82.0509967,0.173361373 C83.534176,-0.369897154 85.1893008,0.406839783 85.7292909,1.89965741 L113.489759,78.6663958 C114.02951,80.1594541 113.257548,81.8255753 111.774369,82.3688338 Z" id="Path" fill="#0291B2"></path>
                    <path d="M95.7870431,85.9039363 L67.0495477,8.50181958 C66.4724856,6.94769696 67.2973917,5.21359769 68.8827,4.64788732 L64.1300004,6.34380236 C62.5446922,6.90951272 61.7197861,8.64361199 62.2968482,10.1977346 L91.0343436,87.5998513 C91.6114057,89.1537307 93.3803021,89.9626528 94.9656103,89.3969424 L99.7183099,87.7010274 C98.1330016,88.2667377 96.3638572,87.4580589 95.7870431,85.9039363 Z" id="Path" fill="#19758A"></path>
                    <polygon id="Rectangle" fill="#02BDE8" transform="translate(95.479622, 65.064497) rotate(160.001229) translate(-95.479622, -65.064497) " points="82.8238506 61.6336963 108.130158 61.6530288 108.135394 68.4952978 82.8290872 68.4759653"></polygon>
                    <polygon id="Rectangle" fill="#0291B2" transform="translate(85.909328, 68.538880) rotate(160.001229) translate(-85.909328, -68.538880) " points="83.4344143 65.1158571 88.3790042 65.1196345 88.3842409 71.9619034 83.4396509 71.9581261"></polygon>
                    <polygon id="Rectangle" fill="#02BDE8" transform="translate(80.983511, 25.334553) rotate(160.001229) translate(-80.983511, -25.334553) " points="68.3277395 21.9037523 93.6340465 21.9230848 93.6392831 28.7653538 68.3329761 28.7460213"></polygon>
                    <polygon id="Rectangle" fill="#0291B2" transform="translate(71.413265, 28.808936) rotate(160.001229) translate(-71.413265, -28.808936) " points="68.9383518 25.3859131 73.8829417 25.3896905 73.8881783 32.2319595 68.9435884 32.2281821"></polygon>
                    <path d="M76.6367086,16.7880994 C75.7617707,17.1413741 74.7943206,16.6409823 74.4757646,15.6706867 L73.6233001,13.0731499 C73.3047442,12.1028544 73.7559591,11.029964 74.630897,10.6766893 C75.505835,10.3234146 76.4732851,10.8238064 76.791841,11.794102 L77.6443055,14.3916388 C77.9628615,15.3621763 77.5116466,16.4350667 76.6367086,16.7880994 Z" id="Path" fill="#19758A"></path>
                    <path d="M99.45361,79.7458416 C98.5786721,80.0991297 97.611222,79.5987188 97.292666,78.6283862 L96.4402015,76.0309922 C96.1216456,75.0606596 96.5728605,73.9877283 97.4477984,73.6344401 C98.3227364,73.2811519 99.2901865,73.7815629 99.6087424,74.7518955 L100.461207,77.3492895 C100.779763,78.319864 100.328548,79.3927954 99.45361,79.7458416 Z" id="Path" fill="#19758A"></path>
                </g>
            </g>
        </g>
    </g>
</svg>