<svg xmlns="http://www.w3.org/2000/svg" width="160" height="160" viewBox="0 0 160 160">
    <g fill="none" fill-rule="evenodd">
        <circle cx="80" cy="80" r="80" fill="#EFEFEF" fill-opacity=".48"/>
        <g fill-rule="nonzero">
            <path fill="#7AF1FF" d="M62.498 98s-3.048 18.121-11.122 29.501c-.946 1.333.004 3.198 1.617 3.198h6.192c.595 0 1.159.272 1.536.743l4.663 5.814a1.964 1.964 0 0 0 3.299-.349c3.176-6.25 12.231-22.559 9.954-38.907H62.498z"/>
            <path fill="#7AE2FF" d="M68.737 136.91a1.95 1.95 0 0 1-3.282.347L64 135.432c.03-.052.059-.103.087-.158 3.054-6.041 11.573-21.483 10.09-37.274h4.462c2.265 16.35-6.742 32.657-9.902 38.91z"/>
            <path fill="#7AF1FF" d="M98.502 98s3.048 18.121 11.122 29.501c.946 1.333-.004 3.198-1.617 3.198h-6.192c-.595 0-1.159.272-1.536.743l-4.663 5.814a1.964 1.964 0 0 1-3.299-.349c-3.176-6.25-12.231-22.559-9.954-38.907h16.139z"/>
            <path fill="#7AE2FF" d="M108.97 131h-2.334a2.212 2.212 0 0 0-.323-.66C97.374 117.863 94 98 94 98h5.282s3.108 18.287 11.335 29.772c.964 1.347-.004 3.228-1.648 3.228z"/>
            <path fill="#4CDDFF" d="M121 71c0 4.106-5.931 7.217-7.125 10.922-1.238 3.84 1.701 9.86-.608 13.055-2.333 3.228-8.942 2.261-12.147 4.61-3.173 2.326-4.29 8.968-8.102 10.215-3.679 1.202-8.441-3.47-12.518-3.47s-8.84 4.673-12.518 3.47c-3.813-1.247-4.929-7.889-8.102-10.215-3.205-2.349-9.814-1.382-12.147-4.61-2.31-3.195.631-9.216-.607-13.055C45.931 78.217 40 75.106 40 71c0-4.106 5.931-7.218 7.126-10.922 1.238-3.84-1.702-9.86.607-13.056 2.334-3.227 8.942-2.26 12.147-4.61 3.173-2.325 4.29-8.967 8.102-10.214 3.679-1.203 8.441 3.47 12.518 3.47s8.84-4.673 12.518-3.47c3.813 1.247 4.929 7.889 8.102 10.215 3.205 2.349 9.814 1.382 12.147 4.61 2.31 3.195-.63 9.216.608 13.055C115.069 63.782 121 66.894 121 71z"/>
            <path fill="#1FD4FF" d="M113.34 94.985c-2.31 3.227-8.855 2.26-12.03 4.608-3.144 2.325-4.25 8.963-8.025 10.209-1.604.53-3.414-.08-5.285-.926 3.774-1.273 4.885-7.919 8.038-10.25 3.19-2.36 9.764-1.387 12.087-4.63 2.298-3.208-.627-9.254.604-13.109 1.19-3.72 7.09-6.843 7.09-10.966 0-4.123-5.9-7.248-7.09-10.968-1.231-3.855 1.694-9.899-.604-13.11-.623-.868-1.55-1.434-2.634-1.843 3.006.625 6.337.94 7.85 3.054 2.286 3.194-.626 9.21.6 13.048 1.183 3.704 7.059 6.812 7.059 10.917 0 4.103-5.876 7.214-7.059 10.916-1.225 3.837 1.686 9.856-.6 13.05z"/>
            <path fill="#00ABD3" d="M107 71c0 14.36-11.64 26-26 26S55 85.36 55 71s11.64-26 26-26 26 11.64 26 26z"/>
            <path fill="#00ABD3" d="M106 70.686C106 85.218 94.393 97 80.075 97A25.549 25.549 0 0 1 65 92.096a25.5 25.5 0 0 0 11.303 2.627c14.32 0 25.925-11.782 25.925-26.316 0-8.824-4.277-16.635-10.846-21.407C100.035 51.262 106 60.266 106 70.686z"/>
            <path fill="#FFF5F5" d="M82.678 59.358l2.29 4.656a2.429 2.429 0 0 0 1.828 1.333l5.122.746c1.992.291 2.787 2.746 1.346 4.156l-3.706 3.624a2.442 2.442 0 0 0-.699 2.156l.875 5.117c.34 1.99-1.741 3.508-3.523 2.569l-4.58-2.416a2.421 2.421 0 0 0-2.261 0l-4.58 2.416c-1.783.94-3.865-.579-3.524-2.569l.874-5.117a2.44 2.44 0 0 0-.698-2.156l-3.706-3.624c-1.441-1.41-.646-3.865 1.345-4.156l5.122-.746a2.429 2.429 0 0 0 1.829-1.333l2.29-4.656c.89-1.81 3.465-1.81 4.356 0z"/>
            <path fill="#EFE2DD" d="M89.75 73.813a2.542 2.542 0 0 0-.668 2.17l.837 5.147c.325 2-1.667 3.529-3.37 2.583l-.045-.025a3.075 3.075 0 0 0 .567-2.371l-1.03-6.33a3.118 3.118 0 0 1 .823-2.668l4.36-4.482c.515-.53.788-1.179.851-1.837 1.857.339 2.583 2.767 1.221 4.169l-3.547 3.644z"/>
        </g>
    </g>
</svg>
