<svg xmlns="http://www.w3.org/2000/svg" width="120" height="120" viewBox="0 0 120 120">
    <g fill="none" fill-rule="evenodd">
        <circle cx="60" cy="60" r="60" fill="#FFF"/>
        <g fill-rule="nonzero">
            <path fill="#F0C419" d="M65.882 73.996v-1.28c.05-3.343 2.661-5.71 4.957-7.784a30.44 30.44 0 0 0 6.763-7.666A19.328 19.328 0 0 0 80 48.049C80 36.977 71.045 28 60 28c-11.046 0-20 8.977-20 20.05a19.323 19.323 0 0 0 2.397 9.22 30.44 30.44 0 0 0 6.763 7.665c2.296 2.07 4.906 4.437 4.956 7.784V74l11.766-.004z"/>
            <path fill="#FFF" d="M47.18 42a1.2 1.2 0 0 1-1.01-.536 1.054 1.054 0 0 1-.036-1.09c2.856-5.142 8.514-8.369 14.684-8.374.653 0 1.182.498 1.182 1.111 0 .614-.53 1.111-1.182 1.111-3.763-.01-7.373 1.397-10.027 3.905a13.481 13.481 0 0 0-2.561 3.275 1.194 1.194 0 0 1-1.05.598zM44.39 49c-.767 0-1.39-.444-1.39-.99 0-.714.076-1.427.228-2.132.058-.36.387-.669.86-.805.47-.137 1.009-.078 1.403.151.394.23.58.595.485.951a8.717 8.717 0 0 0-.195 1.834c0 .263-.147.515-.407.7-.261.187-.615.291-.983.291z"/>
            <path fill="#E57E25" d="M62.875 74h-4.75a1.185 1.185 0 0 1-1.188-1.182V55.091h-2.374A3.554 3.554 0 0 1 51 51.546 3.554 3.554 0 0 1 54.563 48h1.187a3.554 3.554 0 0 1 3.562 3.546v1.182h2.376v-1.182A3.554 3.554 0 0 1 65.25 48h1.187A3.554 3.554 0 0 1 70 51.546a3.554 3.554 0 0 1-3.563 3.545h-2.374v17.727c0 .653-.532 1.182-1.188 1.182zm-3.563-2.363h2.376V55.09h-2.376v16.546zm4.75-18.91h2.375c.656 0 1.188-.529 1.188-1.181 0-.653-.532-1.182-1.188-1.182H65.25c-.656 0-1.187.529-1.187 1.182v1.182zm-9.5-2.363c-.655 0-1.187.529-1.187 1.182 0 .652.532 1.182 1.188 1.182h2.374v-1.182c0-.653-.53-1.182-1.187-1.182h-1.187z"/>
            <path fill="#00ABD3" d="M54 75h12v10H54z"/>
            <path fill="#FDD7AD" d="M61.687 94.92L66 85.376c-.183-1.458-1.514-2.506-3-2.362-1.486-.144-2.817.904-3 2.362-.183-1.458-1.514-2.506-3-2.362-1.486-.144-2.817.904-3 2.362l4.313 9.546C58.609 95.577 59.27 96 60 96c.73 0 1.391-.423 1.687-1.08z"/>
            <path fill="#F0C419" d="M39.713 35a1.37 1.37 0 0 1-.803-.256l-6.427-4.666c-.36-.26-.537-.675-.468-1.087.069-.412.376-.76.803-.911a1.392 1.392 0 0 1 1.272.176l6.427 4.666c.427.31.591.83.41 1.297-.18.468-.667.781-1.214.781zM33.286 67c-.546 0-1.032-.313-1.213-.78-.181-.468-.017-.988.41-1.298l6.428-4.666c.554-.403 1.363-.321 1.807.182.444.503.354 1.238-.2 1.64l-6.428 4.666a1.371 1.371 0 0 1-.804.256zM34.75 50h-7.5c-.69 0-1.25-.672-1.25-1.5s.56-1.5 1.25-1.5h7.5c.69 0 1.25.672 1.25 1.5s-.56 1.5-1.25 1.5zM81.286 35c-.546 0-1.032-.313-1.213-.78-.181-.468-.017-.988.41-1.298l6.428-4.666c.358-.26.843-.328 1.271-.176.428.152.734.499.803.911.07.412-.108.827-.467 1.087l-6.428 4.666a1.37 1.37 0 0 1-.804.256zM87.714 67a1.37 1.37 0 0 1-.804-.256l-6.427-4.666c-.555-.402-.645-1.137-.201-1.64.444-.503 1.253-.585 1.808-.182l6.427 4.666c.427.31.591.83.41 1.298-.18.467-.667.78-1.213.78zM93.75 50h-7.5c-.69 0-1.25-.672-1.25-1.5s.56-1.5 1.25-1.5h7.5c.69 0 1.25.672 1.25 1.5s-.56 1.5-1.25 1.5z"/>
            <path fill="#BDC3C7" d="M53.214 73h14.572c.67 0 1.214.537 1.214 1.2v3.6c0 .663-.544 1.2-1.214 1.2H53.214c-.67 0-1.214-.537-1.214-1.2v-3.6c0-.663.544-1.2 1.214-1.2z"/>
            <path fill="#2C3E50" d="M63 92.752l-1.36 3.155A1.796 1.796 0 0 1 60 97a1.796 1.796 0 0 1-1.64-1.093L57 92.752C57.633 91.665 58.772 91 60 91c1.229 0 2.368.665 3 1.752z"/>
        </g>
    </g>
</svg>
