<svg xmlns="http://www.w3.org/2000/svg" width="128" height="128" viewBox="0 0 128 128">
    <g fill="none" fill-rule="evenodd">
        <circle cx="64" cy="64" r="64" fill="#FFF"/>
        <g fill-rule="nonzero">
            <path fill="#FD646F" d="M94.192 65.86h-22.44v11.273c0 .833-.68 1.51-1.517 1.51H52.101V95.37c0 .912.749 1.658 1.664 1.658H80.3l6.31 6.289c.648.644 1.177.426 1.177-.486v-5.803h6.405c.915 0 1.663-.746 1.663-1.658V67.517c0-.911-.748-1.658-1.663-1.658z"/>
            <path fill="#FC4755" d="M57.25 95.37V78.643H52.1V95.37c0 .912.75 1.658 1.665 1.658h5.15a1.666 1.666 0 0 1-1.665-1.658z"/>
            <g fill="#FFCDBE">
                <path d="M87.787 72.377H71.75v2.217h16.036a1.109 1.109 0 1 0 0-2.217zM87.787 77.682H71.646c-.221.562-.77.961-1.41.961H59.071A1.109 1.109 0 0 0 60.17 79.9h27.617a1.109 1.109 0 1 0 0-2.218zM87.787 85.205H60.169a1.109 1.109 0 1 1 0-2.217h27.618a1.109 1.109 0 1 1 0 2.217zM87.787 90.51H60.169a1.109 1.109 0 1 1 0-2.217h27.618a1.109 1.109 0 1 1 0 2.217z"/>
            </g>
            <path fill="#FDD302" d="M53.575 55.097c-.72 0-1.307-.584-1.307-1.302v-6.173h-22.46c-.915 0-1.664.747-1.664 1.658v27.853c0 .912.749 1.658 1.664 1.658h6.405v5.803c0 .912.53 1.13 1.176.485l6.31-6.288h26.536c.915 0 1.664-.746 1.664-1.658V55.097H53.575z"/>
            <path fill="#F9C500" d="M32.872 77.133V49.28c0-.912.749-1.658 1.664-1.658h-4.728c-.915 0-1.664.747-1.664 1.658v27.853c0 .912.749 1.658 1.664 1.658h4.728a1.665 1.665 0 0 1-1.664-1.658z"/>
            <path fill="#FA8701" d="M53.575 55.097c-.6 0-1.107-.406-1.259-.957H36.213a1.109 1.109 0 1 0 0 2.217h27.618a1.109 1.109 0 0 0 1.097-1.26H53.575zM63.83 61.663H36.214a1.109 1.109 0 1 1 0-2.218h27.618a1.109 1.109 0 1 1 0 2.218zM63.83 66.968H36.214a1.109 1.109 0 1 1 0-2.217h27.618a1.109 1.109 0 1 1 0 2.217zM63.83 72.273H36.214a1.109 1.109 0 1 1 0-2.217h27.618a1.109 1.109 0 1 1 0 2.217z"/>
            <path fill="#00C184" d="M53.575 28h35.337c.8 0 1.454.652 1.454 1.45v24.345c0 .797-.654 1.45-1.454 1.45h-5.598v5.072c0 .797-.463.988-1.029.424l-5.515-5.497H53.575c-.8 0-1.455-.652-1.455-1.449V29.45c0-.797.655-1.449 1.455-1.449z"/>
            <path fill="#07B17B" d="M56.97 53.795V29.45c0-.797.654-1.449 1.453-1.449h-4.848c-.8 0-1.455.652-1.455 1.45v24.345c0 .797.655 1.45 1.455 1.45h4.848c-.8 0-1.454-.653-1.454-1.45z"/>
            <path fill="#C7EEFD" d="M83.314 35.775h-24.14a1.109 1.109 0 1 1 0-2.217h24.14a1.109 1.109 0 1 1 0 2.217zM83.314 40.412h-24.14a1.109 1.109 0 1 1 0-2.217h24.14a1.109 1.109 0 1 1 0 2.217zM83.314 45.05h-24.14a1.109 1.109 0 1 1 0-2.218h24.14a1.109 1.109 0 1 1 0 2.218zM83.314 49.687h-24.14a1.109 1.109 0 1 1 0-2.217h24.14a1.109 1.109 0 1 1 0 2.217z"/>
        </g>
    </g>
</svg>
