<svg xmlns="http://www.w3.org/2000/svg" width="170" height="170" viewBox="0 0 170 170">
    <g fill="none" fill-rule="evenodd">
        <circle cx="85" cy="85" r="85" fill="#FFF"/>
        <g fill-rule="nonzero" opacity=".683" transform="translate(48 43)">
            <path fill="#FFF" d="M60.327 82.473h-50.4a8.4 8.4 0 0 1 0-16.8h28.7a22.417 22.417 0 0 0 21.7 16.8z"/>
            <path fill="#E8EDFC" d="M60.327 5.713V37.8a22.467 22.467 0 0 0-17.697 8.663 22.3 22.3 0 0 0-4.003 19.24h-28.7c-4.639 0-8.4 3.747-8.4 8.37V9.898c0-4.623 3.761-8.37 8.4-8.37h46.2c2.32 0 4.2 1.873 4.2 4.185z"/>
            <path fill="#CAD9FC" d="M56.107 1.527h-4.22c2.33 0 4.22 1.873 4.22 4.184v32.072c-6.957.012-13.52 3.208-17.781 8.66a22.199 22.199 0 0 0-4.022 19.23h4.22a22.199 22.199 0 0 1 4.022-19.23c4.262-5.452 10.824-8.648 17.781-8.66V5.711c0-2.31-1.89-4.184-4.22-4.184z"/>
            <rect width="36.655" height="6.873" x="16.8" y="8.4" fill="#FFF" rx="3.436"/>
            <path fill="#A4C2F7" d="M82.473 59.945c0 12.442-10.086 22.528-22.528 22.528-12.441 0-22.527-10.086-22.527-22.528 0-12.441 10.086-22.527 22.527-22.527 12.442 0 22.528 10.086 22.528 22.527z"/>
            <path fill="#7FACFA" d="M60.144 37.418c-.706 0-1.404.042-2.094.107 11.472 1.086 20.24 10.803 20.235 22.428-.003 11.624-8.776 21.335-20.249 22.414.698.065 1.396.106 2.108.106 12.332 0 22.329-10.086 22.329-22.528 0-12.441-9.997-22.527-22.33-22.527z"/>
            <path fill="#E8EDFC" d="M71.324 56.204H64.45V49.33a2.75 2.75 0 0 0-2.75-2.75h-2.748a2.75 2.75 0 0 0-2.75 2.75v6.873h-6.872a2.75 2.75 0 0 0-2.75 2.749v2.749a2.75 2.75 0 0 0 2.75 2.749h6.873v6.873a2.75 2.75 0 0 0 2.749 2.749h2.749a2.75 2.75 0 0 0 2.749-2.75v-6.872h6.873a2.75 2.75 0 0 0 2.749-2.75v-2.748a2.75 2.75 0 0 0-2.75-2.75z"/>
            <path fill="#FFF" d="M14.51 82.473c-4.78 0-8.655-3.75-8.655-8.374V9.901c0-4.625 3.874-8.374 8.654-8.374h-4.327c-4.78 0-8.655 3.75-8.655 8.374v64.198c0 4.625 3.875 8.374 8.655 8.374h4.327z"/>
            <path fill="#FFF" d="M0 9.927h3.055v11.455H0z"/>
            <g fill="#428DFF">
                <path d="M1.428 16.8a1.4 1.4 0 0 1-.014-2.8h.014a1.4 1.4 0 0 1 0 2.8zM18.2 16.8h33.6a2.8 2.8 0 0 0 2.8-2.8V9.8A2.8 2.8 0 0 0 51.8 7H18.2a2.8 2.8 0 0 0-2.8 2.8V14a2.8 2.8 0 0 0 2.8 2.8zm0-7h33.6V14H18.2V9.8zM50.4 21H19.6a1.4 1.4 0 0 0 0 2.8h30.8a1.4 1.4 0 0 0 0-2.8zM44.8 28H25.2a1.4 1.4 0 0 0 0 2.8h19.6a1.4 1.4 0 0 0 0-2.8z"/>
                <path d="M61.6 36.471V5.6A5.6 5.6 0 0 0 56 0H9.8C4.39.006.006 4.39 0 9.8a1.4 1.4 0 1 0 2.8 0 7.013 7.013 0 0 1 5.6-6.86v61.572a9.765 9.765 0 0 0-5.6 2.843V21A1.4 1.4 0 0 0 0 21v53.2c.006 5.41 4.39 9.794 9.8 9.8h50.4c12.867.006 23.406-10.222 23.785-23.084.38-12.862-9.54-23.693-22.385-24.445zM58.8 5.6v30.871A23.66 23.66 0 0 0 36.793 64.4H11.2V2.8H56a2.8 2.8 0 0 1 2.8 2.8zm-49 75.6a7 7 0 0 1 0-14h27.654c.3.956.662 1.89 1.082 2.8H9.8a1.4 1.4 0 0 0 0 2.8h30.24a23.783 23.783 0 0 0 2.041 2.8H9.8a1.4 1.4 0 0 0 0 2.8h35.095a23.874 23.874 0 0 0 4.129 2.8H9.8zm50.4 0c-11.598 0-21-9.402-21-21s9.402-21 21-21 21 9.402 21 21c-.013 11.593-9.407 20.987-21 21z"/>
                <path d="M71.4 54.6h-5.6V49a4.2 4.2 0 0 0-4.2-4.2h-2.8a4.2 4.2 0 0 0-4.2 4.2v5.6H49a4.2 4.2 0 0 0-4.2 4.2v2.8a4.2 4.2 0 0 0 4.2 4.2h5.6v5.6a4.2 4.2 0 0 0 4.2 4.2h2.8a4.2 4.2 0 0 0 4.2-4.2v-5.6h5.6a4.2 4.2 0 0 0 4.2-4.2v-2.8a4.2 4.2 0 0 0-4.2-4.2zm1.4 7a1.4 1.4 0 0 1-1.4 1.4h-7a1.4 1.4 0 0 0-1.4 1.4v7a1.4 1.4 0 0 1-1.4 1.4h-2.8a1.4 1.4 0 0 1-1.4-1.4v-7A1.4 1.4 0 0 0 56 63h-7a1.4 1.4 0 0 1-1.4-1.4v-2.8a1.4 1.4 0 0 1 1.4-1.4h7a1.4 1.4 0 0 0 1.4-1.4v-7a1.4 1.4 0 0 1 1.4-1.4h2.8A1.4 1.4 0 0 1 63 49v7a1.4 1.4 0 0 0 1.4 1.4h7a1.4 1.4 0 0 1 1.4 1.4v2.8z"/>
            </g>
        </g>
    </g>
</svg>
