<svg xmlns="http://www.w3.org/2000/svg" width="72" height="105" viewBox="0 0 72 105">
    <defs>
        <linearGradient id="a" x1="22.473%" x2="77.524%" y1="17.31%" y2="82.68%">
            <stop offset="0%" stop-color="#D4E1F4"/>
            <stop offset="17.17%" stop-color="#D4E1F4"/>
            <stop offset="20%" stop-color="#D4E1F4"/>
            <stop offset="20.01%" stop-color="#DAE4F4"/>
            <stop offset="20.07%" stop-color="#EBEBF4"/>
            <stop offset="20.14%" stop-color="#F6F1F4"/>
            <stop offset="20.23%" stop-color="#FDF4F4"/>
            <stop offset="20.5%" stop-color="#FFF5F4"/>
            <stop offset="25.22%" stop-color="#FFF5F4"/>
            <stop offset="26%" stop-color="#FFF5F4"/>
            <stop offset="26%" stop-color="#D4E1F4"/>
            <stop offset="39.74%" stop-color="#D4E1F4"/>
            <stop offset="42%" stop-color="#D4E1F4"/>
            <stop offset="42.01%" stop-color="#DAE4F4"/>
            <stop offset="42.07%" stop-color="#EBEBF4"/>
            <stop offset="42.14%" stop-color="#F6F1F4"/>
            <stop offset="42.23%" stop-color="#FDF4F4"/>
            <stop offset="42.5%" stop-color="#FFF5F4"/>
            <stop offset="48.94%" stop-color="#FFF5F4"/>
            <stop offset="50%" stop-color="#FFF5F4"/>
            <stop offset="50%" stop-color="#F9F2F4"/>
            <stop offset="50.01%" stop-color="#E8EBF4"/>
            <stop offset="50.03%" stop-color="#DDE5F4"/>
            <stop offset="50.05%" stop-color="#D6E2F4"/>
            <stop offset="50.1%" stop-color="#D4E1F4"/>
            <stop offset="70.62%" stop-color="#D4E1F4"/>
            <stop offset="74%" stop-color="#D4E1F4"/>
            <stop offset="74.1%" stop-color="#FFF5F4"/>
            <stop offset="83.46%" stop-color="#FFF5F4"/>
            <stop offset="85%" stop-color="#FFF5F4"/>
            <stop offset="85.1%" stop-color="#D4E1F4"/>
        </linearGradient>
    </defs>
    <g fill="none" fill-rule="nonzero">
        <path fill="#FFF" d="M36 102.34c-18.84 0-34.113-15.273-34.113-34.113S17.16 34.113 36 34.113v68.227z"/>
        <path fill="#A4C2F7" d="M36 34.113c18.84 0 34.113 15.274 34.113 34.114 0 18.84-15.273 34.113-34.113 34.113V34.113z"/>
        <ellipse cx="36" cy="68.227" fill="url(#a)" rx="28.727" ry="34.113"/>
        <path fill="#428DFF" d="M36 104.136c-19.832 0-35.909-16.077-35.909-35.91C.091 48.396 16.168 32.319 36 32.319c19.832 0 35.909 16.077 35.909 35.909-.022 19.822-16.086 35.887-35.909 35.909zm0-68.227c-17.849 0-32.318 14.469-32.318 32.318 0 17.849 14.47 32.318 32.318 32.318 17.849 0 32.318-14.47 32.318-32.318C68.298 50.387 53.84 35.93 36 35.909z"/>
        <circle cx="36" cy="68.227" r="14.364" fill="#7FACFA"/>
        <ellipse cx="33.307" cy="68.227" fill="#A4C2F7" rx="11.67" ry="14.364"/>
        <g fill="#428DFF">
            <path d="M53.954 41.055a1.796 1.796 0 0 1-1.795-1.796V18.35c0-8.137-7.248-14.758-16.159-14.758-8.91 0-16.159 6.62-16.159 14.758v20.91a1.796 1.796 0 0 1-3.591 0V18.35C16.25 8.232 25.11 0 36 0s19.75 8.232 19.75 18.349v20.91a1.796 1.796 0 0 1-1.796 1.796zM36 84.386c-8.924 0-16.159-7.235-16.159-16.16 0-8.923 7.235-16.158 16.159-16.158s16.159 7.234 16.159 16.159c-.01 8.92-7.239 16.15-16.159 16.159zm0-28.727c-6.941 0-12.568 5.627-12.568 12.568 0 6.94 5.627 12.568 12.568 12.568s12.568-5.627 12.568-12.568c-.008-6.938-5.63-12.56-12.568-12.568z"/>
            <path d="M36 55.659a1.795 1.795 0 0 1-1.796-1.796v-7.182a1.796 1.796 0 0 1 3.592 0v7.182A1.795 1.795 0 0 1 36 55.66zM36 91.568a1.795 1.795 0 0 1-1.796-1.796V82.59a1.796 1.796 0 0 1 3.592 0v7.182A1.795 1.795 0 0 1 36 91.568zM51.235 85.257c-.476 0-.933-.189-1.27-.526l-5.077-5.078a1.795 1.795 0 0 1 2.539-2.539l5.077 5.078a1.795 1.795 0 0 1-1.27 3.065zM20.765 85.257a1.796 1.796 0 0 1-1.27-3.065l5.078-5.077a1.795 1.795 0 1 1 2.54 2.539l-5.079 5.077a1.79 1.79 0 0 1-1.269.526zM46.157 59.865a1.796 1.796 0 0 1-1.27-3.065l5.079-5.078a1.795 1.795 0 0 1 2.538 2.54l-5.077 5.077a1.79 1.79 0 0 1-1.27.526zM25.843 59.865a1.79 1.79 0 0 1-1.27-.526l-5.077-5.078a1.795 1.795 0 0 1 2.539-2.539l5.077 5.078a1.795 1.795 0 0 1-1.27 3.065zM57.545 70.022h-7.181a1.796 1.796 0 0 1 0-3.59h7.181a1.796 1.796 0 0 1 0 3.59zM21.636 70.022h-7.181a1.796 1.796 0 0 1 0-3.59h7.181a1.796 1.796 0 0 1 0 3.59z"/>
        </g>
    </g>
</svg>
