<?xml version="1.0" encoding="UTF-8"?>
<svg width="180px" height="180px" viewBox="0 0 180 180" version="1.1" xmlns="http://www.w3.org/2000/svg" xmlns:xlink="http://www.w3.org/1999/xlink">
    <!-- Generator: Sketch 52.2 (67145) - http://www.bohemiancoding.com/sketch -->
    <title>pipeline bots empty</title>
    <desc>Created with Sketch.</desc>
    <g id="Dashboard" stroke="none" stroke-width="1" fill="none" fill-rule="evenodd">
        <g id="splash-screen-pipeline-base" transform="translate(-548.000000, -239.000000)" fill-rule="nonzero">
            <g id="pipeline-bots-empty" transform="translate(548.000000, 239.000000)">
                <g id="Group-9" fill="#FFFFFF">
                    <circle id="Oval" cx="90" cy="90" r="90"></circle>
                </g>
                <g id="Group-6" transform="translate(45.948478, 53.957845)">
                    <g id="Group-4">
                        <path d="M3.22303766,-4.26325641e-14 L85.5640172,-4.08562073e-14 C86.6685867,-4.89075518e-14 87.5640172,0.8954305 87.5640172,2 C87.5640172,2.25581273 87.5149411,2.50925027 87.4194498,2.74657192 L79.652316,22.0499953 C79.3475952,22.8073087 78.6132032,23.3034234 77.7968833,23.3034234 L12.7877509,23.3034234 C12.0276038,23.3034234 11.3331676,22.8725031 10.9956775,22.1913834 L1.43096428,2.88796001 C0.940557507,1.89822521 1.34534285,0.698333386 2.33507765,0.207926614 C2.61110157,0.0711586647 2.91498787,-4.30200655e-14 3.22303766,-4.30766534e-14 Z" id="Rectangle" fill="#0DD1FD"></path>
                        <path d="M15.903733,32.0422072 L73.8639392,32.0422072 C74.9685087,32.0422072 75.8639392,32.9376377 75.8639392,34.0422072 C75.8639392,34.303575 75.812709,34.5624085 75.7131458,34.80407 L70.5605001,47.3106616 C70.2518296,48.059872 69.5215982,48.5487988 68.7112935,48.5487988 L22.2488765,48.5487988 C21.495551,48.5487988 20.8061308,48.1254992 20.4652922,47.4536895 L14.1201487,34.9470979 C13.6203914,33.9620515 14.0137959,32.7583802 14.9988423,32.2586229 C15.2792655,32.1163519 15.5892839,32.0422072 15.903733,32.0422072 Z" id="Rectangle-Copy" fill="#02A5CA"></path>
                        <path d="M24.5298261,57.2875826 L63.262889,57.2875826 C64.3674585,57.2875826 65.262889,58.1830131 65.262889,59.2875826 C65.262889,59.5277014 65.219649,59.765858 65.1352389,59.9906513 L61.8974134,68.613339 C61.6044559,69.3935172 60.8584314,69.9102702 60.0250635,69.9102702 L28.5169947,69.9102702 C27.7374092,69.9102702 27.0288712,69.4572809 26.7016745,68.7496823 L22.7145058,60.1269946 C22.2509114,59.1244209 22.6878404,57.9358568 23.690414,57.4722624 C23.9535278,57.3505974 24.2399446,57.2875826 24.5298261,57.2875826 Z" id="Rectangle-Copy-2" fill="#016379"></path>
                        <path d="M32.236637,77.678078 L55.5389567,77.678078 C56.6435262,77.678078 57.5389567,78.5735085 57.5389567,79.678078 C57.5389567,79.9052896 57.5002399,80.13084 57.4244686,80.345045 L55.7482064,85.0838288 C55.4655961,85.8827665 54.7101436,86.4168618 53.8626945,86.4168618 L34.3008433,86.4168618 C33.5050881,86.4168618 32.7850394,85.9451173 32.4672506,85.2155718 L30.4030442,80.476788 C29.9619289,79.4641227 30.4252617,78.2856006 31.437927,77.8444853 C31.6899016,77.7347256 31.9617945,77.678078 32.236637,77.678078 Z" id="Rectangle-Copy-3" fill="#014251"></path>
                    </g>
                </g>
            </g>
        </g>
    </g>
</svg>