<?xml version="1.0" encoding="UTF-8"?>
<svg width="72px" height="72px" viewBox="0 0 72 72" version="1.1" xmlns="http://www.w3.org/2000/svg" xmlns:xlink="http://www.w3.org/1999/xlink">
    <!-- Generator: Sketch 55.2 (78181) - https://sketchapp.com -->
    <title>Search bot icon</title>
    <desc>Created with Sketch.</desc>
    <g id="FAQ-bots-home" stroke="none" stroke-width="1" fill="none" fill-rule="evenodd">
        <g id="11-base-idea-copy-6" transform="translate(-853.000000, -599.000000)">
            <g id="Search-bot-icon" transform="translate(853.000000, 599.000000)">
                <g id="botIcon" fill="#FFFFFF" fill-rule="nonzero">
                    <circle id="Oval" cx="36" cy="36" r="36"></circle>
                </g>
                <g id="discuss-issue" transform="translate(15.000000, 17.000000)">
                    <path d="M20,0.999999999 L40,0.999999999 C41.1045695,0.999999999 42,1.8954305 42,3 L42,19 C42,20.1045695 41.1045695,21 40,21 L21,21 L18,24.1794999 L18,3 C18,1.8954305 18.8954305,0.999999999 20,0.999999999 Z" id="Rectangle"></path>
                    <path d="M32.899146,9.19398945 C32.899146,10.4910722 31.9507769,11.2799136 31.2582755,11.8588062 C30.996011,12.078073 30.5078485,12.4781553 30.5091515,12.6275964 C30.5138898,13.2138018 30.0405344,13.6819405 29.4516832,13.6819405 C29.4487218,13.6819405 29.4457603,13.6819405 29.4427989,13.6819405 C28.8580937,13.6819405 28.3816584,13.2281916 28.3769201,12.6449349 C28.367562,11.4952881 29.2101488,10.8068211 29.8872507,10.2407849 C30.4185317,9.79658977 30.7669146,9.4840255 30.7669146,9.19799971 C30.7669146,8.61898915 30.2937961,8.14790172 29.7122893,8.14790172 C29.1305455,8.14790172 28.6573085,8.61898915 28.6573085,9.19799971 C28.6573085,9.78432309 28.1800441,10.2595387 27.5911928,10.2595387 C27.0023416,10.2595387 26.5250771,9.78432309 26.5250771,9.19799971 C26.5250771,7.44834751 27.9547383,6.02482368 29.7120523,6.02482368 C31.4694848,6.02470573 32.899146,7.4442193 32.899146,9.19398945 Z M29.4722948,14.661859 C28.8834435,14.661859 28.4297521,15.1370746 28.4297521,15.723398 L28.4297521,15.7315365 C28.4297521,16.3178599 28.883562,16.7890652 29.4722948,16.7890652 C30.0610275,16.7890652 30.5384105,16.3097214 30.5384105,15.723398 C30.5384105,15.1370746 30.061146,14.661859 29.4722948,14.661859 Z M7.98307438,22.0564219 C7.39422314,22.0564219 6.91695868,22.5316375 6.91695868,23.1179609 C6.91695868,23.7042843 7.39422314,24.1794999 7.98307438,24.1794999 L8.07191736,24.1794999 C8.6607686,24.1794999 9.13803306,23.7042843 9.13803306,23.1179609 C9.13803306,22.5316375 8.6607686,22.0564219 8.07191736,22.0564219 L7.98307438,22.0564219 Z M11.6883003,22.0564219 C11.099449,22.0564219 10.6221846,22.5316375 10.6221846,23.1179609 C10.6221846,23.7042843 11.099449,24.1794999 11.6883003,24.1794999 L11.7770248,24.1794999 C12.365876,24.1794999 12.8431405,23.7042843 12.8431405,23.1179609 C12.8431405,22.5316375 12.365876,22.0564219 11.7770248,22.0564219 L11.6883003,22.0564219 Z M43,5.10140268 L43,17.049732 C43,19.8787335 40.7218292,22.1743706 37.8806309,22.1743706 L24.0546501,22.1743706 C23.7843306,22.1743706 23.5617493,22.1728373 23.3755344,22.168945 C23.1804353,22.1649347 22.9608154,22.1634014 22.8751708,22.1728373 C22.7859725,22.2318117 22.5673003,22.4312631 22.3565647,22.6245811 C22.2730523,22.7011299 22.1785234,22.7853453 22.0765317,22.8780531 L18.1648347,26.4280754 C17.8528182,26.7115064 17.3911901,26.7848705 17.0047824,26.6152602 C16.6183747,26.4455319 16.3471074,26.0645573 16.3471074,25.6440699 L16.3471074,14.3897512 L5.17895317,14.3897512 C3.51320661,14.3897512 2.1322314,15.748875 2.1322314,17.4072348 L2.1322314,29.3555642 C2.1322314,31.014042 3.51332507,32.3179657 5.17895317,32.3179657 L20.6227052,32.3179657 C20.8886419,32.3179657 21.1374022,32.4395709 21.3338044,32.6181454 L24.5206612,35.5437469 L24.5206612,25.4545262 C24.5206612,24.8682028 24.9979256,24.3929872 25.5867769,24.3929872 C26.1756281,24.3929872 26.6528926,24.8682028 26.6528926,25.4545262 L26.6528926,37.9497841 C26.6528926,38.3702715 26.4112397,38.7455845 26.0247135,38.9153128 C25.8864738,38.9760564 25.7476419,39 25.6022948,39 C25.3412149,39 25.0836887,38.8932564 24.8833774,38.7111434 L20.2094077,34.4409258 L5.17895317,34.4409258 C2.33763636,34.4409258 0,32.1845656 0,29.3554462 L0,17.4072348 C0,14.5782333 2.33763636,12.2666731 5.17895317,12.2666731 L16.3471074,12.2666731 L16.3471074,5.10140268 C16.3471074,2.27228325 18.7026309,0 21.5439477,0 L37.8807493,0 C40.7218292,0 43,2.27228325 43,5.10140268 Z M40.8677686,5.10140268 C40.8677686,3.44292489 39.5461405,2.12307804 37.8806309,2.12307804 L21.5439477,2.12307804 C19.8783196,2.12307804 18.4793388,3.44292489 18.4793388,5.10140268 L18.4793388,13.3381198 L18.4793388,23.2380327 L20.6228237,21.3092163 C20.7220909,21.2189855 20.8333223,21.1364214 20.9144656,21.0618777 C21.8932782,20.1638157 22.143697,20.0202721 23.4204298,20.0464567 C23.594562,20.0501131 23.8019807,20.0514105 24.0546501,20.0514105 L37.8806309,20.0514105 C39.5461405,20.0514105 40.8677686,18.7082098 40.8677686,17.04985 L40.8677686,5.10140268 Z" id="Shape" fill="#00ABD3" fill-rule="nonzero"></path>
                </g>
            </g>
        </g>
    </g>
</svg>