<svg xmlns="http://www.w3.org/2000/svg" width="120" height="120" viewBox="0 0 120 120">
    <g fill="none" fill-rule="evenodd">
        <circle cx="60" cy="60" r="60" fill="#FFF"/>
        <path fill="#02BDE8" d="M10.213 53.617h15.319v15.319H10.213z"/>
        <rect width="15.319" height="15.319" x="91.915" y="33.191" fill="#1EBDC2" rx="2"/>
        <rect width="15.319" height="15.319" x="91.915" y="71.489" fill="#709FEB" rx="2"/>
        <path fill="#2B4F70" fill-rule="nonzero" d="M75.53 91.83L86.81 80.55 75.53 69.274l-3.383 3.383 5.502 5.502h-9.651c-3.49 0-6.801-1.512-9.086-4.148l-8.124-9.37a17.131 17.131 0 0 0-4.056-3.427 16.362 16.362 0 0 0 4.036-3.363l8.144-9.394a12.018 12.018 0 0 1 9.086-4.149h9.65l-5.501 5.503 3.383 3.383 11.278-11.278L75.53 30.638l-3.383 3.384 5.502 5.502h-9.651a16.8 16.8 0 0 0-12.702 5.799l-8.144 9.394c-2.228 2.57-5.524 4.052-9.034 4.065H25.532v4.784h12.556c3.456 0 6.768 1.534 9.086 4.208l8.123 9.371a16.8 16.8 0 0 0 12.702 5.799h9.65l-5.501 5.502 3.383 3.383z"/>
    </g>
</svg>
