<?xml version="1.0" encoding="UTF-8"?>
<svg width="180px" height="180px" viewBox="0 0 180 180" version="1.1" xmlns="http://www.w3.org/2000/svg" xmlns:xlink="http://www.w3.org/1999/xlink">
    <!-- Generator: Sketch 52.2 (67145) - http://www.bohemiancoding.com/sketch -->
    <title>sessions</title>
    <desc>Created with Sketch.</desc>
    <g id="Dashboard" stroke="none" stroke-width="1" fill="none" fill-rule="evenodd">
        <g id="Sessions-splash-screen" transform="translate(-630.000000, -347.000000)" fill-rule="nonzero">
            <g id="sessions" transform="translate(630.000000, 347.000000)">
                <circle id="Oval" fill="#EAEAEA" cx="90" cy="90" r="90"></circle>
                <g id="Group-3" transform="translate(16.901408, 65.070423)">
                    <g id="Group">
                        <path d="M1.90971601,2.11028732e-14 L109.961516,-8.8817842e-16 C112.170655,-1.29399067e-15 113.961516,1.790861 113.961516,4 L113.961516,16.4831639 C113.961516,18.6923029 112.170655,20.4831639 109.961516,20.4831639 L7.99968004,20.4831639 C5.79054104,20.4831639 3.99968004,18.6923029 3.99968004,16.4831639 L3.99968004,7.64855665 C3.99968004,5.6137382 3.18457929,3.66371393 1.73649919,2.23418599 L1.2071826,1.71165076 C0.814148739,1.32365227 0.810066762,0.690500452 1.19806525,0.297466589 C1.38595868,0.107134717 1.64226478,2.18095013e-14 1.90971601,2.17603713e-14 Z" id="Rectangle" fill="#02BDE8"></path>
                        <path d="M12.7789937,5.53599024 L100.626612,5.53599024 C101.543845,5.53599024 102.287409,6.27955442 102.287409,7.19678731 L102.287409,7.19678731 C102.287409,8.11402021 101.543845,8.85758438 100.626612,8.85758438 L12.7789937,8.85758438 C11.8617608,8.85758438 11.1181966,8.11402021 11.1181966,7.19678731 L11.1181966,7.19678731 C11.1181966,6.27955442 11.8617608,5.53599024 12.7789937,5.53599024 Z" id="Rectangle-2" fill="#D7F7FF"></path>
                        <path d="M12.7789937,11.0719805 L82.2815876,11.0719805 C83.1988205,11.0719805 83.9423846,11.8155447 83.9423846,12.7327775 L83.9423846,12.7327775 C83.9423846,13.6500104 83.1988205,14.3935746 82.2815876,14.3935746 L12.7789937,14.3935746 C11.8617608,14.3935746 11.1181966,13.6500104 11.1181966,12.7327775 L11.1181966,12.7327775 C11.1181966,11.8155447 11.8617608,11.0719805 12.7789937,11.0719805 Z" id="Rectangle-2-Copy" fill="#D7F7FF"></path>
                    </g>
                    <g id="Group-2" transform="translate(42.309066, 25.262569)">
                        <path d="M1.40007244,2.71513688e-14 L98.8194143,-8.8817842e-16 C101.028553,6.55444767e-15 102.819414,1.790861 102.819414,4 L102.819414,22.286727 C102.819414,24.495866 101.028553,26.286727 98.8194143,26.286727 L7.54592935,26.286727 C5.33679035,26.286727 3.54592935,24.495866 3.54592935,22.286727 L3.54592935,9.2551388 C3.54592935,6.96513104 2.83170041,4.73213848 1.50273092,2.86720535 L0.585693917,1.58033406 C0.265184266,1.13056522 0.369969542,0.506131127 0.819738381,0.185621477 C0.989164726,0.0648866148 1.19202871,2.71276588e-14 1.40007244,2.70894418e-14 Z" id="Rectangle-Copy-2" fill="#86E8FE" transform="translate(51.409707, 13.143363) scale(-1, 1) translate(-51.409707, -13.143363) "></path>
                        <path d="M13.3787793,5.71450587 L87.7129262,5.71450587 C88.6597365,5.71450587 89.4272779,6.48204729 89.4272779,7.42885763 L89.4272779,7.42885763 C89.4272779,8.37566796 88.6597365,9.14320939 87.7129262,9.14320939 L13.3787793,9.14320939 C12.431969,9.14320939 11.6644276,8.37566796 11.6644276,7.42885763 L11.6644276,7.42885763 C11.6644276,6.48204729 12.431969,5.71450587 13.3787793,5.71450587 Z" id="Rectangle-2-Copy-2" fill="#02A5CA"></path>
                        <path d="M22.8214111,11.4290117 L87.7129262,11.4290117 C88.6597365,11.4290117 89.4272779,12.1965532 89.4272779,13.1433635 L89.4272779,13.1433635 C89.4272779,14.0901738 88.6597365,14.8577153 87.7129262,14.8577153 L22.8214111,14.8577153 C21.8746008,14.8577153 21.1070594,14.0901738 21.1070594,13.1433635 L21.1070594,13.1433635 C21.1070594,12.1965532 21.8746008,11.4290117 22.8214111,11.4290117 Z" id="Rectangle-2-Copy-3" fill="#02A5CA"></path>
                        <path d="M78.3823059,18.2864188 L87.1414756,18.2864188 C88.4038894,18.2864188 89.4272779,19.3098073 89.4272779,20.5722211 L89.4272779,20.5722211 C89.4272779,21.8346349 88.4038894,22.8580235 87.1414756,22.8580235 L78.3823059,22.8580235 C77.1198921,22.8580235 76.0965036,21.8346349 76.0965036,20.5722211 L76.0965036,20.5722211 C76.0965036,19.3098073 77.1198921,18.2864188 78.3823059,18.2864188 Z" id="Rectangle-3" fill="#02A5CA"></path>
                        <path d="M61.718838,18.2864188 L70.4780076,18.2864188 C71.7404214,18.2864188 72.76381,19.3098073 72.76381,20.5722211 L72.76381,20.5722211 C72.76381,21.8346349 71.7404214,22.8580235 70.4780076,22.8580235 L61.718838,22.8580235 C60.4564242,22.8580235 59.4330356,21.8346349 59.4330356,20.5722211 L59.4330356,20.5722211 C59.4330356,19.3098073 60.4564242,18.2864188 61.718838,18.2864188 Z" id="Rectangle-3-Copy" fill="#02A5CA"></path>
                    </g>
                </g>
            </g>
        </g>
    </g>
</svg>