<?xml version="1.0" encoding="UTF-8" standalone="no"?>
<!DOCTYPE svg PUBLIC "-//W3C//DTD SVG 1.1//EN"
 "http://www.w3.org/Graphics/SVG/1.1/DTD/svg11.dtd">
<!-- Generated by graphviz version 2.40.1 (20161225.0304)
 -->
<!-- Title: dependencies Pages: 1 -->
<svg width="2175pt" height="284pt"
 viewBox="0.00 0.00 2175.00 284.00" xmlns="http://www.w3.org/2000/svg" xmlns:xlink="http://www.w3.org/1999/xlink">
<g id="graph0" class="graph" transform="scale(1 1) rotate(0) translate(4 280)">
<title>dependencies</title>
<polygon fill="#ffffff" stroke="transparent" points="-4,4 -4,-280 2171,-280 2171,4 -4,4"/>
<text text-anchor="start" x="1062.5091" y="-42.4" font-family="sans-serif" font-weight="bold" font-size="14.00" fill="#000000">Legend</text>
<polygon fill="#ffffb3" stroke="transparent" points="849.5,-10 849.5,-30 869.5,-30 869.5,-10 849.5,-10"/>
<text text-anchor="start" x="873.129" y="-15.4" font-family="sans-serif" font-size="14.00" fill="#000000"> &#160;Declarations</text>
<polygon fill="#8dd3c7" stroke="transparent" points="962.5,-10 962.5,-30 982.5,-30 982.5,-10 962.5,-10"/>
<text text-anchor="start" x="986.2251" y="-15.4" font-family="sans-serif" font-size="14.00" fill="#000000"> &#160;Module</text>
<polygon fill="#80b1d3" stroke="transparent" points="1048.5,-10 1048.5,-30 1068.5,-30 1068.5,-10 1048.5,-10"/>
<text text-anchor="start" x="1072.2812" y="-15.4" font-family="sans-serif" font-size="14.00" fill="#000000"> &#160;Bootstrap</text>
<polygon fill="#fdb462" stroke="transparent" points="1145.5,-10 1145.5,-30 1165.5,-30 1165.5,-10 1145.5,-10"/>
<text text-anchor="start" x="1169.1732" y="-15.4" font-family="sans-serif" font-size="14.00" fill="#000000"> &#160;Providers</text>
<polygon fill="#fb8072" stroke="transparent" points="1241.5,-10 1241.5,-30 1261.5,-30 1261.5,-10 1241.5,-10"/>
<text text-anchor="start" x="1265.2258" y="-15.4" font-family="sans-serif" font-size="14.00" fill="#000000"> &#160;Exports</text>
<g id="clust1" class="cluster">
<title>cluster_ChatModule</title>
<polygon fill="none" stroke="#000000" stroke-dasharray="1,5" points="8,-70 8,-268 2159,-268 2159,-70 8,-70"/>
</g>
<g id="clust2" class="cluster">
<title>cluster_ChatModule_declarations</title>
<polygon fill="none" stroke="#000000" points="446,-78 446,-130 2151,-130 2151,-78 446,-78"/>
</g>
<g id="clust13" class="cluster">
<title>cluster_ChatModule_imports</title>
<polygon fill="none" stroke="#000000" points="156,-78 156,-130 438,-130 438,-78 156,-78"/>
</g>
<g id="clust14" class="cluster">
<title>cluster_ChatModule_exports</title>
<polygon fill="none" stroke="#000000" points="172,-208 172,-260 1915,-260 1915,-208 172,-208"/>
</g>
<g id="clust16" class="cluster">
<title>cluster_ChatModule_providers</title>
<polygon fill="none" stroke="#000000" points="16,-78 16,-130 148,-130 148,-78 16,-78"/>
</g>
<!-- BotThinkingBubbleComponent -->
<g id="node1" class="node">
<title>BotThinkingBubbleComponent</title>
<polygon fill="#ffffb3" stroke="#000000" points="2142.8355,-122 1949.1645,-122 1949.1645,-86 2142.8355,-86 2142.8355,-122"/>
<text text-anchor="middle" x="2046" y="-99.8" font-family="Times,serif" font-size="14.00" fill="#000000">BotThinkingBubbleComponent</text>
</g>
<!-- ChatModule -->
<g id="node11" class="node">
<title>ChatModule</title>
<polygon fill="#8dd3c7" stroke="#000000" points="1036.9916,-187 1033.9916,-191 1012.9916,-191 1009.9916,-187 951.0084,-187 951.0084,-151 1036.9916,-151 1036.9916,-187"/>
<text text-anchor="middle" x="994" y="-164.8" font-family="Times,serif" font-size="14.00" fill="#000000">ChatModule</text>
</g>
<!-- BotThinkingBubbleComponent&#45;&gt;ChatModule -->
<g id="edge1" class="edge">
<title>BotThinkingBubbleComponent&#45;&gt;ChatModule</title>
<path fill="none" stroke="#000000" d="M2046,-122.308C2046,-142.1455 2046,-171 2046,-171 2046,-171 1047.2009,-171 1047.2009,-171"/>
<polygon fill="#000000" stroke="#000000" points="1047.2009,-167.5001 1037.2009,-171 1047.2009,-174.5001 1047.2009,-167.5001"/>
</g>
<!-- BotWelcomeComponent -->
<g id="node2" class="node">
<title>BotWelcomeComponent</title>
<polygon fill="#ffffb3" stroke="#000000" points="1931.6993,-122 1776.3007,-122 1776.3007,-86 1931.6993,-86 1931.6993,-122"/>
<text text-anchor="middle" x="1854" y="-99.8" font-family="Times,serif" font-size="14.00" fill="#000000">BotWelcomeComponent</text>
</g>
<!-- BotWelcomeComponent&#45;&gt;ChatModule -->
<g id="edge2" class="edge">
<title>BotWelcomeComponent&#45;&gt;ChatModule</title>
<path fill="none" stroke="#000000" d="M1841.909,-122.1686C1841.909,-141.0898 1841.909,-168 1841.909,-168 1841.909,-168 1047.2136,-168 1047.2136,-168"/>
<polygon fill="#000000" stroke="#000000" points="1047.2137,-164.5001 1037.2136,-168 1047.2136,-171.5001 1047.2137,-164.5001"/>
</g>
<!-- ChatConsumerFormComponent -->
<g id="node3" class="node">
<title>ChatConsumerFormComponent</title>
<polygon fill="#ffffb3" stroke="#000000" points="1758.6553,-122 1563.3447,-122 1563.3447,-86 1758.6553,-86 1758.6553,-122"/>
<text text-anchor="middle" x="1661" y="-99.8" font-family="Times,serif" font-size="14.00" fill="#000000">ChatConsumerFormComponent</text>
</g>
<!-- ChatConsumerFormComponent&#45;&gt;ChatModule -->
<g id="edge3" class="edge">
<title>ChatConsumerFormComponent&#45;&gt;ChatModule</title>
<path fill="none" stroke="#000000" d="M1627.7611,-122.302C1627.7611,-140.2699 1627.7611,-165 1627.7611,-165 1627.7611,-165 1047.0627,-165 1047.0627,-165"/>
<polygon fill="#000000" stroke="#000000" points="1047.0628,-161.5001 1037.0627,-165 1047.0627,-168.5001 1047.0628,-161.5001"/>
</g>
<!-- ChatItemComponent -->
<g id="node4" class="node">
<title>ChatItemComponent</title>
<polygon fill="#ffffb3" stroke="#000000" points="1544.9313,-122 1411.0687,-122 1411.0687,-86 1544.9313,-86 1544.9313,-122"/>
<text text-anchor="middle" x="1478" y="-99.8" font-family="Times,serif" font-size="14.00" fill="#000000">ChatItemComponent</text>
</g>
<!-- ChatItemComponent&#45;&gt;ChatModule -->
<g id="edge4" class="edge">
<title>ChatItemComponent&#45;&gt;ChatModule</title>
<path fill="none" stroke="#000000" d="M1463.4311,-122.0352C1463.4311,-138.7344 1463.4311,-161 1463.4311,-161 1463.4311,-161 1047.3215,-161 1047.3215,-161"/>
<polygon fill="#000000" stroke="#000000" points="1047.3216,-157.5001 1037.3215,-161 1047.3215,-164.5001 1047.3216,-157.5001"/>
</g>
<!-- ChatListComponent -->
<g id="node5" class="node">
<title>ChatListComponent</title>
<polygon fill="#ffffb3" stroke="#000000" points="1393.5534,-122 1264.4466,-122 1264.4466,-86 1393.5534,-86 1393.5534,-122"/>
<text text-anchor="middle" x="1329" y="-99.8" font-family="Times,serif" font-size="14.00" fill="#000000">ChatListComponent</text>
</g>
<!-- ChatListComponent&#45;&gt;ChatModule -->
<g id="edge5" class="edge">
<title>ChatListComponent&#45;&gt;ChatModule</title>
<path fill="none" stroke="#000000" d="M1281.3445,-122.2819C1281.3445,-137.9478 1281.3445,-158 1281.3445,-158 1281.3445,-158 1047.0184,-158 1047.0184,-158"/>
<polygon fill="#000000" stroke="#000000" points="1047.0184,-154.5001 1037.0184,-158 1047.0183,-161.5001 1047.0184,-154.5001"/>
</g>
<!-- ChatMessageComponent -->
<g id="node6" class="node">
<title>ChatMessageComponent</title>
<polygon fill="#ffffb3" stroke="#000000" points="1246.252,-122 1089.748,-122 1089.748,-86 1246.252,-86 1246.252,-122"/>
<text text-anchor="middle" x="1168" y="-99.8" font-family="Times,serif" font-size="14.00" fill="#000000">ChatMessageComponent</text>
</g>
<!-- ChatMessageComponent&#45;&gt;ChatModule -->
<g id="edge6" class="edge">
<title>ChatMessageComponent&#45;&gt;ChatModule</title>
<path fill="none" stroke="#000000" d="M1116.5752,-122.1243C1116.5752,-136.7832 1116.5752,-155 1116.5752,-155 1116.5752,-155 1047.2154,-155 1047.2154,-155"/>
<polygon fill="#000000" stroke="#000000" points="1047.2155,-151.5001 1037.2154,-155 1047.2154,-158.5001 1047.2155,-151.5001"/>
</g>
<!-- ChatWindowComponent -->
<g id="node7" class="node">
<title>ChatWindowComponent</title>
<polygon fill="#ffffb3" stroke="#000000" points="1071.986,-122 916.014,-122 916.014,-86 1071.986,-86 1071.986,-122"/>
<text text-anchor="middle" x="994" y="-99.8" font-family="Times,serif" font-size="14.00" fill="#000000">ChatWindowComponent</text>
</g>
<!-- ChatWindowComponent&#45;&gt;ChatModule -->
<g id="edge7" class="edge">
<title>ChatWindowComponent&#45;&gt;ChatModule</title>
<path fill="none" stroke="#000000" d="M994,-122.1061C994,-122.1061 994,-140.991 994,-140.991"/>
<polygon fill="#000000" stroke="#000000" points="990.5001,-140.9909 994,-150.991 997.5001,-140.991 990.5001,-140.9909"/>
</g>
<!-- ChatWrapperComponent -->
<g id="node8" class="node">
<title>ChatWrapperComponent</title>
<polygon fill="#ffffb3" stroke="#000000" points="898.2394,-122 741.7606,-122 741.7606,-86 898.2394,-86 898.2394,-122"/>
<text text-anchor="middle" x="820" y="-99.8" font-family="Times,serif" font-size="14.00" fill="#000000">ChatWrapperComponent</text>
</g>
<!-- ChatWrapperComponent&#45;&gt;ChatModule -->
<g id="edge8" class="edge">
<title>ChatWrapperComponent&#45;&gt;ChatModule</title>
<path fill="none" stroke="#000000" d="M865.1219,-122.1243C865.1219,-136.7832 865.1219,-155 865.1219,-155 865.1219,-155 940.7269,-155 940.7269,-155"/>
<polygon fill="#000000" stroke="#000000" points="940.727,-158.5001 950.7269,-155 940.7269,-151.5001 940.727,-158.5001"/>
</g>
<!-- ChatroomComponent -->
<g id="node9" class="node">
<title>ChatroomComponent</title>
<polygon fill="#ffffb3" stroke="#000000" points="723.8258,-122 586.1742,-122 586.1742,-86 723.8258,-86 723.8258,-122"/>
<text text-anchor="middle" x="655" y="-99.8" font-family="Times,serif" font-size="14.00" fill="#000000">ChatroomComponent</text>
</g>
<!-- ChatroomComponent&#45;&gt;ChatModule -->
<g id="edge9" class="edge">
<title>ChatroomComponent&#45;&gt;ChatModule</title>
<path fill="none" stroke="#000000" d="M688.9599,-122.2819C688.9599,-137.9478 688.9599,-158 688.9599,-158 688.9599,-158 940.9422,-158 940.9422,-158"/>
<polygon fill="#000000" stroke="#000000" points="940.9422,-161.5001 950.9422,-158 940.9421,-154.5001 940.9422,-161.5001"/>
</g>
<!-- MsToHhMmPipe -->
<g id="node10" class="node">
<title>MsToHhMmPipe</title>
<polygon fill="#ffffb3" stroke="#000000" points="568.2716,-122 453.7284,-122 453.7284,-86 568.2716,-86 568.2716,-122"/>
<text text-anchor="middle" x="511" y="-99.8" font-family="Times,serif" font-size="14.00" fill="#000000">MsToHhMmPipe</text>
</g>
<!-- MsToHhMmPipe&#45;&gt;ChatModule -->
<g id="edge10" class="edge">
<title>MsToHhMmPipe&#45;&gt;ChatModule</title>
<path fill="none" stroke="#000000" d="M522.1331,-122.0352C522.1331,-138.7344 522.1331,-161 522.1331,-161 522.1331,-161 940.874,-161 940.874,-161"/>
<polygon fill="#000000" stroke="#000000" points="940.8741,-164.5001 950.874,-161 940.874,-157.5001 940.8741,-164.5001"/>
</g>
<!-- BotThinkingBubbleComponent  -->
<g id="node14" class="node">
<title>BotThinkingBubbleComponent </title>
<polygon fill="#fb8072" stroke="#000000" points="1907.3353,-252 1710.6647,-252 1710.6647,-216 1907.3353,-216 1907.3353,-252"/>
<text text-anchor="middle" x="1809" y="-229.8" font-family="Times,serif" font-size="14.00" fill="#000000">BotThinkingBubbleComponent </text>
</g>
<!-- ChatModule&#45;&gt;BotThinkingBubbleComponent  -->
<g id="edge13" class="edge">
<title>ChatModule&#45;&gt;BotThinkingBubbleComponent </title>
<path fill="none" stroke="#000000" stroke-dasharray="5,2" d="M1037.025,-174C1195.1096,-174 1734.705,-174 1734.705,-174 1734.705,-174 1734.705,-205.998 1734.705,-205.998"/>
<polygon fill="#000000" stroke="#000000" points="1731.205,-205.998 1734.705,-215.998 1738.205,-205.9981 1731.205,-205.998"/>
</g>
<!-- BotWelcomeComponent  -->
<g id="node15" class="node">
<title>BotWelcomeComponent </title>
<polygon fill="#fb8072" stroke="#000000" points="1692.1995,-252 1533.8005,-252 1533.8005,-216 1692.1995,-216 1692.1995,-252"/>
<text text-anchor="middle" x="1613" y="-229.8" font-family="Times,serif" font-size="14.00" fill="#000000">BotWelcomeComponent </text>
</g>
<!-- ChatModule&#45;&gt;BotWelcomeComponent  -->
<g id="edge14" class="edge">
<title>ChatModule&#45;&gt;BotWelcomeComponent </title>
<path fill="none" stroke="#000000" stroke-dasharray="5,2" d="M1037.2353,-178C1166.1826,-178 1539.1829,-178 1539.1829,-178 1539.1829,-178 1539.1829,-205.973 1539.1829,-205.973"/>
<polygon fill="#000000" stroke="#000000" points="1535.6829,-205.973 1539.1829,-215.973 1542.6829,-205.973 1535.6829,-205.973"/>
</g>
<!-- ChatConsumerFormComponent  -->
<g id="node16" class="node">
<title>ChatConsumerFormComponent </title>
<polygon fill="#fb8072" stroke="#000000" points="1515.6551,-252 1316.3449,-252 1316.3449,-216 1515.6551,-216 1515.6551,-252"/>
<text text-anchor="middle" x="1416" y="-229.8" font-family="Times,serif" font-size="14.00" fill="#000000">ChatConsumerFormComponent </text>
</g>
<!-- ChatModule&#45;&gt;ChatConsumerFormComponent  -->
<g id="edge15" class="edge">
<title>ChatModule&#45;&gt;ChatConsumerFormComponent </title>
<path fill="none" stroke="#000000" stroke-dasharray="5,2" d="M1037.1984,-181C1133.0457,-181 1355.0994,-181 1355.0994,-181 1355.0994,-181 1355.0994,-205.7604 1355.0994,-205.7604"/>
<polygon fill="#000000" stroke="#000000" points="1351.5995,-205.7604 1355.0994,-215.7604 1358.5995,-205.7604 1351.5995,-205.7604"/>
</g>
<!-- ChatItemComponent  -->
<g id="node17" class="node">
<title>ChatItemComponent </title>
<polygon fill="#fb8072" stroke="#000000" points="1298.4306,-252 1161.5694,-252 1161.5694,-216 1298.4306,-216 1298.4306,-252"/>
<text text-anchor="middle" x="1230" y="-229.8" font-family="Times,serif" font-size="14.00" fill="#000000">ChatItemComponent </text>
</g>
<!-- ChatModule&#45;&gt;ChatItemComponent  -->
<g id="edge16" class="edge">
<title>ChatModule&#45;&gt;ChatItemComponent </title>
<path fill="none" stroke="#000000" stroke-dasharray="5,2" d="M1036.9942,-184C1098.4194,-184 1203.9553,-184 1203.9553,-184 1203.9553,-184 1203.9553,-205.9489 1203.9553,-205.9489"/>
<polygon fill="#000000" stroke="#000000" points="1200.4554,-205.9488 1203.9553,-215.9489 1207.4554,-205.9489 1200.4554,-205.9488"/>
</g>
<!-- ChatListComponent  -->
<g id="node18" class="node">
<title>ChatListComponent </title>
<polygon fill="#fb8072" stroke="#000000" points="1143.5526,-252 1010.4474,-252 1010.4474,-216 1143.5526,-216 1143.5526,-252"/>
<text text-anchor="middle" x="1077" y="-229.8" font-family="Times,serif" font-size="14.00" fill="#000000">ChatListComponent </text>
</g>
<!-- ChatModule&#45;&gt;ChatListComponent  -->
<g id="edge17" class="edge">
<title>ChatModule&#45;&gt;ChatListComponent </title>
<path fill="none" stroke="#000000" stroke-dasharray="5,2" d="M1023.7348,-187.1061C1023.7348,-187.1061 1023.7348,-205.991 1023.7348,-205.991"/>
<polygon fill="#000000" stroke="#000000" points="1020.2348,-205.9909 1023.7348,-215.991 1027.2348,-205.991 1020.2348,-205.9909"/>
</g>
<!-- ChatMessageComponent  -->
<g id="node19" class="node">
<title>ChatMessageComponent </title>
<polygon fill="#fb8072" stroke="#000000" points="992.252,-252 831.748,-252 831.748,-216 992.252,-216 992.252,-252"/>
<text text-anchor="middle" x="912" y="-229.8" font-family="Times,serif" font-size="14.00" fill="#000000">ChatMessageComponent </text>
</g>
<!-- ChatModule&#45;&gt;ChatMessageComponent  -->
<g id="edge18" class="edge">
<title>ChatModule&#45;&gt;ChatMessageComponent </title>
<path fill="none" stroke="#000000" stroke-dasharray="5,2" d="M971.5651,-187.1061C971.5651,-187.1061 971.5651,-205.991 971.5651,-205.991"/>
<polygon fill="#000000" stroke="#000000" points="968.0651,-205.9909 971.5651,-215.991 975.0651,-205.991 968.0651,-205.9909"/>
</g>
<!-- ChatWindowComponent  -->
<g id="node20" class="node">
<title>ChatWindowComponent </title>
<polygon fill="#fb8072" stroke="#000000" points="813.9867,-252 654.0133,-252 654.0133,-216 813.9867,-216 813.9867,-252"/>
<text text-anchor="middle" x="734" y="-229.8" font-family="Times,serif" font-size="14.00" fill="#000000">ChatWindowComponent </text>
</g>
<!-- ChatModule&#45;&gt;ChatWindowComponent  -->
<g id="edge19" class="edge">
<title>ChatModule&#45;&gt;ChatWindowComponent </title>
<path fill="none" stroke="#000000" stroke-dasharray="5,2" d="M951.0048,-184C887.9213,-184 777.6867,-184 777.6867,-184 777.6867,-184 777.6867,-205.9489 777.6867,-205.9489"/>
<polygon fill="#000000" stroke="#000000" points="774.1868,-205.9488 777.6867,-215.9489 781.1868,-205.9489 774.1868,-205.9488"/>
</g>
<!-- ChatWrapperComponent  -->
<g id="node21" class="node">
<title>ChatWrapperComponent </title>
<polygon fill="#fb8072" stroke="#000000" points="636.2394,-252 475.7606,-252 475.7606,-216 636.2394,-216 636.2394,-252"/>
<text text-anchor="middle" x="556" y="-229.8" font-family="Times,serif" font-size="14.00" fill="#000000">ChatWrapperComponent </text>
</g>
<!-- ChatModule&#45;&gt;ChatWrapperComponent  -->
<g id="edge20" class="edge">
<title>ChatModule&#45;&gt;ChatWrapperComponent </title>
<path fill="none" stroke="#000000" stroke-dasharray="5,2" d="M950.8353,-181C850.7308,-181 611.2285,-181 611.2285,-181 611.2285,-181 611.2285,-205.7604 611.2285,-205.7604"/>
<polygon fill="#000000" stroke="#000000" points="607.7285,-205.7604 611.2285,-215.7604 614.7285,-205.7604 607.7285,-205.7604"/>
</g>
<!-- ChatroomComponent  -->
<g id="node22" class="node">
<title>ChatroomComponent </title>
<polygon fill="#fb8072" stroke="#000000" points="457.3255,-252 316.6745,-252 316.6745,-216 457.3255,-216 457.3255,-252"/>
<text text-anchor="middle" x="387" y="-229.8" font-family="Times,serif" font-size="14.00" fill="#000000">ChatroomComponent </text>
</g>
<!-- ChatModule&#45;&gt;ChatroomComponent  -->
<g id="edge21" class="edge">
<title>ChatModule&#45;&gt;ChatroomComponent </title>
<path fill="none" stroke="#000000" stroke-dasharray="5,2" d="M950.6785,-178C820.5287,-178 441.911,-178 441.911,-178 441.911,-178 441.911,-205.973 441.911,-205.973"/>
<polygon fill="#000000" stroke="#000000" points="438.4109,-205.973 441.911,-215.973 445.4109,-205.973 438.4109,-205.973"/>
</g>
<!-- MsToHhMmPipe  -->
<g id="node23" class="node">
<title>MsToHhMmPipe </title>
<polygon fill="#fb8072" stroke="#000000" points="298.2717,-252 179.7283,-252 179.7283,-216 298.2717,-216 298.2717,-252"/>
<text text-anchor="middle" x="239" y="-229.8" font-family="Times,serif" font-size="14.00" fill="#000000">MsToHhMmPipe </text>
</g>
<!-- ChatModule&#45;&gt;MsToHhMmPipe  -->
<g id="edge22" class="edge">
<title>ChatModule&#45;&gt;MsToHhMmPipe </title>
<path fill="none" stroke="#000000" stroke-dasharray="5,2" d="M950.8808,-174C798.1486,-174 292.0069,-174 292.0069,-174 292.0069,-174 292.0069,-205.998 292.0069,-205.998"/>
<polygon fill="#000000" stroke="#000000" points="288.5069,-205.998 292.0069,-215.998 295.5069,-205.9981 288.5069,-205.998"/>
</g>
<!-- MyMaterialModule -->
<g id="node12" class="node">
<title>MyMaterialModule</title>
<polygon fill="#8dd3c7" stroke="#000000" points="430.4159,-122 427.4159,-126 406.4159,-126 403.4159,-122 303.5841,-122 303.5841,-86 430.4159,-86 430.4159,-122"/>
<text text-anchor="middle" x="367" y="-99.8" font-family="Times,serif" font-size="14.00" fill="#000000">MyMaterialModule</text>
</g>
<!-- MyMaterialModule&#45;&gt;ChatModule -->
<g id="edge11" class="edge">
<title>MyMaterialModule&#45;&gt;ChatModule</title>
<path fill="none" stroke="#000000" d="M373.3975,-122.302C373.3975,-140.2699 373.3975,-165 373.3974,-165 373.3974,-165 940.8532,-165 940.8532,-165"/>
<polygon fill="#000000" stroke="#000000" points="940.8532,-168.5001 950.8532,-165 940.8531,-161.5001 940.8532,-168.5001"/>
</g>
<!-- RichMediaModule -->
<g id="node13" class="node">
<title>RichMediaModule</title>
<polygon fill="#8dd3c7" stroke="#000000" points="285.7562,-122 282.7562,-126 261.7562,-126 258.7562,-122 164.2438,-122 164.2438,-86 285.7562,-86 285.7562,-122"/>
<text text-anchor="middle" x="225" y="-99.8" font-family="Times,serif" font-size="14.00" fill="#000000">RichMediaModule</text>
</g>
<!-- RichMediaModule&#45;&gt;ChatModule -->
<g id="edge12" class="edge">
<title>RichMediaModule&#45;&gt;ChatModule</title>
<path fill="none" stroke="#000000" d="M232.8712,-122.1686C232.8712,-141.0898 232.8712,-168 232.8711,-168 232.8711,-168 940.8976,-168 940.8976,-168"/>
<polygon fill="#000000" stroke="#000000" points="940.8977,-171.5001 950.8976,-168 940.8976,-164.5001 940.8977,-171.5001"/>
</g>
<!-- ChatService -->
<g id="node24" class="node">
<title>ChatService</title>
<ellipse fill="#fdb462" stroke="#000000" cx="82" cy="-104" rx="58.4628" ry="18"/>
<text text-anchor="middle" x="82" y="-99.8" font-family="Times,serif" font-size="14.00" fill="#000000">ChatService</text>
</g>
<!-- ChatService&#45;&gt;ChatModule -->
<g id="edge23" class="edge">
<title>ChatService&#45;&gt;ChatModule</title>
<path fill="none" stroke="#000000" d="M82,-122.308C82,-142.1455 82,-171 82,-171 82,-171 940.9312,-171 940.9312,-171"/>
<polygon fill="#000000" stroke="#000000" points="940.9312,-174.5001 950.9312,-171 940.9312,-167.5001 940.9312,-174.5001"/>
</g>
</g>
</svg>
