<?xml version="1.0" encoding="UTF-8" standalone="no"?>
<!DOCTYPE svg PUBLIC "-//W3C//DTD SVG 1.1//EN"
 "http://www.w3.org/Graphics/SVG/1.1/DTD/svg11.dtd">
<!-- Generated by graphviz version 2.40.1 (20161225.0304)
 -->
<!-- Title: dependencies Pages: 1 -->
<svg width="1084pt" height="284pt"
 viewBox="0.00 0.00 1084.00 284.00" xmlns="http://www.w3.org/2000/svg" xmlns:xlink="http://www.w3.org/1999/xlink">
<g id="graph0" class="graph" transform="scale(1 1) rotate(0) translate(4 280)">
<title>dependencies</title>
<polygon fill="#ffffff" stroke="transparent" points="-4,4 -4,-280 1080,-280 1080,4 -4,4"/>
<text text-anchor="start" x="517.0091" y="-42.4" font-family="sans-serif" font-weight="bold" font-size="14.00" fill="#000000">Legend</text>
<polygon fill="#ffffb3" stroke="transparent" points="304,-10 304,-30 324,-30 324,-10 304,-10"/>
<text text-anchor="start" x="327.629" y="-15.4" font-family="sans-serif" font-size="14.00" fill="#000000"> &#160;Declarations</text>
<polygon fill="#8dd3c7" stroke="transparent" points="417,-10 417,-30 437,-30 437,-10 417,-10"/>
<text text-anchor="start" x="440.7251" y="-15.4" font-family="sans-serif" font-size="14.00" fill="#000000"> &#160;Module</text>
<polygon fill="#80b1d3" stroke="transparent" points="503,-10 503,-30 523,-30 523,-10 503,-10"/>
<text text-anchor="start" x="526.7812" y="-15.4" font-family="sans-serif" font-size="14.00" fill="#000000"> &#160;Bootstrap</text>
<polygon fill="#fdb462" stroke="transparent" points="600,-10 600,-30 620,-30 620,-10 600,-10"/>
<text text-anchor="start" x="623.6732" y="-15.4" font-family="sans-serif" font-size="14.00" fill="#000000"> &#160;Providers</text>
<polygon fill="#fb8072" stroke="transparent" points="696,-10 696,-30 716,-30 716,-10 696,-10"/>
<text text-anchor="start" x="719.7258" y="-15.4" font-family="sans-serif" font-size="14.00" fill="#000000"> &#160;Exports</text>
<g id="clust1" class="cluster">
<title>cluster_AppModule</title>
<polygon fill="none" stroke="#000000" stroke-dasharray="1,5" points="8,-70 8,-268 1068,-268 1068,-70 8,-70"/>
</g>
<g id="clust2" class="cluster">
<title>cluster_AppModule_declarations</title>
<polygon fill="none" stroke="#000000" points="306,-78 306,-130 1060,-130 1060,-78 306,-78"/>
</g>
<g id="clust10" class="cluster">
<title>cluster_AppModule_bootstrap</title>
<polygon fill="none" stroke="#000000" points="490,-208 490,-260 614,-260 614,-208 490,-208"/>
</g>
<g id="clust11" class="cluster">
<title>cluster_AppModule_providers</title>
<polygon fill="none" stroke="#000000" points="16,-78 16,-130 298,-130 298,-78 16,-78"/>
</g>
<!-- AppComponent -->
<g id="node1" class="node">
<title>AppComponent</title>
<polygon fill="#ffffb3" stroke="#000000" points="1051.9399,-122 946.0601,-122 946.0601,-86 1051.9399,-86 1051.9399,-122"/>
<text text-anchor="middle" x="999" y="-99.8" font-family="Times,serif" font-size="14.00" fill="#000000">AppComponent</text>
</g>
<!-- AppModule -->
<g id="node6" class="node">
<title>AppModule</title>
<polygon fill="#8dd3c7" stroke="#000000" points="593.6571,-187 590.6571,-191 569.6571,-191 566.6571,-187 510.3429,-187 510.3429,-151 593.6571,-151 593.6571,-187"/>
<text text-anchor="middle" x="552" y="-164.8" font-family="Times,serif" font-size="14.00" fill="#000000">AppModule</text>
</g>
<!-- AppComponent&#45;&gt;AppModule -->
<g id="edge1" class="edge">
<title>AppComponent&#45;&gt;AppModule</title>
<path fill="none" stroke="#000000" d="M999,-122.2921C999,-144.2057 999,-178 999,-178 999,-178 604.0527,-178 604.0527,-178"/>
<polygon fill="#000000" stroke="#000000" points="604.0527,-174.5001 594.0527,-178 604.0526,-181.5001 604.0527,-174.5001"/>
</g>
<!-- BackendDevComponent -->
<g id="node2" class="node">
<title>BackendDevComponent</title>
<polygon fill="#ffffb3" stroke="#000000" points="927.6344,-122 774.3656,-122 774.3656,-86 927.6344,-86 927.6344,-122"/>
<text text-anchor="middle" x="851" y="-99.8" font-family="Times,serif" font-size="14.00" fill="#000000">BackendDevComponent</text>
</g>
<!-- BackendDevComponent&#45;&gt;AppModule -->
<g id="edge2" class="edge">
<title>BackendDevComponent&#45;&gt;AppModule</title>
<path fill="none" stroke="#000000" d="M851,-122.1061C851,-141.3391 851,-169 851,-169 851,-169 603.8895,-169 603.8895,-169"/>
<polygon fill="#000000" stroke="#000000" points="603.8895,-165.5001 593.8895,-169 603.8895,-172.5001 603.8895,-165.5001"/>
</g>
<!-- FilterArrayPipe -->
<g id="node3" class="node">
<title>FilterArrayPipe</title>
<polygon fill="#ffffb3" stroke="#000000" points="755.8599,-122 652.1401,-122 652.1401,-86 755.8599,-86 755.8599,-122"/>
<text text-anchor="middle" x="704" y="-99.8" font-family="Times,serif" font-size="14.00" fill="#000000">FilterArrayPipe</text>
</g>
<!-- FilterArrayPipe&#45;&gt;AppModule -->
<g id="edge3" class="edge">
<title>FilterArrayPipe&#45;&gt;AppModule</title>
<path fill="none" stroke="#000000" d="M704,-122.027C704,-138.3976 704,-160 704,-160 704,-160 603.937,-160 603.937,-160"/>
<polygon fill="#000000" stroke="#000000" points="603.9371,-156.5001 593.937,-160 603.937,-163.5001 603.9371,-156.5001"/>
</g>
<!-- NotAuthorisedComponent -->
<g id="node4" class="node">
<title>NotAuthorisedComponent</title>
<polygon fill="#ffffb3" stroke="#000000" points="634.0378,-122 469.9622,-122 469.9622,-86 634.0378,-86 634.0378,-122"/>
<text text-anchor="middle" x="552" y="-99.8" font-family="Times,serif" font-size="14.00" fill="#000000">NotAuthorisedComponent</text>
</g>
<!-- NotAuthorisedComponent&#45;&gt;AppModule -->
<g id="edge4" class="edge">
<title>NotAuthorisedComponent&#45;&gt;AppModule</title>
<path fill="none" stroke="#000000" d="M552,-122.1061C552,-122.1061 552,-140.991 552,-140.991"/>
<polygon fill="#000000" stroke="#000000" points="548.5001,-140.9909 552,-150.991 555.5001,-140.991 548.5001,-140.9909"/>
</g>
<!-- NotFoundComponent -->
<g id="node5" class="node">
<title>NotFoundComponent</title>
<polygon fill="#ffffb3" stroke="#000000" points="452.1122,-122 313.8878,-122 313.8878,-86 452.1122,-86 452.1122,-122"/>
<text text-anchor="middle" x="383" y="-99.8" font-family="Times,serif" font-size="14.00" fill="#000000">NotFoundComponent</text>
</g>
<!-- NotFoundComponent&#45;&gt;AppModule -->
<g id="edge5" class="edge">
<title>NotFoundComponent&#45;&gt;AppModule</title>
<path fill="none" stroke="#000000" d="M383,-122.027C383,-138.3976 383,-160 383,-160 383,-160 500.2247,-160 500.2247,-160"/>
<polygon fill="#000000" stroke="#000000" points="500.2247,-163.5001 510.2247,-160 500.2247,-156.5001 500.2247,-163.5001"/>
</g>
<!-- AppComponent  -->
<g id="node7" class="node">
<title>AppComponent </title>
<polygon fill="#80b1d3" stroke="#000000" points="606.439,-252 497.561,-252 497.561,-216 606.439,-216 606.439,-252"/>
<text text-anchor="middle" x="552" y="-229.8" font-family="Times,serif" font-size="14.00" fill="#000000">AppComponent </text>
</g>
<!-- AppModule&#45;&gt;AppComponent  -->
<g id="edge6" class="edge">
<title>AppModule&#45;&gt;AppComponent </title>
<path fill="none" stroke="#000000" stroke-dasharray="1,5" d="M552,-187.1061C552,-187.1061 552,-205.991 552,-205.991"/>
<polygon fill="#000000" stroke="#000000" points="548.5001,-205.9909 552,-215.991 555.5001,-205.991 548.5001,-205.9909"/>
</g>
<!-- DragService -->
<g id="node8" class="node">
<title>DragService</title>
<ellipse fill="#fdb462" stroke="#000000" cx="231" cy="-104" rx="59.0872" ry="18"/>
<text text-anchor="middle" x="231" y="-99.8" font-family="Times,serif" font-size="14.00" fill="#000000">DragService</text>
</g>
<!-- DragService&#45;&gt;AppModule -->
<g id="edge7" class="edge">
<title>DragService&#45;&gt;AppModule</title>
<path fill="none" stroke="#000000" d="M231,-122.1061C231,-141.3391 231,-169 231,-169 231,-169 500.0349,-169 500.0349,-169"/>
<polygon fill="#000000" stroke="#000000" points="500.0349,-172.5001 510.0349,-169 500.0348,-165.5001 500.0349,-172.5001"/>
</g>
<!-- ServerService -->
<g id="node9" class="node">
<title>ServerService</title>
<ellipse fill="#fdb462" stroke="#000000" cx="89" cy="-104" rx="65.3839" ry="18"/>
<text text-anchor="middle" x="89" y="-99.8" font-family="Times,serif" font-size="14.00" fill="#000000">ServerService</text>
</g>
<!-- ServerService&#45;&gt;AppModule -->
<g id="edge8" class="edge">
<title>ServerService&#45;&gt;AppModule</title>
<path fill="none" stroke="#000000" d="M89,-122.2921C89,-144.2057 89,-178 89,-178 89,-178 500.0952,-178 500.0952,-178"/>
<polygon fill="#000000" stroke="#000000" points="500.0953,-181.5001 510.0952,-178 500.0952,-174.5001 500.0953,-181.5001"/>
</g>
</g>
</svg>
