<svg xmlns="http://www.w3.org/2000/svg" width="64" height="62" viewBox="0 0 64 62">
    <g fill="none" fill-rule="nonzero">
        <path fill="#D4E1F4" d="M32.407 33.861h-1.292c-.177 0-.365.093-.365.27v2.444h1.292V34.13c0-.177.188-.27.365-.27zM20.93 56.6V41.287c0-1.71 1.399-3.161 3.108-3.161h-1.292c-1.71 0-3.108 1.451-3.108 3.161v15.315a3.11 3.11 0 0 0 3.108 3.1h1.292a3.11 3.11 0 0 1-3.108-3.1z"/>
        <g fill="#2B4F70">
            <path d="M63.44 32.929a4.239 4.239 0 1 0-5.042 4.162v4.642a6.251 6.251 0 0 0-1.809-.446c0-2.565-2.124-4.712-4.688-4.712h-6.552V34.13a1.785 1.785 0 0 0-1.817-1.82h-5.418v-2.49a.775.775 0 1 0-1.55 0v2.49h-5.45c-1.03 0-1.915.788-1.915 1.82v2.444h-6.453c-2.565 0-4.658 2.147-4.658 4.711v15.315a4.663 4.663 0 0 0 4.658 4.65h29.155c2.564 0 4.688-2.086 4.688-4.65V56.6a7.666 7.666 0 0 0 6.87-7.657c0-2.678-1.314-5.042-3.51-6.42V37.09a4.174 4.174 0 0 0 3.491-4.162zM30.75 34.13c0-.177.188-.27.365-.27h12.417a.239.239 0 0 1 .267.27v2.444h-13.05V34.13zM55.04 56.6a3.137 3.137 0 0 1-3.14 3.1H22.747a3.11 3.11 0 0 1-3.108-3.1V41.286c0-1.71 1.399-3.161 3.108-3.161h29.155c1.71 0 3.138 1.451 3.138 3.161v15.315zm6.92-7.658c0 3.126-2.399 5.714-5.37 6.096V42.847c2.971.382 5.37 2.97 5.37 6.096zM56.551 32.93a2.685 2.685 0 1 1 5.37 0 2.685 2.685 0 0 1-5.37 0z"/>
            <path d="M27.772 44.843h-.765a2.623 2.623 0 0 0-2.588 2.622v2.21c0 .427.351.724.78.724h4.382c.428 0 .78-.297.78-.725v-2.209a2.625 2.625 0 0 0-2.59-2.622zm1.04 4.006h-2.843v-1.384c0-.579.46-1.053 1.038-1.071h.765c.58.017 1.04.492 1.04 1.071v1.384zM47.64 44.843h-.765c-1.425 0-2.56 1.198-2.56 2.622v2.21a.714.714 0 0 0 .751.724h4.383c.428 0 .81-.297.81-.725v-2.21a2.65 2.65 0 0 0-2.62-2.62zm1.068 4.006h-2.842v-1.384c0-.57.44-1.071 1.009-1.071h.765a1.098 1.098 0 0 1 1.068 1.071v1.384zM41.706 52.337H32.94c-.428 0-.77.407-.77.835v.765a4.35 4.35 0 0 0 4.387 4.343h1.53c2.423 0 4.419-1.92 4.419-4.343v-.765a.85.85 0 0 0-.801-.835zm-3.618 4.393h-1.53c-1.563 0-2.836-1.163-2.842-2.843h7.215c-.005 1.68-1.279 2.843-2.843 2.843z"/>
        </g>
        <g fill="#02BDE8">
            <path d="M45.737 24.016V4.417c0-2.429-2.02-4.406-4.45-4.406h-36.8A4.367 4.367 0 0 0 .128 4.417v19.599a4.383 4.383 0 0 0 4.357 4.419h1.478a.474.474 0 0 1 .48.365c.817 4.62 3.846 6.012 4.497 6.262a.792.792 0 0 0 .49.084.826.826 0 0 0 .678-.644c.08-.355.131-.716.152-1.08.237-2.527.734-4.987 3.928-4.987h25.098a4.46 4.46 0 0 0 4.45-4.42zm-35.012 9.19c-.892-.596-2.27-1.93-2.754-4.672a2.017 2.017 0 0 0-2.007-1.65H4.486a2.83 2.83 0 0 1-2.807-2.868V4.417a2.82 2.82 0 0 1 2.807-2.856h36.801c1.575 0 2.9 1.281 2.9 2.856v19.599a2.907 2.907 0 0 1-2.9 2.869H16.19c-4.813 0-5.281 4.37-5.464 6.322z"/>
            <path d="M40.38 16.161h-9.304a.775.775 0 1 0 0 1.55h9.303a.775.775 0 0 0 0-1.55zM12.017 16.161a.775.775 0 0 0 0 1.55H26.68a.775.775 0 0 0 0-1.55H12.017zM5.394 17.711h3.2a.775.775 0 0 0 0-1.55h-3.2a.775.775 0 0 0 0 1.55zM40.38 11.64h-2.43a.775.775 0 0 0 0 1.55h2.43a.775.775 0 0 0 0-1.55zM34.548 13.19a.775.775 0 0 0 0-1.55h-4.066a.775.775 0 0 0 0 1.55h4.066zM5.394 13.19h21.658a.775.775 0 0 0 0-1.55H5.394a.775.775 0 0 0 0 1.55zM40.38 6.213h-1.964a.775.775 0 0 0 0 1.55h1.963a.775.775 0 0 0 0-1.55zM26.555 7.763h8.412a.775.775 0 1 0 0-1.55h-8.412a.775.775 0 1 0 0 1.55zM5.394 7.763h17.732a.775.775 0 0 0 0-1.55H5.394a.775.775 0 0 0 0 1.55zM31.308 20.683h-.376a.775.775 0 0 0 0 1.55h.376a.775.775 0 0 0 0-1.55zM27.783 20.683h-6.721a.775.775 0 0 0 0 1.55h6.721a.775.775 0 1 0 0-1.55zM16.774 20.683H5.394a.775.775 0 0 0 0 1.55h11.38a.775.775 0 0 0 0-1.55z"/>
        </g>
    </g>
</svg>
