<svg xmlns="http://www.w3.org/2000/svg" width="62" height="64" viewBox="0 0 62 64">
    <g fill="none" fill-rule="nonzero">
        <path fill="#F0F7FF" d="M10.4 1.815H6.212a4.746 4.746 0 0 0-4.746 4.74v7.824h4.188V6.555a4.746 4.746 0 0 1 4.746-4.74z"/>
        <path fill="#DDEDFF" d="M5.654 47.749V15.914H1.466V47.75a4.746 4.746 0 0 0 4.746 4.74H10.4a4.746 4.746 0 0 1-4.746-4.74z"/>
        <g fill="#02BDE8">
            <path d="M55.055 0H6.787A6.72 6.72 0 0 0 .07 6.688v40.967c0 3.688 3.029 6.649 6.717 6.649h6.582a.838.838 0 0 0 0-1.675H6.787c-2.764 0-5.042-2.21-5.042-4.974V16.054h58.352v31.6c0 2.765-2.278 4.975-5.042 4.975H48.45a.838.838 0 0 0 0 1.675h6.604c3.688 0 6.717-2.961 6.717-6.65V6.689A6.72 6.72 0 0 0 55.055 0zm5.042 14.379H1.745v-7.69a5.044 5.044 0 0 1 5.042-5.014h48.268a5.044 5.044 0 0 1 5.042 5.013v7.69z"/>
            <path d="M17.416 5.026h-.01a3.071 3.071 0 0 0-.01 6.142h.01a3.072 3.072 0 0 0 .01-6.142zm-.01 4.467h-.004a1.396 1.396 0 1 1 .004-2.792h.005a1.396 1.396 0 0 1-.004 2.792zM7.46 5.026h-.009a3.04 3.04 0 0 0-3.054 3.023 2.938 2.938 0 0 0 .888 2.12 2.986 2.986 0 0 0 2.157.86h.01a3.031 3.031 0 0 0 3.053-3.013 2.953 2.953 0 0 0-.887-2.126 2.991 2.991 0 0 0-2.157-.864zm-.008 4.327h-.005a1.336 1.336 0 0 1-.974-.375 1.288 1.288 0 0 1-.4-.94 1.35 1.35 0 0 1 1.379-1.337h.003c.364-.008.715.131.974.386.258.242.403.58.401.934a1.343 1.343 0 0 1-1.378 1.332zM27.371 5.026h-.01a3.07 3.07 0 0 0-2.166 5.229c.568.58 1.345.91 2.157.913h.01a3.07 3.07 0 1 0 .01-6.142zm.963 4.052a1.38 1.38 0 0 1-2.245-1.515 1.392 1.392 0 0 1 1.272-.862h.005a1.393 1.393 0 0 1 .967 2.377zM55.99 29.455h-1.172a.837.837 0 1 0 0 1.675h1.172a.838.838 0 0 0 0-1.675zM30.762 30.293c0 .462.375.837.837.837h19.706a.838.838 0 0 0 0-1.675H31.6a.838.838 0 0 0-.837.838zM22.3 29.455a.838.838 0 0 0 0 1.675h5.85a.838.838 0 0 0 0-1.675H22.3zM9.839 29.455a.838.838 0 0 0 0 1.675h9.048a.838.838 0 0 0 0-1.675H9.839zM5.852 31.13h.113a.837.837 0 1 0 0-1.675h-.113a.838.838 0 0 0 0 1.675zM55.99 24.29h-8.016a.838.838 0 0 0 0 1.675h8.016a.838.838 0 0 0 0-1.675zM44.123 25.965a.837.837 0 1 0 0-1.675h-1.679a.838.838 0 0 0 0 1.675h1.679zM15.26 25.128c0 .462.375.837.837.837h22.465a.838.838 0 0 0 0-1.675H16.097a.838.838 0 0 0-.837.838zM5.852 25.965h6.785a.838.838 0 0 0 0-1.675H5.852a.838.838 0 0 0 0 1.675zM55.99 19.544H36.8a.838.838 0 0 0 0 1.675h19.19a.838.838 0 0 0 0-1.675zM32.896 21.219a.838.838 0 0 0 0-1.675h-6.085a.838.838 0 0 0 0 1.675h6.085zM23.445 21.219a.838.838 0 0 0 0-1.675h-.073a.838.838 0 0 0 0 1.675h.073zM19.49 19.544H5.852a.838.838 0 0 0 0 1.675H19.49a.838.838 0 0 0 0-1.675zM40.455 34.62h-.426a.837.837 0 1 0 0 1.676h.426a.838.838 0 0 0 0-1.676zM36.465 34.62h-7.61a.838.838 0 0 0 0 1.676h7.61a.838.838 0 0 0 0-1.676zM24 34.62H5.854a.838.838 0 0 0 0 1.676H24a.838.838 0 0 0 0-1.676z"/>
        </g>
        <g fill="#2B4F70">
            <path d="M49.319 40.196a3.608 3.608 0 1 0-7.216 0c0 1.702 1.243 3.13 2.779 3.51v3.237a6.583 6.583 0 0 0-1.275-.24 5.023 5.023 0 0 0-4.865-3.707H34.83V41.16c0-.946-.761-1.653-1.707-1.653h-4.156v-1.8a.838.838 0 0 0-1.675 0v1.8h-4.115c-.946 0-1.749.707-1.749 1.653v1.837h-3.87c-2.772 0-5.064 2.206-5.064 4.977v10.1a5.063 5.063 0 0 0 5.063 5.026h21.185a5.034 5.034 0 0 0 4.856-3.73 6.38 6.38 0 0 0 2.958-11.603v-4.06a3.663 3.663 0 0 0 2.763-3.51zm-26.215.963c0-.022.05.023.073.023h9.946c.022 0 .032-.045.032-.023v1.837H23.104V41.16zm18.985 16.914c0 1.85-1.5 3.35-3.35 3.35h-21.22a3.35 3.35 0 0 1-3.35-3.35V48.022c0-1.85 1.5-3.35 3.35-3.35h21.22c1.85 0 3.35 1.5 3.35 3.35v10.051zm5.542-5.05a4.678 4.678 0 0 1-3.867 4.631v-9.261a4.678 4.678 0 0 1 3.867 4.63zm-3.864-12.827a1.934 1.934 0 1 1 3.867 0 1.934 1.934 0 0 1-3.866 0z"/>
            <path d="M20.273 49.558h-.16a2.462 2.462 0 0 0-2.454 2.508v1.542c0 .462.316.836.779.836h3.51a.87.87 0 0 0 .876-.836v-1.542a2.545 2.545 0 0 0-2.551-2.508zm.876 3.21h-1.815v-.702c0-.462.317-.833.78-.833h.159a.869.869 0 0 1 .876.833v.702zM36.187 49.558h-.16a2.462 2.462 0 0 0-2.454 2.508v1.542c0 .462.316.836.779.836h3.51a.87.87 0 0 0 .877-.836v-1.542a2.546 2.546 0 0 0-2.552-2.508zm.876 3.21H35.25v-.702c0-.462.316-.833.778-.833h.16a.87.87 0 0 1 .876.833v.702zM31.66 55.56h-7.02a.848.848 0 0 0-.838.85v.16a4.164 4.164 0 0 0 4.188 4.155h.32a4.13 4.13 0 0 0 4.147-4.155v-.16a.813.813 0 0 0-.797-.85zm-3.35 3.49h-.32c-1.151 0-2.124-.698-2.42-1.815h5.16c-.296 1.117-1.27 1.815-2.42 1.815z"/>
        </g>
    </g>
</svg>
