<svg xmlns="http://www.w3.org/2000/svg" width="68" height="68" viewBox="0 0 68 68">
    <g fill="none" fill-rule="evenodd">
        <path fill="#DDEDFF" d="M50 1H20a4 4 0 0 0-4 4v39a4 4 0 0 0 4 4h30-34a4 4 0 0 1-4-4V5a4 4 0 0 1 4-4h34z"/>
        <g fill="#02BDE8" fill-rule="nonzero">
            <path d="M67.983 54.003a4.525 4.525 0 0 0-4.514-4.137 4.533 4.533 0 0 0-4.372 3.4h-9.225a1.133 1.133 0 0 1-1.133-1.133V47.6h4.897a4.171 4.171 0 0 0 4.168-4.169V4.167A4.171 4.171 0 0 0 53.636 0H14.702a4.492 4.492 0 0 0-4.487 4.488v38.943a4.171 4.171 0 0 0 4.167 4.169h4.897v4.533c0 .626-.507 1.133-1.133 1.133H8.921A4.532 4.532 0 0 0 0 54.4a4.533 4.533 0 0 0 8.92 1.133h9.226a3.4 3.4 0 0 0 3.4-3.4V47.6h4.531v13.6c0 .626-.507 1.133-1.133 1.133h-2.427a4.532 4.532 0 1 0-4.96 5.63 4.532 4.532 0 0 0 4.96-3.363h2.427a3.4 3.4 0 0 0 3.4-3.4V47.6h11.33v13.6a3.4 3.4 0 0 0 3.4 3.4H45.5a4.532 4.532 0 1 0 4.96-5.63 4.532 4.532 0 0 0-4.96 3.363h-2.427A1.133 1.133 0 0 1 41.94 61.2V47.6h4.533v4.533a3.4 3.4 0 0 0 3.399 3.4h9.225a4.524 4.524 0 0 0 8.886-1.53zM4.55 56.667a2.266 2.266 0 1 1 0-4.533 2.266 2.266 0 0 1 0 4.533zm13.597 9.066a2.266 2.266 0 1 1 0-4.533 2.266 2.266 0 0 1 0 4.533zM49.872 61.2a2.266 2.266 0 1 1 0 4.533 2.266 2.266 0 0 1 0-4.533zm-35.49-15.867a1.904 1.904 0 0 1-1.901-1.902V4.488a2.223 2.223 0 0 1 2.22-2.221h38.935c1.05 0 1.9.85 1.901 1.9v39.264a1.904 1.904 0 0 1-1.901 1.902H14.382zm49.087 11.334a2.266 2.266 0 1 1 0-4.533 2.266 2.266 0 0 1 0 4.533z"/>
            <path d="M.017 54.003a4.525 4.525 0 0 1 4.514-4.137 4.533 4.533 0 0 1 4.372 3.4h9.225c.626 0 1.133-.507 1.133-1.133V47.6h-4.897a4.171 4.171 0 0 1-4.168-4.169V4.167A4.171 4.171 0 0 1 14.364 0h38.934a4.492 4.492 0 0 1 4.487 4.488v38.943a4.171 4.171 0 0 1-4.167 4.169H48.72v4.533c0 .626.507 1.133 1.133 1.133h9.225A4.532 4.532 0 0 1 68 54.4a4.533 4.533 0 0 1-8.92 1.133h-9.226a3.4 3.4 0 0 1-3.4-3.4V47.6h-4.531v13.6c0 .626.507 1.133 1.133 1.133h2.427a4.532 4.532 0 1 1 4.96 5.63 4.532 4.532 0 0 1-4.96-3.363h-2.427a3.4 3.4 0 0 1-3.4-3.4V47.6h-11.33v13.6a3.4 3.4 0 0 1-3.4 3.4H22.5a4.532 4.532 0 1 1-4.96-5.63 4.532 4.532 0 0 1 4.96 3.363h2.427c.625 0 1.133-.507 1.133-1.133V47.6h-4.533v4.533a3.4 3.4 0 0 1-3.399 3.4H8.903a4.524 4.524 0 0 1-8.886-1.53zm63.434 2.664a2.266 2.266 0 1 0 0-4.533 2.266 2.266 0 0 0 0 4.533zm-13.597 9.066a2.266 2.266 0 1 0 0-4.533 2.266 2.266 0 0 0 0 4.533zM18.128 61.2a2.266 2.266 0 1 0 0 4.533 2.266 2.266 0 0 0 0-4.533zm35.49-15.867a1.904 1.904 0 0 0 1.901-1.902V4.488a2.223 2.223 0 0 0-2.22-2.221H14.364c-1.05 0-1.9.85-1.901 1.9v39.264c.001 1.05.852 1.9 1.901 1.902h39.254zM4.531 56.667a2.266 2.266 0 1 0 0-4.533 2.266 2.266 0 0 0 0 4.533z"/>
        </g>
        <g fill="#2B4F70" fill-rule="nonzero">
            <path d="M50.958 16.953a2.935 2.935 0 1 0-5.87 0c0 1.385 1.011 2.548 2.26 2.856v2.634a5.356 5.356 0 0 0-1.037-.196 4.087 4.087 0 0 0-3.957-3.015h-3.183v-1.495c0-.77-.62-1.344-1.389-1.344h-3.38v-1.464a.682.682 0 0 0-1.364 0v1.464h-3.347c-.77 0-1.423.575-1.423 1.344v1.495H25.12c-2.254 0-4.119 1.794-4.119 4.049v8.216a4.12 4.12 0 0 0 4.12 4.089h17.234a4.096 4.096 0 0 0 3.95-3.035 5.19 5.19 0 0 0 2.407-9.44V19.81a2.98 2.98 0 0 0 2.247-2.856zm-21.327.784c0-.018.042.018.06.018h8.091c.018 0 .026-.036.026-.018v1.495h-8.177v-1.495zm15.446 13.76a2.726 2.726 0 0 1-2.726 2.726H25.088a2.726 2.726 0 0 1-2.725-2.726V23.32a2.726 2.726 0 0 1 2.725-2.725h17.263a2.726 2.726 0 0 1 2.726 2.725v8.177zm4.508-4.108a3.806 3.806 0 0 1-3.145 3.768v-7.535a3.805 3.805 0 0 1 3.145 3.767zm-3.143-10.436a1.573 1.573 0 1 1 3.145 0 1.573 1.573 0 0 1-3.144 0z"/>
            <path d="M27.328 24.57h-.13a2.003 2.003 0 0 0-1.996 2.04v1.255c0 .376.257.68.634.68h2.855a.707.707 0 0 0 .713-.68V26.61a2.07 2.07 0 0 0-2.076-2.04zm.713 2.612h-1.476v-.572c0-.376.258-.678.633-.678h.13a.707.707 0 0 1 .713.678v.572zM40.275 24.57h-.13a2.003 2.003 0 0 0-1.996 2.04v1.255c0 .376.256.68.633.68h2.856a.708.708 0 0 0 .713-.68V26.61a2.071 2.071 0 0 0-2.076-2.04zm.713 2.612h-1.476v-.572c0-.376.257-.678.633-.678h.13a.707.707 0 0 1 .713.678v.572zM36.592 29.453h-5.711a.69.69 0 0 0-.682.692v.13a3.388 3.388 0 0 0 3.407 3.38h.26a3.36 3.36 0 0 0 3.374-3.38v-.13a.661.661 0 0 0-.648-.692zm-2.725 2.84h-.26c-.937 0-1.728-.569-1.97-1.477h4.198c-.24.908-1.032 1.476-1.968 1.476z"/>
        </g>
    </g>
</svg>
