<svg xmlns="http://www.w3.org/2000/svg" width="61" height="66" viewBox="0 0 61 66">
    <g fill="none" fill-rule="evenodd">
        <g fill="#2B4F70" fill-rule="nonzero">
            <path d="M50.53 21.086a3.823 3.823 0 1 0-7.646 0c0 1.803 1.317 3.318 2.944 3.72v3.43a6.976 6.976 0 0 0-1.35-.255 5.323 5.323 0 0 0-5.155-3.927h-4.146v-1.948c0-1.002-.807-1.75-1.81-1.75h-4.403v-1.908a.888.888 0 0 0-1.776 0v1.907h-4.36c-1.002 0-1.853.75-1.853 1.751v1.948h-4.102c-2.937 0-5.366 2.337-5.366 5.274V40.03a5.366 5.366 0 0 0 5.366 5.326h22.45a5.335 5.335 0 0 0 5.145-3.953 6.761 6.761 0 0 0 3.135-12.295v-4.303a3.882 3.882 0 0 0 2.928-3.72zm-27.78 1.02c0-.023.055.025.078.025h10.54c.023 0 .034-.048.034-.025v1.948H22.75v-1.948zM42.87 40.03a3.55 3.55 0 0 1-3.551 3.55H16.833a3.55 3.55 0 0 1-3.55-3.55V29.38a3.55 3.55 0 0 1 3.55-3.551h22.486a3.55 3.55 0 0 1 3.55 3.55V40.03zm5.872-5.351a4.957 4.957 0 0 1-4.098 4.908v-9.815a4.957 4.957 0 0 1 4.098 4.907zm-4.094-13.593a2.049 2.049 0 1 1 4.097 0 2.049 2.049 0 0 1-4.097 0z"/>
            <path d="M19.75 31.007h-.169a2.609 2.609 0 0 0-2.6 2.658v1.634c0 .49.335.885.825.885h3.72a.922.922 0 0 0 .928-.885v-1.634a2.697 2.697 0 0 0-2.703-2.658zm.93 3.402h-1.924v-.744c0-.49.336-.883.825-.883h.17a.92.92 0 0 1 .928.883v.744zM36.614 31.007h-.169a2.609 2.609 0 0 0-2.6 2.658v1.634c0 .49.334.885.825.885h3.72a.922.922 0 0 0 .929-.885v-1.634a2.698 2.698 0 0 0-2.705-2.658zm.93 3.402H35.62v-.744c0-.49.335-.883.824-.883h.17a.921.921 0 0 1 .929.883v.744zM31.818 37.368h-7.44a.899.899 0 0 0-.888.9v.17a4.413 4.413 0 0 0 4.438 4.403h.34a4.376 4.376 0 0 0 4.394-4.403v-.17a.861.861 0 0 0-.844-.9zm-3.55 3.698h-.34c-1.22 0-2.25-.74-2.565-1.923h5.469c-.314 1.183-1.345 1.923-2.565 1.923z"/>
        </g>
        <g stroke="#02BDE8" stroke-width="1.5" transform="translate(1 1)">
            <path stroke-linecap="round" d="M5 14.84a28.669 28.669 0 0 0-5 16.205c0 16.09 13.258 29.134 29.612 29.134 2.296 0 4.53-.257 6.676-.743m4.316-1.33a29.702 29.702 0 0 0 6.512-3.56m5.014-4.58c4.423-5.09 7.094-11.699 7.094-18.921 0-7.172-2.634-13.738-7.001-18.814a29.655 29.655 0 0 0-8.972-7.053M29.61 1.91c-7.881 0-15.044 3.03-20.35 7.971-.451.42-.889.854-1.312 1.3"/>
            <circle cx="7.164" cy="11.94" r="4.299" fill="#FFF"/>
            <circle cx="36.299" cy="2.866" r="2.866" fill="#FFF"/>
            <circle cx="55.403" cy="17.194" r="1.91" fill="#FFF"/>
            <circle cx="38.209" cy="58.269" r="5.731" fill="#FFF"/>
        </g>
    </g>
</svg>
