<?xml version="1.0" encoding="UTF-8" standalone="no"?>
<!DOCTYPE svg PUBLIC "-//W3C//DTD SVG 1.1//EN"
 "http://www.w3.org/Graphics/SVG/1.1/DTD/svg11.dtd">
<!-- Generated by graphviz Versions 2.40.1 (20161225.0304)
 -->
<!-- Title: dependencies Pages: 1 -->
<svg width="3313pt" height="211pt"
 viewBox="0.00 0.00 3313.00 211.00" xmlns="http://www.w3.org/2000/svg" xmlns:xlink="http://www.w3.org/1999/xlink">
<g id="graph0" class="graph" transform="scale(1 1) rotate(0) translate(4 207)">
<title>dependencies</title>
<polygon fill="#ffffff" stroke="transparent" points="-4,4 -4,-207 3309,-207 3309,4 -4,4"/>
<text text-anchor="start" x="1631.5091" y="-42.4" font-family="sans-serif" font-weight="bold" font-size="14.00" fill="#000000">Legend</text>
<polygon fill="#ffffb3" stroke="transparent" points="1418.5,-10 1418.5,-30 1438.5,-30 1438.5,-10 1418.5,-10"/>
<text text-anchor="start" x="1442.129" y="-15.4" font-family="sans-serif" font-size="14.00" fill="#000000"> &#160;Declarations</text>
<polygon fill="#8dd3c7" stroke="transparent" points="1531.5,-10 1531.5,-30 1551.5,-30 1551.5,-10 1531.5,-10"/>
<text text-anchor="start" x="1555.2251" y="-15.4" font-family="sans-serif" font-size="14.00" fill="#000000"> &#160;Module</text>
<polygon fill="#80b1d3" stroke="transparent" points="1617.5,-10 1617.5,-30 1637.5,-30 1637.5,-10 1617.5,-10"/>
<text text-anchor="start" x="1641.2812" y="-15.4" font-family="sans-serif" font-size="14.00" fill="#000000"> &#160;Bootstrap</text>
<polygon fill="#fdb462" stroke="transparent" points="1714.5,-10 1714.5,-30 1734.5,-30 1734.5,-10 1714.5,-10"/>
<text text-anchor="start" x="1738.1732" y="-15.4" font-family="sans-serif" font-size="14.00" fill="#000000"> &#160;Providers</text>
<polygon fill="#fb8072" stroke="transparent" points="1810.5,-10 1810.5,-30 1830.5,-30 1830.5,-10 1810.5,-10"/>
<text text-anchor="start" x="1834.2258" y="-15.4" font-family="sans-serif" font-size="14.00" fill="#000000"> &#160;Exports</text>
<g id="clust1" class="cluster">
<title>cluster_Analysis2Module</title>
<polygon fill="none" stroke="#000000" stroke-dasharray="1,5" points="8,-70 8,-195 3297,-195 3297,-70 8,-70"/>
</g>
<g id="clust2" class="cluster">
<title>cluster_Analysis2Module_declarations</title>
<polygon fill="none" stroke="#000000" points="412,-78 412,-130 3289,-130 3289,-78 412,-78"/>
</g>
<g id="clust17" class="cluster">
<title>cluster_Analysis2Module_imports</title>
<polygon fill="none" stroke="#000000" points="290,-78 290,-130 404,-130 404,-78 290,-78"/>
</g>
<g id="clust20" class="cluster">
<title>cluster_Analysis2Module_providers</title>
<polygon fill="none" stroke="#000000" points="16,-78 16,-130 282,-130 282,-78 16,-78"/>
</g>
<!-- Analysis2BodyComponent -->
<g id="node1" class="node">
<title>Analysis2BodyComponent</title>
<polygon fill="#ffffb3" stroke="#000000" points="3280.6609,-122 3113.3391,-122 3113.3391,-86 3280.6609,-86 3280.6609,-122"/>
<text text-anchor="middle" x="3197" y="-99.8" font-family="Times,serif" font-size="14.00" fill="#000000">Analysis2BodyComponent</text>
</g>
<!-- Analysis2Module -->
<g id="node15" class="node">
<title>Analysis2Module</title>
<polygon fill="#8dd3c7" stroke="#000000" points="1564.5423,-187 1561.5423,-191 1540.5423,-191 1537.5423,-187 1449.4577,-187 1449.4577,-151 1564.5423,-151 1564.5423,-187"/>
<text text-anchor="middle" x="1507" y="-164.8" font-family="Times,serif" font-size="14.00" fill="#000000">Analysis2Module</text>
</g>
<!-- Analysis2BodyComponent&#45;&gt;Analysis2Module -->
<g id="edge1" class="edge">
<title>Analysis2BodyComponent&#45;&gt;Analysis2Module</title>
<path fill="none" stroke="#000000" d="M3197,-122.3228C3197,-145.6602 3197,-183 3197,-183 3197,-183 1574.6847,-183 1574.6847,-183"/>
<polygon fill="#000000" stroke="#000000" points="1574.6848,-179.5001 1564.6847,-183 1574.6847,-186.5001 1574.6848,-179.5001"/>
</g>
<!-- Analysis2Engagement1Component -->
<g id="node2" class="node">
<title>Analysis2Engagement1Component</title>
<polygon fill="#ffffb3" stroke="#000000" points="3095.3018,-122 2880.6982,-122 2880.6982,-86 3095.3018,-86 3095.3018,-122"/>
<text text-anchor="middle" x="2988" y="-99.8" font-family="Times,serif" font-size="14.00" fill="#000000">Analysis2Engagement1Component</text>
</g>
<!-- Analysis2Engagement1Component&#45;&gt;Analysis2Module -->
<g id="edge2" class="edge">
<title>Analysis2Engagement1Component&#45;&gt;Analysis2Module</title>
<path fill="none" stroke="#000000" d="M2988,-122.1554C2988,-144.3519 2988,-179 2988,-179 2988,-179 1574.6024,-179 1574.6024,-179"/>
<polygon fill="#000000" stroke="#000000" points="1574.6025,-175.5001 1564.6024,-179 1574.6024,-182.5001 1574.6025,-175.5001"/>
</g>
<!-- Analysis2EngagementComponent -->
<g id="node3" class="node">
<title>Analysis2EngagementComponent</title>
<polygon fill="#ffffb3" stroke="#000000" points="2862.8018,-122 2655.1982,-122 2655.1982,-86 2862.8018,-86 2862.8018,-122"/>
<text text-anchor="middle" x="2759" y="-99.8" font-family="Times,serif" font-size="14.00" fill="#000000">Analysis2EngagementComponent</text>
</g>
<!-- Analysis2EngagementComponent&#45;&gt;Analysis2Module -->
<g id="edge3" class="edge">
<title>Analysis2EngagementComponent&#45;&gt;Analysis2Module</title>
<path fill="none" stroke="#000000" d="M2759,-122.2843C2759,-143.3211 2759,-175 2759,-175 2759,-175 1574.8756,-175 1574.8756,-175"/>
<polygon fill="#000000" stroke="#000000" points="1574.8756,-171.5001 1564.8756,-175 1574.8756,-178.5001 1574.8756,-171.5001"/>
</g>
<!-- Analysis2EventsComponent -->
<g id="node4" class="node">
<title>Analysis2EventsComponent</title>
<polygon fill="#ffffb3" stroke="#000000" points="2637.9269,-122 2462.0731,-122 2462.0731,-86 2637.9269,-86 2637.9269,-122"/>
<text text-anchor="middle" x="2550" y="-99.8" font-family="Times,serif" font-size="14.00" fill="#000000">Analysis2EventsComponent</text>
</g>
<!-- Analysis2EventsComponent&#45;&gt;Analysis2Module -->
<g id="edge4" class="edge">
<title>Analysis2EventsComponent&#45;&gt;Analysis2Module</title>
<path fill="none" stroke="#000000" d="M2550,-122.308C2550,-142.1455 2550,-171 2550,-171 2550,-171 1574.5619,-171 1574.5619,-171"/>
<polygon fill="#000000" stroke="#000000" points="1574.5619,-167.5001 1564.5619,-171 1574.5618,-174.5001 1574.5619,-167.5001"/>
</g>
<!-- Analysis2HeaderComponent -->
<g id="node5" class="node">
<title>Analysis2HeaderComponent</title>
<polygon fill="#ffffb3" stroke="#000000" points="2443.7352,-122 2266.2648,-122 2266.2648,-86 2443.7352,-86 2443.7352,-122"/>
<text text-anchor="middle" x="2355" y="-99.8" font-family="Times,serif" font-size="14.00" fill="#000000">Analysis2HeaderComponent</text>
</g>
<!-- Analysis2HeaderComponent&#45;&gt;Analysis2Module -->
<g id="edge5" class="edge">
<title>Analysis2HeaderComponent&#45;&gt;Analysis2Module</title>
<path fill="none" stroke="#000000" d="M2355,-122.2222C2355,-140.8285 2355,-167 2355,-167 2355,-167 1574.6198,-167 1574.6198,-167"/>
<polygon fill="#000000" stroke="#000000" points="1574.6198,-163.5001 1564.6198,-167 1574.6198,-170.5001 1574.6198,-163.5001"/>
</g>
<!-- Analysis2MessagesComponent -->
<g id="node6" class="node">
<title>Analysis2MessagesComponent</title>
<polygon fill="#ffffb3" stroke="#000000" points="2247.7464,-122 2056.2536,-122 2056.2536,-86 2247.7464,-86 2247.7464,-122"/>
<text text-anchor="middle" x="2152" y="-99.8" font-family="Times,serif" font-size="14.00" fill="#000000">Analysis2MessagesComponent</text>
</g>
<!-- Analysis2MessagesComponent&#45;&gt;Analysis2Module -->
<g id="edge6" class="edge">
<title>Analysis2MessagesComponent&#45;&gt;Analysis2Module</title>
<path fill="none" stroke="#000000" d="M2152,-122.0225C2152,-139.3734 2152,-163 2152,-163 2152,-163 1574.8071,-163 1574.8071,-163"/>
<polygon fill="#000000" stroke="#000000" points="1574.8071,-159.5001 1564.8071,-163 1574.807,-166.5001 1574.8071,-159.5001"/>
</g>
<!-- Analysis2OverviewComponent -->
<g id="node7" class="node">
<title>Analysis2OverviewComponent</title>
<polygon fill="#ffffb3" stroke="#000000" points="2038.0182,-122 1845.9818,-122 1845.9818,-86 2038.0182,-86 2038.0182,-122"/>
<text text-anchor="middle" x="1942" y="-99.8" font-family="Times,serif" font-size="14.00" fill="#000000">Analysis2OverviewComponent</text>
</g>
<!-- Analysis2OverviewComponent&#45;&gt;Analysis2Module -->
<g id="edge7" class="edge">
<title>Analysis2OverviewComponent&#45;&gt;Analysis2Module</title>
<path fill="none" stroke="#000000" d="M1942,-122.0091C1942,-138.0494 1942,-159 1942,-159 1942,-159 1574.7646,-159 1574.7646,-159"/>
<polygon fill="#000000" stroke="#000000" points="1574.7647,-155.5001 1564.7646,-159 1574.7646,-162.5001 1574.7647,-155.5001"/>
</g>
<!-- Analysis2PerformanceComponent -->
<g id="node8" class="node">
<title>Analysis2PerformanceComponent</title>
<polygon fill="#ffffb3" stroke="#000000" points="1827.3375,-122 1618.6625,-122 1618.6625,-86 1827.3375,-86 1827.3375,-122"/>
<text text-anchor="middle" x="1723" y="-99.8" font-family="Times,serif" font-size="14.00" fill="#000000">Analysis2PerformanceComponent</text>
</g>
<!-- Analysis2PerformanceComponent&#45;&gt;Analysis2Module -->
<g id="edge8" class="edge">
<title>Analysis2PerformanceComponent&#45;&gt;Analysis2Module</title>
<path fill="none" stroke="#000000" d="M1723,-122.1243C1723,-136.7832 1723,-155 1723,-155 1723,-155 1574.6003,-155 1574.6003,-155"/>
<polygon fill="#000000" stroke="#000000" points="1574.6003,-151.5001 1564.6003,-155 1574.6003,-158.5001 1574.6003,-151.5001"/>
</g>
<!-- Analysis2PlatformComponent -->
<g id="node9" class="node">
<title>Analysis2PlatformComponent</title>
<polygon fill="#ffffb3" stroke="#000000" points="1600.3145,-122 1413.6855,-122 1413.6855,-86 1600.3145,-86 1600.3145,-122"/>
<text text-anchor="middle" x="1507" y="-99.8" font-family="Times,serif" font-size="14.00" fill="#000000">Analysis2PlatformComponent</text>
</g>
<!-- Analysis2PlatformComponent&#45;&gt;Analysis2Module -->
<g id="edge9" class="edge">
<title>Analysis2PlatformComponent&#45;&gt;Analysis2Module</title>
<path fill="none" stroke="#000000" d="M1507,-122.1061C1507,-122.1061 1507,-140.991 1507,-140.991"/>
<polygon fill="#000000" stroke="#000000" points="1503.5001,-140.9909 1507,-150.991 1510.5001,-140.991 1503.5001,-140.9909"/>
</g>
<!-- Analysis2UsageComponent -->
<g id="node10" class="node">
<title>Analysis2UsageComponent</title>
<polygon fill="#ffffb3" stroke="#000000" points="1396.3047,-122 1223.6953,-122 1223.6953,-86 1396.3047,-86 1396.3047,-122"/>
<text text-anchor="middle" x="1310" y="-99.8" font-family="Times,serif" font-size="14.00" fill="#000000">Analysis2UsageComponent</text>
</g>
<!-- Analysis2UsageComponent&#45;&gt;Analysis2Module -->
<g id="edge10" class="edge">
<title>Analysis2UsageComponent&#45;&gt;Analysis2Module</title>
<path fill="none" stroke="#000000" d="M1310,-122.1243C1310,-136.7832 1310,-155 1310,-155 1310,-155 1439.2246,-155 1439.2246,-155"/>
<polygon fill="#000000" stroke="#000000" points="1439.2246,-158.5001 1449.2246,-155 1439.2246,-151.5001 1439.2246,-158.5001"/>
</g>
<!-- Analysis2VolumeComponent -->
<g id="node11" class="node">
<title>Analysis2VolumeComponent</title>
<polygon fill="#ffffb3" stroke="#000000" points="1206.4269,-122 1023.5731,-122 1023.5731,-86 1206.4269,-86 1206.4269,-122"/>
<text text-anchor="middle" x="1115" y="-99.8" font-family="Times,serif" font-size="14.00" fill="#000000">Analysis2VolumeComponent</text>
</g>
<!-- Analysis2VolumeComponent&#45;&gt;Analysis2Module -->
<g id="edge11" class="edge">
<title>Analysis2VolumeComponent&#45;&gt;Analysis2Module</title>
<path fill="none" stroke="#000000" d="M1115,-122.0091C1115,-138.0494 1115,-159 1115,-159 1115,-159 1439.159,-159 1439.159,-159"/>
<polygon fill="#000000" stroke="#000000" points="1439.1591,-162.5001 1449.159,-159 1439.159,-155.5001 1439.1591,-162.5001"/>
</g>
<!-- Analysis2WrapperComponent -->
<g id="node12" class="node">
<title>Analysis2WrapperComponent</title>
<polygon fill="#ffffb3" stroke="#000000" points="1006.2892,-122 819.7108,-122 819.7108,-86 1006.2892,-86 1006.2892,-122"/>
<text text-anchor="middle" x="913" y="-99.8" font-family="Times,serif" font-size="14.00" fill="#000000">Analysis2WrapperComponent</text>
</g>
<!-- Analysis2WrapperComponent&#45;&gt;Analysis2Module -->
<g id="edge12" class="edge">
<title>Analysis2WrapperComponent&#45;&gt;Analysis2Module</title>
<path fill="none" stroke="#000000" d="M913,-122.0225C913,-139.3734 913,-163 913,-163 913,-163 1439.2344,-163 1439.2344,-163"/>
<polygon fill="#000000" stroke="#000000" points="1439.2345,-166.5001 1449.2344,-163 1439.2344,-159.5001 1439.2345,-166.5001"/>
</g>
<!-- Analytics2SessionsComponent -->
<g id="node13" class="node">
<title>Analytics2SessionsComponent</title>
<polygon fill="#ffffb3" stroke="#000000" points="802.2063,-122 611.7937,-122 611.7937,-86 802.2063,-86 802.2063,-122"/>
<text text-anchor="middle" x="707" y="-99.8" font-family="Times,serif" font-size="14.00" fill="#000000">Analytics2SessionsComponent</text>
</g>
<!-- Analytics2SessionsComponent&#45;&gt;Analysis2Module -->
<g id="edge13" class="edge">
<title>Analytics2SessionsComponent&#45;&gt;Analysis2Module</title>
<path fill="none" stroke="#000000" d="M707,-122.2222C707,-140.8285 707,-167 707,-167 707,-167 1439.1442,-167 1439.1442,-167"/>
<polygon fill="#000000" stroke="#000000" points="1439.1442,-170.5001 1449.1442,-167 1439.1441,-163.5001 1439.1442,-170.5001"/>
</g>
<!-- Analytics2UsersComponent -->
<g id="node14" class="node">
<title>Analytics2UsersComponent</title>
<polygon fill="#ffffb3" stroke="#000000" points="593.8557,-122 420.1443,-122 420.1443,-86 593.8557,-86 593.8557,-122"/>
<text text-anchor="middle" x="507" y="-99.8" font-family="Times,serif" font-size="14.00" fill="#000000">Analytics2UsersComponent</text>
</g>
<!-- Analytics2UsersComponent&#45;&gt;Analysis2Module -->
<g id="edge14" class="edge">
<title>Analytics2UsersComponent&#45;&gt;Analysis2Module</title>
<path fill="none" stroke="#000000" d="M507,-122.308C507,-142.1455 507,-171 507,-171 507,-171 1439.2792,-171 1439.2792,-171"/>
<polygon fill="#000000" stroke="#000000" points="1439.2792,-174.5001 1449.2792,-171 1439.2792,-167.5001 1439.2792,-174.5001"/>
</g>
<!-- SharedModule -->
<g id="node16" class="node">
<title>SharedModule</title>
<polygon fill="#8dd3c7" stroke="#000000" points="396.4231,-122 393.4231,-126 372.4231,-126 369.4231,-122 297.5769,-122 297.5769,-86 396.4231,-86 396.4231,-122"/>
<text text-anchor="middle" x="347" y="-99.8" font-family="Times,serif" font-size="14.00" fill="#000000">SharedModule</text>
</g>
<!-- SharedModule&#45;&gt;Analysis2Module -->
<g id="edge15" class="edge">
<title>SharedModule&#45;&gt;Analysis2Module</title>
<path fill="none" stroke="#000000" d="M347,-122.2843C347,-143.3211 347,-175 347,-175 347,-175 1439.0785,-175 1439.0785,-175"/>
<polygon fill="#000000" stroke="#000000" points="1439.0786,-178.5001 1449.0785,-175 1439.0785,-171.5001 1439.0786,-178.5001"/>
</g>
<!-- AimService -->
<g id="node17" class="node">
<title>AimService</title>
<ellipse fill="#fdb462" stroke="#000000" cx="217" cy="-104" rx="57.3185" ry="18"/>
<text text-anchor="middle" x="217" y="-99.8" font-family="Times,serif" font-size="14.00" fill="#000000">AimService</text>
</g>
<!-- AimService&#45;&gt;Analysis2Module -->
<g id="edge16" class="edge">
<title>AimService&#45;&gt;Analysis2Module</title>
<path fill="none" stroke="#000000" d="M217,-122.1554C217,-144.3519 217,-179 217,-179 217,-179 1439.0653,-179 1439.0653,-179"/>
<polygon fill="#000000" stroke="#000000" points="1439.0653,-182.5001 1449.0653,-179 1439.0653,-175.5001 1439.0653,-182.5001"/>
</g>
<!-- DragService -->
<g id="node18" class="node">
<title>DragService</title>
<ellipse fill="#fdb462" stroke="#000000" cx="83" cy="-104" rx="59.0872" ry="18"/>
<text text-anchor="middle" x="83" y="-99.8" font-family="Times,serif" font-size="14.00" fill="#000000">DragService</text>
</g>
<!-- DragService&#45;&gt;Analysis2Module -->
<g id="edge17" class="edge">
<title>DragService&#45;&gt;Analysis2Module</title>
<path fill="none" stroke="#000000" d="M83,-122.3228C83,-145.6602 83,-183 83,-183 83,-183 1439.4138,-183 1439.4138,-183"/>
<polygon fill="#000000" stroke="#000000" points="1439.4139,-186.5001 1449.4138,-183 1439.4138,-179.5001 1439.4139,-186.5001"/>
</g>
</g>
</svg>
