<svg xmlns="http://www.w3.org/2000/svg" width="17" height="21" viewBox="0 0 17 21">
    <g fill="#4A4A4A" fill-rule="nonzero">
        <path d="M10.609.195L10.604.19a.492.492 0 0 0-.41-.145H2.531A2.495 2.495 0 0 0 .036 2.54v15.965A2.496 2.496 0 0 0 2.531 21h11.111a2.495 2.495 0 0 0 2.495-2.495V5.922a.514.514 0 0 0-.145-.354L10.609.195zm.134 1.547l3.702 3.692H12.24a1.501 1.501 0 0 1-1.497-1.497V1.742zm2.904 18.255H2.531A1.501 1.501 0 0 1 1.034 18.5V2.535a1.501 1.501 0 0 1 1.497-1.497h7.214v2.899A2.496 2.496 0 0 0 12.24 6.43h2.899v12.07a1.494 1.494 0 0 1-1.492 1.496z"/>
        <path d="M3.234 9.67h5.394a.5.5 0 0 0 0-.998H3.234a.499.499 0 1 0 0 .997zM12.944 12.443h-9.71a.499.499 0 1 0 0 .998h9.71a.5.5 0 0 0 0-.998zM12.944 16.22h-9.71a.499.499 0 1 0 0 .998h9.71a.5.5 0 0 0 0-.998z"/>
    </g>
</svg>
