<?xml version="1.0" encoding="UTF-8"?>
<svg width="56px" height="56px" viewBox="0 0 56 56" version="1.1" xmlns="http://www.w3.org/2000/svg" xmlns:xlink="http://www.w3.org/1999/xlink">
    <!-- Generator: sketchtool 52.6 (67491) - http://www.bohemiancoding.com/sketch -->
    <title>1DEF0D76-C38F-43FA-B0C1-7131270CC683</title>
    <desc>Created with sketchtool.</desc>
    <g id="Bot-configuration" stroke="none" stroke-width="1" fill="none" fill-rule="evenodd">
        <g id="Preview" transform="translate(-1302.000000, -706.000000)">
            <g id="botIcon" transform="translate(1306.000000, 708.000000)">
                <g>
                    <circle id="Oval" fill="#2B4F70" fill-rule="nonzero" cx="24" cy="24" r="24"></circle>
                    <g id="Group-24" transform="translate(6.666667, 7.333333)" fill-rule="nonzero">
                        <rect id="Rectangle" fill="#CBCBCB" x="0" y="14" width="4" height="8.66666667" rx="2"></rect>
                        <rect id="Rectangle-Copy-3" fill="#CBCBCB" x="30.6666667" y="14" width="4" height="8.66666667" rx="2"></rect>
                        <path d="M17.3333333,29.2357911 C25.7103704,29.2357911 32.6666667,29.1350328 32.6666667,20.6666667 C32.6666667,12.1983005 25.8016995,5.33333333 17.3333333,5.33333333 C8.86496717,5.33333333 2,12.1983005 2,20.6666667 C2,29.1350328 8.95629629,29.2357911 17.3333333,29.2357911 Z" id="Oval" fill="#FFFFFF"></path>
                        <path d="M10.6666667,12.6666667 L24,12.6666667 C26.209139,12.6666667 28,14.4575277 28,16.6666667 C28,19.5549009 28,22.4431351 28,25.3313693 C27.3237007,25.325522 26.6173936,23.5691565 24.842679,23.5691565 C20.1173415,23.5691565 15.3920041,23.5691565 10.6666667,23.5691565 L10.6666667,23.5691565 C8.45752767,23.5691565 6.66666667,21.7782955 6.66666667,19.5691565 L6.66666667,16.6666667 C6.66666667,14.4575277 8.45752767,12.6666667 10.6666667,12.6666667 Z" id="Rectangle" fill="#00ABD3"></path>
                        <rect id="Rectangle" fill="#FFFFFF" x="12.6666667" y="17.3333333" width="2" height="2" rx="1"></rect>
                        <rect id="Rectangle-Copy-2" fill="#FFFFFF" x="20" y="17.3333333" width="2" height="2" rx="1"></rect>
                        <path d="M18,3.88619619 L18,10 L16.6666667,10 L16.6666667,3.88619619 C15.8898718,3.61163859 15.3333333,2.87081255 15.3333333,2 C15.3333333,0.8954305 16.2287638,0 17.3333333,0 C18.4379028,0 19.3333333,0.8954305 19.3333333,2 C19.3333333,2.87081255 18.7767949,3.61163859 18,3.88619619 Z" id="Rectangle-5" fill="#FFFFFF"></path>
                    </g>
                </g>
            </g>
        </g>
    </g>
</svg>