<?xml version="1.0" encoding="UTF-8"?>
<svg width="20px" height="20px" viewBox="0 0 20 20" version="1.1" xmlns="http://www.w3.org/2000/svg" xmlns:xlink="http://www.w3.org/1999/xlink">
    <!-- Generator: sketchtool 52.6 (67491) - http://www.bohemiancoding.com/sketch -->
    <title>ED121604-BE35-401A-AB90-035CA62C6184</title>
    <desc>Created with sketchtool.</desc>
    <g id="Symbols" stroke="none" stroke-width="1" fill="none" fill-rule="evenodd">
        <g id="l2navV3/White/chats" transform="translate(-18.000000, -26.000000)" fill="#00ABD3" fill-rule="nonzero">
            <g id="l2navV2/white">
                <g id="l2nav--redesigned" transform="translate(0.000000, 16.000000)">
                    <g id="bot-config" transform="translate(18.000000, 10.000000)">
                        <g id="settings-(4)">
                            <path d="M10.5374917,9.30691757 L10.5374917,0.53670819 C10.5374917,0.238536973 10.2986065,0 10,0 C9.7013935,0 9.46250829,0.238536973 9.46250829,0.53670819 L9.46250829,9.30691757 C8.21632382,9.55738139 7.27272727,10.6586271 7.27272727,11.9785317 C7.27272727,13.2984363 8.21632382,14.399682 9.46250829,14.6501458 L9.46250829,18.5542009 C9.46250829,18.8523721 9.7013935,19.0909091 10,19.0909091 C10.2986065,19.0909091 10.5374917,18.8523721 10.5374917,18.5542009 L10.5374917,14.6501458 C11.7836762,14.399682 12.7272727,13.2984363 12.7272727,11.9785317 C12.7272727,10.6626027 11.7876576,9.55738139 10.5374917,9.30691757 Z M10,13.6284124 C9.08825481,13.6284124 8.34771068,12.8889478 8.34771068,11.9785317 C8.34771068,11.0681156 9.08825481,10.3286509 10,10.3286509 C10.9117452,10.3286509 11.6522893,11.0681156 11.6522893,11.9785317 C11.6522893,12.8889478 10.9117452,13.6284124 10,13.6284124 Z" id="Shape"></path>
                            <path d="M3.26476443,4.80652001 L3.26476443,0.53670819 C3.26476443,0.238536973 3.02587923,0 2.72727273,0 C2.42866622,0 2.18978102,0.238536973 2.18978102,0.53670819 L2.18978102,4.80652001 C0.943596549,5.05698383 0,6.15822953 0,7.47813411 C0,8.7980387 0.943596549,9.89928439 2.18978102,10.1497482 L2.18978102,18.5542009 C2.18978102,18.8523721 2.42866622,19.0909091 2.72727273,19.0909091 C3.02587923,19.0909091 3.26476443,18.8523721 3.26476443,18.5542009 L3.26476443,10.1457726 C4.51094891,9.89530877 5.45454545,8.79406308 5.45454545,7.47415849 C5.45454545,6.15425391 4.51094891,5.05698383 3.26476443,4.80652001 Z M2.72727273,9.12801484 C1.81552754,9.12801484 1.07498341,8.38855023 1.07498341,7.47813411 C1.07498341,6.567718 1.81552754,5.82825338 2.72727273,5.82825338 C3.63901792,5.82825338 4.37956204,6.567718 4.37956204,7.47813411 C4.37956204,8.38855023 3.6350365,9.12801484 2.72727273,9.12801484 Z" id="Shape"></path>
                            <path d="M17.810219,4.80551928 L17.810219,0.536596445 C17.810219,0.238487309 17.5713338,0 17.2727273,0 C16.9741208,0 16.7352356,0.238487309 16.7352356,0.536596445 L16.7352356,4.80551928 C15.4890511,5.05593095 14.5454545,6.15694736 14.5454545,7.47657714 C14.5454545,8.79620692 15.4890511,9.89722333 16.7352356,10.147635 L16.7352356,18.5543126 C16.7352356,18.8524218 16.9741208,19.0909091 17.2727273,19.0909091 C17.5713338,19.0909091 17.810219,18.8524218 17.810219,18.5543126 L17.810219,10.1436602 C19.0564035,9.89324854 20,8.79223213 20,7.47260235 C20,6.15297257 19.0603849,5.05593095 17.810219,4.80551928 Z M17.2727273,9.12611436 C16.3609821,9.12611436 15.620438,8.3868037 15.620438,7.47657714 C15.620438,6.56635058 16.3609821,5.82703992 17.2727273,5.82703992 C18.1844725,5.82703992 18.9250166,6.56635058 18.9250166,7.47657714 C18.9250166,8.3868037 18.1844725,9.12611436 17.2727273,9.12611436 Z" id="Shape"></path>
                        </g>
                    </g>
                </g>
            </g>
        </g>
    </g>
</svg>