<?xml version="1.0" encoding="UTF-8"?>
<svg width="20px" height="20px" viewBox="0 0 20 20" version="1.1" xmlns="http://www.w3.org/2000/svg" xmlns:xlink="http://www.w3.org/1999/xlink">
    <!-- Generator: sketchtool 52.6 (67491) - http://www.bohemiancoding.com/sketch -->
    <title>9B41B252-E6B1-48CA-9A4A-A55B023F5E28</title>
    <desc>Created with sketchtool.</desc>
    <g id="Symbols" stroke="none" stroke-width="1" fill="none" fill-rule="evenodd" opacity="0.846033296">
        <g id="l2navV3/White/chats" transform="translate(-18.000000, -157.000000)" fill="#00ABD3">
            <g id="l2navV2/white">
                <g id="l2nav--redesigned" transform="translate(0.000000, 16.000000)">
                    <g id="bot-logic" transform="translate(18.000000, 141.000000)">
                        <g id="flow-chart-(1)">
                            <path d="M7.49052632,4.36647173 L10.7067446,4.36647173 L9.77107212,7.48538012 L13.1045614,7.48538012 L13.1045614,9.98050682 L11.8569981,9.98050682 L11.8569981,11.2280702 L14.3521248,11.2280702 L14.3521248,7.48538012 L17.311345,7.48538012 L19.5569591,0 L12.0166862,0 L11.0810136,3.11890838 L7.49052632,3.11890838 L7.49052632,0 L0.00514619883,0 L0.00514619883,7.48538012 L7.49052632,7.48538012 L7.49052632,4.36647173 Z M12.9448733,1.24756335 L17.8802339,1.24756335 L16.3831579,6.23781676 L11.4477973,6.23781676 L12.9448733,1.24756335 Z M6.24296296,6.23781676 L1.25270955,6.23781676 L1.25270955,1.24756335 L6.24296296,1.24756335 L6.24296296,6.23781676 Z" id="Shape" fill-rule="nonzero"></path>
                            <path d="M17.4710331,12.4756335 L13.7283431,12.4756335 C12.3503314,12.4756335 11.2332164,13.5927485 11.2332164,14.9707602 L11.2332164,15.5945419 L7.43438596,15.5945419 C7.16654971,14.0272904 5.9388694,12.7996101 4.37161793,12.5317739 L4.37161793,11.2280702 L5.61918129,11.2280702 L5.61918129,9.98050682 L3.12405458,9.98050682 L3.12405458,12.5317739 C1.08549708,12.8737622 -0.289824561,14.8035478 0.0521637427,16.8421053 C0.394152047,18.8806628 2.32393762,20.2559844 4.36249513,19.9139961 C5.93676413,19.6499025 7.1702924,18.4163743 7.43438596,16.8421053 L11.2332164,16.8421053 L11.2332164,17.4658869 C11.2332164,18.8438986 12.3503314,19.9610136 13.7283431,19.9610136 L17.4710331,19.9610136 C18.8490448,19.9610136 19.9661598,18.8438986 19.9661598,17.4658869 L19.9661598,14.9707602 C19.9661598,13.5927485 18.8490448,12.4756335 17.4710331,12.4756335 Z M3.74783626,18.7134503 C2.36982456,18.7134503 1.25270955,17.5963353 1.25270955,16.2183236 C1.25270955,14.8403119 2.36982456,13.7231969 3.74783626,13.7231969 C5.12584795,13.7231969 6.24296296,14.8403119 6.24296296,16.2183236 C6.24296296,17.5963353 5.12584795,18.7134503 3.74783626,18.7134503 Z M18.7185965,17.4658869 C18.7185965,18.1548928 18.160039,18.7134503 17.4710331,18.7134503 L13.7283431,18.7134503 C13.0393372,18.7134503 12.4807797,18.1548928 12.4807797,17.4658869 L12.4807797,14.9707602 C12.4807797,14.2817544 13.0393372,13.7231969 13.7283431,13.7231969 L17.4710331,13.7231969 C18.160039,13.7231969 18.7185965,14.2817544 18.7185965,14.9707602 L18.7185965,17.4658869 Z" id="Shape" fill-rule="nonzero"></path>
                            <rect id="Rectangle" x="6.86674464" y="9.98050682" width="1.24756335" height="1.24756335"></rect>
                            <rect id="Rectangle" x="9.36187135" y="9.98050682" width="1.24756335" height="1.24756335"></rect>
                        </g>
                    </g>
                </g>
            </g>
        </g>
    </g>
</svg>