<svg xmlns="http://www.w3.org/2000/svg" width="24" height="20" viewBox="0 0 24 20">
    <g fill="#00ABD3" fill-rule="nonzero">
        <path d="M18.81 10.792V2.168A2.165 2.165 0 0 0 16.656 0H2.153A2.165 2.165 0 0 0 0 2.168v8.624c0 1.195.967 2.169 2.153 2.169h.615v2.6c0 .479.386.868.867.868.248 0 .486-.11.653-.303l2.72-3.17h9.653c1.181.005 2.149-.97 2.149-2.164zm-12.073.993a.584.584 0 0 0-.443.202L3.93 14.735v-2.364a.588.588 0 0 0-.586-.59H2.153a.992.992 0 0 1-.986-.993v-8.62c0-.547.443-.993.986-.993h14.503c.543 0 .986.446.986.993v8.624a.992.992 0 0 1-.986.993h-9.92z"/>
        <path d="M19.025 19.698a.856.856 0 0 0 .958.244.86.86 0 0 0 .566-.815v-2.599h.618a2.17 2.17 0 0 0 2.166-2.167V5.739a2.17 2.17 0 0 0-2.166-2.168.588.588 0 1 0 0 1.175c.546 0 .992.446.992.993v8.622a.994.994 0 0 1-.992.992h-1.203a.59.59 0 0 0-.59.59v2.364l-2.377-2.747a.582.582 0 0 0-.446-.202H7.732a.59.59 0 1 0 0 1.18h8.551l2.742 3.16z"/>
    </g>
</svg>
