<svg xmlns="http://www.w3.org/2000/svg" width="22" height="22" viewBox="0 0 22 22">
    <g fill="#00ABD3" fill-rule="nonzero">
        <path d="M10.999 0C4.924 0 0 4.924 0 10.999c0 6.074 4.924 10.999 10.999 10.999 6.074 0 10.999-4.925 10.999-11C21.99 4.929 17.07.009 10.998 0zm.472 21.03v-1.934a.472.472 0 0 0-.944 0v1.934a10.05 10.05 0 0 1-9.56-9.56h1.935a.472.472 0 0 0 0-.943H.967a10.05 10.05 0 0 1 9.56-9.56v1.935a.472.472 0 0 0 .944 0V.967a10.05 10.05 0 0 1 9.56 9.56h-1.935a.472.472 0 0 0 0 .944h1.939a10.05 10.05 0 0 1-9.564 9.56z"/>
        <path d="M15.977 15.387l-4.506-4.582v-4.76a.472.472 0 0 0-.944 0v4.954c0 .124.05.242.137.33l4.638 4.719a.472.472 0 1 0 .675-.661z"/>
    </g>
</svg>
