<?xml version="1.0" encoding="UTF-8"?>
<svg width="20px" height="23px" viewBox="0 0 20 23" version="1.1" xmlns="http://www.w3.org/2000/svg" xmlns:xlink="http://www.w3.org/1999/xlink">
    <!-- Generator: sketchtool 52.6 (67491) - http://www.bohemiancoding.com/sketch -->
    <title>871805AD-1C06-48E9-97D7-73CDC4DA8594</title>
    <desc>Created with sketchtool.</desc>
    <g id="Symbols" stroke="none" stroke-width="1" fill="none" fill-rule="evenodd">
        <g id="l2navV3/White/chats" transform="translate(-17.000000, -90.000000)" fill="#00ABD3">
            <g id="l2navV2/white">
                <g id="l2nav--redesigned" transform="translate(0.000000, 16.000000)">
                    <g id="funnel-copy" transform="translate(17.000000, 74.000000)">
                        <g id="funnel">
                            <polygon id="Path" points="7.2675 13.6265625 8.1759375 13.6265625 8.1759375 14.4783333 7.2675 14.4783333"></polygon>
                            <polygon id="Path" points="9.084375 13.6265625 9.9928125 13.6265625 9.9928125 14.4783333 9.084375 14.4783333"></polygon>
                            <polygon id="Path" points="10.90125 13.6265625 11.8096875 13.6265625 11.8096875 14.4783333 10.90125 14.4783333"></polygon>
                            <path d="M0,8.1759375 L0,11.475 L6.81328125,18.2885026 L6.81328125,22.6542708 L12.2072396,22.6542708 L12.2072396,18.2885026 L19.0205208,11.475 L19.0205208,8.1759375 L0,8.1759375 Z M18.16875,9.02770833 L18.16875,10.90125 L0.851770833,10.90125 L0.851770833,9.02770833 L18.16875,9.02770833 Z M11.6334896,17.7145312 L8.63015625,17.7145312 L8.63015625,18.5663021 L11.3554688,18.5663021 L11.3554688,21.8025 L7.66505208,21.8025 L7.66505208,17.9356641 L1.4821875,11.7530208 L17.595,11.7530208 L11.6334896,17.7145312 Z" id="Shape" fill-rule="nonzero"></path>
                            <path d="M3.12286458,6.30239583 L4.65950518,6.30239583 C4.60151042,6.58617185 4.57052083,6.89053384 4.57052083,7.21083333 L5.42229167,7.21083333 C5.42229167,4.94084634 7.26882815,3.09430991 9.53859375,3.09430991 C11.8083593,3.09430991 13.6548958,4.94084634 13.6548958,7.21083333 L14.5066667,7.21083333 C14.5066667,6.89053384 14.4758984,6.58617185 14.4176823,6.30239583 L15.8976563,6.30239583 L15.8976563,7.21083333 L16.7494271,7.21083333 L16.7494271,5.450625 L14.1735287,5.450625 C14.1440885,5.33707033 14.113099,5.28638018 14.0803385,5.21266926 L16.1559766,3.12994792 L13.6265625,0.596992173 L11.5367578,2.67085935 C11.4630468,2.63809899 11.4123568,2.60533851 11.2988021,2.57589842 L11.2988021,0 L7.72171875,0 L7.72171875,2.57589842 C7.66505208,2.60511717 7.58580732,2.63632815 7.51209634,2.66908851 L5.44354167,0.593450507 L2.91789065,3.12286458 L4.99507815,5.21266926 C4.96231768,5.28638018 4.93309899,5.33707033 4.90388018,5.450625 L2.27109375,5.450625 L2.27109375,7.21083333 L3.12286458,7.21083333 L3.12286458,6.30239583 Z M13.6265625,1.79783851 L14.9515885,3.12286458 L13.6498047,4.42442708 C13.2958593,3.90380208 12.845625,3.45356768 12.325,3.09962241 L13.6265625,1.79783851 Z M8.57348958,0.851770833 L10.4470313,0.851770833 L10.4470313,2.33174482 C10.1632552,2.27352866 9.83055991,2.24276042 9.51026042,2.24276042 C9.18996092,2.24276042 8.91415366,2.27352866 8.57348958,2.33174482 L8.57348958,0.851770833 Z M4.12582033,3.12286458 L5.450625,1.79783851 L6.75240884,3.09962241 C6.23178384,3.45356768 5.78154949,3.90380208 5.42738283,4.42442708 L4.12582033,3.12286458 Z" id="Shape" fill-rule="nonzero"></path>
                            <path d="M11.3838021,7.21083333 L12.2355729,7.21083333 C12.2355729,5.72377601 11.025651,4.51385417 9.53859375,4.51385417 C8.05153649,4.51385417 6.84161458,5.72377601 6.84161458,7.21083333 L7.69338542,7.21083333 C7.69338542,6.19326824 8.52102866,5.36540366 9.53859375,5.36540366 C10.5561588,5.36540366 11.3838021,6.19326824 11.3838021,7.21083333 Z" id="Path"></path>
                            <path d="M9.084375,7.21083333 L9.9928125,7.21083333 C9.9928125,6.95981768 9.78938801,6.75661458 9.53859375,6.75661458 C9.28779949,6.75661458 9.084375,6.95981768 9.084375,7.21083333 Z" id="Path"></path>
                        </g>
                    </g>
                </g>
            </g>
        </g>
    </g>
</svg>