<svg xmlns="http://www.w3.org/2000/svg" width="21" height="21" viewBox="0 0 21 21">
    <g fill="#00ABD3" fill-rule="nonzero">
        <path d="M10.5 3.484c-3.18 0-5.477 2.37-5.841 4.916-.228 1.697.321 3.351 1.461 4.603a5.824 5.824 0 0 1 1.551 3.977l-.004 2.323c0 .938.776 1.697 1.736 1.697h2.237c.96 0 1.736-.759 1.736-1.697l.004-2.323c0-1.517.501-2.906 1.461-3.887a5.521 5.521 0 0 0 1.599-3.887c-.004-3.176-2.7-5.722-5.94-5.722zm2.006 15.819a.811.811 0 0 1-.823.806H9.446a.809.809 0 0 1-.823-.806v-1.029H12.5v1.029h.005zm1.697-6.836c-1.14 1.162-1.736 2.769-1.736 4.513v.403H8.59v-.403c0-1.654-.686-3.304-1.826-4.556C5.76 11.353 5.349 9.97 5.529 8.537 5.85 6.394 7.843 4.38 10.504 4.38c2.786 0 5.023 2.19 5.023 4.826a4.67 4.67 0 0 1-1.324 3.261zM10.041 0h1v2.143h-1zM16.033 4.131l.638.639 1.565-1.504-.643-.639zM18.763 9.651H21v1h-2.237zM0 9.651h2.237v1H0zM3.39 2.623l-.643.638 1.564 1.505.639-.639z"/>
    </g>
</svg>
