<svg xmlns="http://www.w3.org/2000/svg" width="20" height="20" viewBox="0 0 20 20">
    <g fill="#00ABD3" fill-rule="evenodd" opacity=".846">
        <path fill-rule="nonzero" d="M7.49 4.366h3.217l-.936 3.12h3.334V9.98h-1.248v1.247h2.495V7.485h2.96L19.556 0h-7.54l-.936 3.119h-3.59V0H.005v7.485h7.486V4.366zm5.455-3.118h4.935l-1.497 4.99h-4.935l1.497-4.99zm-6.702 4.99h-4.99v-4.99h4.99v4.99z"/>
        <path fill-rule="nonzero" d="M17.471 12.476h-3.743a2.495 2.495 0 0 0-2.495 2.495v.624H7.434a3.748 3.748 0 0 0-3.062-3.063v-1.304h1.247V9.981H3.124v2.55a3.743 3.743 0 1 0 4.31 4.311h3.8v.624a2.495 2.495 0 0 0 2.494 2.495h3.743a2.495 2.495 0 0 0 2.495-2.495V14.97a2.495 2.495 0 0 0-2.495-2.495zM3.748 18.713a2.495 2.495 0 1 1 0-4.99 2.495 2.495 0 0 1 0 4.99zm14.97-1.247c0 .689-.558 1.247-1.247 1.247h-3.743a1.248 1.248 0 0 1-1.247-1.247V14.97c0-.69.558-1.248 1.247-1.248h3.743c.689 0 1.248.559 1.248 1.248v2.495z"/>
        <path d="M6.867 9.981h1.248v1.248H6.867zM9.362 9.981h1.248v1.248H9.362z"/>
    </g>
</svg>
