<?xml version="1.0" encoding="UTF-8"?>
<svg width="512px" height="512px" viewBox="0 0 512 512" version="1.1" xmlns="http://www.w3.org/2000/svg" xmlns:xlink="http://www.w3.org/1999/xlink">
    <!-- Generator: Sketch 59.1 (86144) - https://sketch.com -->
    <title>Model icon</title>
    <desc>Created with Sketch.</desc>
    <g id="Model-icon" stroke="none" stroke-width="1" fill="none" fill-rule="evenodd">
        <g id="atom" transform="translate(27.000000, 32.000000)" fill="#00ABD3" fill-rule="nonzero">
            <path d="M401.253906,8.054688 C380.007812,8.03125 360.519531,19.839844 350.699219,38.675781 C340.882812,57.515625 342.367188,80.253906 354.554688,97.65625 L280.152344,172.054688 C264.285156,160.332031 244.15625,155.964844 224.851562,160.054688 L209.453125,109.957031 C236.707031,99.015625 251.183594,69.15625 242.886719,40.984375 C234.59375,12.8125 206.246094,-4.4375 177.414062,1.136719 C148.578125,6.714844 128.707031,33.292969 131.515625,62.523438 C134.320312,91.757812 158.886719,114.066406 188.253906,114.054688 L189.753906,114.054688 L206.054688,167.15625 C187.476562,177.457031 174.703125,195.765625 171.453125,216.753906 L112.453125,221.554688 C103.386719,193.386719 74.300781,176.8125 45.445312,183.371094 C16.589844,189.929688 -2.476562,217.445312 1.523438,246.765625 C5.523438,276.085938 31.257812,297.496094 60.816406,296.085938 C90.375,294.679688 113.960938,270.921875 115.152344,241.355469 L171.351562,236.855469 C176.199219,270.582031 205.082031,295.628906 239.152344,295.65625 C249.59375,295.675781 259.894531,293.28125 269.253906,288.65625 L309.554688,351.15625 C291.085938,370.855469 288.988281,400.816406 304.535156,422.894531 C320.078125,444.972656 348.992188,453.101562 373.765625,442.355469 C398.535156,431.613281 412.359375,404.949219 406.859375,378.511719 C401.363281,352.074219 378.054688,333.132812 351.054688,333.15625 C342.203125,333.160156 333.476562,335.214844 325.554688,339.15625 L285.652344,277.355469 C311.257812,253.566406 314.875,214.328125 294.054688,186.253906 L368.453125,111.855469 C377.992188,118.578125 389.382812,122.179688 401.054688,122.15625 C432.5625,122.210938 458.148438,96.714844 458.203213,65.207031 C458.257812,33.699219 432.761719,8.109375 401.253906,8.054688 L401.253906,8.054688 Z M151.253906,57.054688 C151.253906,36.621094 167.820312,20.054688 188.253906,20.054688 C208.6875,20.054688 225.253906,36.621094 225.253906,57.054688 C225.253906,77.492188 208.6875,94.054688 188.253906,94.054688 C167.828125,94.03125 151.277344,77.480469 151.253906,57.054688 Z M388.253906,390.054688 C388.253906,410.492188 371.6875,427.054688 351.253906,427.054688 C330.820312,427.054688 314.253906,410.492188 314.253906,390.054688 C314.253906,369.621094 330.820312,353.054688 351.253906,353.054688 C371.679688,353.078125 388.230469,369.632812 388.253906,390.054688 Z M58.253906,276.054688 C37.820312,276.054688 21.253906,259.492188 21.253906,239.054688 C21.253906,218.621094 37.820312,202.054688 58.253906,202.054688 C78.6875,202.054688 95.253906,218.621094 95.253906,239.054688 C95.230469,259.480469 78.679688,276.03125 58.253906,276.054688 Z M266.453125,267.253906 L265.054688,268.15625 C242.695312,281.988281 213.363281,275.210938 199.339844,252.972656 C185.3125,230.730469 191.835938,201.34375 213.953125,187.128906 C236.070312,172.910156 265.511719,179.175781 279.921875,201.167969 C294.332031,223.160156 288.320312,252.65625 266.453125,267.253906 L266.453125,267.253906 Z M401.253906,102.054688 C380.820312,102.054688 364.253906,85.492188 364.253906,65.054688 C364.253906,44.621094 380.820312,28.054688 401.253906,28.054688 C421.6875,28.054688 438.253906,44.621094 438.253906,65.054688 C438.230469,85.480469 421.679688,102.03125 401.253906,102.054688 Z" id="Shape"></path>
        </g>
    </g>
</svg>