<?xml version="1.0" encoding="UTF-8"?>
<svg width="512px" height="512px" viewBox="0 0 512 512" version="1.1" xmlns="http://www.w3.org/2000/svg" xmlns:xlink="http://www.w3.org/1999/xlink">
    <!-- Generator: Sketch 59.1 (86144) - https://sketch.com -->
    <title>Replies icon</title>
    <desc>Created with Sketch.</desc>
    <g id="Replies-icon" stroke="none" stroke-width="1" fill="none" fill-rule="evenodd">
        <g id="Group" transform="translate(16.000000, 40.000000)" fill="#00ABD3">
            <g id="conversation" fill-rule="nonzero">
                <path d="M408,0 L72,0 C32.253906,0.0429688 0.0429688,32.253906 0,72 L0,280 C0.0429688,319.746094 32.253906,351.957031 72,352 L94.238281,352 L80.160156,422.398438 C79.554688,425.425781 80.746094,428.527344 83.214844,430.375 C85.683594,432.222656 88.996094,432.484375 91.726562,431.046875 L241.976562,352 L408,352 C447.746094,351.957031 479.957031,319.746094 480,280 L480,72 C479.957031,32.253906 447.746094,0.0429688 408,0 Z M464,280 C463.964844,310.914062 438.914062,335.964844 408,336 L240,336 C238.699219,336 237.421875,336.316406 236.273438,336.921875 L99.144531,409.097656 L111.839844,345.601562 C112.320312,343.246094 111.71875,340.800781 110.199219,338.941406 C108.679688,337.078125 106.402344,336 104,336 L72,336 C41.085938,335.964844 16.035156,310.914062 16,280 L16,72 C16.035156,41.085938 41.085938,16.035156 72,16 L408,16 C438.914062,16.035156 463.964844,41.085938 464,72 L464,280 Z" id="Shape"></path>
            </g>
            <rect id="Rectangle" x="155" y="123" width="18" height="114" rx="8"></rect>
            <rect id="Rectangle-Copy-2" x="231" y="121" width="18" height="114" rx="8"></rect>
            <rect id="Rectangle-Copy-4" x="307" y="121" width="18" height="114" rx="8"></rect>
            <rect id="Rectangle-Copy" x="193" y="91" width="18" height="176" rx="8"></rect>
            <rect id="Rectangle-Copy-3" x="269" y="91" width="18" height="176" rx="8"></rect>
        </g>
    </g>
</svg>