<svg xmlns="http://www.w3.org/2000/svg" width="22" height="22" viewBox="0 0 22 22">
    <g fill="none" fill-rule="evenodd">
        <path fill="#00ABD3" fill-rule="nonzero" d="M21.528 7.79a.472.472 0 1 0 0-.944h-3.305v-.6a2.459 2.459 0 0 0-2.468-2.469h-.6V.472a.472.472 0 1 0-.945 0v3.305h-2.738V.472a.472.472 0 1 0-.944 0v3.305H7.79V.472a.472.472 0 1 0-.944 0v3.305h-.6a2.46 2.46 0 0 0-2.469 2.468v.6H.472a.472.472 0 1 0 0 .945h3.305v2.738H.472a.472.472 0 1 0 0 .944h3.305v2.738H.472a.472.472 0 1 0 0 .944h3.305v.6a2.46 2.46 0 0 0 2.468 2.469h.6v3.305a.472.472 0 1 0 .945 0v-3.305h2.738v3.305a.472.472 0 1 0 .944 0v-3.305h2.738v3.305a.472.472 0 1 0 .944 0v-3.305h.6a2.459 2.459 0 0 0 2.469-2.468v-.6h3.305a.472.472 0 1 0 0-.945h-3.305v-2.738h3.305a.472.472 0 1 0 0-.944h-3.305V7.79h3.305zm-4.202 7.995c0 .85-.69 1.54-1.541 1.54H6.262a1.54 1.54 0 0 1-1.54-1.54V6.262c0-.85.69-1.54 1.54-1.54h9.523c.85 0 1.54.69 1.54 1.54v9.523z"/>
        <path d="M15.583 6.96c0-.3-.242-.543-.542-.543H6.959c-.3 0-.542.242-.542.542v8.082c0 .3.242.542.542.542h8.082c.3 0 .542-.242.542-.542V6.959zm-.916 7.707H7.333V7.333h7.334v7.334z"/>
    </g>
</svg>
